<?xml version="1.0" encoding="UTF-8" standalone="no"?>
<!-- Created with Inkscape (http://www.inkscape.org/) -->

<svg
   xmlns:dc="http://purl.org/dc/elements/1.1/"
   xmlns:cc="http://creativecommons.org/ns#"
   xmlns:rdf="http://www.w3.org/1999/02/22-rdf-syntax-ns#"
   xmlns:svg="http://www.w3.org/2000/svg"
   xmlns="http://www.w3.org/2000/svg"
   xmlns:sodipodi="http://sodipodi.sourceforge.net/DTD/sodipodi-0.dtd"
   xmlns:inkscape="http://www.inkscape.org/namespaces/inkscape"
   width="16.910046mm"
   height="16.933332mm"
   viewBox="0 0 16.910046 16.933332"
   version="1.1"
   id="svg8777"
   inkscape:version="0.92.4 (5da689c313, 2019-01-14)"
   sodipodi:docname="blas-icon.comp.svg">
  <defs
     id="defs8771" />
  <sodipodi:namedview
     id="base"
     pagecolor="#ffffff"
     bordercolor="#666666"
     borderopacity="1.0"
     inkscape:pageopacity="0.0"
     inkscape:pageshadow="2"
     inkscape:zoom="1.979899"
     inkscape:cx="131.32526"
     inkscape:cy="38.330825"
     inkscape:document-units="mm"
     inkscape:current-layer="layer1"
     showgrid="false"
     inkscape:window-width="1083"
     inkscape:window-height="459"
     inkscape:window-x="114"
     inkscape:window-y="114"
     inkscape:window-maximized="0"
     fit-margin-top="0"
     fit-margin-left="0"
     fit-margin-right="0"
     fit-margin-bottom="0" />
  <metadata
     id="metadata8774">
    <rdf:RDF>
      <cc:Work
         rdf:about="">
        <dc:format>image/svg+xml</dc:format>
        <dc:type
           rdf:resource="http://purl.org/dc/dcmitype/StillImage" />
        <dc:title></dc:title>
      </cc:Work>
    </rdf:RDF>
  </metadata>
  <g
     inkscape:label="Layer 1"
     inkscape:groupmode="layer"
     id="layer1"
     transform="translate(-70.253525,-144.97405)">
    <g
       id="g9532"
       inkscape:export-xdpi="96"
       inkscape:export-ydpi="96">
      <g
         id="g8694"
         transform="matrix(0.2589912,0,0,0.2589912,108.69987,160.16584)">
        <g
           id="g8564"
           transform="matrix(0.35277777,0,0,-0.35277777,-104.86979,-18.364675)">
          <path
             d="m 0,0 c -6.358,-8.656 -17.444,-20.07 -24.162,-25.905 -6.738,-5.846 -18.757,-13.066 -23.105,-14.943 -4.328,-1.877 -11.035,-3.691 -13.722,-5.702 -0.985,-0.738 -2.923,-1.846 -5.004,-2.81 -0.934,-0.44 -1.887,-0.84 -2.81,-1.168 -2.636,-0.944 -4.923,-1.262 -5.149,0.194 -0.82,5.344 3.949,9.271 4.256,14.327 0.308,5.046 0.113,14.932 1.898,20.274 1.763,5.354 4.543,16.091 5.179,19.886 0.645,3.794 3.743,13.189 7.23,18.121 3.486,4.933 9.127,15.075 15.321,17.968 6.215,2.892 17.885,10.686 19.824,15.055 1.835,4.153 8.881,14.931 18.039,15.085 0.533,0.01 1.066,-0.011 1.61,-0.072 7.405,-0.892 10.378,-1.907 11.691,-4.594 0.441,-0.913 0.697,-2.01 0.872,-3.374 C 12.644,56.968 4.553,40.016 5.722,33.206 6.881,26.376 6.358,8.665 0,0 Z m 17.178,60.322 c -0.246,9.763 -14.194,12.9 -21.711,13.393 -8.83,0.585 -15.803,-10.235 -19.619,-15.547 -3.784,-5.323 -14.573,-9.179 -18.254,-11.824 -3.692,-2.636 -13.353,-9.702 -14.347,-12.533 -0.995,-2.84 -7.712,-11.639 -7.794,-16.1 -0.052,-4.461 -5.918,-12.605 -6.041,-15.692 -0.133,-3.096 -1.774,-12.562 -3.046,-15.495 -1.271,-2.913 -2.451,-6.563 -2.389,-9.292 0.051,-2.738 -0.041,-6.932 -0.4,-9.373 -0.359,-2.44 -0.81,-6.625 -1.918,-10.809 -1.118,-4.163 1.21,-8.471 -0.523,-10.809 -1.713,-2.339 -2.01,-3.754 -0.677,-4.645 1.344,-0.893 6.492,1.21 9.25,3.568 2.759,2.369 22.204,8.286 24.859,9.641 2.657,1.353 11.292,5.866 14.379,9.291 3.097,3.435 18.572,13.168 22.684,16.059 4.123,2.893 7.999,9.969 13.271,16.717 5.271,6.748 9.763,18.911 7.097,29.925 -2.667,11.014 5.445,23.782 5.179,33.525"
             style="fill:#2c1809;fill-opacity:1;fill-rule:nonzero;stroke:none"
             id="path8562"
             inkscape:connector-curvature="0" />
        </g>
        <g
           id="g8568"
           transform="matrix(0.35277777,0,0,-0.35277777,-103.95821,-41.323452)">
          <path
             d="M 0,0 C -0.215,-0.431 -0.933,-0.082 -1.805,0.369 -2.687,0.81 -3.384,1.179 -3.169,1.62 -2.943,2.061 -2.051,2.051 -1.179,1.6 -0.297,1.159 0.226,0.441 0,0 Z m -1.723,3.425 c -4.748,1.17 -8.737,-1.466 -8.368,-5.004 0.194,-1.887 2.246,-0.277 5.394,-1.17 3.149,-0.892 3.723,-2.871 5.641,-4.235 1.928,-1.364 2.44,-0.144 3.189,2.943 0.759,3.087 -1.097,6.297 -5.856,7.466"
             style="fill:#2c1809;fill-opacity:1;fill-rule:nonzero;stroke:none"
             id="path8566"
             inkscape:connector-curvature="0" />
        </g>
        <g
           id="g8572"
           transform="matrix(0.35277777,0,0,-0.35277777,-105.57182,-38.193961)">
          <path
             d="M 0,0 C -0.256,-0.513 -1.087,-0.102 -2.092,0.41 -3.097,0.933 -3.917,1.354 -3.651,1.867 -3.394,2.369 -2.369,2.359 -1.364,1.846 -0.348,1.323 0.257,0.502 0,0 Z m 0.349,2.851 c -3.672,2.051 -7.261,1.713 -8.44,1.026 -1.19,-0.697 -3.753,-3.487 -2.759,-5.22 0.8,-1.364 3.989,-0.841 6.174,-1.805 2.194,-0.964 4.758,-3.805 6.645,-4.769 1.887,-0.974 2.451,1.415 2.943,3.62 C 5.415,-2.082 4.02,0.8 0.349,2.851"
             style="fill:#2c1809;fill-opacity:1;fill-rule:nonzero;stroke:none"
             id="path8570"
             inkscape:connector-curvature="0" />
        </g>
        <g
           id="g8576"
           transform="matrix(0.35277777,0,0,-0.35277777,-107.41332,-34.934294)">
          <path
             d="M 0,0 C -0.307,-0.605 -1.302,-0.113 -2.533,0.513 -3.753,1.138 -4.738,1.661 -4.43,2.267 -4.112,2.882 -2.871,2.872 -1.641,2.246 -0.42,1.621 0.318,0.615 0,0 Z M 5.384,-1.272 C 3.59,2.103 -3.056,6.317 -7.24,5.415 c -4.195,-0.892 -5.405,-3.302 -5.138,-4.728 0.4,-2.154 5.486,-2.615 8.061,-3.989 2.553,-1.374 5.435,-4.164 6.994,-4.133 1.549,0.041 4.512,2.799 2.707,6.163"
             style="fill:#2c1809;fill-opacity:1;fill-rule:nonzero;stroke:none"
             id="path8574"
             inkscape:connector-curvature="0" />
        </g>
        <g
           id="g8580"
           transform="matrix(0.35277777,0,0,-0.35277777,-99.066951,-34.652072)">
          <path
             d="m 0,0 c -1.897,-6.42 -3.866,-13.065 -2.461,-18.891 2.82,-11.649 -1.723,-24.305 -7.466,-31.679 -1.753,-2.224 -3.333,-4.491 -4.861,-6.685 -3.128,-4.451 -5.825,-8.317 -8.85,-10.441 -1.098,-0.779 -3.025,-2.041 -5.241,-3.506 -5.61,-3.693 -14.993,-9.908 -17.106,-12.245 -3.046,-3.375 -10.676,-7.548 -14.972,-9.744 -1.026,-0.522 -3.6,-1.424 -8.051,-2.973 -5.22,-1.795 -14.922,-5.138 -16.409,-6.41 -2.697,-2.307 -7.701,-4.605 -10.337,-4.215 -0.523,0.072 -0.974,0.257 -1.374,0.503 -1.169,0.79 -1.569,1.784 -1.692,2.492 -0.329,1.825 2.051,6.584 1.251,8.994 -0.615,1.784 -0.175,4.276 0.441,6.624 0.882,3.313 0.789,6.215 1.138,8.636 0.062,0.553 0.134,1.036 0.195,1.487 0.328,2.204 1.313,6.245 1.261,9.065 -0.071,3.539 1.58,7.887 2.575,10.164 1.128,2.584 2.748,11.783 2.871,14.756 0.072,1.734 1.108,3.888 2.8,7.241 1.425,2.851 3.22,6.42 3.251,8.399 0.051,3.487 2.963,8.276 5.538,12.512 1.025,1.702 2.102,3.456 2.368,4.225 0.328,0.923 1.293,3.692 15.076,13.527 1.312,0.943 3.282,1.948 5.548,3.107 4.441,2.256 9.968,5.046 12.245,8.246 l 0.81,1.128 c 4.184,5.948 11.209,15.895 20.603,15.28 1.169,-0.072 2.39,-0.215 3.61,-0.4 C -11.322,28.336 2.503,25.146 2.79,14.204 2.903,9.783 1.487,5.025 0,0 Z m 11.876,9.014 c 0.421,11.271 -9.702,14.82 -13.947,17.691 -4.246,2.861 -13.414,3.426 -16.716,6.235 -3.303,2.821 -7.846,4.482 -14.583,1.477 -3.662,-1.631 -5.323,-3.569 -10.266,-10.758 -4.933,-7.168 -13.855,-10.522 -22.521,-14.962 -8.687,-4.431 -15.804,-13.24 -21.157,-20.624 -5.353,-7.374 -9.435,-22.839 -9.67,-30.704 -0.247,-7.866 -2.965,-19.916 -5.59,-30.756 -2.625,-10.84 -0.974,-19.722 -1.364,-25.967 -0.4,-6.246 -5.804,-14.173 -0.502,-16.941 5.301,-2.77 11.465,0.697 20.726,5.004 10.081,4.677 15.629,4.369 23.956,5.815 8.338,1.456 12.512,7.578 19.168,9.383 6.645,1.785 17.054,10.912 21.721,14.502 4.676,3.599 10.04,11.936 15.003,17.557 4.974,5.629 7.353,13.054 9.661,20.879 2.317,7.826 -1.58,19.281 -0.769,26.09 0.799,6.82 6.43,14.809 6.85,26.079"
             style="fill:#2c1809;fill-opacity:1;fill-rule:nonzero;stroke:none"
             id="path8578"
             inkscape:connector-curvature="0" />
        </g>
        <g
           id="g8584"
           transform="matrix(0.35277777,0,0,-0.35277777,-96.689931,-52.63633)">
          <path
             d="m 0,0 c -0.369,-0.082 -0.902,-0.492 -1.559,-1.117 -2.02,-1.959 -5.087,-6.082 -6.953,-9.199 -0.882,-1.467 -1.497,-2.718 -1.62,-3.405 -0.216,-1.221 -0.185,-2.831 -0.349,-4.123 -0.185,-1.466 -0.615,-2.522 -1.938,-2.102 -2.472,0.79 -11.558,2.943 -10.922,4.44 0.215,0.493 0.462,1.067 0.738,1.692 0.872,1.939 2.01,4.451 2.995,6.892 0.492,1.19 0.943,2.379 1.313,3.466 0.861,2.564 2.676,3.938 4.378,5.436 0.975,0.861 1.929,1.763 2.636,2.953 1.948,3.262 4.195,6.215 11.897,3.354 C 8.317,5.436 2.061,0.472 0,0"
             style="fill:#2c1809;fill-opacity:1;fill-rule:nonzero;stroke:none"
             id="path8582"
             inkscape:connector-curvature="0" />
        </g>
        <g
           id="g8588"
           transform="matrix(0.35277777,0,0,-0.35277777,-109.60195,-31.338078)">
          <path
             d="M 0,0 C -0.39,-0.759 -1.621,-0.143 -3.138,0.626 -4.656,1.405 -5.877,2.041 -5.487,2.8 -5.097,3.559 -3.559,3.549 -2.041,2.769 -0.533,2 0.379,0.759 0,0 Z M 8.696,-2.42 C 7.917,0.677 -3.333,6.082 -7.764,6.8 c -4.43,0.707 -6.142,0.369 -7.937,-2.862 -0.595,-1.076 -1.744,-5.251 2.8,-6.502 4.553,-1.251 12.172,-5.865 13.957,-7.815 1.794,-1.937 3.302,-2.224 5.148,-0.738 1.826,1.478 3.272,5.6 2.492,8.697"
             style="fill:#2c1809;fill-opacity:1;fill-rule:nonzero;stroke:none"
             id="path8586"
             inkscape:connector-curvature="0" />
        </g>
        <g
           id="g8592"
           transform="matrix(0.35277777,0,0,-0.35277777,-112.32998,-26.341686)">
          <path
             d="m 0,0 c -0.533,-0.891 -2,-0.03 -3.794,1.046 -1.795,1.077 -3.231,1.98 -2.697,2.872 0.543,0.893 2.43,0.748 4.225,-0.339 C -0.472,2.503 0.543,0.903 0,0 Z M 3.63,2.841 C -4.02,8.369 -11.127,10.615 -15.342,9.589 -19.557,8.564 -21.936,2.267 -18.941,-0.85 -6.933,-5.548 0.297,-14.552 2.81,-15.782 c 2.492,-1.221 6.379,3.559 7.384,6.871 1.025,3.313 1.087,6.225 -6.564,11.752"
             style="fill:#2c1809;fill-opacity:1;fill-rule:nonzero;stroke:none"
             id="path8590"
             inkscape:connector-curvature="0" />
        </g>
        <g
           id="g8596"
           transform="matrix(0.35277777,0,0,-0.35277777,-116.28427,-21.208064)">
          <path
             d="M 0,0 C -0.625,-0.84 -1.999,0.144 -3.692,1.384 -5.384,2.616 -6.738,3.641 -6.122,4.482 -5.507,5.323 -3.63,5.005 -1.949,3.774 -0.256,2.534 0.615,0.851 0,0 Z M 10.419,-3.333 C 8.123,1.63 -5.497,10.091 -11.024,11.25 c -5.538,1.149 -10.174,-8.798 -7.415,-9.896 9.722,-3.825 16.46,-10.348 18.316,-13.383 1.877,-3.036 5.046,-2.287 7.64,-1.118 2.585,1.169 5.2,4.851 2.902,9.814"
             style="fill:#2c1809;fill-opacity:1;fill-rule:nonzero;stroke:none"
             id="path8594"
             inkscape:connector-curvature="0" />
        </g>
        <g
           id="g8600"
           transform="matrix(0.35277777,0,0,-0.35277777,-119.35202,-17.083739)">
          <path
             d="m 0,0 c -0.564,-0.77 -1.826,0.134 -3.374,1.262 -1.539,1.128 -2.79,2.061 -2.215,2.83 0.564,0.779 2.277,0.482 3.815,-0.647 C -0.226,2.317 0.564,0.77 0,0 Z M 9.178,-4.225 C 7.25,1.23 -4.656,7.896 -9.835,9.732 c -5.169,1.836 -12.214,-8.707 -7.138,-11.168 1.149,-0.553 14.881,-4.963 18.788,-8.901 3.897,-3.949 9.281,0.646 7.363,6.112"
             style="fill:#2c1809;fill-opacity:1;fill-rule:nonzero;stroke:none"
             id="path8598"
             inkscape:connector-curvature="0" />
        </g>
        <g
           id="g8604"
           transform="matrix(0.35277777,0,0,-0.35277777,-121.70011,-12.883567)">
          <path
             d="M 0,0 C -0.379,-0.872 -1.816,-0.278 -3.569,0.492 -5.323,1.251 -6.738,1.886 -6.358,2.768 -5.979,3.64 -4.246,3.732 -2.492,2.973 -0.739,2.215 0.379,0.882 0,0 Z m 9.404,-3.046 c -2.123,3.169 -14.532,9.906 -19.7,10.573 -5.169,0.667 -6.677,-4.287 -6.338,-7.969 0,0 0.164,-1.845 3.025,-2.347 5.076,-0.74 15.137,-7.477 17.701,-8.8 2.574,-1.322 7.445,5.384 5.312,8.543"
             style="fill:#2c1809;fill-opacity:1;fill-rule:nonzero;stroke:none"
             id="path8602"
             inkscape:connector-curvature="0" />
        </g>
        <g
           id="g8608"
           transform="matrix(0.35277777,0,0,-0.35277777,-123.8383,-9.1063753)">
          <path
             d="m 0,0 c -0.338,-0.8 -1.641,-0.256 -3.241,0.441 -1.59,0.687 -2.881,1.272 -2.533,2.062 0.349,0.799 1.918,0.891 3.518,0.194 C -0.667,2 0.349,0.8 0,0 Z m 7.814,-2.615 c -0.512,2.277 -9.917,7.538 -14.593,8.358 -4.676,0.81 -7.045,-2.194 -6.973,-5.015 0.02,-0.82 0,-2.389 2.389,-3.323 2.4,-0.933 8.696,-4.379 12.296,-5.886 3.6,-1.498 7.384,3.589 6.881,5.866"
             style="fill:#2c1809;fill-opacity:1;fill-rule:nonzero;stroke:none"
             id="path8606"
             inkscape:connector-curvature="0" />
        </g>
        <g
           id="g8612"
           transform="matrix(0.35277777,0,0,-0.35277777,-126.00894,-5.3835113)">
          <path
             d="M 0,0 C -0.246,-0.574 -1.189,-0.174 -2.338,0.318 -3.487,0.82 -4.42,1.241 -4.174,1.815 -3.917,2.39 -2.779,2.451 -1.63,1.948 -0.482,1.446 0.246,0.574 0,0 Z M 4.358,0.236 C 3.313,2.02 -6.963,6.185 -8.071,4.472 -8.912,3.169 -7.743,0.533 -7.538,-1.354 -7.343,-3.24 -8.235,-5.743 -6.184,-6.256 -4.143,-6.769 5.384,-1.559 4.358,0.236"
             style="fill:#2c1809;fill-opacity:1;fill-rule:nonzero;stroke:none"
             id="path8610"
             inkscape:connector-curvature="0" />
        </g>
        <g
           id="g8616"
           transform="matrix(0.35277777,0,0,-0.35277777,-104.71422,-23.6574)">
          <path
             d="m 0,0 c -0.616,-1.436 -1.703,-2.359 -2.421,-2.051 -0.717,0.308 0.144,1.2 0.759,2.636 C -1.036,2.02 -1.129,2.523 -0.4,2.216 0.318,1.908 0.625,1.435 0,0 Z M -5.63,9.445 C -8.512,9.23 -9.722,1.826 -8.307,1.23 c 1.528,-0.656 4.482,-4.932 5.589,-6.388 2.482,-3.261 4.553,0.738 5.374,4.522 0.81,3.795 -5.394,10.307 -8.286,10.081"
             style="fill:#2c1809;fill-opacity:1;fill-rule:nonzero;stroke:none"
             id="path8614"
             inkscape:connector-curvature="0" />
        </g>
        <g
           id="g8620"
           transform="matrix(0.35277777,0,0,-0.35277777,-104.43587,-27.691061)">
          <path
             d="m 0,0 c -0.615,0.011 -0.256,0.904 -0.256,2.134 0.01,1.22 -0.205,1.559 0.4,1.559 0.615,0 0.984,-0.246 0.974,-1.477 C 1.118,0.995 0.616,0 0,0 Z M 2.862,3.333 C 2.339,6.205 -4.04,10.513 -3.938,8.472 -3.815,5.959 -4.737,2.114 -5.312,1.201 -5.876,0.287 0.411,-4.05 1.61,-5.26 2.81,-6.461 3.385,0.442 2.862,3.333"
             style="fill:#2c1809;fill-opacity:1;fill-rule:nonzero;stroke:none"
             id="path8618"
             inkscape:connector-curvature="0" />
        </g>
        <g
           id="g8624"
           transform="matrix(0.35277777,0,0,-0.35277777,-110.25706,-14.21107)">
          <path
             d="m 0,0 c -1.405,-1.569 -3.179,-2.276 -3.969,-1.569 -0.779,0.697 0.698,1.456 2.103,3.025 1.405,1.57 1.507,2.247 2.297,1.549 C 1.21,2.297 1.405,1.57 0,0 Z M -1.682,11.364 C -4.225,11.138 -4.184,7.774 -6.697,6.061 -8.676,4.707 -9.65,4.103 -9.076,1.826 c 0.575,-2.297 3.107,-7.979 6.204,-6.913 3.087,1.067 6.666,5.939 6.677,8.441 0.01,2.502 -4.677,8.092 -5.487,8.01"
             style="fill:#2c1809;fill-opacity:1;fill-rule:nonzero;stroke:none"
             id="path8622"
             inkscape:connector-curvature="0" />
        </g>
        <g
           id="g8628"
           transform="matrix(0.35277777,0,0,-0.35277777,-114.09528,-10.882964)">
          <path
             d="m 0,0 c -1.425,-1.355 -3.138,-1.867 -3.815,-1.159 -0.666,0.717 0.759,1.312 2.194,2.656 1.426,1.353 1.58,1.979 2.257,1.261 C 1.313,2.051 1.436,1.353 0,0 Z M 0.595,9.701 C -1.292,11.67 -3.579,12.48 -3.641,10.327 -3.702,8.173 -6.348,5.507 -8.522,4.133 -10.02,3.189 -7.353,0.891 -5.394,-1.98 -3.435,-4.861 0.041,-3.734 2.431,-1.314 4.82,1.107 2.472,7.753 0.595,9.701"
             style="fill:#2c1809;fill-opacity:1;fill-rule:nonzero;stroke:none"
             id="path8626"
             inkscape:connector-curvature="0" />
        </g>
        <g
           id="g8632"
           transform="matrix(0.35277777,0,0,-0.35277777,-106.84535,-19.051886)">
          <path
             d="M 0,0 C -1.241,-1.702 -2.933,-2.574 -3.784,-1.959 -4.635,-1.333 -3.24,-0.441 -2,1.262 -0.758,2.964 -0.717,3.651 0.134,3.035 0.985,2.41 1.241,1.702 0,0 Z M -2.902,11.097 C -3.476,9.876 -6.143,6.071 -8.635,3.898 L -8.655,3.866 C -8.758,3.784 -8.84,3.712 -8.932,3.641 c -1.272,-1.2 -0.533,-2.893 0.277,-4.021 0,0 0.01,-0.01 0,-0.02 0.707,-0.933 1.507,-2.082 2.328,-3.425 2.359,-3.887 5.055,-3.723 8.727,1.579 3.672,5.292 -4.328,15.219 -5.302,13.343"
             style="fill:#2c1809;fill-opacity:1;fill-rule:nonzero;stroke:none"
             id="path8630"
             inkscape:connector-curvature="0" />
        </g>
        <g
           id="g8636"
           transform="matrix(0.35277777,0,0,-0.35277777,-117.17785,-8.2417173)">
          <path
             d="m 0,0 c -0.975,-0.913 -2.133,-1.261 -2.585,-0.78 -0.461,0.483 0.513,0.882 1.477,1.806 0.974,0.912 1.077,1.333 1.539,0.85 C 0.882,1.395 0.964,0.923 0,0 Z M 3.066,3.086 C 1.958,5.189 -1.046,7.241 -2.031,5.127 -2.318,4.523 -4.215,1.498 -5.569,0.461 -6.912,-0.575 -7.723,-1.887 -5.825,-2.84 c 1.897,-0.954 5.404,-0.052 6.83,0.841 1.415,0.902 3.189,2.973 2.061,5.085"
             style="fill:#2c1809;fill-opacity:1;fill-rule:nonzero;stroke:none"
             id="path8634"
             inkscape:connector-curvature="0" />
        </g>
        <g
           id="g8640"
           transform="matrix(0.35277777,0,0,-0.35277777,-120.55323,-5.7885003)">
          <path
             d="m 0,0 c -0.79,-0.748 -1.744,-1.035 -2.123,-0.635 -0.369,0.389 0.42,0.718 1.22,1.477 0.8,0.748 0.882,1.097 1.262,0.697 C 0.728,1.139 0.8,0.749 0,0 Z m 3.302,2.175 c -0.79,1.734 -3.466,2.245 -4.327,0.79 -0.862,-1.457 -4.605,-3.22 -4.554,-4.348 0.02,-0.688 0.779,-1.324 1.682,-1.805 0.892,-0.492 7.979,3.63 7.199,5.363"
             style="fill:#2c1809;fill-opacity:1;fill-rule:nonzero;stroke:none"
             id="path8638"
             inkscape:connector-curvature="0" />
        </g>
        <g
           id="g8644"
           transform="matrix(0.35277777,0,0,-0.35277777,-123.98646,-3.7628503)">
          <path
             d="m 0,0 c -0.595,-0.554 -1.302,-0.769 -1.58,-0.471 -0.287,0.287 0.309,0.533 0.903,1.096 0.595,0.554 0.657,0.821 0.933,0.524 C 0.544,0.851 0.595,0.564 0,0 Z M -0.667,3.477 C -3.897,1.384 -6.235,-2.646 -5.179,-2.8 -4.143,-2.943 3.077,0.072 2.922,1.712 2.779,3.354 0.79,4.441 -0.667,3.477"
             style="fill:#2c1809;fill-opacity:1;fill-rule:nonzero;stroke:none"
             id="path8642"
             inkscape:connector-curvature="0" />
        </g>
        <g
           id="g8648"
           transform="matrix(0.35277777,0,0,-0.35277777,-103.41917,-32.654997)">
          <path
             d="m 0,0 c -0.256,-1.189 -0.944,-2.061 -1.549,-1.938 -0.594,0.133 -0.061,0.944 0.185,2.143 0.256,1.19 0.113,1.569 0.718,1.436 C -0.051,1.518 0.257,1.2 0,0 Z m 1.005,2.41 c -0.543,2.236 -4.85,3.815 -4.799,1.795 0.051,-2.031 -2.544,-4.759 -1.99,-6.543 0.646,-2.092 4.605,-4.215 5.61,-3.292 0.81,0.769 1.702,5.804 1.179,8.04"
             style="fill:#2c1809;fill-opacity:1;fill-rule:nonzero;stroke:none"
             id="path8646"
             inkscape:connector-curvature="0" />
        </g>
        <g
           id="g8652"
           transform="matrix(0.35277777,0,0,-0.35277777,-102.35166,-35.752033)">
          <path
             d="m 0,0 c -0.247,-1.2 -0.944,-2.062 -1.539,-1.939 -0.605,0.134 -0.072,0.944 0.174,2.134 0.257,1.199 0.123,1.579 0.718,1.446 C -0.052,1.518 0.256,1.2 0,0 Z m -2.769,4.471 c 0.235,-1.517 -1.857,-4.912 -1.836,-5.958 0.01,-0.79 1.979,-2 3.312,-2.554 1.323,-0.554 1.795,2.082 2.267,4.851 0.471,2.779 -3.969,5.189 -3.743,3.661"
             style="fill:#2c1809;fill-opacity:1;fill-rule:nonzero;stroke:none"
             id="path8650"
             inkscape:connector-curvature="0" />
        </g>
        <g
           id="g8656"
           transform="matrix(0.35277777,0,0,-0.35277777,-101.96114,-38.403863)">
          <path
             d="m 0,0 c -0.123,-0.595 -0.472,-1.036 -0.769,-0.975 -0.308,0.072 -0.041,0.473 0.092,1.067 0.123,0.605 0.052,0.79 0.349,0.728 C -0.02,0.759 0.133,0.595 0,0 Z m -0.595,4.01 c -0.707,-0.287 -1.784,-3.907 -1.969,-4.595 -0.42,-1.579 2.492,-3.343 3.128,-1.405 0.626,1.929 -0.482,6.287 -1.159,6"
             style="fill:#2c1809;fill-opacity:1;fill-rule:nonzero;stroke:none"
             id="path8654"
             inkscape:connector-curvature="0" />
        </g>
        <g
           id="g8660"
           transform="matrix(0.35277777,0,0,-0.35277777,-116.9101,-31.98225)">
          <path
             d="m 0,0 c -0.893,-0.944 -0.975,-1.354 -1.446,-0.913 -0.472,0.451 -0.575,0.902 0.328,1.846 0.892,0.943 2,1.343 2.472,0.892 C 1.825,1.374 0.902,0.943 0,0 Z M -5.046,-0.257 C -8.728,-4.215 -2.42,-3.323 -0.02,-3.159 2.379,-2.984 3.979,3.496 5.127,4.768 4.789,6.163 -1.364,3.681 -5.046,-0.257"
             style="fill:#2c1809;fill-opacity:1;fill-rule:nonzero;stroke:none"
             id="path8658"
             inkscape:connector-curvature="0" />
        </g>
        <g
           id="g8664"
           transform="matrix(0.35277777,0,0,-0.35277777,-112.79283,-35.075405)">
          <path
             d="M 0,0 C -0.523,-0.543 -0.574,-0.79 -0.841,-0.533 -1.118,-0.267 -1.179,0 -0.656,0.543 -0.133,1.097 0.513,1.323 0.789,1.066 1.056,0.8 0.523,0.543 0,0 Z m 3.394,4.071 c -1.118,0.985 -4.02,-1.415 -5.168,-3.107 -1.169,-1.692 -4.328,-3.507 -2.984,-3.538 1.343,-0.021 6.532,1.333 6.481,2.082 -0.061,0.738 0.03,2.902 1.671,4.563"
             style="fill:#2c1809;fill-opacity:1;fill-rule:nonzero;stroke:none"
             id="path8662"
             inkscape:connector-curvature="0" />
        </g>
        <g
           id="g8668"
           transform="matrix(0.35277777,0,0,-0.35277777,-120.61109,-28.624864)">
          <path
             d="m 0,0 c -0.595,-1.149 -0.554,-1.57 -1.139,-1.272 -0.574,0.297 -0.8,0.707 -0.195,1.856 C -0.739,1.743 0.215,2.43 0.789,2.133 1.364,1.836 0.605,1.159 0,0 Z m -1.887,3.712 c -2.554,-2.944 -3.262,-10.738 2.42,-10.02 1.928,0.411 1.169,7.733 4.881,9.784 1.929,1.057 -4.747,3.2 -7.301,0.236"
             style="fill:#2c1809;fill-opacity:1;fill-rule:nonzero;stroke:none"
             id="path8666"
             inkscape:connector-curvature="0" />
        </g>
        <g
           id="g8672"
           transform="matrix(0.35277777,0,0,-0.35277777,-110.43063,-38.309672)">
          <path
             d="m 0,0 c -0.482,-0.8 -0.472,-1.107 -0.872,-0.861 -0.39,0.235 -0.533,0.543 -0.061,1.333 0.482,0.8 1.2,1.251 1.6,1.015 C 1.066,1.241 0.482,0.79 0,0 Z M 2.861,3.959 C 1.261,5.559 -2,2.174 -2.81,-1.138 -3.63,-4.451 0.482,-3.24 1.313,-2.256 c 0.82,0.974 2.399,5.374 1.548,6.215"
             style="fill:#2c1809;fill-opacity:1;fill-rule:nonzero;stroke:none"
             id="path8670"
             inkscape:connector-curvature="0" />
        </g>
        <g
           id="g8676"
           transform="matrix(0.35277777,0,0,-0.35277777,-108.60359,-40.719497)">
          <path
             d="m 0,0 c -0.349,-0.595 -0.349,-0.821 -0.646,-0.636 -0.297,0.174 -0.4,0.4 -0.041,0.994 0.359,0.595 0.892,0.934 1.18,0.749 C 0.79,0.933 0.359,0.594 0,0 Z m -2.492,-0.165 c -1.097,-1.682 1.846,-1.497 3.344,-1.651 1.507,-0.164 1.025,3.671 1.691,4.933 0.626,1.169 -3.948,-1.59 -5.035,-3.282"
             style="fill:#2c1809;fill-opacity:1;fill-rule:nonzero;stroke:none"
             id="path8674"
             inkscape:connector-curvature="0" />
        </g>
        <g
           id="g8680"
           transform="matrix(0.35277777,0,0,-0.35277777,-124.42073,-23.0097)">
          <path
             d="M 0,0 C -1.754,-0.523 -0.01,4.257 1.969,3.764 2.338,3.682 1.754,0.514 0,0 Z M 6.902,7.887 C 3.723,10.748 -3.477,2.574 -3.221,-1.425 -2.954,-5.435 2.543,-4.553 2.379,-1.682 2.215,1.2 7.927,6.964 6.902,7.887"
             style="fill:#2c1809;fill-opacity:1;fill-rule:nonzero;stroke:none"
             id="path8678"
             inkscape:connector-curvature="0" />
        </g>
        <g
           id="g8684"
           transform="matrix(0.35277777,0,0,-0.35277777,-126.84008,-16.781408)">
          <path
             d="m 0,0 c 1.881,-0.711 0.497,6.621 4.639,9.338 2.17,1.199 0.806,2.194 0.337,2.263 C 0.551,12.294 -1.889,0.704 0,0"
             style="fill:#2c1809;fill-opacity:1;fill-rule:nonzero;stroke:none"
             id="path8682"
             inkscape:connector-curvature="0" />
        </g>
        <g
           id="g8688"
           transform="matrix(0.35277777,0,0,-0.35277777,-130.21581,-2.0458813)">
          <path
             d="M 0,0 C 0,0 -1.498,-2.692 -0.081,-3.218 1.331,-3.752 6.818,0.106 5.511,1.338 4.197,2.562 1.902,3.674 0,0"
             style="fill:#2c1809;fill-opacity:1;fill-rule:nonzero;stroke:none"
             id="path8686"
             inkscape:connector-curvature="0" />
        </g>
        <g
           id="g8692"
           transform="matrix(0.35277777,0,0,-0.35277777,-97.239911,-52.242277)">
          <path
             d="m 0,0 c -2.02,-1.959 -5.087,-6.082 -6.953,-9.199 -0.912,0.266 -1.815,0.523 -2.707,0.779 -2.195,0.656 -4.359,1.292 -6.482,1.928 -0.635,0.236 -1.271,0.472 -1.907,0.687 -1.415,0.523 -2.81,1.036 -4.174,1.528 -3.969,1.385 -7.558,3.128 -10.912,4.605 -0.841,0.379 -1.651,0.759 -2.451,1.118 -0.79,0.4 -1.548,0.83 -2.297,1.22 -1.498,0.8 -2.913,1.548 -4.225,2.287 -1.303,0.738 -2.574,1.384 -3.651,2.061 -1.057,0.687 -2.02,1.313 -2.903,1.887 -3.496,2.277 -5.455,3.662 -5.455,3.662 -1.395,0.984 -1.733,2.912 -0.749,4.307 0.862,1.22 2.431,1.63 3.754,1.066 0,0 2.194,-0.943 5.979,-2.727 0.943,-0.442 1.989,-0.934 3.127,-1.467 1.139,-0.533 2.359,-0.964 3.662,-1.508 1.302,-0.513 2.676,-1.097 4.122,-1.702 0.728,-0.298 1.456,-0.615 2.226,-0.923 0.789,-0.267 1.589,-0.554 2.42,-0.841 3.281,-1.159 6.768,-2.574 10.624,-3.64 1.898,-0.596 3.846,-1.211 5.846,-1.836 0.246,-0.062 0.502,-0.134 0.748,-0.195 1.785,-0.462 3.59,-0.944 5.436,-1.426 C -5.876,1.394 -4.82,1.107 -3.753,0.82 -2.676,0.553 -1.589,0.358 -0.492,0.102 -0.328,0.071 -0.164,0.03 0,0"
             style="fill:#2c1809;fill-opacity:1;fill-rule:nonzero;stroke:none"
             id="path8690"
             inkscape:connector-curvature="0" />
        </g>
      </g>
      <rect
         y="144.98569"
         x="70.253525"
         height="16.910046"
         width="16.910046"
         id="rect9460"
         style="opacity:1;vector-effect:none;fill:none;fill-opacity:1;stroke:none;stroke-width:0.02328749;stroke-linecap:butt;stroke-linejoin:miter;stroke-miterlimit:4;stroke-dasharray:none;stroke-dashoffset:0;stroke-opacity:1" />
    </g>
  </g>
</svg>
