<svg width="238px" height="90px" version="1.0" viewBox="0 0 2380 900" xmlns="http://www.w3.org/2000/svg">
 <g>
  <g fill="#222424">
   <path d="m0 450v-450h1190 1190v450 450h-1190-1190v-450z"/>
  </g>
  <g fill="#343334">
   <path d="m0 450v-450h1190 1190v450 450h-1190-1190v-450zm714-236c5-14 4-15-9-4-17 14-19 20-6 20 5 0 12-7 15-16zm903 9c-4-3-10-3-14 0-3 4 0 7 7 7s10-3 7-7zm136 0c-7-2-19-2-25 0-7 3-2 5 12 5s19-2 13-5zm50 0c-7-2-19-2-25 0-7 3-2 5 12 5s19-2 13-5zm-130-10c-7-2-19-2-25 0-7 3-2 5 12 5s19-2 13-5zm-56-10c-4-3-10-3-14 0-3 4 0 7 7 7s10-3 7-7zm-847-7c0-3-5-8-12-12s-8-3-4 4c7 12 16 16 16 8zm723-3c-7-2-21-2-30 0-10 3-4 5 12 5 17 0 24-2 18-5zm-70-10c-7-2-19-2-25 0-7 3-2 5 12 5s19-2 13-5zm-386-40c-20-2-52-2-70 0-17 2 0 4 38 4 39 0 53-2 32-4z"/>
  </g>
  <g fill="#67282a">
   <path d="m0 450v-450h1190 1190v450 450h-1190-1190v-450zm1889-217c-8-1-198-23-424-49-315-35-432-45-505-41-103 6-193 24-184 38 3 5-2 6-10 3-16-6-73 23-79 40-3 8 183 11 606 11 336 0 604-1 596-2z"/>
  </g>
  <g fill="#752f32">
   <path d="m0 450v-450h1190 1190v450 450h-1190-1190v-450zm710 386c0-3-5-8-12-12s-8-3-4 4c7 12 16 16 16 8zm67-213c-4-3-10-3-14 0-3 4 0 7 7 7s10-3 7-7zm400 0c-4-3-10-3-14 0-3 4 0 7 7 7s10-3 7-7zm-440-20c-4-3-7 0-7 7s3 10 7 7c3-4 3-10 0-14zm1403 13c0-3-5-8-12-12s-8-3-4 4c7 12 16 16 16 8zm-2020-10c0-3-5-8-12-12s-8-3-4 4c7 12 16 16 16 8zm1607-3c-4-3-10-3-14 0-3 4 0 7 7 7s10-3 7-7zm443 3c0-2-7-7-16-10-8-3-12-2-9 4 6 10 25 14 25 6zm-1910-36c0-5-5-10-11-10-5 0-7 5-4 10 3 6 8 10 11 10 2 0 4-4 4-10zm1897-47c-4-3-10-3-14 0-3 4 0 7 7 7s10-3 7-7zm-347-57c0-2-8-10-17-17-16-13-17-12-4 4s21 21 21 13zm-833-23c-4-3-7 0-7 7s3 10 7 7c3-4 3-10 0-14zm1200 10c-4-3-10-3-14 0-3 4 0 7 7 7s10-3 7-7zm-640-10c-4-3-10-3-14 0-3 4 0 7 7 7s10-3 7-7zm210 0c-4-3-10-3-14 0-3 4 0 7 7 7s10-3 7-7zm-1529-200c-15-2-42-2-60 0s-6 4 27 4 48-2 33-4zm1671-10c-8-1-198-23-424-49-315-35-432-45-505-41-103 6-193 24-184 38 3 5-2 6-10 3-16-6-73 23-79 40-3 8 183 11 606 11 336 0 604-1 596-2zm204-20c-7-2-21-2-30 0-10 3-4 5 12 5 17 0 24-2 18-5zm-136-9c-3-3-12-4-19-1-8 3-5 6 6 6 11 1 17-2 13-5zm-240-31c-4-3-10-3-14 0-3 4 0 7 7 7s10-3 7-7zm-84-10c-7-2-19-2-25 0-7 3-2 5 12 5s19-2 13-5zm-56-10c-4-3-10-3-14 0-3 4 0 7 7 7s10-3 7-7zm-700-50c-4-3-10-3-14 0-3 4 0 7 7 7s10-3 7-7z"/>
  </g>
  <g fill="#911d29">
   <path d="m0 450v-450h1190 1190v450 450h-1190-1190v-450zm710 386c0-3-5-8-12-12s-8-3-4 4c7 12 16 16 16 8zm181-19c-10-9-11-8-5 6 3 10 9 15 12 12s0-11-7-18zm659 19c0-3-5-8-12-12s-8-3-4 4c7 12 16 16 16 8zm557-18c-3-8-6-5-6 6-1 11 2 17 5 13 3-3 4-12 1-19zm130-15c-4-3-7 0-7 7s3 10 7 7c3-4 3-10 0-14zm-1547 3c0-3-5-8-12-12s-8-3-4 4c7 12 16 16 16 8zm840 0c0-3-5-8-12-12s-8-3-4 4c7 12 16 16 16 8zm97-13c-4-3-7 0-7 7s3 10 7 7c3-4 3-10 0-14zm110 0c-4-3-7 0-7 7s3 10 7 7c3-4 3-10 0-14zm120 0c-4-3-7 0-7 7s3 10 7 7c3-4 3-10 0-14zm-1187-17c0-3-5-8-12-12s-8-3-4 4c7 12 16 16 16 8zm510 0c0-3-5-8-12-12s-8-3-4 4c7 12 16 16 16 8zm330 0c0-3-5-8-12-12s-8-3-4 4c7 12 16 16 16 8zm-1165-16c3-5 4-10 1-10s-8 5-11 10c-3 6-4 10-1 10s8-4 11-10zm1412-7c-4-3-10-3-14 0-3 4 0 7 7 7s10-3 7-7zm-1334-137c3-8 0-17-8-20-14-5-28 17-18 28 10 10 21 7 26-8zm67-5c7-15 7-19-5-17-8 1-18 6-22 11-4 4-2 5 5 1 6-4 12-3 12 3 0 5-6 12-12 14-10 4-10 6-1 6 7 1 17-8 23-18zm200 15c0-2-7-7-16-10-8-3-12-2-9 4 6 10 25 14 25 6zm87-3c-4-3-10-3-14 0-3 4 0 7 7 7s10-3 7-7zm140-10c-4-3-7 0-7 7s3 10 7 7c3-4 3-10 0-14zm263 13c0-2-7-7-16-10-8-3-12-2-9 4 6 10 25 14 25 6zm820-6c0-5-5-10-11-10-5 0-7 5-4 10 3 6 8 10 11 10 2 0 4-4 4-10zm-1870-4c0-2-8-10-17-17-16-13-17-12-4 4s21 21 21 13zm105-14c-3-3-11 0-18 7-9 10-8 11 6 5 10-3 15-9 12-12zm502 1c-4-3-7 0-7 7s3 10 7 7c3-4 3-10 0-14zm508 7c3-6-1-7-9-4-18 7-21 14-7 14 6 0 13-4 16-10zm252-7c20-18 15-22-12-10-14 7-25 15-25 20 0 10 22 4 37-10zm460 0c-4-3-7 0-7 7s3 10 7 7c3-4 3-10 0-14zm183 13c0-3-5-8-12-12s-8-3-4 4c7 12 16 16 16 8zm-1943-13c-4-3-10-3-14 0-3 4 0 7 7 7s10-3 7-7zm983 3c0-3-5-8-12-12s-8-3-4 4c7 12 16 16 16 8zm557-2c-3-3-12-4-19-1-8 3-5 6 6 6 11 1 17-2 13-5zm30-1c-4-3-10-3-14 0-3 4 0 7 7 7s10-3 7-7zm402 4c-2-1-13-9-24-17-19-14-19-14-6 3 7 9 18 17 24 17s8-1 6-3zm-934-17c3-5 4-10 1-10s-8 5-11 10c-3 6-4 10-1 10s8-4 11-10zm-975-20c0-5-8-10-17-10-15 0-16 2-3 10 19 12 20 12 20 0zm527-7c-4-3-7 0-7 7s3 10 7 7c3-4 3-10 0-14zm1373-33c0-5-4-10-10-10-5 0-10 5-10 10 0 6 5 10 10 10 6 0 10-4 10-10zm100 0c0-5-2-10-4-10-3 0-8 5-11 10-3 6-1 10 4 10 6 0 11-4 11-10zm-1010-44c0-3-5-8-12-12s-8-3-4 4c7 12 16 16 16 8zm-860-27c0-6-4-7-10-4-5 3-10 11-10 16 0 6 5 7 10 4 6-3 10-11 10-16zm1414-3c-3-9-10-16-15-16s-4 9 3 20c14 22 21 20 12-4zm379-1c40 4 50-9 16-20-25-8-75 11-84 33-5 15-4 15 12 0 11-10 32-15 56-13zm67 21c0-3-5-8-12-12s-8-3-4 4c7 12 16 16 16 8zm-1761-21c-8-9-28-18-43-21-25-4-27-3-13 11 9 8 22 12 30 9s18-1 22 5c3 6 9 11 13 11 3 0-1-7-9-15zm446-7c6-4 2-8-7-8-10 0-18 7-18 17 0 9 3 12 8 7 4-5 12-12 17-16zm325 18c0-3-5-8-12-12s-8-3-4 4c7 12 16 16 16 8zm280-11c0-8-7-15-15-15-13 0-14 3-3 15 16 18 18 18 18 0zm205 1c7 3 15-2 18-10 5-12 1-13-24-4-16 5-29 15-29 21 0 8 3 8 11 0 6-6 17-9 24-7zm-955-12c0-2-7-4-15-4s-15 4-15 10c0 5 7 7 15 4 8-4 15-8 15-10zm190 6c0-5 8-7 18-3 14 5 15 3 4-8-10-11-15-10-29 4-11 11-13 17-5 17 7 0 12-4 12-10zm185 0c3-6-1-7-9-4-18 7-21 14-7 14 6 0 13-4 16-10zm-508-6c-3-3-12-4-19-1-8 3-5 6 6 6 11 1 17-2 13-5zm760 0c-3-3-12-4-19-1-8 3-5 6 6 6 11 1 17-2 13-5zm281-25c3-12 2-12-6 0-8 11-10 11-15 0-4-10-6-8-6 4-1 21 21 18 27-4zm-1583-39c10-11 16-20 13-20s-13 9-23 20-16 20-13 20 13-9 23-20zm1582-27c-4-3-7 0-7 7s3 10 7 7c3-4 3-10 0-14zm270 0c-4-3-7 0-7 7s3 10 7 7c3-4 3-10 0-14zm-1664-110c3-5-23-7-56-5-111 5-124 9-35 10 48 1 89-1 91-5zm1586-10c-8-1-198-23-424-49-315-35-432-45-505-41-103 6-193 24-184 38 3 5-2 6-10 3-16-6-73 23-79 40-3 8 183 11 606 11 336 0 604-1 596-2zm209-20c-21-2-57-2-80 0-24 2-7 4 37 4s63-2 43-4zm-150-10c-10-2-26-2-35 0-10 3-2 5 17 5s27-2 18-5zm-80-10c-10-2-26-2-35 0-10 3-2 5 17 5s27-2 18-5zm-80-10c-10-2-26-2-35 0-10 3-2 5 17 5s27-2 18-5zm-1121-10c-4-3-10-3-14 0-3 4 0 7 7 7s10-3 7-7zm1003-2c-8-5-49-12-90-15l-75-5 80 13c103 17 103 17 85 7zm47 3c-3-3-12-4-19-1-8 3-5 6 6 6 11 1 17-2 13-5zm-267-34c12-8 11-10-7-10-13 0-23 5-23 10 0 13 11 13 30 0zm-703-6c-3-3-12-4-19-1-8 3-5 6 6 6 11 1 17-2 13-5zm648-4c8-13-5-13-25 0-13 8-13 10 2 10 9 0 20-4 23-10zm-615-10c-8-5-22-9-30-9-10 0-8 3 5 9 27 12 43 12 25 0zm97-17c-4-3-10-3-14 0-3 4 0 7 7 7s10-3 7-7zm-30-10c-4-3-10-3-14 0-3 4 0 7 7 7s10-3 7-7z"/>
  </g>
  <g fill="#5f4142">
   <path d="m0 450v-450h1190 1190v450 450h-1190-1190v-450zm710 386c0-3-5-8-12-12s-8-3-4 4c7 12 16 16 16 8zm181-19c-10-9-11-8-5 6 3 10 9 15 12 12s0-11-7-18zm659 19c0-3-5-8-12-12s-8-3-4 4c7 12 16 16 16 8zm557-18c-3-8-6-5-6 6-1 11 2 17 5 13 3-3 4-12 1-19zm130-15c-4-3-7 0-7 7s3 10 7 7c3-4 3-10 0-14zm-1547 3c0-3-5-8-12-12s-8-3-4 4c7 12 16 16 16 8zm840 0c0-3-5-8-12-12s-8-3-4 4c7 12 16 16 16 8zm97-13c-4-3-7 0-7 7s3 10 7 7c3-4 3-10 0-14zm110 0c-4-3-7 0-7 7s3 10 7 7c3-4 3-10 0-14zm120 0c-4-3-7 0-7 7s3 10 7 7c3-4 3-10 0-14zm-1187-17c0-3-5-8-12-12s-8-3-4 4c7 12 16 16 16 8zm510 0c0-3-5-8-12-12s-8-3-4 4c7 12 16 16 16 8zm330 0c0-3-5-8-12-12s-8-3-4 4c7 12 16 16 16 8zm-1165-16c3-5 4-10 1-10s-8 5-11 10c-3 6-4 10-1 10s8-4 11-10zm1412-7c-4-3-10-3-14 0-3 4 0 7 7 7s10-3 7-7zm-1569-130c-10-2-26-2-35 0-10 3-2 5 17 5s27-2 18-5zm235-7c3-8 0-17-8-20-14-5-28 17-18 28 10 10 21 7 26-8zm24 7c-4-3-10-3-14 0-3 4 0 7 7 7s10-3 7-7zm51-31c14-28 15-39 6-39-7 0-13 3-12 6 2 21-3 41-10 37-4-2-14 0-22 6-12 8-12 9 3 4 19-6 24 10 5 17-10 4-10 6-1 6 7 1 21-16 31-37zm191 35c-2-1-13-9-24-17-19-14-19-14-6 3 7 9 18 17 24 17s8-1 6-3zm26-7c3-5 4-10 1-10s-8 5-11 10c-3 6-4 10-1 10s8-4 11-10zm62 3c-4-3-10-3-14 0-3 4 0 7 7 7s10-3 7-7zm140-10c-4-3-7 0-7 7s3 10 7 7c3-4 3-10 0-14zm328-3c8-7 15-16 15-21s-9 0-20 11c-21 21-46 28-34 8 4-7 3-8-5-4-6 4-20 2-29-6-16-12-16-11-2 6 14 18 13 19-3 13-10-4-16-3-12 2 7 13 71 6 90-9zm245 0c4-7 13-10 19-6 7 5 9 1 5-8-4-11 0-16 12-17 12 0 14-3 6-6-7-3-21 1-30 9-22 19-53 32-71 29-7-1-10 2-7 8 9 13 56 7 66-9zm47 14c-3-3-12-4-19-1-8 3-5 6 6 6 11 1 17-2 13-5zm162-11c0-11-3-13-6-5-2 6-10 9-15 6-7-4-8-2-4 4 11 18 26 14 25-5zm61 2c7-8 9-15 6-15-4 0-14 7-22 15-9 8-11 15-6 15s15-7 22-15zm27 8c-4-3-10-3-14 0-3 4 0 7 7 7s10-3 7-7zm213-3c0-5-5-10-11-10-5 0-7 5-4 10 3 6 8 10 11 10 2 0 4-4 4-10zm167 3c-4-3-10-3-14 0-3 4 0 7 7 7s10-3 7-7zm60-1c8-5 9-13 3-22-8-13-10-12-10 2 0 9-8 19-17 21-13 3-14 5-3 6 8 0 20-3 27-7zm-2097-6c0-2-8-10-17-17-16-13-17-12-4 4s21 21 21 13zm120-22c0-2-9 0-20 6s-20 13-20 16c0 2 9 0 20-6s20-13 20-16zm487 9c-4-3-7 0-7 7s3 10 7 7c3-4 3-10 0-14zm1220 0c-4-3-7 0-7 7s3 10 7 7c3-4 3-10 0-14zm183 13c0-3-5-8-12-12s-8-3-4 4c7 12 16 16 16 8zm-1973-13c-4-3-10-3-14 0-3 4 0 7 7 7s10-3 7-7zm30 0c-4-3-10-3-14 0-3 4 0 7 7 7s10-3 7-7zm947-9c3-8 2-12-4-9s-10 10-10 16c0 14 7 11 14-7zm593 10c-3-3-12-4-19-1-8 3-5 6 6 6 11 1 17-2 13-5zm432 3c-2-1-13-9-24-17-19-14-19-14-6 3 7 9 18 17 24 17s8-1 6-3zm-2046-31c-10-13-20-22-22-20-4 4 29 44 36 44 2 0-4-11-14-24zm254 7c-4-3-7 0-7 7s3 10 7 7c3-4 3-10 0-14zm403 13c0-2-7-7-16-10-8-3-12-2-9 4 6 10 25 14 25 6zm455-6c3-5 4-10 1-10s-8 5-11 10c-3 6-4 10-1 10s8-4 11-10zm-982-13c4 3 7 1 7-5 0-18-27-14-34 4-5 13-4 14 7 6 8-7 17-9 20-5zm402-7c3-5 4-10 1-10s-8 5-11 10c-3 6-4 10-1 10s8-4 11-10zm132-7c-4-3-7 0-7 7s3 10 7 7c3-4 3-10 0-14zm348 7c3-5 4-10 1-10s-8 5-11 10c-3 6-4 10-1 10s8-4 11-10zm282-22c-3-7-5-2-5 12s2 19 5 13c2-7 2-19 0-25zm403 15c0-10-4-14-8-8s-11 13-16 18c-5 4-2 7 7 7 10 0 17-8 17-17zm350-26c17 0 30-4 30-9 0-13-54-9-69 5-11 10-13 9-8-6 4-11 3-16-4-12-5 4-7 16-3 27 3 12 2 18-3 15-5-4-10 1-10 10 0 12 5 11 19-7 12-15 30-23 48-23zm-1783 16c-4-3-7 0-7 7s3 10 7 7c3-4 3-10 0-14zm550 0c-4-3-7 0-7 7s3 10 7 7c3-4 3-10 0-14zm333 13c0-3-5-8-12-12s-8-3-4 4c7 12 16 16 16 8zm-133-43c-4-3-7 0-7 7s3 10 7 7c3-4 3-10 0-14zm1088 7c3-5 1-10-4-10-6 0-11 5-11 10 0 6 2 10 4 10 3 0 8-4 11-10zm35 0c0-5-2-10-4-10-3 0-8 5-11 10-3 6-1 10 4 10 6 0 11-4 11-10zm-453-17c-4-3-7 0-7 7s3 10 7 7c3-4 3-10 0-14zm-540-10c-4-3-7 0-7 7s3 10 7 7c3-4 3-10 0-14zm980-10c-4-3-7 0-7 7s3 10 7 7c3-4 3-10 0-14zm-830-10c-4-3-7 0-7 7s3 10 7 7c3-4 3-10 0-14zm-462-3c3-5-1-10-9-10-9 0-16 5-16 10 0 6 4 10 9 10 6 0 13-4 16-10zm296-22c-10-11-11-9-5 6s4 17-6 11c-9-6-11-4-5 4 5 9 10 10 18 2s7-14-2-23zm900-8c6 0 7 5 3 11-5 8-1 8 14 0 11-6 28-8 36-5 9 3 16 1 16-5 0-29-81-19-102 13-15 22-8 30 8 8 8-12 20-22 25-22zm-1758 13c-3-7-9-10-14-7-14 8-11 21 5 21 8 0 12-6 9-14zm1383 2c-10-7-15-18-12-24 5-7-3-7-24 0-16 6-30 16-30 21 0 7 4 7 13 0 8-7 19-6 37 3 32 18 40 18 16 0zm28-9c-3-9-10-16-15-16s-4 9 3 20c14 22 21 20 12-4zm446 18c0-8-19-13-24-6-3 5 1 9 9 9s15-2 15-3zm-1761-19c-8-9-28-18-43-21-25-4-27-3-13 11 9 8 22 12 30 9s18-1 22 5c3 6 9 11 13 11 3 0-1-7-9-15zm451 0c9 5 11 4 6-3-11-18-36-14-36 6 0 13 2 14 9 3 5-8 14-10 21-6zm70-5c-13-24-23-25-40-5-8 9-8 15-2 15s12-6 15-12c3-9 7-7 12 5 4 9 11 17 16 17 6 0 5-9-1-20zm160 10c-12-8-12-10-1-10 8 0 12-2 9-5s-13-2-22 1c-14 5-15 9-4 15 7 5 18 9 23 9 6 0 3-5-5-10zm370-5c0-8-7-15-15-15-13 0-14 3-3 15 16 18 18 18 18 0zm-750-11c0-2-7-4-15-4s-15 4-15 10c0 5 7 7 15 4 8-4 15-8 15-10zm407-1c-4-3-7 0-7 7s3 10 7 7c3-4 3-10 0-14zm28 7c3-5 1-10-4-10-6 0-11 5-11 10 0 6 2 10 4 10 3 0 8-4 11-10zm-568-6c-3-3-12-4-19-1-8 3-5 6 6 6 11 1 17-2 13-5zm760 0c-3-3-12-4-19-1-8 3-5 6 6 6 11 1 17-2 13-5zm-1330-21c-4-3-7 0-7 7s3 10 7 7c3-4 3-10 0-14zm1611-4c3-12 2-12-6 0-8 11-10 11-15 0-4-10-6-8-6 4-1 21 21 18 27-4zm-1590-16c-2-11 3-18 13-17 9 1 16-5 16-12 0-18-6-18-28 2-10 9-15 22-12 30 7 20 14 17 11-3zm1586-21c-6-4-14-14-17-22-4-10-6-8-6 8-1 15 5 22 17 22 10 0 13-3 6-8zm-1504-22c0-5-10-10-22-9-22 0-22 1-3 9 11 5 21 9 23 9 1 1 2-3 2-9zm27 3c-4-3-10-3-14 0-3 4 0 7 7 7s10-3 7-7zm1480-10c-4-3-7 0-7 7s3 10 7 7c3-4 3-10 0-14zm270 0c-4-3-7 0-7 7s3 10 7 7c3-4 3-10 0-14zm-1664-110c3-5-23-7-56-5-111 5-124 9-35 10 48 1 89-1 91-5zm99-15c-4-3-25-2-47 2l-40 8 47-1c26-1 44-5 40-9zm1487 5c-8-1-198-23-424-49-315-35-432-45-505-41-103 6-193 24-184 38 3 5-2 6-10 3-16-6-73 23-79 40-3 8 183 11 606 11 336 0 604-1 596-2zm-1404-13c27-7 27-8 5-8-14 0-36 4-50 8-20 6-21 8-5 8 11 0 34-4 50-8zm1613-7c-21-2-57-2-80 0-24 2-7 4 37 4s63-2 43-4zm-1561-10c-4-3-10-3-14 0-3 4 0 7 7 7s10-3 7-7zm68-11c-3-3-11 0-18 7-9 10-8 11 6 5 10-3 15-9 12-12zm1343 11c-10-2-26-2-35 0-10 3-2 5 17 5s27-2 18-5zm-80-10c-10-2-26-2-35 0-10 3-2 5 17 5s27-2 18-5zm-1228-7c0-2-7-7-16-10-8-3-12-2-9 4 6 10 25 14 25 6zm1148-3c-10-2-26-2-35 0-10 3-2 5 17 5s27-2 18-5zm-1121-10c-4-3-10-3-14 0-3 4 0 7 7 7s10-3 7-7zm1003-2c-8-5-49-12-90-15l-75-5 80 13c103 17 103 17 85 7zm53 2c-7-2-19-2-25 0-7 3-2 5 12 5s19-2 13-5zm-243-33c-34-11-60-12-60-2 0 5 19 9 43 9 34 1 38 0 17-7zm-733-6c-3-3-12-4-19-1-8 3-5 6 6 6 11 1 17-2 13-5zm648-4c8-13-5-13-25 0-13 8-13 10 2 10 9 0 20-4 23-10zm-615-10c-8-5-22-9-30-9-10 0-8 3 5 9 27 12 43 12 25 0zm425-21c-8-12-36-11-55 2-11 7-6 8 19 4 26-6 32-4 26 5-5 9-4 11 4 6 6-4 9-12 6-17zm80 8c-9-5-27-4-43 1-25 9-23 10 15 9 30-1 38-4 28-10zm-420-7c-27-12-43-12-25 0 8 5 22 9 30 9 10 0 8-3-5-9zm265-10c0-5-15-9-32-9l-33 1 30 8c17 4 31 8 33 9 1 0 2-3 2-9zm-193-7c-4-3-10-3-14 0-3 4 0 7 7 7s10-3 7-7z"/>
  </g>
  <g fill="#8f2e34">
   <path d="m0 450v-450h1190 1190v450 450h-1190-1190v-450zm118 393c-10-2-18-9-18-15s-3-9-6-5c-10 10 6 27 24 26 15-1 15-2 0-6zm135 0c-7-2-19-2-25 0-7 3-2 5 12 5s19-2 13-5zm114 1c-3-3-12-4-19-1-8 3-5 6 6 6 11 1 17-2 13-5zm198-4c3-6-1-7-9-4-18 7-21 14-7 14 6 0 13-4 16-10zm522 4c-3-3-12-4-19-1-8 3-5 6 6 6 11 1 17-2 13-5zm240-1c-4-3-10-3-14 0-3 4 0 7 7 7s10-3 7-7zm350 1c-3-3-12-4-19-1-8 3-5 6 6 6 11 1 17-2 13-5zm80-1c-4-3-10-3-14 0-3 4 0 7 7 7s10-3 7-7zm30 0c-4-3-10-3-14 0-3 4 0 7 7 7s10-3 7-7zm436 0c3-5-5-8-18-8s-21 3-18 8c2 4 10 7 18 7s16-3 18-7zm-1576-20c-4-3-7 0-7 7s3 10 7 7c3-4 3-10 0-14zm63 13c0-3-5-8-12-12s-8-3-4 4c7 12 16 16 16 8zm181-19c-10-9-11-8-5 6 3 10 9 15 12 12s0-11-7-18zm339 19c0-3-4-8-10-11-5-3-10-1-10 4 0 6 5 11 10 11 6 0 10-2 10-4zm320 0c0-3-5-8-12-12s-8-3-4 4c7 12 16 16 16 8zm360 0c0-3-5-8-12-12s-8-3-4 4c7 12 16 16 16 8zm67-13c-4-3-7 0-7 7s3 10 7 7c3-4 3-10 0-14zm70-20c-3-10-5-4-5 12 0 17 2 24 5 18 2-7 2-21 0-30zm60 15c-3-8-6-5-6 6-1 11 2 17 5 13 3-3 4-12 1-19zm70-20c-3-8-6-5-6 6-1 11 2 17 5 13 3-3 4-12 1-19zm60 5c-4-3-7 0-7 7s3 10 7 7c3-4 3-10 0-14zm-2010-10c-4-3-7 0-7 7s3 10 7 7c3-4 3-10 0-14zm463 13c0-3-5-8-12-12s-8-3-4 4c7 12 16 16 16 8zm727-13c-4-3-7 0-7 7s3 10 7 7c3-4 3-10 0-14zm113 13c0-3-5-8-12-12s-8-3-4 4c7 12 16 16 16 8zm97-13c-4-3-7 0-7 7s3 10 7 7c3-4 3-10 0-14zm110 0c-4-3-7 0-7 7s3 10 7 7c3-4 3-10 0-14zm120 0c-4-3-7 0-7 7s3 10 7 7c3-4 3-10 0-14zm120 0c-4-3-7 0-7 7s3 10 7 7c3-4 3-10 0-14zm-1874-23c3-11 1-20-4-20s-9 9-9 20 2 20 4 20 6-9 9-20zm562 0c-3-5-12-10-18-10-7 0-6 4 3 10 19 12 23 12 15 0zm220-9c-3-6-11-11-16-11s-4 6 3 14c14 16 24 13 13-3zm288 4c-3-9-8-14-10-11-3 3-2 9 2 15 9 16 15 13 8-4zm54-2c-4-3-7 0-7 7s3 10 7 7c3-4 3-10 0-14zm70 0c-4-3-7 0-7 7s3 10 7 7c3-4 3-10 0-14zm213 13c0-3-5-8-12-12s-8-3-4 4c7 12 16 16 16 8zm-1144-24c-10-2-22 0-28 6s0 7 19 4c21-5 23-7 9-10zm681 1c-4-3-7 0-7 7s3 10 7 7c3-4 3-10 0-14zm1010 10c-4-3-10-3-14 0-3 4 0 7 7 7s10-3 7-7zm148-11c-3-3-11 0-18 7-9 10-8 11 6 5 10-3 15-9 12-12zm-1948 1c-4-3-10-3-14 0-3 4 0 7 7 7s10-3 7-7zm300 1c-3-3-12-4-19-1-8 3-5 6 6 6 11 1 17-2 13-5zm530-1c-4-3-10-3-14 0-3 4 0 7 7 7s10-3 7-7zm240 0c-4-3-10-3-14 0-3 4 0 7 7 7s10-3 7-7zm336 0c-7-2-21-2-30 0-10 3-4 5 12 5 17 0 24-2 18-5zm120 0c-7-2-21-2-30 0-10 3-4 5 12 5 17 0 24-2 18-5zm-1595-130c-10-2-26-2-35 0-10 3-2 5 17 5s27-2 18-5zm235-7c3-8 0-17-8-20-14-5-28 17-18 28 10 10 21 7 26-8zm24 7c-4-3-10-3-14 0-3 4 0 7 7 7s10-3 7-7zm51-31c14-28 15-39 6-39-7 0-13 3-12 6 2 21-3 41-10 37-4-2-14 0-22 6-12 8-12 9 3 4 19-6 24 10 5 17-10 4-10 6-1 6 7 1 21-16 31-37zm191 35c-2-1-13-9-24-17-19-14-19-14-6 3 7 9 18 17 24 17s8-1 6-3zm26-7c3-5 4-10 1-10s-8 5-11 10c-3 6-4 10-1 10s8-4 11-10zm62 3c-4-3-10-3-14 0-3 4 0 7 7 7s10-3 7-7zm140-10c-4-3-7 0-7 7s3 10 7 7c3-4 3-10 0-14zm328-3c8-7 15-16 15-21s-9 0-20 11c-21 21-46 28-34 8 4-7 3-8-5-4-6 4-20 2-29-6-16-12-16-11-2 6 14 18 13 19-3 13-10-4-16-3-12 2 7 13 71 6 90-9zm245 0c4-7 13-10 19-6 7 5 9 1 5-8-4-11 0-16 12-17 12 0 14-3 6-6-7-3-21 1-30 9-22 19-53 32-71 29-7-1-10 2-7 8 9 13 56 7 66-9zm47 14c-3-3-12-4-19-1-8 3-5 6 6 6 11 1 17-2 13-5zm162-11c0-11-3-13-6-5-2 6-10 9-15 6-7-4-8-2-4 4 11 18 26 14 25-5zm61 2c7-8 9-15 6-15-4 0-14 7-22 15-9 8-11 15-6 15s15-7 22-15zm27 8c-4-3-10-3-14 0-3 4 0 7 7 7s10-3 7-7zm213-3c0-5-5-10-11-10-5 0-7 5-4 10 3 6 8 10 11 10 2 0 4-4 4-10zm167 3c-4-3-10-3-14 0-3 4 0 7 7 7s10-3 7-7zm69-9c10-8 14-13 7-10-6 4-14 0-16-6-4-8-6-7-6 4-1 9-9 19-18 21-14 4-15 5-2 6 8 0 24-6 35-15zm-2106 2c0-2-8-10-17-17-16-13-17-12-4 4s21 21 21 13zm120-22c0-2-9 0-20 6s-20 13-20 16c0 2 9 0 20-6s20-13 20-16zm487 9c-4-3-7 0-7 7s3 10 7 7c3-4 3-10 0-14zm1220 0c-4-3-7 0-7 7s3 10 7 7c3-4 3-10 0-14zm183 13c0-3-5-8-12-12s-8-3-4 4c7 12 16 16 16 8zm-1973-13c-4-3-10-3-14 0-3 4 0 7 7 7s10-3 7-7zm30 0c-4-3-10-3-14 0-3 4 0 7 7 7s10-3 7-7zm947-9c3-8 2-12-4-9s-10 10-10 16c0 14 7 11 14-7zm593 10c-3-3-12-4-19-1-8 3-5 6 6 6 11 1 17-2 13-5zm432 3c-2-1-13-9-24-17-19-14-19-14-6 3 7 9 18 17 24 17s8-1 6-3zm-2046-31c-10-13-20-22-22-20-4 4 29 44 36 44 2 0-4-11-14-24zm254 7c-4-3-7 0-7 7s3 10 7 7c3-4 3-10 0-14zm403 13c0-2-7-7-16-10-8-3-12-2-9 4 6 10 25 14 25 6zm455-6c3-5 4-10 1-10s-8 5-11 10c-3 6-4 10-1 10s8-4 11-10zm-982-13c4 3 7 1 7-5 0-18-27-14-34 4-5 13-4 14 7 6 8-7 17-9 20-5zm402-7c3-5 4-10 1-10s-8 5-11 10c-3 6-4 10-1 10s8-4 11-10zm132-7c-4-3-7 0-7 7s3 10 7 7c3-4 3-10 0-14zm348 7c3-5 4-10 1-10s-8 5-11 10c-3 6-4 10-1 10s8-4 11-10zm282-22c-3-7-5-2-5 12s2 19 5 13c2-7 2-19 0-25zm403 15c0-10-4-14-8-8s-11 13-16 18c-5 4-2 7 7 7 10 0 17-8 17-17zm350-26c17 0 30-4 30-9 0-13-54-9-69 5-11 10-13 9-8-6 4-11 3-16-4-12-5 4-7 16-3 27 3 12 2 18-3 15-5-4-10 1-10 10 0 12 5 11 19-7 12-15 30-23 48-23zm-1783 16c-4-3-7 0-7 7s3 10 7 7c3-4 3-10 0-14zm550 0c-4-3-7 0-7 7s3 10 7 7c3-4 3-10 0-14zm333 13c0-3-5-8-12-12s-8-3-4 4c7 12 16 16 16 8zm-133-43c-4-3-7 0-7 7s3 10 7 7c3-4 3-10 0-14zm1088 7c3-5 1-10-4-10-6 0-11 5-11 10 0 6 2 10 4 10 3 0 8-4 11-10zm35 0c0-5-2-10-4-10-3 0-8 5-11 10-3 6-1 10 4 10 6 0 11-4 11-10zm-453-17c-4-3-7 0-7 7s3 10 7 7c3-4 3-10 0-14zm-540-10c-4-3-7 0-7 7s3 10 7 7c3-4 3-10 0-14zm980-10c-4-3-7 0-7 7s3 10 7 7c3-4 3-10 0-14zm-830-10c-4-3-7 0-7 7s3 10 7 7c3-4 3-10 0-14zm-462-3c3-5-1-10-9-10-9 0-16 5-16 10 0 6 4 10 9 10 6 0 13-4 16-10zm296-22c-10-11-11-9-5 6s4 17-6 11c-9-6-11-4-5 4 5 9 10 10 18 2s7-14-2-23zm900-8c6 0 7 5 3 11-5 8-1 8 14 0 11-6 28-8 36-5 9 3 16 1 16-5 0-29-81-19-102 13-15 22-8 30 8 8 8-12 20-22 25-22zm-1758 13c-3-7-9-10-14-7-14 8-11 21 5 21 8 0 12-6 9-14zm1383 2c-10-7-15-18-12-24 5-7-3-7-24 0-16 6-30 16-30 21 0 7 4 7 13 0 8-7 19-6 37 3 32 18 40 18 16 0zm28-9c-3-9-10-16-15-16s-4 9 3 20c14 22 21 20 12-4zm446 18c0-8-19-13-24-6-3 5 1 9 9 9s15-2 15-3zm-1761-19c-8-9-28-18-43-21-25-4-27-3-13 11 9 8 22 12 30 9s18-1 22 5c3 6 9 11 13 11 3 0-1-7-9-15zm451 0c9 5 11 4 6-3-11-18-36-14-36 6 0 13 2 14 9 3 5-8 14-10 21-6zm70-5c-13-24-23-25-40-5-8 9-8 15-2 15s12-6 15-12c3-9 7-7 12 5 4 9 11 17 16 17 6 0 5-9-1-20zm160 10c-12-8-12-10-1-10 8 0 12-2 9-5s-13-2-22 1c-14 5-15 9-4 15 7 5 18 9 23 9 6 0 3-5-5-10zm370-5c0-8-7-15-15-15-13 0-14 3-3 15 16 18 18 18 18 0zm-750-11c0-2-7-4-15-4s-15 4-15 10c0 5 7 7 15 4 8-4 15-8 15-10zm407-1c-4-3-7 0-7 7s3 10 7 7c3-4 3-10 0-14zm28 7c3-5 1-10-4-10-6 0-11 5-11 10 0 6 2 10 4 10 3 0 8-4 11-10zm-568-6c-3-3-12-4-19-1-8 3-5 6 6 6 11 1 17-2 13-5zm380-1c-4-3-10-3-14 0-3 4 0 7 7 7s10-3 7-7zm380 1c-3-3-12-4-19-1-8 3-5 6 6 6 11 1 17-2 13-5zm-1330-21c-4-3-7 0-7 7s3 10 7 7c3-4 3-10 0-14zm1611-4c3-12 2-12-6 0-8 11-10 11-15 0-4-10-6-8-6 4-1 21 21 18 27-4zm-1590-16c-2-11 3-18 13-17 9 1 16-5 16-12 0-18-6-18-28 2-10 9-15 22-12 30 7 20 14 17 11-3zm1586-21c-6-4-14-14-17-22-4-10-6-8-6 8-1 15 5 22 17 22 10 0 13-3 6-8zm-1504-22c0-5-10-10-22-9-22 0-22 1-3 9 11 5 21 9 23 9 1 1 2-3 2-9zm27 3c-4-3-10-3-14 0-3 4 0 7 7 7s10-3 7-7zm1480-10c-4-3-7 0-7 7s3 10 7 7c3-4 3-10 0-14zm270 0c-4-3-7 0-7 7s3 10 7 7c3-4 3-10 0-14zm-1664-110c3-5-27-7-66-5-129 5-144 9-40 10 56 1 104-1 106-5zm99-15c-4-3-25-2-47 2l-40 8 47-1c26-1 44-5 40-9zm1503 6c-92-17-847-94-919-94-102 0-201 20-257 52-86 48-93 47 574 46 342 0 613-2 602-4zm-1420-14c27-7 27-8 5-8-14 0-36 4-50 8-20 6-21 8-5 8 11 0 34-4 50-8zm1613-7c-21-2-57-2-80 0-24 2-7 4 37 4s63-2 43-4zm-1561-10c-4-3-10-3-14 0-3 4 0 7 7 7s10-3 7-7zm68-11c-3-3-11 0-18 7-9 10-8 11 6 5 10-3 15-9 12-12zm1343 11c-10-2-26-2-35 0-10 3-2 5 17 5s27-2 18-5zm-80-10c-10-2-26-2-35 0-10 3-2 5 17 5s27-2 18-5zm-1228-7c0-2-7-7-16-10-8-3-12-2-9 4 6 10 25 14 25 6zm1148-3c-10-2-26-2-35 0-10 3-2 5 17 5s27-2 18-5zm-1121-10c-4-3-10-3-14 0-3 4 0 7 7 7s10-3 7-7zm1003-2c-8-5-49-12-90-15l-75-5 80 13c102 17 103 17 85 7zm53 2c-7-2-19-2-25 0-7 3-2 5 12 5s19-2 13-5zm-243-33c-34-11-60-12-60-2 0 5 19 9 43 9 34 1 38 0 17-7zm-733-6c-3-3-12-4-19-1-8 3-5 6 6 6 11 1 17-2 13-5zm648-4c8-13-5-13-25 0-13 8-13 10 2 10 9 0 20-4 23-10zm-615-10c-8-5-22-9-30-9-10 0-8 3 5 9 27 12 43 12 25 0zm425-21c-8-12-36-11-55 2-11 7-6 8 19 4 26-6 32-4 26 5-5 9-4 11 4 6 6-4 9-12 6-17zm80 8c-9-5-27-4-43 1-25 9-23 10 15 9 30-1 38-4 28-10zm-420-7c-27-12-43-12-25 0 8 5 22 9 30 9 10 0 8-3-5-9zm265-10c0-5-15-9-32-9l-33 1 30 8c17 4 31 8 33 9 1 0 2-3 2-9zm-193-7c-4-3-10-3-14 0-3 4 0 7 7 7s10-3 7-7z"/>
  </g>
  <g fill="#a62e36">
   <path d="m0 450v-450h1190 1190v450 450h-1190-1190v-450zm118 393c-10-2-18-9-18-15s-3-9-6-5c-10 10 6 27 24 26 15-1 15-2 0-6zm135 0c-7-2-19-2-25 0-7 3-2 5 12 5s19-2 13-5zm114 1c-3-3-12-4-19-1-8 3-5 6 6 6 11 1 17-2 13-5zm198-4c3-6-1-7-9-4-18 7-21 14-7 14 6 0 13-4 16-10zm522 4c-3-3-12-4-19-1-8 3-5 6 6 6 11 1 17-2 13-5zm240-1c-4-3-10-3-14 0-3 4 0 7 7 7s10-3 7-7zm350 1c-3-3-12-4-19-1-8 3-5 6 6 6 11 1 17-2 13-5zm80-1c-4-3-10-3-14 0-3 4 0 7 7 7s10-3 7-7zm30 0c-4-3-10-3-14 0-3 4 0 7 7 7s10-3 7-7zm436 0c3-5-5-8-18-8s-21 3-18 8c2 4 10 7 18 7s16-3 18-7zm-1576-20c-4-3-7 0-7 7s3 10 7 7c3-4 3-10 0-14zm63 13c0-3-5-8-12-12s-8-3-4 4c7 12 16 16 16 8zm181-19c-10-9-11-8-5 6 3 10 9 15 12 12s0-11-7-18zm339 19c0-3-4-8-10-11-5-3-10-1-10 4 0 6 5 11 10 11 6 0 10-2 10-4zm320 0c0-3-5-8-12-12s-8-3-4 4c7 12 16 16 16 8zm360 0c0-3-5-8-12-12s-8-3-4 4c7 12 16 16 16 8zm67-13c-4-3-7 0-7 7s3 10 7 7c3-4 3-10 0-14zm70-20c-3-10-5-4-5 12 0 17 2 24 5 18 2-7 2-21 0-30zm60 15c-3-8-6-5-6 6-1 11 2 17 5 13 3-3 4-12 1-19zm70-20c-3-8-6-5-6 6-1 11 2 17 5 13 3-3 4-12 1-19zm60 5c-4-3-7 0-7 7s3 10 7 7c3-4 3-10 0-14zm-2010-10c-4-3-7 0-7 7s3 10 7 7c3-4 3-10 0-14zm463 13c0-3-5-8-12-12s-8-3-4 4c7 12 16 16 16 8zm727-13c-4-3-7 0-7 7s3 10 7 7c3-4 3-10 0-14zm113 13c0-3-5-8-12-12s-8-3-4 4c7 12 16 16 16 8zm97-13c-4-3-7 0-7 7s3 10 7 7c3-4 3-10 0-14zm110 0c-4-3-7 0-7 7s3 10 7 7c3-4 3-10 0-14zm120 0c-4-3-7 0-7 7s3 10 7 7c3-4 3-10 0-14zm120 0c-4-3-7 0-7 7s3 10 7 7c3-4 3-10 0-14zm-1627 3c0-3-5-8-12-12s-8-3-4 4c7 12 16 16 16 8zm-247-26c3-11 1-20-4-20s-9 9-9 20 2 20 4 20 6-9 9-20zm562 0c-3-5-12-10-18-10-7 0-6 4 3 10 19 12 23 12 15 0zm220-9c-3-6-11-11-16-11s-4 6 3 14c14 16 24 13 13-3zm288 4c-3-9-8-14-10-11-3 3-2 9 2 15 9 16 15 13 8-4zm54-2c-4-3-7 0-7 7s3 10 7 7c3-4 3-10 0-14zm70 0c-4-3-7 0-7 7s3 10 7 7c3-4 3-10 0-14zm213 13c0-3-5-8-12-12s-8-3-4 4c7 12 16 16 16 8zm555-6c-3-5-12-10-18-10-7 0-6 4 3 10 19 12 23 12 15 0zm-1699-18c-10-2-22 0-28 6s0 7 19 4c21-5 23-7 9-10zm681 1c-4-3-7 0-7 7s3 10 7 7c3-4 3-10 0-14zm1158-1c-3-3-11 0-18 7-9 10-8 11 6 5 10-3 15-9 12-12zm-1948 1c-4-3-10-3-14 0-3 4 0 7 7 7s10-3 7-7zm300 1c-3-3-12-4-19-1-8 3-5 6 6 6 11 1 17-2 13-5zm530-1c-4-3-10-3-14 0-3 4 0 7 7 7s10-3 7-7zm240 0c-4-3-10-3-14 0-3 4 0 7 7 7s10-3 7-7zm336 0c-7-2-21-2-30 0-10 3-4 5 12 5 17 0 24-2 18-5zm120 0c-7-2-21-2-30 0-10 3-4 5 12 5 17 0 24-2 18-5zm-1571-141c-1-8 2-11 8-7 13 8 40-13 40-31 0-19-20-18-34 2-12 16-100 39-91 24 3-4-2-13-10-20-10-9-15-32-15-76 0-36-4-64-10-64-5 0-10-5-10-11 0-5 5-7 10-4 6 3 10-3 10-15s4-19 8-16c4 2 14 0 22-6 12-8 11-9-5-4-20 6-20 6-1-9 11-8 27-15 35-15 14 0 14 1 1 10-13 8-13 10 1 10 9 0 27 9 41 19 34 27 59 12 29-18-11-11-27-21-33-21-9 0-8 4 2 10 13 8 12 10-2 10-10 0-18-7-18-15 0-24-45-18-79 11-30 25-31 28-31 114 0 61 4 91 13 99 8 6 18 7 22 3 5-4 5-2 1 5-10 17 24 33 64 30 23-1 34-7 32-15zm291-22c48-85-23-186-103-145-45 23-56 112-19 159 18 23 28 27 61 24 34-3 43-8 61-38zm240 21c14-14 37-15 37-1 0 5-8 7-17 3-14-5-15-3-6 7 6 7 16 9 22 6 16-10 13-36-4-36-8 0-15-7-15-15s5-15 11-15c5 0 7 5 4 10-3 6-2 10 2 10 9 0 8-98-1-107-10-10-7-25 4-18 6 3 10 1 10-4 0-6-6-11-14-11-10 0-15 19-18 71-3 61-7 73-28 89-14 11-26 15-28 11-2-5-13-7-25-4-16 3-18 2-8-5 8-6 9-12 3-16-5-3-13 2-16 11-4 9-1 20 6 24 17 11 67 4 81-10zm197-47c0-56 4-71 24-95 22-26 26-27 34-12 9 15 11 15 28-2 16-15 16-18 3-13-9 4-22 1-28-5-10-9-17-7-31 11-10 12-23 22-29 22s-11 7-11 16c0 8-4 12-10 9-6-4-10 7-9 27 1 31 1 32 9 8l8-25 1 28c1 15-4 27-11 27-9 0-8 4 2 11 12 9 13 12 1 16-11 5-11 7 0 14 10 6 11 9 2 9-7 0-13 5-13 10 0 6 7 10 15 10 12 0 15-14 15-66zm310 39c21-27 27-63 11-63-5 0-11-6-14-12-2-7-3-4-1 8 2 11-3 30-11 41s-11 23-7 27c11 12-49-2-64-15-23-19-46-117-24-104 6 4 9 1 8-7-2-8 5-12 17-10 17 2 18 1 5-8-12-10-11-11 8-7 12 3 22 1 22-4 0-17-40-9-60 11-30 30-27 150 3 150 7 0 7-4-1-12-7-7-12-17-12-22 1-11 23 22 26 37 1 4 2 9 3 11 0 2 17 4 36 4 26 0 40-7 55-25zm178 4c-23-18-28-32-31-77l-3-55-2 58c-2 45 2 61 18 77 11 11 26 20 33 20 6 0 0-10-15-23zm79 6c11-4 14-3 9 5-4 7-1 12 8 12 13 0 16-16 16-95 0-84-2-95-17-95-14 0-15 2-4 9 9 6 10 11 2 15-6 4-11 31-11 60 0 56-12 76-45 76-35 0-45-20-45-92 0-58-2-68-17-67-13 0-14 2-4 6 11 5 11 7 0 14-10 6-11 9-1 9 8 0 12 18 12 55 0 46 4 58 28 80 15 14 33 23 40 20 6-3 19-8 29-12zm193 0c0-15-2-16-10-3-6 9-10 10-10 3s8-17 18-22c16-10 16-10 0-11-10 0-18-5-18-11 0-5 5-7 10-4 6 4 10-8 10-29 0-19 3-43 7-53 6-16 5-16-10-4s-17 11-17-8c0-18 3-20 19-11 11 5 27 7 35 4 9-3 28 1 41 10 22 15 25 22 20 54l-5 37 16-34c12-27 13-39 3-62-13-33-28-37-82-24-27 7-27 7-27-44 0-39-4-51-15-51-18 0-20 40-2 41 10 0 10 2 0 6-9 3-13 37-13 119 0 95 3 114 15 114 8 0 15-8 15-17zm106-8c8-10 14-27 14-37 0-18-1-18-22 2-12 11-18 23-15 27 4 3 7 1 7-5 0-7 5-12 11-12 8 0 8 4-1 14-6 8-18 12-27 9-8-3-19 0-24 8-6 10-9 10-9 2 0-7-7-13-16-13-13 0-14 3-5 14 16 19 70 14 87-9zm194 15c0-4-7-13-15-20s-15-27-16-44c0-26-2-28-9-11-7 15-9 10-9-23-1-26 3-41 9-37s10-20 10-64c0-60-2-69-16-64-13 5-13 7-2 14 9 6 9 9 1 9-18 0-13 228 5 239 16 10 42 10 42 1zm171 1c-11-7-10-10 5-14 17-4 17-5-2-6-29-1-56-32-44-51 7-11 26-14 69-13l60 2-6-32c-7-37-18-54-46-68-22-12-71-3-62 11 3 5 0 7-8 4-20-7-29 21-17 52 14 36 12 43-5 14-10-18-14-20-15-8 0 9 5 20 10 23 6 3 10 11 10 16 0 6-4 7-10 4-18-11-11 22 11 49 11 14 30 26 42 26 17 0 19-2 8-9zm60-2c11-5 17-14 14-20-9-14-25-11-25 5 0 8-8 17-17 19-10 3-12 5-5 6 7 0 22-4 33-10zm-1576-49c3-6-1-7-9-4-18 7-21 14-7 14 6 0 13-4 16-10zm-4-70c15 0 10-17-6-24-12-4-15 4-13 42 1 36 2 40 5 15 2-18 8-33 14-33zm615-7c-10-42-56-72-56-37 0 10 6 14 15 11 8-4 17-1 21 5 5 7 2 8-6 3-7-5-5 4 6 18 24 34 28 33 20 0zm-606-38c0-8-7-15-15-15-13 0-14 3-3 15 16 18 18 18 18 0zm274 9c18-7 12-24-10-24-8 0-14 7-14 15 0 17 2 18 24 9zm-432-243c59-10 134-31 165-46 87-40 132-56 193-65 30-5 66-12 79-16 17-5 22-4 17 4-5 9 0 9 18 2 16-6 36-6 55 1 37 13 93 8 99-8 3-10-27-13-128-13-93 0-129 3-124 11 4 7 0 9-14 5-26-9-90 7-157 38-27 13-60 26-73 30s-19 12-16 18c5 7 2 9-8 6-8-3-48 2-90 12-65 15-195 31-373 44-27 2 18 2 100 1 94-2 190-11 257-24zm1403 13c-92-17-847-94-919-94-102 0-201 20-257 52-86 48-93 47 574 46 342 0 613-2 602-4zm224-18c-2-2-56-5-119-8s-97-2-75 2c42 7 201 13 194 6zm-369-37c-74-10-208-31-298-45s-170-23-178-20c-10 4-12 2-8-5 5-9-4-10-32-5s-35 4-24-3c12-8 7-11-20-11-19 0-42 5-50 11-11 8-6 9 20 4 20-4 30-3 23 2-12 9 583 90 662 91 22 0-21-9-95-19z"/>
   <path d="m90 560c0-11 2-20 4-20s6 9 9 20 1 20-4 20-9-9-9-20z"/>
   <path d="m225 390c-3-5-1-10 4-10 6 0 11 5 11 10 0 6-2 10-4 10-3 0-8-4-11-10z"/>
   <path d="m428 613c7-3 16-2 19 1 4 3-2 6-13 5-11 0-14-3-6-6z"/>
   <path d="m382 588c-7-7-12-21-11-32 0-21 0-21 10-1 7 15 8 9 5-22-2-25 0-43 6-43s8-6 5-13c-4-11 7-14 45-14 28-1 45 2 39 6-8 5-6 15 9 33 23 31 26 56 6 64-8 3-13 11-10 18 6 17-64 20-84 4-12-10-14-10-8 0 9 15 4 16-12 0z"/>
   <path d="m1233 593c4-3 10-3 14 0 3 4 0 7-7 7s-10-3-7-7z"/>
   <path d="m1520 560c0-7 3-10 7-7 3 4 3 10 0 14-4 3-7 0-7-7z"/>
   <path d="m1780 465c-7-9-8-15-2-15 5 0 12 7 16 15 3 8 4 15 2 15s-9-7-16-15z"/>
   <path d="m1680 370c0-7 3-10 7-7 3 4 3 10 0 14-4 3-7 0-7-7z"/>
   <path d="m2184 522c-41-2-53-7-57-22-5-21 30-39 76-38 30 1 41 14 35 45-2 15-11 18-54 15zm43-49c-4-3-7 0-7 7s3 10 7 7c3-4 3-10 0-14z"/>
  </g>
  <g fill="#754d4d">
   <path d="m0 450v-450h1190 1190v450 450h-1190-1190v-450zm118 393c-10-2-18-9-18-15s-3-9-6-5c-10 10 6 27 24 26 15-1 15-2 0-6zm135 0c-7-2-19-2-25 0-7 3-2 5 12 5s19-2 13-5zm114 1c-3-3-12-4-19-1-8 3-5 6 6 6 11 1 17-2 13-5zm198-4c3-6-1-7-9-4-18 7-21 14-7 14 6 0 13-4 16-10zm522 4c-3-3-12-4-19-1-8 3-5 6 6 6 11 1 17-2 13-5zm240-1c-4-3-10-3-14 0-3 4 0 7 7 7s10-3 7-7zm350 1c-3-3-12-4-19-1-8 3-5 6 6 6 11 1 17-2 13-5zm80-1c-4-3-10-3-14 0-3 4 0 7 7 7s10-3 7-7zm30 0c-4-3-10-3-14 0-3 4 0 7 7 7s10-3 7-7zm436 0c3-5-5-8-18-8s-21 3-18 8c2 4 10 7 18 7s16-3 18-7zm-1576-20c-4-3-7 0-7 7s3 10 7 7c3-4 3-10 0-14zm63 13c0-3-5-8-12-12s-8-3-4 4c7 12 16 16 16 8zm181-19c-10-9-11-8-5 6 3 10 9 15 12 12s0-11-7-18zm339 19c0-3-4-8-10-11-5-3-10-1-10 4 0 6 5 11 10 11 6 0 10-2 10-4zm320 0c0-3-5-8-12-12s-8-3-4 4c7 12 16 16 16 8zm360 0c0-3-5-8-12-12s-8-3-4 4c7 12 16 16 16 8zm67-13c-4-3-7 0-7 7s3 10 7 7c3-4 3-10 0-14zm70-20c-3-10-5-4-5 12 0 17 2 24 5 18 2-7 2-21 0-30zm60 15c-3-8-6-5-6 6-1 11 2 17 5 13 3-3 4-12 1-19zm70-20c-3-8-6-5-6 6-1 11 2 17 5 13 3-3 4-12 1-19zm60 5c-4-3-7 0-7 7s3 10 7 7c3-4 3-10 0-14zm-2010-10c-4-3-7 0-7 7s3 10 7 7c3-4 3-10 0-14zm463 13c0-3-5-8-12-12s-8-3-4 4c7 12 16 16 16 8zm727-13c-4-3-7 0-7 7s3 10 7 7c3-4 3-10 0-14zm113 13c0-3-5-8-12-12s-8-3-4 4c7 12 16 16 16 8zm97-13c-4-3-7 0-7 7s3 10 7 7c3-4 3-10 0-14zm110 0c-4-3-7 0-7 7s3 10 7 7c3-4 3-10 0-14zm120 0c-4-3-7 0-7 7s3 10 7 7c3-4 3-10 0-14zm120 0c-4-3-7 0-7 7s3 10 7 7c3-4 3-10 0-14zm-1627 3c0-3-5-8-12-12s-8-3-4 4c7 12 16 16 16 8zm-247-26c3-11 1-20-4-20s-9 9-9 20 2 20 4 20 6-9 9-20zm562 0c-3-5-12-10-18-10-7 0-6 4 3 10 19 12 23 12 15 0zm220-9c-3-6-11-11-16-11s-4 6 3 14c14 16 24 13 13-3zm288 4c-3-9-8-14-10-11-3 3-2 9 2 15 9 16 15 13 8-4zm54-2c-4-3-7 0-7 7s3 10 7 7c3-4 3-10 0-14zm70 0c-4-3-7 0-7 7s3 10 7 7c3-4 3-10 0-14zm213 13c0-3-5-8-12-12s-8-3-4 4c7 12 16 16 16 8zm555-6c-3-5-12-10-18-10-7 0-6 4 3 10 19 12 23 12 15 0zm-1699-18c-10-2-22 0-28 6s0 7 19 4c21-5 23-7 9-10zm681 1c-4-3-7 0-7 7s3 10 7 7c3-4 3-10 0-14zm1158-1c-3-3-11 0-18 7-9 10-8 11 6 5 10-3 15-9 12-12zm-1948 1c-4-3-10-3-14 0-3 4 0 7 7 7s10-3 7-7zm300 1c-3-3-12-4-19-1-8 3-5 6 6 6 11 1 17-2 13-5zm530-1c-4-3-10-3-14 0-3 4 0 7 7 7s10-3 7-7zm240 0c-4-3-10-3-14 0-3 4 0 7 7 7s10-3 7-7zm336 0c-7-2-21-2-30 0-10 3-4 5 12 5 17 0 24-2 18-5zm120 0c-7-2-21-2-30 0-10 3-4 5 12 5 17 0 24-2 18-5zm-1571-141c-1-8 2-11 8-7 13 8 40-13 40-31 0-19-20-18-34 2-12 15-97 38-93 25 1-3-4-16-11-27-16-31-18-172-2-187 10-9 11-9 6 0-5 8 1 9 24 0 25-9 34-8 57 9 33 25 58 21 43-6-10-18-59-40-91-40-9 0-31 12-48 26-30 25-31 28-31 114 0 61 4 91 13 99 8 6 18 7 22 3 5-4 5-2 1 5-10 17 24 33 64 30 23-1 34-7 32-15zm291-22c48-85-23-186-103-145-45 23-56 112-19 159 18 23 28 27 61 24 34-3 43-8 61-38zm235 24c17-12 22-12 20-2-2 7 4 13 12 13 12 0 15-14 13-73 0-40-4-76-7-79-10-10-7-25 4-18 6 3 10 1 10-4 0-6-6-11-14-11-10 0-15 19-18 70-2 38-8 74-14 80s-29 13-50 16c-25 3-34 1-25-5s10-11 2-15c-6-4-11-37-11-77 0-59-2-69-17-69-14 0-15 2-4 9 10 6 10 10 1 16-14 8-12 100 3 130 19 39 57 46 95 19zm202-50c0-56 4-71 24-95 22-26 26-27 34-12 9 15 11 15 28-2 16-15 16-18 3-13-9 4-21 2-27-4-8-8-15-8-26 1-8 7-25 9-40 5-19-5-26-2-26 9 0 8 6 18 13 21 10 5 10 7 0 12-7 3-13 20-12 37 0 27 2 29 9 12 8-19 9-19 9 3 1 12-5 22-11 22-9 0-8 4 2 11 12 9 13 12 1 16-11 5-11 7 0 14 10 6 11 9 2 9-7 0-13 5-13 10 0 6 7 10 15 10 12 0 15-14 15-66zm310 39c18-23 21-37 18-82-6-62-23-81-75-81-50 0-73 29-73 93 0 56 11 84 29 73 6-4 11-4 10 1-3 19 3 23 35 23 26 0 40-7 56-27zm241 17c13-7 19-7 19 0 0 5 7 10 15 10 12 0 15-17 15-95 0-84-2-95-17-95-14 0-15 2-4 9 9 6 10 11 2 15-6 4-11 31-11 60 0 59-8 70-57 79-23 5-35 2-44-11-11-14-11-15 1-4 18 16 38 16 22 0-7-7-12-40-12-80 0-58-3-68-17-68-15 0-16 2-3 10 8 5 10 10 4 10s-12 26-13 64c-2 54 1 68 18 85 23 23 52 27 82 11zm209-7c0-15-2-16-10-3-6 9-10 10-10 3s8-17 18-22c9-6 12-11 6-11-7 0-8-18-3-52 3-29 5-55 4-58-6-10 50-8 62 2 7 5 16 7 21 4 10-6 9 91-1 101-12 11-8 25 5 17 7-4 8-3 4 4-4 6-14 8-22 5-9-3-20 0-25 8-6 10-9 10-9 2 0-7-7-13-16-13-14 0-14 3-4 15 20 24 67 19 85-9 16-24 16-112 0-148-9-22-28-25-78-13-27 7-27 7-27-44 0-39-4-51-15-51-13 0-15 22-15 140s2 140 15 140c8 0 15-8 15-17zm300 7c0-4-7-13-15-20-12-10-15-38-15-131 0-104-2-118-16-112-13 5-13 7-2 14 9 6 9 9 1 9-18 0-13 228 5 239 16 10 42 10 42 1zm231-1c30-16 14-27-33-22-34 4-47 1-60-14-27-30-8-44 60-44l61-1-6-31c-7-37-18-54-46-68-22-12-71-3-62 11 3 5 0 7-8 4-18-7-37 37-37 85 0 74 67 115 131 80zm-1729-397c63-12 138-34 185-55 132-59 146-62 303-60 107 1 238 13 503 47 197 25 368 46 380 45s-68-14-178-29c-110-16-281-42-379-59-139-24-210-31-313-31-96 0-132 3-127 11 4 7 0 9-14 5-23-8-88 7-137 29-168 77-265 97-570 119-27 2 15 2 95 0 89-1 186-10 252-22zm1403 12c-92-17-847-94-919-94-102 0-201 20-257 52-86 48-93 47 574 46 342 0 613-2 602-4zm224-18c-2-2-56-5-119-8s-97-2-75 2c42 7 201 13 194 6z"/>
   <path d="m1197 602c-15-2-34-13-41-25-16-25-29-100-17-92 5 2 11-5 14-16 5-17 10-19 29-13 13 4 32 8 43 9 17 1 20 9 21 46 0 24-5 54-13 66-11 19-11 22 2 17 8-4 15-4 15-1 0 9-24 13-53 9zm-20-139c-4-3-10-3-14 0-3 4 0 7 7 7s10-3 7-7z"/>
  </g>
  <g fill="#94443d">
   <path d="m0 450v-450h1190 1190v450 450h-1190-1190v-450zm118 393c-14-3-18-15-18-45 0-38 2-40 25-36 13 3 22 1 19-3-3-5-16-9-30-9-22 0-24 4-24 50s2 50 23 49c16-1 18-2 5-6zm152 3c0-2-11-6-25-8-14-3-25-1-25 3 0 5 11 9 25 9s25-2 25-4zm117-16c4-12 3-13-5-1-6 8-19 12-31 8-12-3-19-1-15 5 9 14 47 5 51-12zm183 10c8-5 12-11 10-14-3-2-14 2-24 10-22 15-10 19 14 4zm119-32-22-23 19 33c10 18 20 28 22 23 2-6-7-21-19-33zm188 36c-3-3-12-4-19-1-8 3-5 6 6 6 11 1 17-2 13-5zm201-1c-22-3-28-10-29-31-1-18-3-21-6-9-8 31 5 47 34 46l28-2-27-4zm270-13c5-13 3-13-12 0-16 13-20 12-32-5-15-20-18-17-8 10 8 20 45 16 52-5zm332 16c0-2-13-6-30-8-16-3-30-1-30 4 0 4 14 8 30 8 17 0 30-2 30-4zm88-3c-20-3-28-11-31-31-4-24-4-24-6 6-1 30 1 32 32 31 29-2 29-2 5-6zm89-10c-4-3-7 0-7 7s3 10 7 7c3-4 3-10 0-14zm53 9c0-5-7-17-15-28-14-18-14-17-4 9 12 27 19 34 19 19zm197-24c-3-7-5-2-5 12s2 19 5 13c2-7 2-19 0-25zm121 20c7-7 12-19 11-27 0-10-4-7-10 7-14 37-44 25-44-18 0-30 3-35 23-34 16 0 20-2 12-10-16-16-44 6-48 38-6 45 29 71 56 44zm-1771-35c-3-10-5-4-5 12 0 17 2 24 5 18 2-7 2-21 0-30zm70 20c-4-3-7 0-7 7s3 10 7 7c3-4 3-10 0-14zm120-15c-3-7-5-2-5 12s2 19 5 13c2-7 2-19 0-25zm263 23c0-5-7-11-14-14-10-4-13-1-9 9 6 15 23 19 23 5zm320-1c0-5-7-10-16-10-8 0-12 5-9 10 3 6 10 10 16 10 5 0 9-4 9-10zm187-57c-2-16-4-5-4 22 0 28 2 40 4 28 2-13 2-35 0-50zm70 50c-4-3-7 0-7 7s3 10 7 7c3-4 3-10 0-14zm63 13c0-3-5-8-12-12s-8-3-4 4c7 12 16 16 16 8zm427-63c-2-16-4-5-4 22 0 28 2 40 4 28 2-13 2-35 0-50zm84 6c6-3 3-11-6-19-13-11-15-7-14 36 2 34 3 40 6 19 3-16 9-33 14-36zm-1214 34c-4-3-7 0-7 7s3 10 7 7c3-4 3-10 0-14zm811-56c24-4 24-4-5-6-32-1-33 0-31 37 1 36 1 36 5 5 3-26 9-33 31-36zm-1431 36c-4-3-7 0-7 7s3 10 7 7c3-4 3-10 0-14zm350 10c-4-3-10-3-14 0-3 4 0 7 7 7s10-3 7-7zm650-40c-3-10-5-2-5 17s2 27 5 18c2-10 2-26 0-35zm303 43c0-3-5-8-12-12s-8-3-4 4c7 12 16 16 16 8zm327-13c-4-3-7 0-7 7s3 10 7 7c3-4 3-10 0-14zm-1497 3c0-2-7-7-16-10-8-3-12-2-9 4 6 10 25 14 25 6zm1747-28c-3-8-6-5-6 6-1 11 2 17 5 13 3-3 4-12 1-19zm-1650-5c-4-3-7 0-7 7s3 10 7 7c3-4 3-10 0-14zm213 12c0-2-7-8-15-15-12-10-15-10-15 2 0 8 7 15 15 15s15-1 15-2zm211-5c9 13 10 13 6 0-2-8-10-15-17-15s-15 7-17 15c-4 13-3 13 6 0 10-13 12-13 22 0zm199-13c21-4 20-4-7-6-25-1-33 3-33 17 0 11 3 13 8 6 4-7 18-14 32-17zm94 8c-4-8-8-15-10-15s-4 7-4 15 4 15 10 15c5 0 7-7 4-15zm156-2c16 4 20 3 13-4-15-15-45-7-50 11-4 12-3 13 5 1 6-8 19-12 32-8zm174 2c-4-8-11-12-16-9-6 4-5 10 3 15 19 12 19 11 13-6zm266-8c21-4 20-4-7-6-25-1-33 3-33 17 0 11 3 13 8 6 4-7 18-14 32-17zm110 3c10 0 21 5 23 10 3 6 4 5 3-2s-15-14-29-16c-21-3-27 1-26 15 0 10 3 13 6 6 2-7 13-13 23-13zm-1514-8c-10-2-22 0-28 6s0 7 19 4c21-5 23-7 9-10zm208 7c-6-11-41-12-47-1-3 4 8 7 24 8 15 1 26-3 23-7zm133-6c-4-3-7 0-7 7s3 10 7 7c3-4 3-10 0-14zm-444 0c-7-2-21-2-30 0-10 3-4 5 12 5 17 0 24-2 18-5zm-50-139c-1-7 5-11 13-10 9 0 23-9 31-21 14-21 14-23-2-23-10 0-23 7-29 16-12 15-97 38-93 25 1-3-4-16-11-27-16-31-18-172-2-187 10-9 11-9 5 1-6 11-3 12 13 3 31-16 47-14 80 14 17 14 36 25 43 24 8 0 5-4-6-9s-14-9-7-9c23-2-6-38-39-50-48-17-66-14-100 17-31 28-32 30-31 111 1 79 13 117 33 105 5-3 6 2 3 10-6 17 16 25 66 23 20-1 34-7 33-13zm286-18c25-39 26-64 7-111-20-46-54-62-96-45-36 15-50 44-50 99 0 56 31 91 80 91 33 0 41-5 59-34zm239 18c17-12 22-12 20-2-2 7 4 13 12 13 12 0 15-15 15-73 0-41-3-76-7-79-5-2-8-9-8-14 0-6 5-7 10-4 6 3 10 1 10-4 0-6-6-11-14-11-10 0-15 19-18 70-2 38-8 74-14 80s-29 13-50 16c-25 3-34 1-25-5s10-11 2-15c-6-4-11-37-11-77 0-59-2-69-17-69-14 0-15 2-4 9 10 6 10 10 1 16-14 8-12 100 3 130 19 39 57 46 95 19zm202-50c0-56 4-71 24-95 22-26 26-27 34-12 9 16 11 16 27 0 9-9 13-17 8-18-4 0-16-2-27-4-10-2-27 2-37 8-14 9-21 9-31-1-6-6-16-12-20-12-13 0-9 38 5 44 10 5 10 7 0 12-7 3-13 20-12 37 0 27 2 29 9 12 8-19 9-19 9 3 1 12-5 22-11 22-9 0-8 4 2 11 12 9 13 12 1 16-11 5-11 7 0 14 10 6 11 9 2 9-7 0-13 5-13 10 0 6 7 10 15 10 12 0 15-14 15-66zm310 39c18-23 21-37 18-82-6-63-23-81-80-81-30 0-41 6-55 26-27 42-18 152 12 140 8-3 14-2 14 2-3 18 3 22 35 22 26 0 40-7 56-27zm241 17c13-7 19-7 19 0 0 5 7 10 15 10 12 0 15-18 15-100 0-91-8-118-25-90-3 6-1 10 6 10 10 0 10 3 1 12-7 7-12 35-12 64 0 56-8 68-57 77-23 5-35 2-44-11-11-14-11-15 1-4 18 16 38 16 22 0-7-7-12-40-12-79 0-62-11-91-28-74-3 3 0 10 8 15 8 6 10 10 4 10s-12 26-13 64c-2 54 1 68 18 85 23 23 52 27 82 11zm209-7c0-15-2-16-10-3-6 9-10 10-10 3s8-17 18-22c9-6 12-11 6-11-7 0-8-18-3-52 3-29 5-55 4-58-6-10 50-8 62 2 7 5 16 7 21 4 10-6 9 91-1 101-12 11-8 25 5 17 7-4 8-3 4 4-4 6-14 8-22 5-9-3-20 0-25 8-6 10-9 10-9 2 0-7-7-13-16-13-14 0-14 3-4 15 20 24 67 19 85-9 16-24 16-112 0-148-9-22-28-25-78-13-27 7-27 7-27-44 0-39-4-51-15-51-13 0-15 22-15 140s2 140 15 140c8 0 15-8 15-17zm300 7c0-4-7-13-15-20-12-10-15-38-15-130 0-97-3-117-15-117-8 0-15 4-15 9 0 4 6 8 13 8 9 0 9 2 0 8-17 11-13 230 5 241 16 10 42 10 42 1zm231-1c30-16 14-27-33-22-34 4-47 1-60-14-27-30-8-44 60-44l61-1-6-31c-7-37-18-54-46-68-22-12-71-3-62 11 3 5 0 7-8 4-18-7-37 37-37 85 0 74 67 115 131 80zm-1724-398c57-11 136-34 180-54 43-19 96-41 118-48 65-22 300-15 530 15 481 64 680 86 752 84 69-1 64-2-42-9-132-8-379-41-700-94-166-28-238-35-343-35-95 0-131 3-126 11 4 7 0 9-14 5-23-8-88 7-137 29-172 78-309 106-595 119-41 2 4 2 100 0 119-2 208-10 277-23zm1403 13c-53-13-847-94-922-94-104 0-202 20-259 52-86 48-93 47 574 47 342-1 615-3 607-5z"/>
   <path d="m392 561c-2-20-5-44-8-53-3-10 0-18 6-18 7 0 10-6 7-12-3-9 10-13 47-14 28-1 45 1 39 3-9 3-10 10-3 23 5 10 9 38 8 63l-2 44h-46c-46 0-46 0-48-36z"/>
   <path d="m763 563c4-3 10-3 14 0 3 4 0 7-7 7s-10-3-7-7z"/>
   <path d="m1197 602c-15-2-34-13-41-25-16-25-29-100-17-92 5 2 11-5 14-16 5-17 10-19 29-13 13 4 31 8 40 9 10 1 21 5 25 10 5 4 2 5-4 1-7-4-13-2-13 3 0 6 4 11 9 11 13 0 6 77-9 95-11 13-10 14 4 9 9-3 16-4 16-1 0 9-24 13-53 9zm-20-139c-4-3-10-3-14 0-3 4 0 7 7 7s10-3 7-7z"/>
   <path d="m2129 603c-13-16-12-17 4-4s21 21 13 21c-2 0-10-8-17-17z"/>
   <path d="m2130 500c0-40 84-54 94-16 8 30-1 36-50 36-37 0-44-3-44-20z"/>
  </g>
  <g fill="#983a44">
   <path d="m0 450v-450h1190 1190v450 450h-1190-1190v-450zm118 393c-14-3-18-15-18-45 0-38 2-40 25-36 13 3 22 1 19-3-3-5-16-9-30-9-22 0-24 4-24 50s2 50 23 49c16-1 18-2 5-6zm152 3c0-2-11-6-25-8-14-3-25-1-25 3 0 5 11 9 25 9s25-2 25-4zm117-16c4-12 3-13-5-1-6 8-19 12-31 8-12-3-19-1-15 5 9 14 47 5 51-12zm183 10c8-5 12-11 10-14-3-2-14 2-24 10-22 15-10 19 14 4zm119-32-22-23 19 33c10 18 20 28 22 23 2-6-7-21-19-33zm188 36c-3-3-12-4-19-1-8 3-5 6 6 6 11 1 17-2 13-5zm201-1c-22-3-28-10-29-31-1-18-3-21-6-9-8 31 5 47 34 46l28-2-27-4zm270-13c5-13 3-13-12 0-16 13-20 12-32-5-15-20-18-17-8 10 8 20 45 16 52-5zm332 16c0-2-13-6-30-8-16-3-30-1-30 4 0 4 14 8 30 8 17 0 30-2 30-4zm88-3c-20-3-28-11-31-31-4-24-4-24-6 6-1 30 1 32 32 31 29-2 29-2 5-6zm89-10c-4-3-7 0-7 7s3 10 7 7c3-4 3-10 0-14zm53 9c0-5-7-17-15-28-14-18-14-17-4 9 12 27 19 34 19 19zm200-14c0-12-3-18-7-15-3 4-12-1-20-11-8-9-6-2 3 16 22 38 24 39 24 10zm118 10c7-7 12-19 11-27 0-10-4-7-10 7-14 37-44 25-44-18 0-30 3-35 23-34 16 0 20-2 12-10-16-16-44 6-48 38-6 45 29 71 56 44zm-1771-35c-3-10-5-4-5 12 0 17 2 24 5 18 2-7 2-21 0-30zm70 20c-4-3-7 0-7 7s3 10 7 7c3-4 3-10 0-14zm134-44c6-3 3-11-6-19-13-11-15-7-14 36 2 34 3 40 6 19 3-16 9-33 14-36zm249 54c0-5-13-17-27-27l-27-20 20 27c18 26 34 35 34 20zm320-3c0-5-4-10-10-10-5 0-21-17-35-37-16-24-25-31-25-20 0 9 4 17 8 17s16 14 25 30c18 29 37 40 37 20zm187-57c-2-16-4-5-4 22 0 28 2 40 4 28 2-13 2-35 0-50zm70 50c-4-3-7 0-7 7s3 10 7 7c3-4 3-10 0-14zm63 13c0-3-5-8-12-12s-8-3-4 4c7 12 16 16 16 8zm427-63c-2-16-4-5-4 22 0 28 2 40 4 28 2-13 2-35 0-50zm84 6c6-3 3-11-6-19-13-11-15-7-14 36 2 34 3 40 6 19 3-16 9-33 14-36zm-1214 34c-4-3-7 0-7 7s3 10 7 7c3-4 3-10 0-14zm811-56c24-4 24-4-5-6-32-1-33 0-31 37 1 36 1 36 5 5 3-26 9-33 31-36zm-1431 36c-4-3-7 0-7 7s3 10 7 7c3-4 3-10 0-14zm350 10c-4-3-10-3-14 0-3 4 0 7 7 7s10-3 7-7zm650-40c-3-10-5-2-5 17s2 27 5 18c2-10 2-26 0-35zm303 43c0-3-5-8-12-12s-8-3-4 4c7 12 16 16 16 8zm327-13c-4-3-7 0-7 7s3 10 7 7c3-4 3-10 0-14zm-1504 0c-20-8-15-31 7-36 17-4 16-4-2-3-16 1-24 8-26 24-3 16 1 22 15 21 10 0 13-3 6-6zm1554-28c-9-22-57-20-56 3 0 10 3 12 6 5 7-19 43-16 43 4 0 9 3 14 6 10 4-3 4-13 1-22zm200 3c-3-8-6-5-6 6-1 11 2 17 5 13 3-3 4-12 1-19zm-1650-5c-4-3-7 0-7 7s3 10 7 7c3-4 3-10 0-14zm424 7c9 13 10 13 6 0-2-8-10-15-17-15s-15 7-17 15c-4 13-3 13 6 0 10-13 12-13 22 0zm199-13c21-4 20-4-7-6-25-1-33 3-33 17 0 11 3 13 8 6 4-7 18-14 32-17zm250 6c16 4 20 3 13-4-15-15-45-7-50 11-4 12-3 13 5 1 6-8 19-12 32-8zm174 2c-4-8-11-12-16-9-6 4-5 10 3 15 19 12 19 11 13-6zm266-8c21-4 20-4-7-6-25-1-33 3-33 17 0 11 3 13 8 6 4-7 18-14 32-17zm-1196 2c-6-11-41-12-47-1-3 4 8 7 24 8 15 1 26-3 23-7zm133-6c-4-3-7 0-7 7s3 10 7 7c3-4 3-10 0-14zm-444 0c-7-2-21-2-30 0-10 3-4 5 12 5 17 0 24-2 18-5zm990-155c22-30 25-84 5-125-15-31-67-47-101-30-26 12-49 71-41 105 13 57 16 63 30 58 9-3 12-1 9 4-9 14 36 29 60 20 11-4 28-18 38-32zm-1010 0c28-28 30-33 14-36-10-2-24 4-31 13-11 16-97 40-93 26 1-3-4-15-10-26-16-29-19-143-5-157 16-16 15-31 0-22-7 4-10 3-5-1 4-5 22-10 41-12 25-2 42 3 64 22 41 34 56 33 37-4-18-36-22-39-72-47-79-12-123 62-106 181 3 24 10 42 14 39 5-3 6 1 3 9-8 22 35 47 79 47 30 0 45-7 70-32zm251 13c26-28 31-91 12-129-29-56-81-68-121-27-34 33-36 117-3 152 28 29 87 32 112 4zm248 2c15-13 19-14 16-3-2 7 5 15 14 18 15 3 17-6 16-73-1-42-5-78-10-81-4-3-8-10-8-15 0-6 5-7 10-4 6 3 10 1 10-4 0-6-7-11-15-11-12 0-15 13-15 59 0 33 3 61 8 64 4 2 2 2-5 1-7-2-15 6-18 17-4 10-9 19-13 20-4 0-23 2-42 5-19 2-30 0-23-4 8-5 9-13 3-22-6-8-10-43-10-77 0-51-3-63-16-63s-15 12-13 68c2 66 12 100 33 114 19 13 59 9 78-9zm198-48c0-59 3-69 27-91 20-18 28-21 34-12 7 10 12 9 25-4 16-16 16-17-9-23-14-4-34-2-45 4-14 7-23 8-27 1-12-20-35-10-35 16 0 14 4 23 10 19 6-3 10-1 10 4 0 6-4 11-10 11-5 0-10 15-9 33 0 27 2 29 9 12 8-19 9-19 9 3 1 12-5 22-11 22-9 0-8 4 2 11 11 8 12 12 3 16-18 7-16 43 2 43 12 0 15-14 15-65zm558 53c9-9 12-9 12 0 0 7 7 12 15 12 12 0 15-18 15-101 0-76-3-100-12-97-8 3-15 32-18 78-6 84-20 102-64 82-24-11-26-16-26-81 0-64-11-93-28-76-3 3 0 10 8 15 8 6 10 10 4 10s-12 26-13 64c-2 54 1 68 18 85 23 23 70 28 89 9zm202-5c0-15-2-16-10-3-6 9-10 10-10 3 0-23 22-25 36-4 21 29 69 28 88-1 18-28 19-131 2-154-13-18-49-22-83-10-22 7-23 5-23-43 0-39-4-51-15-51-13 0-15 22-15 140s2 140 15 140c8 0 15-8 15-17zm300 1c0-7-7-14-15-18-12-4-15-28-15-124 0-99-3-119-15-119-8 0-15 4-15 9 0 4 6 8 13 8 8 0 9 2 1 8-15 9-19 205-5 231 12 21 51 25 51 5zm231 5c30-16 14-27-33-22-34 4-47 1-60-14-27-30-8-44 60-44 66-1 71-5 52-53-23-62-106-72-135-16-22 42-19 102 6 134 22 28 73 35 110 15zm-1724-398c57-11 129-31 160-46 127-59 156-65 317-65 84 0 206 7 271 15 573 73 761 95 830 93 73-1 69-2-40-9-111-7-490-58-700-94-180-31-212-35-343-35-95 0-131 3-126 11 4 7 0 9-14 5-28-9-103 9-175 43-134 62-256 87-497 101l-145 8 180-3c124-3 212-10 282-24zm1403 13c-53-13-847-94-922-94-104 0-202 20-259 52-86 48-93 47 574 47 342-1 615-3 607-5z"/>
   <path d="m1200 602c-36-6-47-18-55-58-3-20-9-43-12-51-4-10-2-14 4-10s13-2 16-13 11-20 19-20c10 0 10 2-2 10-10 6-5 9 19 8 23-1 37 5 44 18 13 22 10 84-5 102-8 9-7 11 6 6 9-3 16-4 16-1 0 9-24 13-50 9z"/>
   <path d="m230 591c0-5 5-13 10-16 6-3 10-2 10 4 0 5-4 13-10 16-5 3-10 2-10-4z"/>
   <path d="m423 613c4-3 10-3 14 0 3 4 0 7-7 7s-10-3-7-7z"/>
   <path d="m403 588c-15-18-23-98-11-98 6 0 8-6 5-12-3-9 10-13 47-14 28-1 46 1 39 3-8 3-9 12-3 28 5 13 8 41 7 62-1 38-3 39-38 41-20 2-41-3-46-10z"/>
   <path d="m1409 593c-13-17-13-17 6-3 11 8 22 16 24 17 2 2 0 3-6 3s-17-8-24-17z"/>
   <path d="m1515 590c3-5 8-10 11-10s2 5-1 10c-3 6-8 10-11 10s-2-4 1-10z"/>
   <path d="m1785 600c3-5 8-10 11-10s2 5-1 10c-3 6-8 10-11 10s-2-4 1-10z"/>
   <path d="m1710 587c-22-17-14-90 11-113 19-17 22-17 47-2 22 14 27 24 26 57 0 22-7 47-14 56-15 18-49 19-70 2z"/>
   <path d="m1680 530c0-7 3-10 7-7 3 4 3 10 0 14-4 3-7 0-7-7z"/>
   <path d="m2163 613c4-3 10-3 14 0 3 4 0 7-7 7s-10-3-7-7z"/>
   <path d="m2124 598c-4-7-3-8 4-4 12 7 16 16 8 16-3 0-8-5-12-12z"/>
   <path d="m2130 500c0-23 29-41 64-38 14 1 23 4 21 7-3 2 0 10 6 17 18 22 1 34-47 34-37 0-44-3-44-20z"/>
   <path d="m743 123c4-3 10-3 14 0 3 4 0 7-7 7s-10-3-7-7z"/>
  </g>
  <g fill="#924f51">
   <path d="m0 450v-450h1190 1190v450 450h-1190-1190v-450zm118 393c-14-3-18-15-18-45 0-38 2-40 25-36 13 3 22 1 19-3-3-5-16-9-30-9-22 0-24 4-24 50s2 50 23 49c16-1 18-2 5-6zm152 3c0-2-11-6-25-8-14-3-25-1-25 3 0 5 11 9 25 9s25-2 25-4zm117-16c4-12 3-13-5-1-6 8-19 12-31 8-12-3-19-1-15 5 9 14 47 5 51-12zm183 10c8-5 12-11 10-14-3-2-14 2-24 10-22 15-10 19 14 4zm119-32-22-23 19 33c10 18 20 28 22 23 2-6-7-21-19-33zm188 36c-3-3-12-4-19-1-8 3-5 6 6 6 11 1 17-2 13-5zm201-1c-22-3-28-10-29-31-1-18-3-21-6-9-8 31 5 47 34 46l28-2-27-4zm270-13c5-13 3-13-12 0-16 13-20 12-32-5-15-20-18-17-8 10 8 20 45 16 52-5zm332 16c0-2-13-6-30-8-16-3-30-1-30 4 0 4 14 8 30 8 17 0 30-2 30-4zm88-3c-20-3-28-11-31-31-4-24-4-24-6 6-1 30 1 32 32 31 29-2 29-2 5-6zm89-10c-4-3-7 0-7 7s3 10 7 7c3-4 3-10 0-14zm53 9c0-5-7-17-15-28-14-18-14-17-4 9 12 27 19 34 19 19zm200-13c0-11-4-17-10-14-5 3-10 3-10-2 0-4-11-21-25-38l-24-30 1 50c1 46 1 47 7 15l6-35 25 37c14 21 26 38 28 38 1 0 2-9 2-21zm118 9c18-18 15-38-5-38-15 0-16 2-3 10 20 12-2 35-25 26-11-4-15-16-13-38 2-27 7-33 26-32 16 0 20-2 12-10-16-16-44 6-48 38-6 45 29 71 56 44zm-1771-35c-3-10-5-4-5 12 0 17 2 24 5 18 2-7 2-21 0-30zm70 20c-4-3-7 0-7 7s3 10 7 7c3-4 3-10 0-14zm134-44c6-3 3-11-6-19-13-11-15-7-14 36 2 34 3 40 6 19 3-16 9-33 14-36zm249 54c0-5-13-17-27-27l-27-20 20 27c18 26 34 35 34 20zm320-3c0-5-4-10-10-10-5 0-21-17-35-37-16-24-25-31-25-20 0 9 4 17 8 17s16 14 25 30c18 29 37 40 37 20zm187-57c-2-16-4-5-4 22 0 28 2 40 4 28 2-13 2-35 0-50zm70 50c-4-3-7 0-7 7s3 10 7 7c3-4 3-10 0-14zm63 7c0-5-5-10-11-10-5 0-7 5-4 10 3 6 8 10 11 10 2 0 4-4 4-10zm427-57c-2-16-4-5-4 22 0 28 2 40 4 28 2-13 2-35 0-50zm-1130 40c-4-3-7 0-7 7s3 10 7 7c3-4 3-10 0-14zm811-56c24-4 24-4-5-6-32-1-33 0-31 37 1 36 1 36 5 5 3-26 9-33 31-36zm-1431 36c-4-3-7 0-7 7s3 10 7 7c3-4 3-10 0-14zm350 10c-4-3-10-3-14 0-3 4 0 7 7 7s10-3 7-7zm650-40c-3-10-5-2-5 17s2 27 5 18c2-10 2-26 0-35zm303 43c0-3-5-8-12-12s-8-3-4 4c7 12 16 16 16 8zm327-13c-4-3-7 0-7 7s3 10 7 7c3-4 3-10 0-14zm-1504 0c-20-8-15-31 7-36 17-4 16-4-2-3-16 1-24 8-26 24-3 16 1 22 15 21 10 0 13-3 6-6zm1554-28c-9-22-57-20-56 3 0 10 3 12 6 5 7-19 43-16 43 4 0 9 3 14 6 10 4-3 4-13 1-22zm200 3c-3-8-6-5-6 6-1 11 2 17 5 13 3-3 4-12 1-19zm-1650-5c-4-3-7 0-7 7s3 10 7 7c3-4 3-10 0-14zm424 7c9 13 10 13 6 0-2-8-10-15-17-15s-15 7-17 15c-4 13-3 13 6 0 10-13 12-13 22 0zm199-13c21-4 20-4-7-6-25-1-33 3-33 17 0 11 3 13 8 6 4-7 18-14 32-17zm250 6c16 4 20 3 13-4-15-15-45-7-50 11-4 12-3 13 5 1 6-8 19-12 32-8zm174 2c-4-8-11-12-16-9-6 4-5 10 3 15 19 12 19 11 13-6zm266-8c21-4 20-4-7-6-25-1-33 3-33 17 0 11 3 13 8 6 4-7 18-14 32-17zm-1196 2c-6-11-41-12-47-1-3 4 8 7 24 8 15 1 26-3 23-7zm133-6c-4-3-7 0-7 7s3 10 7 7c3-4 3-10 0-14zm-444 0c-7-2-21-2-30 0-10 3-4 5 12 5 17 0 24-2 18-5zm995-156c24-47 18-112-13-142-30-31-66-32-101-2-28 24-36 72-21 130 15 57 109 67 135 14zm-1015 1c28-28 30-33 14-36-11-2-29 6-41 17-28 26-60 27-86 1-16-16-20-33-20-89 0-63 2-71 26-90 34-27 46-26 82 4s52 32 45 6c-8-31-38-52-80-58-82-11-127 71-104 192 11 60 38 85 93 85 31 0 46-7 71-32zm251 13c26-28 31-91 12-129-29-56-81-68-121-27-34 33-36 117-3 152 28 29 87 32 112 4zm243 8c8-8 13-8 17 0 4 6 14 11 22 11 11 0 14-19 14-95 0-78-3-95-15-95-11 0-15 13-15 55 0 73-15 105-51 105-37 0-49-24-49-99 0-49-3-61-16-61-26 0-16 156 11 176 22 17 67 18 82 3zm203-54c0-52 4-69 21-86 12-12 27-18 38-14 10 3 24-1 30-9 11-13 9-16-12-21-14-4-34-2-45 4-14 7-23 8-27 1-3-5-13-10-21-10-11 0-14 20-14 100 0 82 3 100 15 100s15-14 15-65zm558 53c9-9 12-9 12 0 0 7 7 12 15 12 12 0 15-18 15-101 0-76-3-100-12-97-8 3-15 32-18 78-6 83-20 102-64 82-23-10-25-17-28-83-2-47-7-74-15-77-10-3-13 17-13 77 0 68 3 84 20 101 22 22 69 27 88 8zm205 0c4-10 7-10 18 0 18 17 59 15 81-5s26-129 5-157c-14-19-49-24-84-12-22 7-23 5-23-43 0-39-4-51-15-51-13 0-15 22-15 140 0 114 3 140 14 140 8 0 16-6 19-12zm297-2c0-8-7-16-15-20-12-4-15-28-15-126 0-100-2-120-15-120s-15 20-15 121c0 66 5 129 10 140 12 22 50 26 50 5zm231 3c31-16 12-29-34-23-32 5-46 2-56-10-26-31-6-46 59-46s69-5 50-54c-23-62-106-72-135-16-22 42-19 102 6 134 22 28 73 35 110 15zm-1831-379c113-12 213-38 301-78 98-46 132-52 285-52 111 0 232 12 578 55 260 33 470 54 519 54 81-2 81-2-33-10-123-8-522-63-759-104-246-43-465-32-594 30-143 67-279 92-597 108-30 2 3 4 75 5s173-3 225-8zm1510-6c-53-13-847-94-922-94-104 0-202 20-259 52-86 48-93 47 574 47 342-1 615-3 607-5z"/>
   <path d="m1162 588c-7-7-12-34-12-60 0-41 3-50 23-57 44-17 67 5 67 65 0 45-14 64-45 64-12 0-26-5-33-12z"/>
   <path d="m401 581c-20-37-13-89 13-106 48-32 87 21 68 90-7 24-14 31-39 33-23 2-34-2-42-17z"/>
   <path d="m1712 588c-19-19-15-92 6-111 24-22 35-21 55 1s23 92 5 110c-7 7-21 12-33 12s-26-5-33-12z"/>
   <path d="m2130 506c0-17 27-46 41-46 23 0 49 22 49 40 0 17-7 20-45 20-32 0-45-4-45-14z"/>
  </g>
  <g fill="#746f6c">
   <path d="m0 450v-450h1190 1190v450 450h-1190-1190v-450zm118 393c-13-3-18-15-18-44 0-32 3-39 20-39 13 0 22 10 29 33 5 17 10 24 10 14 2-31-18-57-44-57-23 0-25 4-25 50s2 50 23 49c16-1 18-2 5-6zm152 3c0-2-11-6-25-8-14-3-25-1-25 3 0 5 11 9 25 9s25-2 25-4zm115-21c0-11-10-24-22-30-13-5-23-15-23-22 0-6 10-14 23-16 19-5 19-5-3-4-35 3-42 44-8 49 13 2 24 11 26 22 3 15-1 18-22 14-14-3-23-1-20 4 11 17 49 4 49-17zm179 19c22-8 21-44-1-44-15 0-16 2-3 10 12 7 12 12 3 21s-16 9-28-1c-9-7-15-8-15-2s6 13 13 15c6 3 13 6 14 6 1 1 8-2 17-5zm132-31c-8-10-24-29-35-43l-20-25 1 50c1 46 1 47 7 15l6-35 25 37c14 21 26 33 28 28 2-4-4-17-12-27zm181 31c-3-3-12-4-19-1-8 3-5 6 6 6 11 1 17-2 13-5zm201-1c-24-4-27-8-26-43 0-34 4-39 27-43s22-4-6-6l-33-1v50 50l33-1c29-2 29-2 5-6zm270-20c2-13-1-23-7-23s-8 6-5 14c9 23-18 31-33 11-10-15-13-16-13-4 0 37 53 38 58 2zm179-27c-18-24-35-41-39-39s7 23 25 47 35 41 39 39-7-23-25-47zm131 47c-20-3-28-10-28-24 0-10 6-19 13-20 10 0 10-2 0-6-23-9-14-32 15-36 25-4 25-4-5-6l-33-1v50 50l33-1c30-2 30-2 5-6zm110 0c-20-3-28-10-28-24 0-10 6-19 13-20 10 0 10-2 0-6-23-9-14-32 15-36 25-4 25-4-5-6l-33-1v50 50l33-1c30-2 30-2 5-6zm113-83c20 0 26 19 10 36-6 5-5 18 3 32 11 20 12 18 11-25 0-45-2-48-27-51-28-3-28-3-26 50l2 53 3-47c3-40 8-48 24-48zm229 69c0-11-4-17-10-14-5 3-10 3-10-2 0-4-11-21-25-38l-24-30 1 50c1 46 1 47 7 15l6-35 25 37c14 21 26 38 28 38 1 0 2-9 2-21zm118 9c18-18 15-38-5-38-15 0-16 2-3 10 20 12-2 35-25 26-11-4-15-16-13-38 2-27 7-33 26-32 16 0 20-2 12-10-16-16-44 6-48 38-6 45 29 71 56 44zm-1771-60c-2-13-4-3-4 22s2 35 4 23c2-13 2-33 0-45zm456 48c3-8-1-13-11-12-12 1-17-7-17-29 0-20-5-30-15-30-8 0-15 7-16 15 0 8-4 23-9 33-4 10-5 21-1 24 3 4 6-1 6-10 0-23 17-21 32 3 15 23 24 25 31 6zm254-3c-4-3-7 0-7 7s3 10 7 7c3-4 3-10 0-14zm62-30-2-48-12 80-27-40-28-40 1 35c0 24 3 29 7 17 6-15 10-13 25 13 26 43 37 37 36-17zm188-20c-2-16-4-5-4 22 0 28 2 40 4 28 2-13 2-35 0-50zm70 30c-3-10-5-4-5 12 0 17 2 24 5 18 2-7 2-21 0-30zm490-30c-2-16-4-5-4 22 0 28 2 40 4 28 2-13 2-35 0-50zm-1742 27c3-5 1-10-4-10-6 0-11 5-11 10 0 6 2 10 4 10 3 0 8-4 11-10zm472-12c-3-8-6-5-6 6-1 11 2 17 5 13 3-3 4-12 1-19zm380 5c-4-3-10-3-14 0-3 4 0 7 7 7s10-3 7-7zm1020-25c-3-7-5-2-5 12s2 19 5 13c2-7 2-19 0-25zm-1549-3c21 5 24 4 16-5-16-16-48-9-50 10-1 11 0 11 3 2s13-12 31-7zm999 3c-3-8-6-5-6 6-1 11 2 17 5 13 3-3 4-12 1-19zm-1302-11c16-4 14-5-6-6-17-1-29 5-33 15-5 13-3 14 6 6 7-5 22-12 33-15zm1075 6c16 4 20 3 13-4-15-15-45-7-50 11-4 12-3 13 5 1 6-8 19-12 32-8zm-623-10c-4-3-7 0-7 7s3 10 7 7c3-4 3-10 0-14zm560-175c23-69-16-148-73-148-12 0-36 11-51 24-24 21-28 31-28 79 0 83 41 118 110 92 21-8 34-22 42-47zm-1021 20c22-28 24-34 10-36-9-2-28 6-42 17-33 26-58 27-84 1-16-16-20-33-20-85 0-57 3-69 25-91 28-28 54-26 91 7 46 42 60 13 15-32-33-33-75-38-120-14-47 24-65 111-41 197 13 47 43 68 96 68 35 0 47-5 70-32zm253 6c36-45 23-134-23-166-23-16-67-7-91 17-34 33-36 117-3 152 31 33 90 32 117-3zm239 14c9-9 12-9 12 0 0 7 9 12 20 12 19 0 20-7 20-101 0-90-2-100-17-97s-18 13-15 62c3 70-15 106-53 106-28 0-31-10-39-103-2-32-7-61-9-64-29-28-39 135-11 175 17 25 71 31 92 10zm203-25c1-21 0-50-1-65-2-33 34-71 59-63 10 3 24-1 30-9 11-13 9-16-12-21-14-4-34-2-45 4-14 7-23 8-27 1-3-5-13-10-21-10-11 0-14 20-14 100 0 82 3 100 15 100 10 0 15-11 16-37zm557 25c9-9 12-9 12 0 0 7 8 12 18 12 17 0 17-2 12-188 0-8-6-12-12-10-8 3-15 32-18 78-6 84-20 102-64 82-25-11-26-16-26-87 0-60-3-75-15-75s-15 16-15 84c0 76 2 86 22 100 27 19 69 21 86 4zm205 0c4-10 7-10 18 0 18 17 59 15 81-5 14-12 18-31 18-80 0-92-31-118-102-88-16 6-18 1-18-44 0-39-4-51-15-51-13 0-15 22-15 140 0 114 3 140 14 140 8 0 16-6 19-12zm297-2c0-8-7-16-15-20-12-4-15-28-15-126 0-100-2-120-15-120s-15 21-15 128c0 86 4 132 12 140 16 16 48 15 48-2zm231 3c31-16 12-29-34-23-32 5-46 2-56-10-26-31-6-46 59-46s68-3 50-57c-18-49-80-68-118-35-42 36-45 120-7 162 20 22 74 27 106 9zm-1725-393c75-15 195-57 219-76 6-5 38-15 71-24 116-30 278-22 761 39 322 40 466 54 543 53 94-2 96-2 25-5-136-4-502-52-765-98-210-37-337-48-443-36-113 13-151 23-249 67-106 48-231 73-443 89l-180 14 190-4c119-2 220-9 271-19zm1404 8c-53-13-847-94-922-94-104 0-202 20-259 52-86 48-93 47 574 47 342-1 615-3 607-5z"/>
  </g>
  <g fill="#a7585b">
   <path d="m0 450v-450h1190 1190v450 450h-1190-1190v-450zm118 393c-13-3-18-15-18-44 0-32 3-39 20-39 13 0 22 10 29 33 5 17 10 24 10 14 2-31-18-57-44-57-23 0-25 4-25 50s2 50 23 49c16-1 18-2 5-6zm152 3c0-2-11-6-25-8-14-3-25-1-25 3 0 5 11 9 25 9s25-2 25-4zm115-21c0-11-10-24-22-30-13-5-23-15-23-22 0-6 10-14 23-16 19-5 19-5-3-4-35 3-42 44-8 49 13 2 24 11 26 22 4 16 0 18-29 12-25-4-30-3-19 4 24 16 55 8 55-15zm72-52c-2-16-4-3-4 27s2 43 4 28c2-16 2-40 0-55zm107 71c22-8 21-44-1-44-15 0-16 2-3 10 12 7 12 12 3 21s-16 9-28-1c-14-12-22 0-8 13 8 9 17 9 37 1zm119-29c15 22 27 34 27 27 0-6-7-20-14-29-8-10-24-29-35-43l-20-25 1 55c1 52 1 53 7 15l6-40 28 40zm194 29c-3-3-12-4-19-1-8 3-5 6 6 6 11 1 17-2 13-5zm201-1c-24-4-27-8-26-43 0-34 4-39 27-43s22-4-6-6l-33-1v50 50l33-1c29-2 29-2 5-6zm151-45c-2-52-2-52-8-13l-6 40-27-40-28-40 1 35c1 19 3 27 6 17 4-16 9-13 29 17 14 20 27 36 29 36 3 0 4-24 4-52zm119 25c2-13-1-23-7-23s-8 6-5 14c9 23-18 31-33 11-10-15-13-16-13-4 0 37 53 38 58 2zm179-27c-18-24-35-41-39-39s7 23 25 47 35 41 39 39-7-23-25-47zm131 47c-20-3-28-10-28-24 0-10 6-19 13-20 10 0 10-2 0-6-23-9-14-32 15-36 25-4 25-4-5-6l-33-1v50 50l33-1c30-2 30-2 5-6zm110 0c-20-3-28-10-28-24 0-10 6-19 13-20 10 0 10-2 0-6-23-9-14-32 15-36 25-4 25-4-5-6l-33-1v50 50l33-1c30-2 30-2 5-6zm113-83c20 0 26 19 10 36-6 5-5 18 3 32 11 20 12 18 11-25 0-45-2-48-27-51-28-3-28-3-26 50l2 53 3-47c3-40 8-48 24-48zm96 13c-2-16-4-3-4 27s2 43 4 28c2-16 2-40 0-55zm106 42c23 34 27 37 27 17 0-13-4-20-10-17-5 3-10 3-10-2 0-4-11-21-25-38l-24-30 1 55c1 52 1 53 7 15l6-40 28 40zm145 23c18-18 15-38-5-38-15 0-16 2-3 10 20 12-2 35-25 26-11-4-15-16-13-38 2-27 7-33 26-32 16 0 20-2 12-10-16-16-44 6-48 38-6 45 29 71 56 44zm-1315-12c3-8-1-13-11-12-12 1-17-7-17-29 0-20-5-30-15-30-8 0-15 7-16 15 0 8-4 23-9 33-4 10-5 21-1 24 3 4 6-1 6-10 0-23 17-21 32 3 15 23 24 25 31 6zm257 4c0-5-2-10-4-10-3 0-8 5-11 10-3 6-1 10 4 10 6 0 11-4 11-10zm247-57c-2-16-4-5-4 22 0 28 2 40 4 28 2-13 2-35 0-50zm70 30c-3-10-5-4-5 12 0 17 2 24 5 18 2-7 2-21 0-30zm-1252-3c3-5 1-10-4-10-6 0-11 5-11 10 0 6 2 10 4 10 3 0 8-4 11-10zm472-12c-3-8-6-5-6 6-1 11 2 17 5 13 3-3 4-12 1-19zm380 5c-4-3-10-3-14 0-3 4 0 7 7 7s10-3 7-7zm1020-30c-3-10-5-4-5 12 0 17 2 24 5 18 2-7 2-21 0-30zm-1549 2c21 5 24 4 16-5-16-16-48-9-50 10-1 11 0 11 3 2s13-12 31-7zm999 3c-3-8-6-5-6 6-1 11 2 17 5 13 3-3 4-12 1-19zm-1302-11c16-4 14-5-6-6-17-1-29 5-33 15-5 13-3 14 6 6 7-5 22-12 33-15zm1075 6c16 4 20 3 13-4-15-15-45-7-50 11-4 12-3 13 5 1 6-8 19-12 32-8zm-623-10c-4-3-7 0-7 7s3 10 7 7c3-4 3-10 0-14zm560-175c23-69-16-148-73-148-12 0-36 11-51 24-24 21-28 31-28 79 0 83 41 118 110 92 21-8 34-22 42-47zm-1021 20c22-28 24-34 10-36-9-2-28 6-42 17-33 26-58 27-84 1-16-16-20-33-20-85 0-57 3-69 25-91 28-28 54-26 91 7 46 42 60 13 15-32-33-33-75-38-120-14-47 24-65 111-41 197 13 47 43 68 96 68 35 0 47-5 70-32zm253 6c36-45 23-134-23-166-23-16-67-7-91 17-34 33-36 117-3 152 31 33 90 32 117-3zm239 14c9-9 12-9 12 0 0 7 9 12 20 12 19 0 20-7 20-101 0-90-2-100-17-97s-18 13-15 62c3 70-15 106-53 106-28 0-31-10-39-103-2-32-7-61-9-64-29-28-39 135-11 175 17 25 71 31 92 10zm203-25c1-21 0-50-1-65-2-33 34-71 59-63 10 3 24-1 30-9 11-13 9-16-12-21-14-4-34-2-45 4-14 7-23 8-27 1-3-5-13-10-21-10-11 0-14 20-14 100 0 82 3 100 15 100 10 0 15-11 16-37zm557 25c9-9 12-9 12 0 0 7 8 12 18 12 17 0 17-2 12-188 0-8-6-12-12-10-8 3-15 32-18 78-6 84-20 102-64 82-25-11-26-16-26-87 0-60-3-75-15-75s-15 16-15 84c0 76 2 86 22 100 27 19 69 21 86 4zm205 0c4-10 7-10 18 0 18 17 59 15 81-5 14-12 18-31 18-80 0-92-31-118-102-88-16 6-18 1-18-44 0-39-4-51-15-51-13 0-15 22-15 140 0 114 3 140 14 140 8 0 16-6 19-12zm297-2c0-8-7-16-15-20-12-4-15-28-15-126 0-100-2-120-15-120s-15 21-15 128c0 86 4 132 12 140 16 16 48 15 48-2zm231 3c31-16 12-29-34-23-32 5-46 2-56-10-26-31-6-46 59-46s68-3 50-57c-18-49-80-68-118-35-42 36-45 120-7 162 20 22 74 27 106 9zm-1725-393c75-15 195-57 219-76 6-5 38-15 71-24 116-30 278-22 761 39 322 40 466 54 543 53 94-2 96-2 25-5-136-4-502-52-765-98-210-37-337-48-443-36-113 13-151 23-249 67-106 48-231 73-443 89l-180 14 190-4c119-2 220-9 271-19zm1424 8c-8-2-221-26-473-54-416-46-466-49-543-40-114 14-234 61-234 90 0 6 227 10 633 9 347-1 625-3 617-5z"/>
   <path d="m1162 588c-7-7-12-34-12-60 0-41 3-50 23-57 36-14 61 9 65 58 2 24-2 49-9 57-14 17-51 18-67 2z"/>
   <path d="m400 581c-19-37-12-89 14-106 49-32 88 22 66 91-10 28-16 34-40 34-19 0-33-7-40-19z"/>
   <path d="m1710 581c-22-42 0-121 34-121 38 0 64 98 34 128-18 18-56 14-68-7z"/>
  </g>
  <g fill="#966e6e">
   <path d="m0 450v-450h1190 1190v450 450h-1190-1190v-450zm118 393c-13-3-18-15-18-44 0-32 3-39 20-39 13 0 22 10 29 33 5 17 10 24 10 14 2-31-18-57-44-57-23 0-25 4-25 50s2 50 23 49c16-1 18-2 5-6zm152 3c0-2-11-6-25-8-14-3-25-1-25 3 0 5 11 9 25 9s25-2 25-4zm118-23c3-17-3-24-22-29-32-8-34-31-3-37 19-5 19-5-3-4-35 3-42 44-8 49 13 2 24 11 26 22 4 16 0 18-29 12-25-4-30-3-19 4 24 16 55 7 58-17zm69-50c-2-16-4-3-4 27s2 43 4 28c2-16 2-40 0-55zm107 71c22-8 21-44-1-44-15 0-16 2-3 10 12 7 12 12 3 21s-16 9-28-1c-14-12-22 0-8 13 8 9 17 9 37 1zm119-29 27 40-1-40c-1-35-2-37-9-15-4 14-8 21-9 15-1-5-12-23-26-40l-24-30 1 55c1 52 1 53 7 15l6-40 28 40zm194 29c-3-3-12-4-19-1-8 3-5 6 6 6 11 1 17-2 13-5zm201-1c-36-5-40-42-5-44l22-2-22-4c-32-6-29-31 5-36 25-4 25-4-5-6l-33-1v50 50l33-1c30-2 30-2 5-6zm150-45c-1-36-2-43-5-20-5 40-12 40-40-1l-23-32 1 35c1 19 3 27 6 17 4-16 9-13 29 17 14 20 27 36 29 36 3 0 4-24 3-52zm120 25c2-13-1-23-6-23s-9 8-8 18c0 9-6 17-14 17-10 0-16-12-18-39-3-37-2-38 23-34 17 4 23 2 17-4-20-20-47-4-50 31-5 46 4 63 30 59 15-2 24-11 26-25zm210-25c2-29-1-38-7-29-5 8-7 20-4 28 10 25-16 13-33-16-23-39-34-30-33 22l2 42 12-70 25 37c14 20 27 35 30 33s7-23 8-47zm100 45c-36-5-40-42-5-44l22-2-22-4c-32-6-29-31 5-36 25-4 25-4-5-6l-33-1v50 50l33-1c30-2 30-2 5-6zm110 0c-36-5-40-42-5-44l22-2-22-4c-32-6-29-31 5-36 25-4 25-4-5-6l-33-1v50 50l33-1c30-2 30-2 5-6zm94-42c0-33 4-41 19-41 20 0 26 26 8 32-8 3-8 12 3 31 14 28 14 27 13-20 0-45-2-48-27-51-27-3-28-2-28 49 0 29 3 50 6 47s5-24 6-47zm115-28c-2-16-4-3-4 27s2 43 4 28c2-16 2-40 0-55zm106 42 27 40-1-55c-2-54-2-54-9-15-4 22-8 36-9 30 0-5-12-23-26-40l-24-30 1 55c1 52 1 53 7 15l6-40 28 40zm145 23c18-18 15-38-5-38-15 0-16 2-3 10 20 12-2 35-25 26-11-4-15-16-13-38 2-27 7-33 26-32 16 0 20-2 12-10-16-16-44 6-48 38-6 45 29 71 56 44zm-1314-13c4-11 0-15-12-13-13 2-17-4-17-27 0-42-26-39-37 4-5 18-7 36-4 39s6-2 6-11c0-23 17-21 32 3s24 25 32 5zm256 5c0-5-2-10-4-10-3 0-8 5-11 10-3 6-1 10 4 10 6 0 11-4 11-10zm247-57c-2-16-4-5-4 22 0 28 2 40 4 28 2-13 2-35 0-50zm-1182 27c3-5 1-10-4-10-6 0-11 5-11 10 0 6 2 10 4 10 3 0 8-4 11-10zm323-35c21 5 24 4 16-5-16-16-48-9-50 10-1 11 0 11 3 2s13-12 31-7zm-303-8c16-4 14-5-6-6-17-1-29 5-33 15-5 13-3 14 6 6 7-5 22-12 33-15zm452-4c-4-3-7 0-7 7s3 10 7 7c3-4 3-10 0-14zm-481-134c12-6 27-22 33-35 9-20 8-24-5-24-9 0-27 9-41 20-32 25-44 25-77-1-23-18-26-27-26-85 0-56 3-68 25-90 28-28 54-26 91 7 22 20 44 25 44 10 0-5-12-23-26-40-19-23-34-31-59-31-82 0-115 42-115 147 0 71 15 103 59 125 34 17 61 16 97-3zm272-15c32-37 31-116-3-149-32-33-78-33-110 0-20 19-25 34-25 74 0 65 7 81 44 97 38 16 64 10 94-22zm265 23 27 5v-102c0-91-2-101-17-98s-19 17-23 77c-5 81-23 107-57 85-14-8-19-29-23-85-4-57-8-74-20-74-22 0-27 138-6 170 16 25 51 36 76 24 8-4 28-5 43-2zm498-24c7-8 13-40 13-70 1-48-2-58-27-79-37-32-77-31-108 2s-34 120-5 152c30 34 97 32 127-5zm261 24 26 5-1-99c-2-80-5-98-17-98s-16 16-18 70c-3 73-13 95-43 95-35 0-49-28-49-101 0-55-3-69-15-69-24 0-21 161 3 182 21 20 52 27 72 17 8-4 27-5 42-2zm292-26c24-88 8-155-40-167-15-4-35-2-45 5-28 17-29 15-29-39 0-38-4-50-15-50-13 0-15 22-15 141 0 141 0 141 23 136 12-2 33-1 47 3 30 8 68-7 74-29zm423 16c23-17 3-27-41-21-38 6-46 4-55-15-17-31-6-40 46-36 58 3 73-2 73-26 0-74-84-115-134-66-53 53-36 158 28 175 33 9 63 5 83-11zm-1285-64 3-78 32-3c40-4 64-29 38-39-10-3-31-1-46 4-17 7-31 7-35 2-3-5-12-9-20-9-11 0-14 20-14 100 0 93 1 100 20 100 17 0 19-8 22-77zm1048 63c0-8-7-16-15-20-12-4-15-28-15-126 0-100-2-120-15-120s-15 21-15 128c0 86 4 132 12 140 16 16 48 15 48-2zm-1480-391c41-9 116-34 167-56 51-21 111-43 135-49 99-22 277-11 727 45 319 40 469 55 548 54l108-2-120-8c-66-4-174-15-240-24-66-8-155-20-197-26-42-5-168-25-280-43-341-57-497-55-648 9-171 73-244 88-515 111l-160 13 200-4c135-2 224-9 275-20zm1410 9c-8-2-221-26-473-54-416-46-466-49-543-40-114 14-234 61-234 90 0 6 227 10 633 9 347-1 625-3 617-5z"/>
   <path d="m400 581c-28-53-2-115 45-109 28 3 30 6 33 51 2 27-2 55-9 63-17 20-57 17-69-5z"/>
   <path d="m1162 588c-16-16-16-90 0-106 15-15 51-15 66 0 7 7 12 31 12 55 0 32-5 45-19 53-26 13-44 13-59-2z"/>
   <path d="m2130 507c0-8 9-22 20-32 17-15 24-16 45-7 15 7 25 20 25 32 0 17-7 20-45 20-31 0-45-4-45-13z"/>
  </g>
  <g transform="translate(3130.9 2543.6)" fill="#b17071">
   <path d="m0 450v-450h2380v900h-2380zm154 367c13-36-2-61-38-65-25-3-26-2-26 48s1 51 27 48c20-2 30-11 37-31zm104 26c-35-5-39-40-5-46 19-4 18-4-5-6-35-1-27-28 10-34 21-3 18-4-10-6l-38-1v100l38-1c30-2 32-3 10-6zm130-20c3-17-3-24-22-29-14-3-26-13-26-21 0-10 7-14 20-10 11 3 20 1 20-5 0-5-10-8-22-6-35 5-36 44-3 52 34 9 26 32-9 29-15-1-24 2-20 8 3 6 18 9 32 7 19-2 28-10 30-25zm69-50c-2-16-4-3-4 27s2 43 4 28c2-16 2-40 0-55zm122 58c12-21 5-31-18-31-14 0-14 2-1 10 12 7 12 12 2 22-18 18-34-3-30-38 2-24 7-29 26-27 13 2 21-1 17-7-12-19-45-10-57 15-23 52 35 105 61 56zm104-16 27 40-1-55c-2-52-2-53-8-16l-6 40-20-37c-11-20-23-37-27-37-5 0-7 24-7 53 2 51 2 51 8 12l6-40zm233 13c0-11-7-17-16-15-11 1-15-7-15-28 0-19-6-31-16-33-12-2-18 8-23 38-8 52-3 60 37 57 24-1 33-7 33-19zm164 13c-33-9-40-41-8-42l23-2-22-4c-32-6-29-31 5-36 25-4 25-4-5-6l-33-1v50c0 50 0 50 33 49 29-1 30-2 7-8zm89-85c-11-12-11-12-14 39-4 57 8 69 16 15 4-25 3-49-2-54zm59 42c-1-36-2-43-5-20-5 35-17 42-27 16-4-9-9-14-12-11-6 6 33 67 42 67 2 0 3-24 2-52zm123 31c8-17 8-23-2-30-7-4-17-5-22-2s-3 9 4 14c11 6 11 11 1 21-18 18-34-3-30-38 2-24 7-29 26-27 13 2 21-1 17-7-19-31-66 3-59 43 8 51 43 65 65 26zm66-56c-2-16-4-3-4 27s2 43 4 28c2-16 2-40 0-55zm103 39c14 21 28 38 33 38 4 0 7-24 6-52 0-37-3-47-8-33-5 11-6 26-4 33 10 25-16 11-34-18-25-43-33-37-32 23 2 51 2 51 8 12l6-40zm138 31c-36-5-40-42-5-44l22-2-22-4c-32-6-29-31 5-36 25-4 25-4-5-6l-33-1v100l33-1c30-2 30-2 5-6zm112-2c-33-9-40-41-8-42l23-2-22-4c-32-6-29-31 5-36 25-4 25-4-5-6l-33-1v50c0 50 0 50 33 49 29-1 30-2 7-8zm92-40c0-33 4-41 19-41 20 0 26 26 8 32-9 3-8 11 2 30 14 26 14 26 16-23 2-48 2-49-27-49s-30 1-30 52c0 28 3 49 6 46s5-24 6-47zm115-28c-2-16-4-3-4 27s2 43 4 28c2-16 2-40 0-55zm102 40c13 20 25 37 27 37s3-24 3-52l-2-53-7 40c-4 22-8 36-9 30 0-5-12-23-26-40l-24-30 1 55c1 53 1 53 7 15l7-40zm155 21c10-26 7-34-11-34-14 0-15 2-4 9 16 10 6 31-14 31-17 0-28-34-20-61 5-16 12-19 32-14 16 4 22 2 18-5-10-16-52-12-59 6-10 25-7 59 6 72 17 17 45 15 52-4zm-2008-215c12-6 27-22 33-35 9-20 8-24-5-24-9 0-27 9-41 20-32 25-44 25-77-1-23-18-26-27-26-85 0-55 4-69 23-88 28-28 71-25 90 5 12 19 47 26 47 10 0-5-12-24-27-41-25-30-30-32-76-27-73 7-89 28-94 124-5 91 7 120 56 145 34 17 61 16 97-3zm272-15c32-37 31-116-3-149-30-31-73-32-109-4-22 17-26 28-26 74 0 69 7 84 44 101 38 16 64 10 94-22zm265 23 27 5v-101c0-94-1-101-20-101-17 0-19 8-22 76-2 60-7 79-20 88-13 8-23 8-35 0-14-9-19-28-21-88-3-68-5-76-22-76-18 0-20 7-20 78 0 53 5 84 15 99 16 23 51 33 75 22 8-4 28-5 43-2zm494-18c6-6 15-30 18-54 16-106-77-168-140-93-23 28-27 39-23 80 5 52 28 85 62 90 23 4 63-7 83-23zm266 18 27 5v-101c0-94-1-101-20-101-18 0-20 7-20 75 0 63-3 76-19 85-49 26-71-2-71-91 0-55-3-69-15-69-24 0-21 161 3 182 21 20 52 27 72 17 8-4 28-5 43-2zm294-36c4-14 7-48 7-75 0-39-5-52-23-67-25-20-66-25-76-9-14 23-25 7-25-40 0-38-4-50-15-50-13 0-15 22-15 141 0 141 0 141 23 136 12-2 33-1 47 3 34 9 69-8 77-39zm420 26c22-16 3-27-36-21-28 4-42 2-55-11-26-26-14-40 29-37 79 7 103-16 73-71-40-76-136-54-153 36-10 51 18 105 59 115 33 9 63 5 83-11zm-1285-64 3-78 30-3c34-4 57-20 49-33-7-13-61-11-70 2-4 8-9 8-17 0-30-30-37-12-37 89 0 93 1 100 20 100 17 0 19-8 22-77zm1048 63c0-8-7-17-16-20-13-5-15-24-12-126 3-109 1-120-14-120-16 0-18 13-18 128 0 86 4 132 12 140 16 16 48 15 48-2zm-1480-391c41-9 116-34 167-56 51-21 111-43 135-49 99-22 277-11 724 45 359 45 460 55 568 53 81-1 100-3 51-5-164-5-509-49-855-107-196-33-307-40-410-26-99 13-129 21-230 65-125 53-239 74-515 95-108 8-99 8 85 5 141-3 229-9 280-20zm1410 9c-56-14-854-97-935-97-110 0-203 20-269 56-85 48-91 47 586 46 348-1 626-3 618-5z"/>
   <path d="m100 800c0-33 3-40 20-40 24 0 38 44 20 65-23 28-40 18-40-25z"/>
   <path d="m850 820c0-23 10-26 28-8s15 28-8 28c-13 0-20-7-20-20z"/>
   <path d="m406 584c-19-19-21-74-3-98 9-12 23-17 42-14 28 3 30 6 33 51 5 70-32 101-72 61z"/>
   <path d="m1162 588c-16-16-16-90 0-106 15-15 51-15 66 0 17 17 15 84-4 102-18 19-45 21-62 4z"/>
   <path d="m1710 574c-21-54-5-104 33-104 32 0 47 18 47 58 0 47-16 72-46 72-17 0-27-8-34-26z"/>
   <path d="m2130 507c0-16 32-47 48-47 15 0 42 29 42 46 0 10-13 14-45 14-31 0-45-4-45-13z"/>
  </g>
  <g transform="translate(3744.9 652.12)" fill="#aa847d">
   <path d="m0 450v-450h2380v900h-2380zm154 367c13-36-2-61-38-65-25-3-26-2-26 48s1 51 27 48c20-2 30-11 37-31zm104 26c-36-5-40-42-5-44l22-2-22-4c-32-6-29-31 5-36 22-3 20-4-10-6l-38-1v100l38-1c30-2 32-3 10-6zm130-20c3-17-3-24-22-29-14-3-26-13-26-21 0-10 7-14 20-10 11 3 20 1 20-4 0-14-47-10-53 4-7 19 4 33 31 42 31 9 22 31-12 28-15-1-24 2-20 8 3 6 18 9 32 7 19-2 28-10 30-25zm69-50c-2-16-4-3-4 27s2 43 4 28c2-16 2-40 0-55zm122 58c8-14 7-22-3-30-9-8-16-8-20-2-3 5 0 11 6 14 10 4 11 7 1 18-18 19-35-2-31-37 2-24 7-29 26-27 13 2 21-1 17-7-12-19-45-10-57 15-23 52 35 105 61 56zm100-18c13 20 25 37 27 37s3-24 3-52c-2-48-2-50-8-18l-7 35-20-32c-10-18-22-33-26-33-5 0-7 24-7 53 2 51 2 52 8 12l7-40zm237 15c0-11-7-17-16-15-11 1-15-7-15-28 0-19-6-31-16-33-12-2-18 8-23 38-8 52-3 60 37 57 24-1 33-7 33-19zm165 13c-33-9-38-29-9-40l23-10h-22c-33-1-29-29 5-34 25-4 25-4-5-6l-33-1v50c0 50 0 50 33 49 29-1 29-2 8-8zm120-21 28 35-1-55c-1-35-3-43-5-22-5 40-14 40-37 1-21-36-30-31-32 19-2 49 10 67 14 22l4-35zm150 9c8-17 8-23-2-30-7-4-17-5-22-2s-3 9 4 14c11 6 11 11 1 21-18 18-34-3-30-38 2-24 7-29 26-27 13 2 21-1 17-7-11-18-45-10-56 13-24 53 34 107 62 56zm66-56c-2-16-4-3-4 27s2 43 4 28c2-16 2-40 0-55zm76 35-4-33 25 30c14 17 26 33 26 38 0 4 5 7 10 7 6 0 10-22 10-50 0-30-4-50-11-50s-9 11-5 30c3 17 1 30-4 30s-17-13-27-30c-25-43-33-37-33 21 0 27 4 48 8 45 5-3 7-20 5-38zm165 35c-36-5-40-42-5-44l22-2-22-4c-32-6-29-31 5-36 25-4 25-4-5-6l-33-1v100l33-1c30-2 30-2 5-6zm113-2c-33-9-38-29-9-40l23-10h-22c-33-1-29-29 5-34 25-4 25-4-5-6l-33-1v50c0 50 0 50 33 49 29-1 29-2 8-8zm99-41c5 0 15 11 22 24 12 24 13 22 15-25 2-48 2-49-27-49-30 0-30 1-29 53 1 28 4 40 6 25 2-16 8-28 13-28zm107-27c-2-16-4-3-4 27s2 43 4 28c2-16 2-40 0-55zm103 42c24 38 24 39 30 15 3-14 3-38 1-55l-6-30-3 35-4 35-29-35-28-35 1 55c1 52 1 53 7 15l6-40zm155 14c7-22-9-48-22-35-4 4-1 11 6 15 16 10 6 31-14 31-17 0-28-34-20-61 5-16 12-19 32-14 16 4 22 2 18-5-10-16-52-12-59 6-10 25-7 59 6 72 19 19 46 14 53-9zm-2027-198c16-1 62-46 62-61 0-16-31-12-51 6-24 22-65 21-89-1-24-21-28-114-7-155 17-34 69-40 94-11 20 23 53 28 53 8 0-7-13-25-28-40-38-36-99-37-139-3-25 22-28 31-31 103-2 50 2 87 10 103 15 28 70 60 96 55 9-2 23-4 30-4zm290-27c32-37 31-116-3-149-32-33-83-34-114-1-28 30-33 112-8 149 28 43 86 43 125 1zm260 25 32 1v-100c0-93-1-100-20-100-17 0-19 8-22 76-2 60-7 79-20 88-13 8-23 8-35 0-14-9-19-28-21-88-3-68-5-76-22-76-18 0-20 7-20 80 0 72 3 84 24 105 17 17 31 22 48 18 12-3 38-5 56-4zm495-19c38-36 29-148-13-170-29-15-73-11-99 9-35 27-42 115-12 153 33 41 87 44 124 8zm265 19 32 1v-100c0-93-1-100-20-100-18 0-20 7-20 75 0 71-2 76-25 87-21 9-28 8-45-7-16-15-20-31-20-87 0-54-3-68-15-68s-15 16-15 83c0 45 4 87 8 93 13 20 47 34 67 28 11-4 35-6 53-5zm289-12c7-7 16-39 19-72 5-52 3-64-16-87-22-29-72-39-85-18-14 23-25 7-25-40 0-38-4-50-15-50-13 0-15 22-15 141v141l23-5c12-4 29-2 37 4 17 11 59 3 77-14zm187-14c-13-10-16-33-15-132 2-116 1-121-19-121-19 0-20 6-20 128 0 70 4 132 8 138 10 16 45 22 54 9 4-5 0-15-8-22zm243 15c22-17 3-28-36-22-28 4-42 2-54-11-29-28-19-35 48-35h65v-34c0-73-90-115-137-63-46 48-34 155 19 177 25 10 76 3 95-12zm-1285-65 3-78 35-3c34-4 53-18 44-34-8-12-59-9-72 4-9 9-12 9-12 0 0-7-9-12-20-12-19 0-20 7-20 100s1 100 20 100c17 0 19-8 22-77zm-496-318c97-13 149-30 294-91 58-25 79-28 205-32 124-3 189 3 581 52 360 46 465 56 575 55l134-2-141-8c-141-7-493-53-702-90-150-27-333-49-403-49-95 0-226 28-325 70-139 59-223 75-534 99l-105 8 160 1c93 1 203-4 261-13zm1474-1c-56-14-854-97-935-97-110 0-203 20-269 56-85 48-91 47 586 46 348-1 626-3 618-5z"/>
   <path d="m407 582c-31-34-15-112 23-112 41 0 50 11 50 59 0 68-36 94-73 53z"/>
   <path d="m1168 589c-21-12-25-88-6-107 15-15 51-15 66 0 17 17 15 84-4 102-18 18-32 20-56 5z"/>
   <path d="m2135 509c-8-12 23-49 41-49 17 0 44 28 44 46 0 17-75 20-85 3z"/>
  </g>
  <g transform="translate(-541.53 1350)" fill="#c77476">
   <path d="m0 450v-450h2380v900h-2380zm148 388c15-15 15-61 0-76-7-7-22-12-35-12-21 0-23 4-23 50s2 50 23 50c13 0 28-5 35-12zm110 5c-36-5-40-42-5-44l22-2-22-4c-32-6-29-31 5-36 22-3 20-4-10-6l-38-1v100l38-1c30-2 32-3 10-6zm130-20c3-17-3-24-22-29-14-3-26-13-26-21 0-10 7-14 20-10 11 3 20 1 20-4 0-15-47-10-54 6-6 17 19 45 41 45 8 0 13 6 10 13-2 6-16 11-31 9-19-2-25 1-21 8 12 20 60 7 63-17zm72-24c0-27-3-48-7-46-5 3-7 25-6 49 1 49 1 48 8 48 3 0 5-23 5-51zm121 30c8-17 8-23-2-30-7-4-17-5-22-2s-3 9 4 14c11 6 11 11 2 20-17 17-33 2-33-31 0-35 15-46 37-28 14 11 15 11 11-2-11-35-68-17-68 22 0 53 48 78 71 37zm97-16c13 20 27 35 31 32 11-6 13-95 2-95-5 0-11 15-13 33l-4 32-19-32c-11-18-23-33-27-33-5 0-7 24-7 53 2 51 2 51 8 12l6-40zm238 16c0-11-7-18-16-16-11 1-14-6-12-30 2-27-2-33-17-33-14 0-20 10-25 41-8 51-3 59 37 57 25-1 33-6 33-19zm165 12c-33-9-38-29-9-40l23-10h-22c-33-1-29-29 5-34 25-4 25-4-5-6l-33-1v50c0 50 0 50 33 49 29-1 29-2 8-8zm115-24c10 18 22 33 27 33 4 0 6-24 5-52-1-36-2-43-5-20-5 40-14 40-36 2-25-42-37-37-37 13 0 54 13 70 21 25l5-33zm155 12c12-24-1-46-21-34-9 6-9 10 1 16 11 6 11 11 2 20-17 17-33 2-33-31 0-35 15-46 37-28 14 11 16 11 11-2-8-27-47-24-60 4-24 54 35 106 63 55zm66-56c-2-16-4-3-4 27s2 43 4 28c2-16 2-40 0-55zm76 35-4-33 25 30c14 17 26 33 26 38 0 4 5 7 10 7 6 0 10-22 10-50 0-30-4-50-11-50s-9 11-5 30c3 17 1 30-4 30s-17-13-27-30c-25-43-33-37-33 21 0 27 4 48 8 45 5-3 7-20 5-38zm165 35c-36-5-40-42-5-44l22-2-22-4c-32-6-29-31 5-36 21-4 19-5-7-3-33 1-34 2-33 44 0 23 1 44 1 47 1 3 16 4 34 4 30-2 30-2 5-6zm112-2c-28-8-34-36-8-36 9 0 20-4 24-8s-5-7-19-7c-36 0-35-27 1-33 25-4 25-4-5-6l-33-1v50c0 50 0 50 33 49 29-1 30-2 7-8zm101-41c5 0 15 11 21 25s15 25 20 25 5-8 0-17c-5-10-7-33-5-50 5-31 4-33-26-33-25 0-31 4-32 23 0 12-2 31-4 41-2 11-1 25 3 30 4 6 8-1 10-16 2-16 8-28 13-28zm106-27c-2-16-4-3-4 27s2 43 4 28c2-16 2-40 0-55zm102 40c13 21 26 35 29 32 4-3 8-26 9-51 3-50-14-61-19-11l-4 32-19-32c-11-18-23-33-27-33-5 0-7 24-7 53 2 51 2 51 8 12l6-40zm159 13c4-20-14-44-25-32-4 4-1 11 7 16 12 7 12 12 2 22-20 20-46-13-38-47 6-23 10-26 34-20 20 5 24 4 16-5-7-6-22-10-35-8-19 2-25 10-27 36-2 18 2 40 9 48 16 20 53 14 57-10zm-2030-195c16-1 62-46 62-61s-36-12-50 5c-17 20-69 19-92-2-22-19-25-114-5-153 17-34 69-40 94-11 20 23 53 28 53 8 0-7-13-25-28-40-38-36-99-37-139-3-25 22-28 31-31 103-2 50 2 87 10 103 15 28 70 60 96 55 9-2 23-4 30-4zm290-27c32-37 31-116-3-149-33-34-83-34-116 1-45 48-23 166 33 177 35 6 61-2 86-29zm260 25h32v-99c0-93-1-100-20-100-17 0-19 8-22 76-2 60-7 79-20 88-13 8-23 8-35 0-14-9-19-28-21-88-3-68-5-76-22-76-18 0-20 7-20 80 0 72 3 84 24 105 17 17 31 23 48 19 12-3 38-5 56-5zm495-17c38-38 29-149-13-172-33-18-79-11-105 15-20 19-25 34-25 75 0 43 5 56 29 80 23 23 35 28 62 25 18-3 42-13 52-23zm265 17 32 1v-100c0-93-1-100-20-100-18 0-20 7-20 75 0 71-2 76-25 87-21 9-28 8-45-7-16-15-20-31-20-87 0-54-3-68-15-68s-15 16-15 83c0 45 4 87 8 93 13 20 47 34 67 28 11-4 35-6 53-5zm289-12c7-7 16-39 19-72 5-52 3-64-16-87-22-29-72-39-85-18-14 23-25 7-25-40 0-38-4-50-15-50-17 0-18 10-16 170v105h30c17 1 33 4 38 8 9 10 54 0 70-16zm187-14c-13-10-16-33-15-132 2-116 1-121-19-121-19 0-20 6-20 128 0 70 4 132 8 138 10 16 45 22 54 9 4-5 0-15-8-22zm219 26c50-14 43-35-10-31-27 2-46-2-57-13-28-28-18-35 49-35h65v-35c0-75-89-114-139-61-55 58-24 177 49 185 3 1 22-4 43-10zm-1261-76 3-78 35-3c34-4 53-18 44-34-8-12-59-9-72 4-9 9-12 9-12 0 0-7-9-12-20-12-19 0-20 7-20 100s1 100 20 100c17 0 19-8 22-77zm-492-318c95-14 147-31 290-91 58-25 79-28 205-32 118-3 184 2 420 33 154 20 316 40 360 45 44 6 114 14 155 20 41 5 138 9 215 8l140-1-141-8c-144-8-479-51-729-94-375-65-507-58-735 38-103 44-216 64-444 81l-171 13 168 2c104 0 204-5 267-14zm1475 0c-5-2-116-16-245-30s-291-32-360-40c-280-32-334-35-415-25-121 15-235 59-235 91 0 5 248 9 633 8 347 0 628-2 622-4z"/>
   <path d="m407 582c-33-36-15-112 26-112 34 0 47 19 47 65 0 62-38 86-73 47z"/>
   <path d="m1168 589c-21-12-25-88-6-107 18-18 56-14 68 7 15 29 12 77-6 95s-32 20-56 5z"/>
   <path d="m1710 570c-18-43-2-94 30-98 30-5 50 21 50 64 0 63-58 87-80 34z"/>
   <path d="m2133 507c-6-11 26-47 43-47s44 28 44 46c0 11-10 14-41 12-22-1-43-6-46-11z"/>
  </g>
  <g transform="translate(-5321.7 2029.6)" fill="#c37c85">
   <path d="m0 450v-450h2380v900h-2380zm148 388c15-15 15-61 0-76-7-7-22-12-35-12-21 0-23 4-23 50s2 50 23 50c13 0 28-5 35-12zm110 5c-36-5-40-42-5-44l22-2-22-4c-32-6-29-31 5-36 22-3 20-4-10-6l-38-1v100l38-1c30-2 32-3 10-6zm130-20c3-17-3-24-22-29-14-3-26-13-26-21 0-10 7-14 20-10 11 3 20 1 20-4 0-15-47-10-54 6-6 17 19 45 41 45 8 0 13 6 10 13-2 6-16 11-31 9-19-2-25 1-21 8 12 20 60 7 63-17zm72-24c0-27-3-48-7-46-5 3-7 25-6 49 1 49 1 48 8 48 3 0 5-23 5-51zm121 30c8-17 8-23-2-30-7-4-17-5-22-2s-3 9 4 14c11 6 11 11 2 20-17 17-33 2-33-31 0-35 15-46 37-28 14 11 15 11 11-2-11-35-68-17-68 22 0 53 48 78 71 37zm77-39c4 0 16 14 26 30 22 39 32 32 34-25 2-51-15-62-20-12l-3 32-20-32c-10-18-23-33-27-33s-7 24-6 53c1 35 2 42 5 20 2-18 8-33 11-33zm258 39c0-11-7-18-16-16-11 1-14-6-12-30 2-27-2-33-17-33-14 0-20 10-25 41-8 51-3 59 37 57 25-1 33-6 33-19zm165 12c-33-9-38-29-9-40l23-10h-22c-33-1-29-29 5-34 25-4 25-4-5-6l-33-1v50c0 50 0 50 33 49 29-1 29-2 8-8zm115-24c10 18 22 33 27 33 4 0 6-24 5-52-1-36-2-43-5-20-5 40-14 40-36 2-25-42-37-37-37 13 0 54 13 70 21 25l5-33zm155 12c12-24-1-46-21-34-9 6-9 10 1 16 11 6 11 11 2 20-17 17-33 2-33-31 0-35 15-46 37-28 14 11 16 11 11-2-8-27-47-24-60 4-24 54 35 106 63 55zm66-56c-2-16-4-3-4 27s2 43 4 28c2-16 2-40 0-55zm78 47c-10-32 13-32 31 0 26 42 34 37 34-20 0-55-17-69-22-17l-3 32-20-32c-10-18-23-33-27-33s-8 23-8 51c0 32 4 48 10 44s8-15 5-25zm163 23c-36-5-40-42-5-44l22-2-22-4c-32-6-29-31 5-36 21-4 19-5-7-3-33 1-34 2-33 44 0 23 1 44 1 47 1 3 16 4 34 4 30-2 30-2 5-6zm112-2c-28-8-34-36-8-36 9 0 20-4 24-8s-5-7-19-7c-36 0-35-27 1-33 25-4 25-4-5-6l-33-1v50c0 50 0 50 33 49 29-1 30-2 7-8zm105-31c8 0 17 9 20 20s11 20 16 20c6 0 6-7 1-17s-7-33-5-50c5-31 4-33-26-33-25 0-31 4-32 23 0 12-2 31-4 41-2 11-1 25 3 30 4 6 8 1 10-11 2-13 10-23 17-23zm102-37c-2-16-4-3-4 27s2 43 4 28c2-16 2-40 0-55zm81 17c4 0 16 14 26 31 22 37 30 31 33-27 3-50-14-61-19-11l-3 32-20-32c-10-18-23-33-27-33s-7 24-6 53c1 35 2 42 5 20 2-18 8-33 11-33zm180 36c4-20-14-44-25-32-4 4-1 11 7 16 12 7 12 12 2 22-20 20-46-13-38-47 6-23 10-26 34-20 20 5 24 4 16-5-7-6-22-10-35-8-19 2-25 10-27 36-2 18 2 40 9 48 16 20 53 14 57-10zm-2018-201c26-13 50-42 50-59 0-13-48-5-54 9-3 9-18 15-40 15-30 0-38-5-52-32-19-36-16-127 5-152 19-22 64-20 86 4 21 23 55 27 55 6 0-22-49-64-81-68-38-6-90 19-106 52-15 30-17 138-3 174 10 28 64 66 93 66 10 0 31-7 47-15zm278-21c32-37 31-116-3-149-49-50-126-22-141 50-3 17 1 48 8 70 22 68 88 82 136 29zm265 25 27 1v-100c0-93-1-100-20-100-18 0-20 7-20 75 0 64-3 76-20 85-14 8-26 8-40 0-17-9-20-21-20-85 0-68-2-75-20-75s-20 7-20 80 2 83 26 106c20 21 31 24 52 19 15-4 39-7 55-6zm496-26c20-23 23-34 19-81-6-65-31-92-85-92-53 0-83 36-83 100 0 44 4 56 30 82 26 25 36 29 63 24 18-3 43-18 56-33zm259 26 32 1v-100c0-93-1-100-20-100-18 0-20 7-20 69 0 50-4 74-16 85-40 41-74-1-74-91 0-49-3-63-15-63-8 0-16 8-16 18-2 33 2 137 7 153 6 22 44 40 69 32 11-3 35-5 53-4zm214 2c34 15 79-6 89-41 24-85-5-160-61-160-16 0-32 5-35 10-13 20-25-2-25-46 0-31-4-44-14-44-20 0-24 27-23 155 1 94 4 118 16 125 9 5 18 4 22-1 4-6 15-6 31 2zm263-27c-12-9-15-37-15-133 0-114-1-121-20-121s-20 7-20 128c0 70 4 132 8 138 10 16 45 22 54 9 4-5 1-15-7-21zm224 25c39-14 35-35-5-31-45 4-71-6-77-28-5-18 0-20 59-20h64v-35c0-75-89-114-139-61-57 61-22 181 55 185 6 1 25-4 43-10zm-1269-73c0-79 5-86 55-86 22 0 40-22 28-34-11-11-59-6-71 6-9 9-12 9-12 0 0-7-9-12-20-12-19 0-20 7-20 100s1 100 20 100c18 0 20-7 20-74zm-489-321c92-13 153-33 289-91 58-25 80-28 205-32 119-3 181 1 415 32 543 71 592 76 735 74l140-1-144-8c-157-9-484-52-761-101-142-25-204-31-325-31-167 0-218 10-375 76-103 44-216 64-444 81l-171 13 170 2c104 0 207-5 266-14zm1474 0c-5-2-116-16-245-30s-291-32-360-40c-280-32-334-35-415-25-121 15-235 59-235 91 0 5 248 9 633 8 347 0 628-2 622-4z"/>
   <path d="m100 800c0-33 4-40 19-40 23 0 37 46 20 66-22 27-39 16-39-26z"/>
   <path d="m855 830c-11-17 5-32 21-19 7 6 11 15 8 20-7 12-21 11-29-1z"/>
   <path d="m406 578c-30-43-13-108 27-108 34 0 47 19 47 65 0 64-42 88-74 43z"/>
   <path d="m1166 584c-19-18-21-85-4-102 18-18 56-14 68 7 23 45 3 111-35 111-7 0-21-7-29-16z"/>
   <path d="m1710 570c-19-45-3-94 32-98 34-4 52 27 44 76-9 59-55 72-76 22z"/>
   <path d="m2135 512c-2-3 0-13 6-23 17-33 79-18 79 18 0 10-12 13-40 11-22-1-43-4-45-6z"/>
  </g>
  <g transform="translate(-2635.2 2562.7)" fill="#b58f8e">
   <path d="m0 450v-450h2380v900h-2380zm148 388c15-15 15-61 0-76-7-7-22-12-35-12-21 0-23 4-23 50s2 50 23 50c13 0 28-5 35-12zm110 5c-36-5-40-42-5-44l22-2-22-4c-32-6-29-31 5-36 22-3 20-4-10-6l-38-1v100l38-1c30-2 32-3 10-6zm130-20c3-17-3-24-23-29-28-7-29-30-1-28 9 1 16-2 16-7 0-15-47-10-54 6-6 17 19 45 41 45 8 0 13 6 10 13-2 6-16 11-31 9-19-2-25 1-21 8 12 20 60 7 63-17zm72-24c0-27-3-48-7-46-5 3-7 25-6 49 1 49 1 48 8 48 3 0 5-23 5-51zm121 30c11-21 0-38-23-39-13 0-9 18 5 23 9 3 9 7 0 17-17 18-33 3-33-30 0-35 15-46 37-28 14 11 15 11 11-2-11-35-68-17-68 22 0 53 48 78 71 37zm77-39c4 0 16 14 26 30 23 39 36 30 36-26 0-51-17-60-22-11l-3 32-20-32c-10-18-23-33-27-33s-7 24-6 53c1 35 2 42 5 20 2-18 8-33 11-33zm258 38c0-22-4-23-28-1-13 12-22 13-29 6-15-15-1-37 15-24 9 8 12 2 13-24 1-27-3-35-17-35-13 0-19 11-24 41-8 51-3 59 37 57 25-1 33-6 33-20zm165 13c-33-9-37-27-9-36l23-8-23-4c-29-6-24-25 9-34 21-6 21-7-8-8-33-1-33-1-33 49s0 50 33 49c29-1 29-2 8-8zm114-23c11 17 23 32 27 32s7-24 6-52c-1-36-2-43-5-20-5 40-13 40-35 2-24-42-38-37-38 13 0 54 13 71 20 25l5-33zm156 11c12-24-1-46-21-34-9 6-9 10 1 16 11 6 11 11 2 20-17 17-33 2-33-31 0-35 15-46 37-28 14 11 16 11 11-2-8-27-47-24-60 4-24 54 35 106 63 55zm66-56c-2-16-4-3-4 27s2 43 4 28c2-16 2-40 0-55zm85 37c3-25 3-25 23 8 10 17 23 32 27 32s8-22 8-50c0-27-4-50-10-50-5 0-10 15-10 32v33l-22-32c-13-18-26-33-30-33-5 0-8 23-8 52 0 52 15 58 22 8zm156 33c-19-3-28-10-28-23s5-17 14-14c8 3 17 1 21-5 3-7-2-11-14-11-31 0-25-28 7-33 21-4 19-5-7-3-33 1-34 2-33 44 0 23 1 44 1 47 1 3 16 4 34 4 30-2 30-2 5-6zm112-2c-28-8-34-36-8-36 9 0 20-4 24-8s-5-7-20-7c-34 0-30-21 5-31 21-6 21-7-8-8-33-1-33-1-33 49s0 50 33 49c29-1 30-2 7-8zm105-31c8 0 17 9 20 20s11 20 16 20c6 0 6-7 1-17s-7-33-5-50c5-31 4-33-26-33-25 0-31 4-32 23 0 12-2 31-4 41-2 11-1 25 3 30 4 6 8 1 10-11 2-13 10-23 17-23zm102-37c-2-16-4-3-4 27s2 43 4 28c2-16 2-40 0-55zm81 17c4 0 16 14 26 31 22 37 30 31 33-27 3-50-14-61-19-11l-3 32-20-32c-10-18-23-33-27-33s-7 24-6 53c1 35 2 42 5 20 2-18 8-33 11-33zm180 36c4-20-14-44-25-32-4 4-2 11 5 15 10 6 10 10-1 20-21 17-41-11-33-45 6-22 11-25 34-19 20 5 24 4 16-5-7-6-22-10-35-8-19 2-25 10-27 36-2 18 2 40 9 48 16 20 53 14 57-10zm-2018-201c26-13 50-42 50-59 0-13-48-5-54 9-3 9-18 15-40 15-30 0-38-5-52-32-19-36-16-127 5-152 19-22 64-20 86 4 19 21 55 27 55 10 0-25-35-60-68-70-29-8-44-6-72 8-47 23-60 53-60 138 0 58 4 76 21 98 36 46 80 56 129 31zm260-2c36-24 40-32 40-89 0-68-27-104-76-104s-71 14-84 55c-33 101 44 190 120 138zm283 6 27 1v-100c0-93-1-100-20-100-18 0-20 7-20 75 0 64-3 76-20 85-14 8-26 8-40 0-17-9-20-21-20-85 0-68-2-75-20-75s-20 7-20 84c0 80 1 86 27 106 20 15 34 19 53 14 14-4 37-6 53-5zm185-70c3-78 10-89 53-89 25 0 45-21 32-34-11-11-59-6-71 6-9 9-12 9-12 0 0-7-9-12-20-12-19 0-20 7-20 104 0 94 2 104 18 102 14-2 18-15 20-77zm304 51c28-29 30-35 26-87-6-66-30-93-85-93-53 0-83 36-83 100 0 44 5 56 29 81 39 38 74 38 113-1zm230 19c12-6 23-7 27-2 3 5 13 9 21 8 12 0 16-20 18-102 3-98 2-103-18-103-18 0-20 6-20 69 0 50-4 74-16 85-40 40-76-4-73-88 3-61-2-72-26-63-18 8-21 107-4 156 15 44 53 60 91 40zm219-2c3-4 17-3 31 4 34 15 79-6 89-41 24-85-5-160-61-160-16 0-32 5-35 10-13 20-25-2-25-46 0-37-3-44-20-44-19 0-20 7-20 138 0 76 3 141 6 145 8 8 27 5 35-6zm309-12c0-7-7-15-15-19-12-4-15-28-15-126 0-114-1-120-20-120-20 0-20 5-18 137 3 137 3 137 28 143 29 8 40 4 40-15zm209 14c34-12 33-11 25-33-4-12-11-13-32-5-35 13-68 4-75-21-5-18 0-20 59-20h64v-35c0-75-89-114-139-61-57 61-22 181 55 185 6 1 25-4 43-10zm-1662-413c48-13 126-41 173-62 82-36 89-38 220-42 119-3 186 3 575 52 366 47 462 56 580 55l140-2-140-8c-162-10-433-45-725-95-366-62-513-56-706 26-139 59-239 78-529 97l-120 8 110 5c155 7 319-6 422-34zm1378 19c-5-2-116-16-245-30s-291-32-360-40c-280-32-334-35-415-25-121 15-235 59-235 91 0 5 248 9 633 8 347 0 628-2 622-4z"/>
   <path d="m100 801c0-35 3-41 21-41 17 0 20 5 17 37-2 27-8 39-20 41-15 3-18-4-18-37z"/>
   <path d="m404 574c-24-36-9-98 24-102 35-5 52 15 52 64 0 33-5 46-19 54-29 15-39 13-57-16z"/>
   <path d="m1166 584c-19-18-21-85-4-102 18-18 56-14 68 7 16 30 12 76-8 94-23 21-36 21-56 1z"/>
   <path d="m2135 512c-11-11 18-42 39-42 23 0 54 25 44 36-7 6-77 12-83 6z"/>
  </g>
 </g>
 <path d="m-4225 4764.1c111-7 236-39 352-91 82-36 89-38 220-42 120-3 184 3 575 53 434 56 755 80 755 58 0-6-69-13-157-16-161-6-457-43-772-97-333-58-488-51-677 30-120 51-239 75-442 89-85 6-166 12-180 13-15 1 20 4 78 8 58 3 116 4 130 3s67-5 118-8zm1557-10c-5-2-116-16-245-30s-291-32-360-40c-280-32-334-35-415-25-121 15-235 59-235 91 0 5 248 9 633 8 347 0 628-2 622-4z" fill="#a39c99"/>
 <g>
  <g transform="translate(-4263.6 804.66)" fill="#ce9292">
   <path d="m0 450v-450h2380v900h-2380v-450zm149 386c54.332-48.927-52.816-125.19-59-66.644-1.9816 42.671-5.0244 114.62 59 66.644zm109 7c-80.804-18.451 65.78-52.076-15.367-53.064-39.759-33.379 73.912-41.159-9.8944-39.337-41.221-11.286-15.799 45.848-22.738 69.757-29.433 50.449 83.727 23.036 48 22.644zm127-23c-4.8669-31.576-83.747-50.188-1.375-53.875 9.5251-43.876-113.47 6.5494-33.156 39.234 91.181 25.094-96.335 30.204 7.5312 42.641 16.054 1.3576 30.143-11.372 27-28zm75-20c1.0628-108.77-44.991 18.524-5.9062 48.516 12.263-10.479 2.0306-34.728 5.9062-48.516zm120 35c39.628-48.432-66.362-53.41-10.25-16.125-63.77 59.569-35.354-103.69 8.25-48.875-88.513-88.559-91.656 139.41 2 65zm78-45c21.9 34.77 69.435 93.641 62 10-3.569-95.812-30.677 27.913-27.697 10.685-18.832-40.216-62.703-88.928-50.303-7.6846 4.0142 57.925-3.5284 22.914 16-13zm258 38c4.8058-38.977-88.631 47.787-53.344-22.984 53.518 31.703 15.82-108.54-12.609-33.5-37.016 57.602 28.269 112.78 65.953 56.484zm170 13c-72.5-18.484-7.8833-66.964-2-47.875-94.789-7.356 80.66-55.147-16.174-42.393-44.579-14.734-22.97 38.485-27.826 64.535-33.309 58.22 93.886 28.72 46 25.733zm86-23c-2.4991-75.364 27.362 34.409 52.766 27.812 4.2948-45.042 8.5523-108.71-12.891-37.562-23.184-33.271-68.953-91.509-61.875-8.25-7.6101 31.116 21.683 75.377 22 18zm182 10c18.179-47.182-51.604-39.306-15.969-3.0781-56.284 50.244-45.892-110.51 11.313-51.406-31.602-82.523-120.8 67.449-28.344 74.359 13.611-0.69438 25.885-8.6512 33-19.875zm72-33c-0.1038-98.686-32.169 20.622-9.125 50.375 8.4882-15.408 7.6205-33.443 9.125-50.375zm76 15c5.5516-53.458 52.787 95.763 57.436 9.3125 13.353-64.492-26.46-87.579-19.436-15.957-2.3788 24.304-68.213-112.64-59.818-11.916-5.117 29.322 11.819 91.282 21.818 18.561zm158 31c-61.787-27.349 11.148-62.569 3.625-48.125-65.425 2.6712 8.4806-32.687 2.1094-40.516-44.71-13.171-64.548 2.3145-53.734 47.641-12.464 46.851 10.699 58.49 54.469 48.172 21.344 3.7603-6.5457-12.08-6.4688-7.1719zm140 0c-62.648-2.4382-59.659-32.781-16.875-49-64.028 7.9139-30.054-40.689 12.125-38.875-41.688-8.6704-80.416-9.3597-65.25 42.676-7.3068 41.172 2.0801 67.19 48.484 53.496 6.4509-2.3095 17.866-0.37709 21.516-8.2969zm60-11c11.964-62.581 79.141 81.304 43.875-19.75 48.9-47.19-48.126-81.93-63.875-50.072-1.7583 19.726 1.1093 132.24 20 69.822zm117-57c-10.418-11.365 0.3252 112.29 1.5 27.125l-0.375-14.453zm81 17c23.292 32.409 69.315 93.977 60 10 1.2368-79.267-25.875-31.051-22.85 13.401-17.335-31.216-65.979-99.535-53.15-10.401 3.7731 57.342-3.1789 23.554 16-13zm180 36c10.55-40.922-49.558-40.894-12.75-8.5-62.654 50.194-40.165-93.035 12.75-49.5-85.722-74.496-91.177 141.81-3.5703 66.225zm-2018-201c73.499-28.041 39.465-111.13-17.625-39-103.62 31.688-112.7-132.58-65.127-187.13 38.974-42.515 158.56 86.787 119.94-9.3691-58.682-89.815-202.49-24.629-186.54 77.107-21.996 89 44.823 214.57 149.35 158.39zm259 0c71.058-36.685 53.802-193-35-195-100.79-13.013-119.3 143.97-53.498 192.7 25.634 20.614 61.378 19.165 88.498 2.2969zm309-93c17.583-39.161-13.672-155.39-37.406-67.828 22.159 58.321-30.287 195.77-78.748 93.475-1.4049-33.891 6.3263-173.89-40.264-104.06-12.207 78.503-7.2881 204.87 105.51 182.32 39.428 7.6882 57.945-5.7503 49.245-46.685l1.6666-57.219zm162 28c-20.292-69.911 32.763-90.065 85.109-105.78-0.8476-62.612-84.395 17.08-105.11-24.219-34.525 44.308-30.475 161.19 0 207 32.573-2.1036 14.989-55.26 20-77zm302 50c75.504-67.373-4.7487-237.76-108.55-165.23-66.783 56.834-33.505 204.19 65.943 192.71 16.651-4.5118 30.592-15.566 42.609-27.475zm230 19c41.342 2.356 81.005 17.782 67.717-48.96-3.1286-34.957 18.101-191.15-38.135-130.12 10.903 53.028-12.777 207.38-80.707 119.39-20.828-37.35 18.249-186.2-49.346-120.9-5.4787 66.289-9.2731 224.35 100.47 180.59zm219-2c95.357 44.93 158.62-65.352 119.5-148.88-12.471-59.853-81.907-44.155-111.75-36.25-3.3488-30.066-2.8305-132.01-45.875-73.875-4.4186 88.098-5.3691 177.15 3.125 265 10.407 8.7504 27.259 3.9835 35-6zm309-12c-57.222-65.679-16.395-166.8-32.875-247.75-56.152-53.169-31.204 95.939-34.852 132.2-1.4004 43.441-4.8625 189.76 67.727 115.55zm209 14c88.687-68.253-83.925-4.4323-89.9-77.313 37.392-3.9434 88.316-0.55614 130.9-1.6871 10.919-59.072-27.922-131.46-96.188-119.38-109.83 20.714-84.92 223.91 29.188 206l12.531-3.3906zm-1841-384c148.38-7.3276 287.86-62.418 423.1-119.05 231.86-39.551 466.54 10.52 697.52 34.907 272.36 29.327 545.32 80.362 820.15 65.053-45.829-26.017-198.78-13.539-284.34-24.944-299.53-19.988-593.88-81.883-890.97-120.92-170.71-21.887-347.34-2.1521-503.26 73.6-187.95 73.211-392.96 70.478-590.5 89.464 109.11 12.844 219.01 12.09 328.3 1.8906zm1577-10c-310.27-36.413-620.43-76.211-931.82-101.62-109.22-1.4071-224.85 12.126-321.31 66.447-78.475 70.636 110.74 25.638 158.26 38.926 364.94 0.0726 730 2.463 1094.9-3.75z"/>
   <path d="m107 834c-4-4-7-23-7-41 0-27 4-34 18-31 12 2 17 13 17 37 0 33-13 49-28 35z"/>
   <path d="m410 580c-34-34-19-110 23-110 34 0 47 19 47 67 0 32-5 45-19 53-26 13-28 13-51-10z"/>
   <path d="m1166 584c-19-18-21-85-4-102 7-7 22-12 35-12 40 0 57 65 27 108-18 26-37 28-58 6z"/>
   <path d="m1714 575c-25-38-8-99 28-103 34-4 52 27 44 76-9 56-44 69-72 27z"/>
   <path d="m2158 512c-24-3-27-6-18-23 16-29 80-20 80 12 0 10-30 15-62 11z"/>
  </g>
  <g fill="#de9c9e">
   <path d="m149 836c7-8 11-30 9-48-3-29-7-33-35-36l-33-3v50c0 47 2 51 24 51 13 0 29-6 35-14zm127 7c-4-5-12-9-17-9-5-1-13-2-19-3-19-2-10-21 10-21 11 0 20-4 20-10 0-5-9-10-20-10-30 0-24-28 8-33 22-3 20-4-10-6l-38-1v100h37c20 0 33-3 29-7zm109-23c0-18-6-26-23-28-29-4-23-28 7-25 11 2 21-2 21-7 0-18-57-11-64 7s17 43 41 43c7 0 13 5 13 10 0 6-14 10-31 10-19 0-28 4-24 11 4 5 19 9 33 7 21-2 27-8 27-28zm75-20c0-27-4-50-10-50-11 0-14 83-3 93 12 12 13 8 13-43zm120 35c15-18 6-45-15-45-18 0-20 16-2 23 9 3 9 7 0 17-17 18-33 3-33-30 0-35 15-46 37-28 14 11 16 11 11-2-6-20-48-26-59-8-13 19-11 62 3 76 16 16 43 15 58-3zm74-15c-8-38 6-38 28 0 25 44 38 37 38-20 0-55-17-69-22-17l-3 32-18-32c-25-47-37-41-37 17 0 28 4 50 10 50 5 0 7-13 4-30zm262 8c0-11-5-16-13-14-14 6-16-4-13-41 1-17-4-23-18-23-15 0-21 9-26 41-8 51-3 59 37 57 25-1 33-6 33-20zm170 13c-35-7-47-31-17-31 12 0 21-4 21-10 0-5-9-10-21-10-30 0-18-24 17-31 27-6 27-7-8-8l-38-1v100l38-1c35-1 35-2 8-8zm86-23 3-33 20 33c10 17 23 32 27 32s8-22 8-50c0-27-4-50-10-50-5 0-7 13-3 30 7 38-7 38-29 0-25-44-38-37-38 20 0 55 17 69 22 18zm178 17c15-18 6-45-15-45-18 0-20 17-2 23 6 2 9 8 5 12-13 14-38-4-38-29 0-30 16-42 35-26 12 10 15 9 15-4s-7-17-32-14c-29 3-33 7-36 36-5 54 38 83 68 47zm78-40c1-25-2-45-8-45-5 0-10 23-10 51 0 62 16 57 18-6zm72 23v-33l21 33c12 17 25 32 30 32s9-22 9-50c0-27-4-50-10-50-5 0-10 15-10 33v32l-21-32c-12-18-25-33-30-33s-9 23-9 50c0 28 5 50 10 50 6 0 10-15 10-32zm161 23c-33-9-37-27-9-36l23-8-22-4c-32-6-29-31 5-36 22-3 20-4-10-6l-38-1v100l38-1c31-1 33-2 13-8zm139-2c0-7-9-9-24-5-16 4-26 1-30-9-3-10 1-15 14-15 10 0 22-4 25-10s-5-10-19-10c-34 0-24-27 12-33 21-3 18-4-10-6l-38-1v100h35c19 0 35-5 35-11zm60-9c0-11 3-20 8-20 4 0 13 9 20 20 17 27 36 27 22-1-8-15-8-24-1-33 19-23 2-46-35-46h-34v50c0 28 5 50 10 50 6 0 10-9 10-20zm117-57c-2-16-4-3-4 27s2 43 4 28c2-16 2-40 0-55zm81 17c4 0 15 14 24 30 25 44 38 37 38-20 0-55-17-69-22-17l-3 32-20-32c-10-18-23-33-27-33s-7 24-6 53c1 35 2 42 5 20 2-18 7-33 11-33zm180 28c2-20-1-28-12-28-18 0-22 16-5 22 7 2 5 9-5 17-13 11-17 9-27-13-16-35 3-61 33-45 16 9 19 8 16-3-3-7-18-13-34-13-26 0-29 4-32 33-5 50 4 64 35 60 22-2 29-9 31-30zm-1990-213c42-49 19-74-31-35-14 11-37 20-52 20-21 0-29-8-42-37-17-41-13-124 8-149 17-20 63-17 84 6 19 21 55 27 55 10 0-24-34-60-65-70-40-13-93 5-119 41-19 28-22 154-5 193 27 58 123 70 167 21zm255 4c26-32 24-126-5-156-27-29-86-31-119-4-21 16-24 28-24 81 0 56 3 64 29 87 24 20 36 24 65 19 20-3 44-15 54-27zm287-75c0-97-1-104-20-104-18 0-20 7-20 75 0 64-3 76-20 85-14 8-26 8-40 0-17-9-20-21-20-85 0-68-2-75-20-75s-20 7-20 83c1 112 11 124 108 124h52zm160 32c0-78 11-100 47-94 23 3 43-9 43-28 0-18-61-19-78-2-9 9-12 9-12 0 0-7-9-12-20-12-19 0-20 7-20 105s1 105 20 105c18 0 20-7 20-74zm301 45c24-25 29-37 29-81 0-65-30-100-85-100-53 0-85 36-85 95 0 52 21 101 47 108 43 11 66 6 94-22zm232 18c16-9 22-9 25 0 2 6 12 11 23 11 18 0 19-8 19-105 0-98-1-105-20-105-18 0-20 7-20 68 0 72-5 85-34 95-34 13-46-10-46-89 0-72-1-74-25-74-25 0-25 1-25 80 0 73 3 83 25 105 27 28 46 31 78 14zm219 0c3-9 9-9 25 0 32 17 51 14 78-14 20-19 25-34 25-74 0-88-27-119-93-107l-32 6v-47c0-40-3-46-22-49-23-4-23-4-23 139 0 79 3 147 7 150 10 11 31 8 35-4zm305-5c4-10 0-20-10-26-14-8-17-28-17-128 0-65-4-121-8-124-4-2-14-1-21 4-18 11-19 253-1 275 16 20 49 19 57-1zm227 1c24-18 14-51-12-40-33 15-64 10-79-12l-15-23h132v-35c0-72-85-112-141-66-20 16-24 28-24 79 0 62 13 87 50 102 31 13 68 11 89-5zm-1761-391c54-7 126-25 160-40 173-73 186-76 317-81 110-4 183 3 608 56 391 50 509 61 627 61 90 0 145-4 145-10s-48-10-122-10c-182 0-500-38-858-102-144-26-202-32-330-32-173-1-228 9-359 69-98 44-246 72-446 85-207 13-205 13-100 20 110 8 229 3 358-16zm1482 1c-5-2-221-27-480-56-444-50-474-52-562-41-110 14-197 43-224 73-10 12-19 24-19 26 0 1 291 3 648 2 356 0 643-2 637-4z"/>
   <path d="m855 830c-8-13 4-32 16-25 12 8 12 35 0 35-6 0-13-4-16-10z"/>
   <path d="m422 593c-39-15-36-109 4-119 36-9 54 12 54 62 0 33-5 46-19 54-11 5-21 10-23 9-2 0-9-3-16-6z"/>
   <path d="m1166 584c-34-33-13-114 29-114 45 0 61 74 25 110-24 24-34 25-54 4z"/>
   <path d="m1726 587c-13-10-17-24-14-62 3-46 5-50 30-53 23-3 30 2 39 25 13 35 4 89-17 97-20 8-17 8-38-7z"/>
   <path d="m2140 490c12-22 49-27 68-8 21 21 13 28-33 28-43 0-45-1-35-20z"/>
  </g>
  <g fill="#d3b0b0">
   <path d="m149 836c7-8 11-30 9-48-3-29-7-33-35-36l-33-3v50c0 47 2 51 24 51 13 0 29-6 35-14zm127 7c-4-5-12-9-17-9-5-1-13-2-19-3-19-2-10-21 10-21 11 0 20-4 20-10 0-5-9-10-20-10-30 0-24-28 8-33 22-3 20-4-10-6l-38-1v100h37c20 0 33-3 29-7zm113-12c11-20 3-32-32-44-24-9-11-30 14-22 11 4 19 2 19-5s-13-10-32-8c-25 2-33 8-33 23 0 11 10 24 23 30 29 13 28 25-4 25-14 0-23 4-19 10 11 17 54 11 64-9zm71-31c0-27-4-50-10-50-11 0-14 83-3 93 12 12 13 8 13-43zm120 35c15-18 6-45-15-45-18 0-20 16-2 23 9 4 9 8-3 16-20 14-30 4-30-29 0-35 15-46 37-28 14 11 16 11 11-2-6-20-48-26-59-8-13 19-11 62 3 76 16 16 43 15 58-3zm80-12 1-28 20 28c30 39 39 34 39-23 0-27-4-50-10-50-5 0-10 15-10 33v32l-21-32c-12-18-25-33-30-33s-9 23-9 50c0 28 5 50 10 50 6 0 10-12 10-27zm256 8c0-9-8-19-17-23-11-4-15-15-12-32 4-21 1-26-15-26-15 0-21 9-26 41-8 51-3 59 38 57 24-1 33-6 32-17zm166 8c-32-9-36-29-6-29 8 0 14-4 14-10 0-5-7-10-16-10-24 0-11-23 17-31 20-6 18-7-13-8l-38-1v100l38-1 37-1zm90-21 3-33 18 33c25 46 37 40 37-18 0-27-4-50-10-50-5 0-10 12-10 28l-1 27-20-27c-30-40-39-35-39 22 0 55 17 69 22 18zm178 17c15-18 6-45-15-45-18 0-20 17-2 23 6 2 9 8 5 12-13 14-38-4-38-29 0-30 16-42 35-26 12 10 15 9 15-4s-7-17-32-14c-29 3-33 7-36 36-5 54 38 83 68 47zm80-41c0-24-4-44-10-44-5 0-10 23-10 51 0 31 4 48 10 44 6-3 10-26 10-51zm70 24v-33l21 33c12 17 25 32 30 32s9-22 9-50c0-27-4-50-10-50-5 0-10 15-10 33v32l-21-32c-12-18-25-33-30-33s-9 23-9 50c0 28 5 50 10 50 6 0 10-15 10-32zm178 26c-4-3-14-7-24-8-29-4-29-26 1-26 15 0 24-4 20-10-3-5-15-10-26-10-30 0-23-28 9-33 22-3 20-4-10-6l-38-1v100h37c20 0 34-3 31-6zm122-4c0-5-11-10-25-10-31 0-33-15-2-25l22-8-22-4c-32-6-29-31 5-36 22-3 20-4-10-6l-38-1v100h35c19 0 35-4 35-10zm60-10c0-11 3-20 8-20 4 0 13 9 20 20 17 27 36 27 22-1-8-15-8-24-1-33 19-23 2-46-35-46h-34v50c0 28 5 50 10 50 6 0 10-9 10-20zm117-57c-2-16-4-3-4 27s2 43 4 28c2-16 2-40 0-55zm101 45c13 17 28 32 33 32s9-22 9-50c0-55-17-69-22-17l-3 32-18-32c-25-47-37-41-36 20 1 46 2 48 8 17l6-35zm160 0c2-21-1-28-13-28s-15 6-10 20 2 20-9 20c-9 0-17-4-17-10-1-5-2-16-3-22-4-24 15-40 31-27 16 14 31 3 16-12-6-6-21-9-34-7-19 2-25 10-27 36-5 50 4 64 35 60 22-2 29-9 31-30zm-1991-213c13-14 23-33 23-41 0-21-34-17-55 6-23 26-71 26-85 1-16-32-13-147 6-165 21-22 57-20 79 4 10 11 26 20 37 20 30 0 21-37-17-66-46-35-97-29-137 16-25 27-28 38-28 105 0 41 5 85 11 98 28 61 122 73 166 22zm248 10c34-33 36-127 3-162-27-29-86-31-119-4-21 16-24 28-24 81 0 55 3 64 28 86 37 31 81 31 112-1zm295-82c0-96-1-103-20-103-18 0-20 7-20 69 0 75-12 95-52 89-21-3-23-8-26-80-3-70-5-78-22-78-18 0-20 7-20 85 0 109 11 123 99 122h61zm160 33c0-78 11-100 47-94 23 3 43-9 43-27 0-11-15-15-65-14l-65 1v104c0 97 1 104 20 104 18 0 20-7 20-74zm308 50c19-19 28-116 13-144-6-12-25-29-42-38-26-13-36-13-60-3-42 17-59 46-59 102s13 84 43 97c29 13 87 5 105-14zm292-83c0-94-2-103-19-103-16 0-19 10-23 71-4 79-23 108-59 88-16-8-19-22-19-84 0-73-1-75-25-75-25 0-25 1-25 80 0 72 3 84 24 104 19 20 33 24 85 23h61zm256 82c19-19 24-35 24-74 0-27-4-61-9-74-11-28-56-48-86-37-18 6-21 2-25-39-4-38-9-47-27-49-23-3-23-3-23 141 0 79 2 146 5 149s31 6 62 6c46 0 60-4 79-23zm204 6c0-10-7-21-15-25-12-4-15-28-15-126 0-101-3-122-16-127-28-11-35 19-32 143 3 130 12 154 54 154 17 0 24-6 24-19zm223 5c36-28 15-51-31-34-24 9-34 9-46-1-33-28-19-41 44-41h60v-34c0-50-33-86-80-86-22 0-47 8-61 19-20 16-23 28-24 79 0 50 4 65 24 86 27 29 83 35 114 12zm-1838-380c143-16 198-30 317-83 142-62 275-66 638-19 517 68 695 86 833 86 81 0 147-4 147-8 0-5-75-12-167-15-200-7-573-54-858-108-94-18-157-23-290-23-154-1-177 1-240 23-38 13-87 33-109 43-90 46-227 72-454 88-202 13-199 13-107 20 134 11 155 10 290-4zm1560-11c-5-2-221-27-480-56-444-50-474-52-562-41-110 14-197 43-224 73-10 12-19 24-19 26 0 1 291 3 648 2 356 0 643-2 637-4z"/>
   <path d="m1860 775c0-8 9-15 20-15s20 7 20 15-9 15-20 15-20-7-20-15z"/>
   <path d="m404 576c-10-27 1-89 19-100 37-24 68 29 53 90-5 19-13 24-37 24-16 0-32-6-35-14z"/>
   <path d="m1160 571c-22-43-2-101 35-101 22 0 45 29 45 56 0 39-18 64-45 64-14 0-29-8-35-19z"/>
   <path d="m1717 583c-13-12-7-90 8-103 22-19 49-8 58 25 12 43-6 85-36 85-13 0-27-3-30-7z"/>
   <path d="m2142 493c4-22 44-29 64-13 24 21 16 30-27 30-33 0-40-3-37-17z"/>
  </g>
  <g fill="#f0dcd9">
   <path d="m104 826c-9-25 0-61 16-61 22 0 26 60 5 69-9 3-18 0-21-8z"/>
   <path d="m861 831c-8-5-10-14-6-21 6-9 10-8 17 4 12 21 7 28-11 17z"/>
   <path d="m860 770c0-5 5-10 10-10 6 0 10 5 10 10 0 6-4 10-10 10-5 0-10-4-10-10z"/>
   <path d="m1860 774c0-9 7-14 17-12 25 5 28 28 4 28-12 0-21-6-21-16z"/>
   <path d="m407 583c-12-11-8-88 5-101 18-18 46-14 58 7 14 26 13 74-2 89-13 13-50 16-61 5z"/>
   <path d="m1160 571c-30-57 12-122 59-92 14 9 19 80 7 100-12 18-54 13-66-8z"/>
   <path d="m1717 584c-4-4-7-26-7-49 0-46 17-69 47-63 15 3 18 13 18 58 0 51-2 55-25 58-14 2-29 0-33-4z"/>
   <path d="m2142 493c5-27 54-29 68-4 10 20 8 21-30 21-34 0-41-3-38-17z"/>
  </g>
 </g>
</svg>
