<svg width="16.933mm" height="16.933mm" version="1.1" viewBox="0 0 16.933 16.933" xmlns="http://www.w3.org/2000/svg">
 <circle cx="8.47" cy="8.47" r="8.4667" fill="#2d2d2d"/>
 <path d="m14.31 8.9295c-0.0379-0.063655-0.88026-0.50849-1.8592-0.95341-0.97891-0.44488-2.2082-1.0169-2.7318-1.2711-2.1248-1.0169-2.5345-1.1123-3.1492-0.79448-0.9182 0.47666-1.7833 1.8749-1.7833 2.8919 0 0.15914 1.8819 0.28603 4.8035 0.2542 2.6332 0 4.7655-0.063655 4.72-0.12689z" fill="#fff" stroke-width="2.0464"/>
 <path d="m6.85 5.3571c0.91061-0.080663 1.3963 0.080666 4.3633 1.4229 3.2934 1.5034 5.7292 2.1478 5.7292 1.5571 0-0.16097-0.5236-0.34919-1.1914-0.42954-1.2217-0.16098-3.4679-1.1544-5.8582-2.6042-2.527-1.5571-3.7032-1.3692-5.1374 0.80544-0.91061 1.3692-1.8136 2.0135-3.3541 2.3894-0.64501 0.16098-1.2597 0.3223-1.3659 0.34919-0.11383 0.028309 0.15177 0.1072 0.59189 0.21475 0.44013 0.080663 0.88026 0.10755 0.9865 0.080663 0.10623-0.028309 0.50842-0.13444 0.89543-0.21475 1.7077-0.6918 3.1202-3.4352 4.3406-3.5708z" fill="#a62e3f" fill-opacity=".94118" stroke-width="1.8809"/>
</svg>
