<svg width="67.733mm" height="67.733mm" version="1.1" viewBox="0 0 67.733 67.733" xmlns="http://www.w3.org/2000/svg">
 <g transform="translate(-109.43 -231.95)">
  <g transform="translate(-55.988 20.174)">
   <circle cx="199.29" cy="245.64" r="33.867" fill="#fff"/>
   <g transform="matrix(1.1472 0 0 1.1472 57.169 -82.185)">
    <path d="m144.23 287.72c-0.1323-0.0529-3.0692-0.42333-6.4823-0.79375-3.4131-0.37042-7.6994-0.84667-9.525-1.0583-7.4083-0.84667-8.8371-0.92604-10.98-0.66146-3.2014 0.39687-6.2177 1.561-6.2177 2.4077 0 0.13229 6.5617 0.23812 16.748 0.21166 9.181 0 16.616-0.0529 16.457-0.10583z"/>
    <path d="m118.21 284.41c3.175-0.0794 4.8683 0.0794 15.214 1.4023 11.483 1.4817 19.976 2.1167 19.976 1.5346 0-0.15875-1.8256-0.34396-4.154-0.42333-4.2598-0.15875-12.091-1.1377-20.426-2.5665-8.8106-1.5346-12.912-1.3494-17.912 0.79375-3.175 1.3494-6.3236 1.9844-11.695 2.3548-2.249 0.15875-4.3921 0.3175-4.7625 0.34396-0.39688 0.0265 0.52917 0.10583 2.0638 0.21167 1.5346 0.0794 3.0692 0.10583 3.4396 0.0794 0.37041-0.0265 1.7727-0.13229 3.1221-0.21167 5.9541-0.68178 10.879-3.3855 15.134-3.519z" fill="#a62e3f" fill-opacity=".94118"/>
   </g>
  </g>
 </g>
</svg>
