<svg width="16.954mm" height="2.9217mm" version="1.1" viewBox="0 0 16.954 2.9217" xmlns="http://www.w3.org/2000/svg">
 <rect width="16.933" height="2.9217" fill="none" stroke-width=".74306"/>
 <g transform="translate(0 -.012428)">
  <path d="m14.322 2.0388c-0.0379-0.0152-0.88026-0.12142-1.8592-0.22766-0.97891-0.10623-2.2082-0.24283-2.7318-0.30353-2.1248-0.24283-2.5345-0.26559-3.1492-0.18971-0.9182 0.11382-1.7833 0.44771-1.7833 0.69054 0 0.038 1.8819 0.0683 4.8035 0.0607 2.6332 0 4.7655-0.0152 4.72-0.0303z" fill="#fff"/>
  <path d="m6.8618 1.0888c0.91061-0.0228 1.3963 0.0228 4.3633 0.40219 3.2934 0.42495 5.7292 0.60707 5.7292 0.44012 0-0.0455-0.5236-0.0987-1.1914-0.12141-1.2217-0.0455-3.4679-0.3263-5.8582-0.73608-2.527-0.44012-3.7032-0.38701-5.1374 0.22766-0.91061 0.387-1.8136 0.56913-3.3541 0.67537-0.64501 0.0455-1.2597 0.0911-1.3659 0.0987-0.11383 8e-3 0.15177 0.0303 0.59189 0.0607 0.44013 0.0228 0.88026 0.0304 0.9865 0.0228 0.10623-8e-3 0.50842-0.038 0.89543-0.0607 1.7077-0.19554 3.1202-0.97098 4.3406-1.0093z" fill="#a62e3f" fill-opacity=".94118"/>
 </g>
</svg>
