<svg width="25.396mm" height="25.361mm" version="1.1" viewBox="0 0 25.396 25.361" xmlns="http://www.w3.org/2000/svg" xmlns:xlink="http://www.w3.org/1999/xlink"><defs><clipPath id="n"><path d="m4231 4529.1c481.13-510.97 1309.8-606.58 1822.5-118.87-479.86-314.94-1236.8-164.02-1510.2-41.36-113.03 50.71-312.3 160.23-312.3 160.23z"/></clipPath><linearGradient id="g" x2="1" gradientTransform="matrix(2095.5,1550.1,1550.1,-2095.5,469.63,1007.6)" gradientUnits="userSpaceOnUse"><stop stop-color="#fff" offset="0"/><stop stop-color="#1fd2ff" offset=".18788"/><stop stop-color="#54007f" offset=".87879"/><stop stop-color="#54007f" offset="1"/></linearGradient><clipPath id="m"><path d="m5665.6 5801.7c-686.66 25.61-1342.8-501.5-1434.9-1198.6 211.23 463.15 569.16 797.78 1000.3 1057.5 154.22 86.11 434.58 141.13 434.58 141.13z"/></clipPath><linearGradient id="f" x2="1" gradientTransform="matrix(1666.1,-2004.5,-2004.5,-1666.1,3978.9,6368.4)" gradientUnits="userSpaceOnUse"><stop stop-color="#fff" offset="0"/><stop stop-color="#1fd2ff" offset=".18788"/><stop stop-color="#54007f" offset=".87879"/><stop stop-color="#54007f" offset="1"/></linearGradient><clipPath id="l"><path d="m6026 4980.7c-3.82-10.04-8.23-19.99-13.4-29.73-66.59-125.19-222.57-172.43-348.36-105.52-125.8 66.93-173.79 222.67-107.19 347.87 64.31 120.85 211.89 169.03 335.21 112.01-54.53 69.71-124.1 129.54-207.36 173.83-317 168.63-710.02 49.59-877.86-265.88-167.82-315.48-46.91-707.93 270.09-876.58 317-168.63 710.04-49.6 877.85 265.89 64.06 120.4 85.94 252 71.02 378.11z"/></clipPath><linearGradient id="e" x2="1" gradientTransform="matrix(2035.8,-868.22,-868.22,-2035.8,3833.2,5568)" gradientUnits="userSpaceOnUse"><stop stop-color="#fff" offset="0"/><stop stop-color="#1fd2ff" offset=".18788"/><stop stop-color="#54007f" offset=".87879"/><stop stop-color="#54007f" offset="1"/></linearGradient><clipPath id="k"><path d="m5913.1 7030.1c-63.18-555.73-383.24-1122-964.16-1251.3 186.84 456.9 805.27 518.77 901.36 1041.1 42.19 117.43 62.8 210.14 62.8 210.14z"/></clipPath><linearGradient id="d" x2="1" gradientTransform="matrix(1435.4,2175.6,-2175.6,1435.4,4854.7,5367.2)" gradientUnits="userSpaceOnUse"><stop stop-color="#fff" offset="0"/><stop stop-color="#ffa800" offset=".18788"/><stop stop-color="#ff0" offset=".87879"/><stop stop-color="#ff0" offset="1"/></linearGradient><clipPath id="j"><path d="m6889.4 7619.5c-127.38-721.23-588.88-1477.1-1353.1-1691.1 279.77 603.99 1087.1 734.25 1254.5 1415.2 64.33 154.76 98.64 275.9 98.64 275.9z"/></clipPath><linearGradient id="c" x2="1" gradientTransform="matrix(1483.9,2124.4,-1967.8,1216,5282.9,5250.9)" gradientUnits="userSpaceOnUse"><stop stop-color="#fff" offset="0"/><stop stop-color="#1fd2ff" offset=".18788"/><stop stop-color="#009cf0" offset=".87879"/><stop stop-color="#009cf0" offset="1"/></linearGradient><clipPath id="i"><path d="m7900.6 7442c-351.99-837.66-1117.7-1625.5-2101.1-1674.8 504.18 653.99 1516.8 590.07 1906.1 1368 120.29 169.59 195.04 306.75 195.04 306.75z"/></clipPath><linearGradient id="b" x2="1" gradientTransform="matrix(1917,1743.7,-1650.1,1621.1,4765,4523.9)" gradientUnits="userSpaceOnUse"><stop stop-color="#fff" offset="0"/><stop stop-color="#1fd2ff" offset=".18788"/><stop stop-color="#ff007f" offset=".87879"/><stop stop-color="#ff007f" offset="1"/></linearGradient><clipPath id="h"><path d="m8491.1 6990c-417.44-788.85-1223.1-1445.1-2162.3-1301.5 543.86 570.64 1499.6 305.39 1946.6 1025.7 131.1 150.03 215.71 275.82 215.71 275.82z"/></clipPath><linearGradient id="a" x2="1" gradientTransform="matrix(2474.1,1747.3,-1745.8,2464.5,5240.4,4631.2)" gradientUnits="userSpaceOnUse"><stop stop-color="#fff" offset="0"/><stop stop-color="#1fd2ff" offset=".18788"/><stop stop-color="#0f0" offset=".87879"/><stop stop-color="#0f0" offset="1"/></linearGradient></defs><g transform="translate(650.89 -39.952)"><g transform="matrix(.78799 0 0 .79098 -137.99 13.654)"><circle transform="matrix(.99184 -.12751 .14631 .98924 0 0)" cx="-635.27" cy="-32.072" r="15.875" style="fill:#d7d7f4;stroke-opacity:.94118;stroke-width:.39214;stroke:#fff"/><g transform="matrix(.059619 0 0 -.071983 -672.7 90.368)"><g transform="scale(.1)"><g clip-path="url(#n)"><path d="m4231 4529.1c481.13-510.97 1309.8-606.58 1822.5-118.87-479.86-314.94-1236.8-164.02-1510.2-41.36-113.03 50.71-312.3 160.23-312.3 160.23" style="fill:url(#g)"/></g></g><g transform="scale(.1)"><g clip-path="url(#m)"><path d="m5665.6 5801.7c-686.66 25.61-1342.8-501.5-1434.9-1198.6 211.23 463.15 569.16 797.78 1000.3 1057.5 154.22 86.11 434.58 141.13 434.58 141.13" style="fill:url(#f)"/></g></g><g transform="scale(.1)"><g clip-path="url(#l)"><path d="m6026 4980.7c-3.82-10.04-8.23-19.99-13.4-29.73-66.59-125.19-222.57-172.43-348.36-105.52-125.8 66.93-173.79 222.67-107.19 347.87 64.31 120.85 211.89 169.03 335.21 112.01-54.53 69.71-124.1 129.54-207.36 173.83-317 168.63-710.02 49.59-877.86-265.88-167.82-315.48-46.91-707.93 270.09-876.58 317-168.63 710.04-49.6 877.85 265.89 64.06 120.4 85.94 252 71.02 378.11" style="fill:url(#e)"/></g></g><g transform="scale(.1)"><g clip-path="url(#k)"><path d="m5913.1 7030.1c-63.18-555.73-383.24-1122-964.16-1251.3 186.84 456.9 805.27 518.77 901.36 1041.1 42.19 117.43 62.8 210.14 62.8 210.14" style="fill:url(#d)"/></g></g><g transform="scale(.1)"><g clip-path="url(#j)"><path d="m6889.4 7619.5c-127.38-721.23-588.88-1477.1-1353.1-1691.1 279.77 603.99 1087.1 734.25 1254.5 1415.2 64.33 154.76 98.64 275.9 98.64 275.9" style="fill:url(#c)"/></g></g><g transform="scale(.1)"><g clip-path="url(#i)"><path d="m7900.6 7442c-351.99-837.66-1117.7-1625.5-2101.1-1674.8 504.18 653.99 1516.8 590.07 1906.1 1368 120.29 169.59 195.04 306.75 195.04 306.75" style="fill:url(#b)"/></g></g><g transform="scale(.1)"><g clip-path="url(#h)"><path d="m8491.1 6990c-417.44-788.85-1223.1-1445.1-2162.3-1301.5 543.86 570.64 1499.6 305.39 1946.6 1025.7 131.1 150.03 215.71 275.82 215.71 275.82" style="fill:url(#a)"/></g></g></g></g></g></svg>
