<svg id="bathtub" enable-background="new 0 0 512 512" version="1.1" viewBox="0 0 24 24" xmlns="http://www.w3.org/2000/svg">
 <g id="bathtub_1_" stroke="currentColor" stroke-width="8" transform="matrix(.060442 0 0 .063618 -3.4732 -4.2868)">
  <path d="m440.91 266.62h-3.936v-130.8l-0.061-3.601h-0.236c-3.348-36.628-33.963-64.836-71.152-64.836-28.881 0-55.197 17.775-66.117 44.426-4.104 0.084-8.193 0.95-12.082 2.607-7.99 3.405-14.176 9.718-17.42 17.78l-0.178 0.444c-0.938 2.329-0.912 4.885 0.072 7.194 0.984 2.311 2.809 4.099 5.139 5.036l42.889 17.257c1.145 0.461 2.33 0.679 3.494 0.679 3.727 0 7.262-2.229 8.736-5.895l0.18-0.446c3.242-8.058 3.152-16.896-0.254-24.885-1.527-3.587-3.646-6.807-6.242-9.563 6.832-16.972 23.363-28.235 41.783-28.235 24.84 0 45.049 20.208 45.049 45.048v127.8h-209.31c-1.885-3.537-5.608-5.952-9.889-5.952h-49.6c-4.279 0-8.002 2.415-9.887 5.952h-60.78c-3.631 0-7.055 1.415-9.649 3.993-2.575 2.576-3.995 5.998-3.995 9.639 0 7.517 6.121 13.633 13.645 13.633h9.601v118.37c0 9.138 7.438 16.572 16.583 16.572h13.284v9.994c0 3.199 2.603 5.803 5.802 5.803h11.391c3.199 0 5.802-2.604 5.802-5.803v-9.994h252.2v9.994c0 3.199 2.604 5.803 5.803 5.803h11.391c3.199 0 5.803-2.604 5.803-5.803v-9.994h11.775c9.145 0 16.586-7.435 16.586-16.572v-118.37h3.779c3.639 0 7.061-1.42 9.639-3.996 2.574-2.574 3.992-5.997 3.992-9.637-2e-3 -7.517-6.115-13.632-13.633-13.632zm-117.35-112.84-0.18 0.445c-0.451 1.125-1.74 1.672-2.861 1.221l-42.889-17.257c-0.545-0.219-0.973-0.638-1.203-1.179-0.229-0.54-0.236-1.138-0.014-1.688l0.178-0.445c5.211-12.95 19.99-19.247 32.934-14.035 6.273 2.523 11.189 7.339 13.84 13.561 2.65 6.219 2.72 13.1 0.195 19.377zm41.968-67.199c-20.576 0-39.119 12.121-47.539 30.601-1.801-1.183-3.73-2.197-5.775-3.02-1.73-0.696-3.498-1.229-5.283-1.619 10.291-22.856 33.354-37.962 58.598-37.962 34.482 0 62.678 26.968 64.193 61.395l0.055 0.917v129.72h-12v-127.79c-1e-3 -28.809-23.438-52.248-52.249-52.248zm-227.75 185.29c0-2.206 1.794-4 3.999-4h49.6c2.206 0 4.001 1.794 4.001 4v83.899h-57.6zm0 91.1h57.6v3.9c0 2.205-1.795 4-4.001 4h-49.6c-2.205 0-3.999-1.795-3.999-4zm-57.067-76.284h-9.601c-3.553 0-6.444-2.885-6.444-6.432 0-1.717 0.67-3.33 1.879-4.538 1.229-1.222 2.85-1.894 4.565-1.894h59.468v12.863h-49.867zm49.867 7.201v29.783h-42.668v-29.783zm-4.206 143.54h-8.595v-8.595h8.595zm275.2 0h-8.596v-8.595h8.596zm28.36-25.168c0 5.168-4.209 9.372-9.385 9.372h-323.25c-5.174 0-9.384-4.204-9.384-9.372v-81.384h42.668v36c0 6.176 5.024 11.2 11.199 11.2h49.6c6.177 0 11.201-5.024 11.201-11.2v-36h227.36zm0-88.584h-227.36v-29.783h227.36zm15.527-38.87c-1.215 1.217-2.83 1.886-4.547 1.886h-238.34v-12.864h238.34c3.547 0 6.432 2.885 6.432 6.432 0 1.717-0.67 3.33-1.885 4.546z"/>
  <rect transform="matrix(-.9314 -.364 .364 -.9314 477.88 464.67)" x="279.12" y="165.46" width="7.199" height="43.701"/>
  <rect transform="matrix(.9314 .3639 -.3639 .9314 90.934 -95.466)" x="295.23" y="176.86" width="7.201" height="33.5"/>
  <rect transform="matrix(-.9314 -.364 .364 -.9314 449.21 446.75)" x="263.1" y="164.3" width="7.199" height="33.5"/>
 </g>
</svg>
