<svg width="16.933mm" height="16.933mm" version="1.1" viewBox="0 0 16.933 16.933" xmlns="http://www.w3.org/2000/svg">
 <g transform="translate(247.39 -222.62)">
  <path d="m-247.39 239.55h16.933v-16.933h-16.933z" style="fill:#fff"/>
  <g transform="matrix(.095419 0 0 .099736 -225.7 213.24)">
   <g transform="matrix(.35278 0 0 -.35278 -133.66 163.84)">
    <path d="m0 0c4.557 29.424 6.582 58.537 6.294 87.046-7e-3 0.682-1.012 0.728-1.081 0.049-1.331-13.142-3.006-26.362-5.064-39.647-19.927-128.66-70.671-241.47-138.73-324.44-0.435-0.529 0.308-1.21 0.795-0.729 69.559 68.619 120.41 165.53 137.79 277.72" style="fill:#acc449"/>
   </g>
   <g transform="matrix(.35278 0 0 -.35278 -113.71 206.85)">
    <path d="m0 0c17.925 5.965 36.077 9.853 54.232 11.822 0.434 0.047 0.631-0.765 0.212-0.873-8.124-2.093-16.24-4.472-24.334-7.165-78.381-26.083-141.54-75.916-182.84-137.48-0.264-0.392-0.82 0.157-0.596 0.589 31.942 61.669 84.982 110.36 153.33 133.11" style="fill:#acc449"/>
   </g>
   <g transform="matrix(.35278 0 0 -.35278 -119.22 219.74)">
    <path d="m0 0c13.49 2.791 26.979 3.999 40.318 3.762 0.319-6e-3 0.397-0.634 0.084-0.676-6.065-0.806-12.147-1.827-18.238-3.087-58.987-12.203-108.81-43.703-143.7-86.09-0.222-0.271-0.582 0.195-0.385 0.498 28.099 43.352 70.485 74.952 121.92 85.593" style="fill:#acc449"/>
   </g>
   <g transform="matrix(.35278 0 0 -.35278 -140.45 135.6)">
    <path d="m0 0c2.979-20.05-8.543-38.374-9.919-38.579-1.377-0.205-12.477 13.352-15.455 33.402-2.979 20.05 1.57 38.746 4.667 39.206s17.728-13.979 20.707-34.029" style="fill:#cdb8e8"/>
   </g>
   <g transform="matrix(.35278 0 0 -.35278 -126.93 185.84)">
    <path d="m0 0c13.987 11.535 33.343 11.164 34.135 10.204s-4.472-15.721-18.458-27.256c-13.987-11.535-30.411-16.677-32.192-14.517-1.782 2.161 2.528 20.034 16.515 31.569" style="fill:#cdb8e8"/>
   </g>
   <g transform="matrix(.35278 0 0 -.35278 -113.54 137.1)">
    <path d="m0 0c-8.711-18.135-26.905-27.489-28.005-26.961-1.099 0.528-1.736 17.395 6.975 35.53s22.098 31.331 24.571 30.143c2.474-1.188 5.17-20.577-3.541-38.712" style="fill:#b78ec1"/>
   </g>
   <g transform="matrix(.35278 0 0 -.35278 -122.11 161.56)">
    <path d="m0 0c-11.74-14.539-10.339-26.348-9.54-26.992 0.798-0.645 15.755 1.594 27.495 16.132 11.741 14.539 16.817 35.066 15.02 36.517-1.796 1.45-21.235-11.118-32.975-25.657" style="fill:#937db5"/>
   </g>
   <g transform="matrix(.35278 0 0 -.35278 -126.38 110.32)">
    <path d="m0 0c-0.242-22.26-11.936-40.18-13.071-40.168-1.136 0.012-11.781 12.722-12.195 40.443-0.409 27.428 10.516 40.196 13.071 40.168 2.556-0.028 12.437-18.183 12.195-40.443" style="fill:#937db5"/>
   </g>
   <g transform="matrix(.35278 0 0 -.35278 -155.43 167.8)">
    <path d="m0 0c-7.482 17.279-2.991 35.858-1.948 36.31 1.043 0.451 17.666-8.985 25.148-26.264 7.482-17.28 4.294-35.295 1.948-36.31-2.346-1.016-13.442-0.769-25.148 26.264" style="fill:#b78ec1"/>
   </g>
   <g transform="matrix(.35278 0 0 -.35278 -155.73 191.36)">
    <path d="m0 0c5.82-15.667 0.4-37.155-0.79-37.597s-14.068 6.423-19.888 22.09c-5.819 15.667-3.864 33.651-1.186 34.646s16.045-3.472 21.864-19.139" style="fill:#937db5"/>
   </g>
  </g>
 </g>
</svg>
