<?xml version="1.0" encoding="UTF-8" standalone="no"?>
<!-- Created with Inkscape (http://www.inkscape.org/) -->

<svg
   xmlns:dc="http://purl.org/dc/elements/1.1/"
   xmlns:cc="http://creativecommons.org/ns#"
   xmlns:rdf="http://www.w3.org/1999/02/22-rdf-syntax-ns#"
   xmlns:svg="http://www.w3.org/2000/svg"
   xmlns="http://www.w3.org/2000/svg"
   xmlns:sodipodi="http://sodipodi.sourceforge.net/DTD/sodipodi-0.dtd"
   xmlns:inkscape="http://www.inkscape.org/namespaces/inkscape"
   version="1.1"
   id="svg1371"
   xml:space="preserve"
   width="1962.0533"
   height="1097.9453"
   viewBox="0 0 1962.0533 1097.9453"
   sodipodi:docname="DMG DESIGN SF LOGO 2019.svg"
   inkscape:version="0.92.4 (5da689c313, 2019-01-14)"><metadata
     id="metadata1377"><rdf:RDF><cc:Work
         rdf:about=""><dc:format>image/svg+xml</dc:format><dc:type
           rdf:resource="http://purl.org/dc/dcmitype/StillImage" /><dc:title></dc:title></cc:Work></rdf:RDF></metadata><defs
     id="defs1375"><clipPath
       clipPathUnits="userSpaceOnUse"
       id="clipPath1387"><path
         d="M 0,823.459 H 1471.537 V 0 H 0 Z"
         id="path1385"
         inkscape:connector-curvature="0" /></clipPath></defs><sodipodi:namedview
     pagecolor="#ffffff"
     bordercolor="#666666"
     borderopacity="1"
     objecttolerance="10"
     gridtolerance="10"
     guidetolerance="10"
     inkscape:pageopacity="0"
     inkscape:pageshadow="2"
     inkscape:window-width="2560"
     inkscape:window-height="1389"
     id="namedview1373"
     showgrid="false"
     inkscape:zoom="0.60796179"
     inkscape:cx="1059.979"
     inkscape:cy="548.97266"
     inkscape:window-x="-14"
     inkscape:window-y="-14"
     inkscape:window-maximized="1"
     inkscape:current-layer="g1381" /><g
     id="g1379"
     inkscape:groupmode="layer"
     inkscape:label="DMG DESIGN SF LOGO 2019"
     transform="matrix(1.3333333,0,0,-1.3333333,0,1097.9453)"><g
       id="g1381"><g
         id="g3181"><g
           id="g1389"
           transform="translate(268.936,566.936)"><path
             d="M 0,0 C 0,-49.5 30.633,-92.033 74.461,-110.663 V 110.662 C 30.633,92.03 0,49.497 0,0"
             style="fill:#231f20;fill-opacity:1;fill-rule:nonzero;stroke:none"
             id="path1391"
             inkscape:connector-curvature="0" /></g><g
           id="g1393"
           transform="translate(268.936,566.936)"><path
             d="M 0,0 C 0,-49.5 30.633,-92.033 74.461,-110.663 V 110.662 C 30.633,92.03 0,49.497 0,0 Z"
             style="fill:none;stroke:#231f20;stroke-width:0.25;stroke-linecap:butt;stroke-linejoin:miter;stroke-miterlimit:4;stroke-dasharray:none;stroke-opacity:1"
             id="path1395"
             inkscape:connector-curvature="0" /></g><g
           id="g1397"
           transform="translate(393.2163,598.4331)"><path
             d="m 0,0 25.817,86.492 c -8.291,1.778 -16.969,2.73 -25.987,2.73 -9.101,0 -17.972,-0.961 -26.517,-2.771 L -0.454,0 Z"
             style="fill:#231f20;fill-opacity:1;fill-rule:nonzero;stroke:none"
             id="path1399"
             inkscape:connector-curvature="0" /></g><g
           id="g1401"
           transform="translate(393.2163,598.4331)"><path
             d="m 0,0 25.817,86.492 c -8.291,1.778 -16.969,2.73 -25.987,2.73 -9.101,0 -17.972,-0.961 -26.517,-2.771 L -0.454,0 Z"
             style="fill:none;stroke:#231f20;stroke-width:0.25;stroke-linecap:butt;stroke-linejoin:miter;stroke-miterlimit:4;stroke-dasharray:none;stroke-opacity:1"
             id="path1403"
             inkscape:connector-curvature="0" /></g><g
           id="g1405"
           transform="translate(385.7241,565.2544)"><path
             d="m 0,0 -26.148,82.12 0.157,-196.753 c 10.601,-2.867 21.772,-4.405 33.313,-4.405 11.624,0 22.786,1.559 33.311,4.465 L 40.792,83.769 14.641,0 Z"
             style="fill:#231f20;fill-opacity:1;fill-rule:nonzero;stroke:none"
             id="path1407"
             inkscape:connector-curvature="0" /></g><g
           id="g1409"
           transform="translate(385.7241,565.2544)"><path
             d="m 0,0 -26.148,82.12 0.157,-196.753 c 10.601,-2.867 21.772,-4.405 33.313,-4.405 11.624,0 22.786,1.559 33.311,4.465 L 40.792,83.769 14.641,0 Z"
             style="fill:none;stroke:#231f20;stroke-width:0.25;stroke-linecap:butt;stroke-linejoin:miter;stroke-miterlimit:4;stroke-dasharray:none;stroke-opacity:1"
             id="path1411"
             inkscape:connector-curvature="0" /></g><g
           id="g1413"
           transform="translate(393.0464,431.936)"><path
             d="m 0,0 c -76.077,0 -140.522,60.439 -140.522,135 0,74.558 64.445,135 140.522,135 62.627,0 115.483,-40.964 132.217,-97.041 H 113.84 c -10.98,32.268 -33.785,58.485 -64.191,72.249 V 24.551 c 36.09,15.84 62.209,48.573 69.437,88.097 H 80.401 V 135 h 40.707 16.639 C 137.747,60.439 76.077,0 0,0 M -1.387,288 C -87.8,288 -157.851,219.5 -157.851,135.001 -157.851,50.501 -87.8,-18 -1.387,-18 85.026,-18 155.077,50.501 155.077,135.001 155.077,219.5 85.026,288 -1.387,288"
             style="fill:#231f20;fill-opacity:1;fill-rule:nonzero;stroke:none"
             id="path1415"
             inkscape:connector-curvature="0" /></g><g
           id="g1417"
           transform="translate(393.0464,431.936)"><path
             d="m 0,0 c -76.077,0 -140.522,60.439 -140.522,135 0,74.558 64.445,135 140.522,135 62.627,0 115.483,-40.964 132.217,-97.041 H 113.84 c -10.98,32.268 -33.785,58.485 -64.191,72.249 V 24.551 c 36.09,15.84 62.209,48.573 69.437,88.097 H 80.401 V 135 h 40.707 16.639 C 137.747,60.439 76.077,0 0,0 Z M -1.387,288 C -87.8,288 -157.851,219.5 -157.851,135.001 -157.851,50.501 -87.8,-18 -1.387,-18 85.026,-18 155.077,50.501 155.077,135.001 155.077,219.5 85.026,288 -1.387,288 Z"
             style="fill:none;stroke:#231f20;stroke-width:0.25;stroke-linecap:butt;stroke-linejoin:miter;stroke-miterlimit:4;stroke-dasharray:none;stroke-opacity:1"
             id="path1419"
             inkscape:connector-curvature="0" /></g></g><g
         id="g3839"><g
           id="g1421"
           transform="translate(874.0039,761.8887)"><path
             d="M 0,0 C 0,-6.607 4.089,-12.285 9.939,-14.772 V 14.772 C 4.089,12.284 0,6.606 0,0"
             style="fill:#9c201f;fill-opacity:1;fill-rule:nonzero;stroke:none"
             id="path1423"
             inkscape:connector-curvature="0" /></g><g
           id="g1425"
           transform="translate(890.5928,766.0928)"><path
             d="m 0,0 3.447,11.545 c -1.107,0.238 -2.265,0.365 -3.468,0.365 -1.215,0 -2.4,-0.129 -3.541,-0.37 L -0.06,0 Z"
             style="fill:#9c201f;fill-opacity:1;fill-rule:nonzero;stroke:none"
             id="path1427"
             inkscape:connector-curvature="0" /></g><g
           id="g1429"
           transform="translate(889.5938,761.6641)"><path
             d="m 0,0 -3.491,10.962 0.021,-26.264 c 1.415,-0.383 2.907,-0.588 4.448,-0.588 1.55,0 3.041,0.209 4.445,0.596 L 5.444,11.183 1.954,0 Z"
             style="fill:#9c201f;fill-opacity:1;fill-rule:nonzero;stroke:none"
             id="path1431"
             inkscape:connector-curvature="0" /></g><g
           id="g1433"
           transform="translate(890.5713,743.8682)"><path
             d="m 0,0 c -10.156,0 -18.758,8.068 -18.758,18.021 0,9.952 8.602,18.02 18.758,18.02 8.359,0 15.415,-5.469 17.648,-12.953 h -2.453 c -1.466,4.307 -4.509,7.807 -8.568,9.643 V 3.277 c 4.816,2.115 8.304,6.485 9.269,11.76 h -5.165 v 2.984 h 5.434 2.222 C 18.387,8.068 10.154,0 0,0 m -0.186,38.443 c -11.535,0 -20.885,-9.143 -20.885,-20.422 0,-11.279 9.35,-20.423 20.885,-20.423 11.536,0 20.885,9.144 20.885,20.423 0,11.279 -9.349,20.422 -20.885,20.422"
             style="fill:#9c201f;fill-opacity:1;fill-rule:nonzero;stroke:none"
             id="path1435"
             inkscape:connector-curvature="0" /></g></g><g
         transform="translate(75.522,29.1035)"
         id="g1437"><path
           inkscape:connector-curvature="0"
           id="path1439"
           style="fill:#231f20;fill-opacity:1;fill-rule:nonzero;stroke:none"
           d="m 0,0 c 0,2.536 1.652,4.217 5.727,4.501 l 7.235,0.456 c 4.615,0.285 4.929,0.37 4.929,2.394 0,1.68 -0.171,2.05 -4.216,2.05 H 9.486 C 6.809,9.401 5.982,9.003 5.982,6.866 V 5.982 H 0 v 2.422 c 0,4.075 2.393,5.442 8.091,5.442 h 8.318 c 5.926,0 7.464,-1.767 7.464,-6.069 0,-6.067 -1.111,-7.093 -8.489,-7.492 L 8.859,-0.057 C 6.21,-0.199 5.812,-0.712 5.812,-2.563 H 24.158 V -7.008 H 0 Z" /></g><g
         transform="translate(109.1694,30.1865)"
         id="g1441"><path
           inkscape:connector-curvature="0"
           id="path1443"
           style="fill:#231f20;fill-opacity:1;fill-rule:nonzero;stroke:none"
           d="m 0,0 c 0,-2.137 0.684,-3.19 3.646,-3.19 h 5.87 c 2.962,0 3.646,1.053 3.646,3.19 v 4.444 c 0,2.137 -0.684,3.191 -3.646,3.191 H 3.646 C 0.684,7.635 0,6.581 0,4.444 Z m -6.153,4.672 c 0,6.267 2.279,8.091 9.031,8.091 h 7.406 c 6.752,0 9.031,-1.824 9.031,-8.091 v -5.755 c 0,-5.355 -2.45,-7.235 -7.378,-7.235 H 1.226 c -4.929,0 -7.379,1.88 -7.379,7.235 z" /></g><g
         transform="translate(145.1528,37.7646)"
         id="g1445"><path
           inkscape:connector-curvature="0"
           id="path1447"
           style="fill:#231f20;fill-opacity:1;fill-rule:nonzero;stroke:none"
           d="m 0,0 -7.605,-4.872 -2.878,4.131 8.746,5.697 h 7.55 V -15.669 H 0 Z" /></g><g
         transform="translate(174.7837,33.9473)"
         id="g1449"><path
           inkscape:connector-curvature="0"
           id="path1451"
           style="fill:#231f20;fill-opacity:1;fill-rule:nonzero;stroke:none"
           d="m 0,0 c 2.593,0 3.248,0.513 3.248,2.25 0,1.767 -0.684,2.308 -3.105,2.308 H -5.611 C -8.033,4.558 -8.717,4.017 -8.717,2.25 -8.717,0.513 -8.062,0 -5.498,0 Z m -14.699,-5.983 h 5.811 c 0,-1.339 0.656,-1.653 2.479,-1.653 h 6.58 c 2.166,0 3.077,0.856 3.077,2.479 v 2.45 C 2.223,-3.732 1.026,-4.273 -1.452,-4.273 H -7.35 c -6.096,0 -7.178,2.022 -7.178,5.753 v 1.795 c 0,5.072 2.478,5.727 7.378,5.727 H 1.853 C 6.78,9.002 9.23,7.121 9.23,1.766 v -5.755 c 0,-6.267 -2.279,-8.09 -9.03,-8.09 h -7.664 c -4.757,0 -7.235,1.196 -7.235,4.7 z" /></g><g
         transform="translate(50.7603,29.2275)"
         id="g1453"><path
           inkscape:connector-curvature="0"
           id="path1455"
           style="fill:#231f20;fill-opacity:1;fill-rule:nonzero;stroke:none"
           d="m 0,0 c -0.727,-4.188 -3.933,-6.625 -7.736,-6.625 -5.514,0 -9.019,4.061 -9.019,9.36 0,5.428 3.291,9.361 8.891,9.361 3.931,0 7.137,-2.266 7.735,-6.368 h -3.12 c -0.47,2.264 -2.265,3.632 -4.573,3.632 -3.547,0 -5.513,-2.778 -5.513,-6.711 0,-3.717 2.222,-6.539 5.599,-6.539 2.436,0 4.145,1.326 4.487,3.89 z m -8.335,-10.13 c 7.095,0 12.822,5.728 12.822,12.822 0,7.095 -5.727,12.823 -12.822,12.823 -7.095,0 -12.821,-5.728 -12.821,-12.823 0,-7.094 5.726,-12.822 12.821,-12.822 m 0,28.636 c 8.719,0 15.814,-7.095 15.814,-15.814 0,-8.718 -7.095,-15.813 -15.814,-15.813 -8.719,0 -15.813,7.095 -15.813,15.813 0,8.719 7.094,15.814 15.813,15.814" /></g><g
         id="g2490"><g
           id="g1457"
           transform="translate(83.5327,241.1289)"><path
             d="m 0,0 h 23.639 c 5.7,0 7.92,1.62 7.92,7.8 v 5.88 c 0,6.179 -2.22,7.799 -7.92,7.799 H 0 Z m -13.319,32.279 h 40.198 c 13.319,0 17.999,-4.38 17.999,-15.12 V 3.96 c 0,-10.739 -4.68,-15.119 -17.999,-15.119 h -40.198 z"
             style="fill:#231f20;fill-opacity:1;fill-rule:nonzero;stroke:none"
             id="path1459"
             inkscape:connector-curvature="0" /></g><g
           id="g1461"
           transform="translate(136.4531,273.4082)"><path
             d="M 0,0 H 20.459 L 35.519,-27.959 50.578,0 H 71.037 V -43.438 H 58.078 v 31.199 h -0.12 l -17.46,-31.199 h -9.959 l -17.46,31.199 h -0.12 V -43.438 H 0 Z"
             style="fill:#231f20;fill-opacity:1;fill-rule:nonzero;stroke:none"
             id="path1463"
             inkscape:connector-curvature="0" /></g><g
           id="g1465"
           transform="translate(215.5332,258.1689)"><path
             d="m 0,0 c 0,12.719 7.14,15.719 19.139,15.719 h 20.039 c 15.12,0 17.219,-5.46 17.219,-13.919 V 0.42 H 43.318 c 0,4.319 -2.46,4.859 -6.72,4.859 H 22.139 c -6.72,0 -8.46,-1.62 -8.46,-9.059 v -5.4 c 0,-7.44 1.74,-9.059 8.46,-9.059 h 14.219 c 3.48,0 6.96,0.54 6.96,4.739 v 1.26 H 26.759 v 9 H 56.638 V -15.6 c 0,-12.479 -6.48,-13.08 -21.48,-13.08 H 19.139 C 7.14,-28.68 0,-25.68 0,-12.96 Z"
             style="fill:#231f20;fill-opacity:1;fill-rule:nonzero;stroke:none"
             id="path1467"
             inkscape:connector-curvature="0" /></g><g
           id="g1469"
           transform="translate(323.6519,241.1289)"><path
             d="m 0,0 h 23.639 c 5.7,0 7.92,1.62 7.92,7.8 v 5.88 c 0,6.179 -2.22,7.799 -7.92,7.799 H 0 Z m -13.319,32.279 h 40.198 c 13.319,0 17.999,-4.38 17.999,-15.12 V 3.96 c 0,-10.739 -4.68,-15.119 -17.999,-15.119 h -40.198 z"
             style="fill:#231f20;fill-opacity:1;fill-rule:nonzero;stroke:none"
             id="path1471"
             inkscape:connector-curvature="0" /></g><g
           id="g1473"
           transform="translate(376.5723,273.4082)"><path
             d="M 0,0 H 47.518 V -10.08 H 13.319 v -6.96 h 32.399 v -8.999 H 13.319 v -6.96 H 48.298 V -43.438 H 0 Z"
             style="fill:#231f20;fill-opacity:1;fill-rule:nonzero;stroke:none"
             id="path1475"
             inkscape:connector-curvature="0" /></g><g
           id="g1477"
           transform="translate(432.1318,244.1895)"><path
             d="m 0,0 h 13.319 c 0.061,-4.62 1.92,-4.98 5.76,-4.98 h 16.319 c 2.821,0 5.701,0.3 5.701,3.66 0,3.78 -1.561,4.019 -18.72,4.019 -20.039,0 -22.318,2.401 -22.318,13.08 0,7.86 0.719,13.919 17.518,13.919 h 18.6 c 15.359,0 16.799,-5.219 16.799,-12.839 v -1.38 h -13.32 c 0,3.18 -0.359,4.5 -6.479,4.5 h -14.76 c -2.999,0 -5.039,-1.02 -5.039,-3.36 0,-3.78 1.62,-3.9 15.899,-3.84 20.7,0.06 25.499,-1.2 25.499,-13.859 0,-11.7 -3.96,-13.62 -21.659,-13.62 H 16.979 C 4.86,-14.7 0,-12.42 0,-3 Z"
             style="fill:#231f20;fill-opacity:1;fill-rule:nonzero;stroke:none"
             id="path1479"
             inkscape:connector-curvature="0" /></g><path
           d="m 495.852,273.408 h 13.319 V 229.97 h -13.319 z"
           style="fill:#231f20;fill-opacity:1;fill-rule:nonzero;stroke:none"
           id="path1481"
           inkscape:connector-curvature="0" /><g
           id="g1483"
           transform="translate(517.9316,258.1689)"><path
             d="m 0,0 c 0,12.719 7.14,15.719 19.139,15.719 h 20.04 c 15.119,0 17.218,-5.46 17.218,-13.919 V 0.42 H 43.318 c 0,4.319 -2.46,4.859 -6.719,4.859 h -14.46 c -6.72,0 -8.459,-1.62 -8.459,-9.059 v -5.4 c 0,-7.44 1.739,-9.059 8.459,-9.059 h 14.219 c 3.48,0 6.96,0.54 6.96,4.739 v 1.26 H 26.759 v 9 H 56.638 V -15.6 c 0,-12.479 -6.48,-13.08 -21.48,-13.08 H 19.139 C 7.14,-28.68 0,-25.68 0,-12.96 Z"
             style="fill:#231f20;fill-opacity:1;fill-rule:nonzero;stroke:none"
             id="path1485"
             inkscape:connector-curvature="0" /></g><g
           id="g1487"
           transform="translate(582.6113,273.4082)"><path
             d="m 0,0 h 20.639 l 25.019,-31.559 h 0.12 V 0 h 13.32 V -43.438 H 38.458 L 13.439,-11.88 h -0.12 V -43.438 H 0 Z"
             style="fill:#231f20;fill-opacity:1;fill-rule:nonzero;stroke:none"
             id="path1489"
             inkscape:connector-curvature="0" /></g><g
           id="g1491"
           transform="translate(679.5693,244.1895)"><path
             d="m 0,0 h 13.319 c 0.061,-4.62 1.92,-4.98 5.76,-4.98 h 16.319 c 2.821,0 5.701,0.3 5.701,3.66 0,3.78 -1.561,4.019 -18.72,4.019 -20.039,0 -22.318,2.401 -22.318,13.08 0,7.86 0.719,13.919 17.518,13.919 h 18.6 c 15.359,0 16.799,-5.219 16.799,-12.839 v -1.38 h -13.32 c 0,3.18 -0.359,4.5 -6.479,4.5 h -14.76 c -2.999,0 -5.039,-1.02 -5.039,-3.36 0,-3.78 1.62,-3.9 15.899,-3.84 20.7,0.06 25.499,-1.2 25.499,-13.859 0,-11.7 -3.96,-13.62 -21.659,-13.62 H 16.979 C 4.86,-14.7 0,-12.42 0,-3 Z"
             style="fill:#231f20;fill-opacity:1;fill-rule:nonzero;stroke:none"
             id="path1493"
             inkscape:connector-curvature="0" /></g><g
           id="g1495"
           transform="translate(742.5693,273.4082)"><path
             d="M 0,0 H 45.358 V -10.439 H 13.319 v -8.1 h 30.539 v -10.08 H 13.319 V -43.438 H 0 Z"
             style="fill:#231f20;fill-opacity:1;fill-rule:nonzero;stroke:none"
             id="path1497"
             inkscape:connector-curvature="0" /></g></g><path
         inkscape:connector-curvature="0"
         id="path1563"
         style="fill:none;stroke:#231f20;stroke-width:1;stroke-linecap:butt;stroke-linejoin:miter;stroke-miterlimit:4;stroke-dasharray:none;stroke-opacity:1"
         d="m 1455.013,17.243 h -612 v 792 h 612 z" /><g
         transform="translate(873.1934,37.7598)"
         id="g1565"><path
           inkscape:connector-curvature="0"
           id="path1567"
           style="fill:#231f20;fill-opacity:1;fill-rule:nonzero;stroke:none"
           d="m 0,0 c 0,2.506 -0.779,2.962 -2.219,2.962 h -6.152 v -6.764 h 5.961 c 1.427,0 2.41,0.312 2.41,2.914 z m -9.547,3.922 h 7.017 c 2.914,0 3.706,-0.912 3.706,-4.342 0,-3.19 -0.792,-4.342 -3.742,-4.342 h -6.981 z" /></g><g
         transform="translate(876.3779,41.6816)"
         id="g1569"><path
           inkscape:connector-curvature="0"
           id="path1571"
           style="fill:#231f20;fill-opacity:1;fill-rule:nonzero;stroke:none"
           d="M 0,0 H 1.835 L 6.908,-7.28 11.981,0 h 1.835 v -8.684 h -1.174 v 7.628 H 12.617 L 7.328,-8.684 H 6.488 L 1.199,-1.056 H 1.176 V -8.684 H 0 Z" /></g><g
         transform="translate(903.085,36.1045)"
         id="g1573"><path
           inkscape:connector-curvature="0"
           id="path1575"
           style="fill:#231f20;fill-opacity:1;fill-rule:nonzero;stroke:none"
           d="m 0,0 c 0,-2.363 -0.768,-3.202 -2.938,-3.202 h -4.846 c -2.351,0 -3.094,1.056 -3.094,3.25 v 2.375 c 0,2.194 0.743,3.25 3.094,3.25 h 4.437 c 1.56,0 3.227,-0.384 3.227,-2.387 V 2.975 h -1.104 c 0,1.619 -0.491,1.738 -3.394,1.738 h -3.046 c -1.127,0 -2.039,-0.336 -2.039,-1.847 v -3.262 c 0,-1.511 0.912,-1.847 2.039,-1.847 h 4.594 c 1.174,0 1.894,0.408 1.894,1.607 v 0.875 h -4.449 v 0.96 H 0 Z" /></g><g
         transform="translate(920.4248,37.7598)"
         id="g1577"><path
           inkscape:connector-curvature="0"
           id="path1579"
           style="fill:#231f20;fill-opacity:1;fill-rule:nonzero;stroke:none"
           d="m 0,0 c 0,2.506 -0.779,2.962 -2.219,2.962 h -6.152 v -6.764 h 5.961 c 1.427,0 2.41,0.312 2.41,2.914 z m -9.547,3.922 h 7.017 c 2.914,0 3.706,-0.912 3.706,-4.342 0,-3.19 -0.792,-4.342 -3.742,-4.342 h -6.981 z" /></g><g
         transform="translate(923.6826,41.6816)"
         id="g1581"><path
           inkscape:connector-curvature="0"
           id="path1583"
           style="fill:#231f20;fill-opacity:1;fill-rule:nonzero;stroke:none"
           d="M 0,0 H 8.527 V -0.96 H 1.176 V -3.73 H 8.239 V -4.689 H 1.176 v -3.035 h 7.399 v -0.96 H 0 Z" /></g><g
         transform="translate(933.834,35.7324)"
         id="g1585"><path
           inkscape:connector-curvature="0"
           id="path1587"
           style="fill:#231f20;fill-opacity:1;fill-rule:nonzero;stroke:none"
           d="m 0,0 h 1.104 v -0.611 c 0,-0.852 0.455,-1.26 1.918,-1.26 h 3.646 c 1.703,0 2.207,0.36 2.207,1.607 0,1.092 -0.432,1.368 -1.895,1.368 H 4.749 c -3.586,0 -4.761,0.215 -4.761,2.518 0,1.979 1.175,2.423 3.598,2.423 h 2.53 c 2.915,0 3.647,-0.744 3.647,-2.291 v -0.3 H 8.659 C 8.635,4.833 8.491,5.085 5.409,5.085 H 4.162 c -2.267,0 -3.07,-0.119 -3.07,-1.547 0,-1.031 0.323,-1.379 2.158,-1.379 h 3.479 c 2.29,0 3.25,-0.66 3.25,-2.135 V -0.54 c 0,-2.135 -1.751,-2.29 -3.491,-2.29 H 3.227 C 1.511,-2.83 0,-2.53 0,-0.636 Z" /></g><path
         inkscape:connector-curvature="0"
         id="path1589"
         style="fill:#231f20;fill-opacity:1;fill-rule:nonzero;stroke:none"
         d="m 945.931,41.682 h 1.175 v -8.684 h -1.175 z" /><g
         transform="translate(960.0967,36.1045)"
         id="g1591"><path
           inkscape:connector-curvature="0"
           id="path1593"
           style="fill:#231f20;fill-opacity:1;fill-rule:nonzero;stroke:none"
           d="m 0,0 c 0,-2.363 -0.768,-3.202 -2.938,-3.202 h -4.846 c -2.351,0 -3.094,1.056 -3.094,3.25 v 2.375 c 0,2.194 0.743,3.25 3.094,3.25 h 4.437 c 1.56,0 3.227,-0.384 3.227,-2.387 V 2.975 h -1.104 c 0,1.619 -0.491,1.738 -3.394,1.738 h -3.046 c -1.127,0 -2.039,-0.336 -2.039,-1.847 v -3.262 c 0,-1.511 0.912,-1.847 2.039,-1.847 h 4.594 c 1.174,0 1.894,0.408 1.894,1.607 v 0.875 h -4.449 v 0.96 H 0 Z" /></g><g
         transform="translate(962.1055,41.6816)"
         id="g1595"><path
           inkscape:connector-curvature="0"
           id="path1597"
           style="fill:#231f20;fill-opacity:1;fill-rule:nonzero;stroke:none"
           d="M 0,0 H 1.751 L 9.703,-7.628 V 0 h 1.175 V -8.684 H 9.127 L 1.176,-1.056 V -8.684 H 0 Z" /></g><g
         transform="translate(980.79,35.7324)"
         id="g1599"><path
           inkscape:connector-curvature="0"
           id="path1601"
           style="fill:#231f20;fill-opacity:1;fill-rule:nonzero;stroke:none"
           d="m 0,0 h 1.104 v -0.611 c 0,-0.852 0.456,-1.26 1.918,-1.26 h 3.646 c 1.703,0 2.207,0.36 2.207,1.607 0,1.092 -0.432,1.368 -1.895,1.368 H 4.749 c -3.586,0 -4.761,0.215 -4.761,2.518 0,1.979 1.175,2.423 3.598,2.423 h 2.53 c 2.915,0 3.647,-0.744 3.647,-2.291 v -0.3 H 8.659 C 8.635,4.833 8.491,5.085 5.409,5.085 H 4.162 c -2.267,0 -3.07,-0.119 -3.07,-1.547 0,-1.031 0.323,-1.379 2.158,-1.379 h 3.479 c 2.29,0 3.25,-0.66 3.25,-2.135 V -0.54 c 0,-2.135 -1.751,-2.29 -3.491,-2.29 H 3.227 C 1.511,-2.83 0,-2.53 0,-0.636 Z" /></g><g
         transform="translate(992.8496,41.6816)"
         id="g1603"><path
           inkscape:connector-curvature="0"
           id="path1605"
           style="fill:#231f20;fill-opacity:1;fill-rule:nonzero;stroke:none"
           d="M 0,0 H 8.275 V -0.96 H 1.176 V -3.73 H 8 V -4.689 H 1.176 V -8.684 H 0 Z" /></g><g
         transform="translate(1013.666,40.6738)"
         id="g1607"><path
           inkscape:connector-curvature="0"
           id="path1609"
           style="fill:#231f20;fill-opacity:1;fill-rule:nonzero;stroke:none"
           d="m 0,0 -3.25,-2.578 -0.6,0.755 3.575,2.831 H 1.104 V -7.676 H 0 Z" /></g><g
         transform="translate(1026.3145,37.9395)"
         id="g1611"><path
           inkscape:connector-curvature="0"
           id="path1613"
           style="fill:#231f20;fill-opacity:1;fill-rule:nonzero;stroke:none"
           d="m 0,0 c 1.895,0 2.267,0.107 2.267,1.487 0,1.104 -0.288,1.391 -1.992,1.391 H -3.106 C -4.81,2.878 -5.098,2.591 -5.098,1.487 -5.098,0.107 -4.726,0 -2.831,0 Z m -0.288,-4.078 c 2.459,0 2.662,0.228 2.662,1.643 0,1.404 -0.443,1.475 -2.314,1.475 h -2.951 c -1.871,0 -2.314,-0.071 -2.314,-1.475 0,-1.415 0.203,-1.643 2.662,-1.643 z m -6.021,1.751 c 0,1.38 0.3,1.691 1.656,1.859 v 0.024 c -1.464,0.192 -1.548,1.151 -1.548,1.715 v 0.564 c 0,1.451 0.804,2.003 2.663,2.003 H 0.707 C 2.566,3.838 3.37,3.286 3.37,1.835 V 1.271 c 0,-0.564 -0.084,-1.523 -1.464,-1.715 v -0.024 c 0.865,-0.143 1.572,-0.515 1.572,-1.691 v -0.852 c 0,-1.499 -0.804,-2.026 -2.531,-2.026 h -4.725 c -1.727,0 -2.531,0.527 -2.531,2.026 z" /></g><g
         transform="translate(1037.8818,37.9395)"
         id="g1615"><path
           inkscape:connector-curvature="0"
           id="path1617"
           style="fill:#231f20;fill-opacity:1;fill-rule:nonzero;stroke:none"
           d="m 0,0 c 1.895,0 2.267,0.107 2.267,1.487 0,1.104 -0.288,1.391 -1.992,1.391 H -3.106 C -4.81,2.878 -5.098,2.591 -5.098,1.487 -5.098,0.107 -4.726,0 -2.831,0 Z m -0.288,-4.078 c 2.459,0 2.662,0.228 2.662,1.643 0,1.404 -0.443,1.475 -2.314,1.475 h -2.951 c -1.871,0 -2.314,-0.071 -2.314,-1.475 0,-1.415 0.203,-1.643 2.662,-1.643 z m -6.021,1.751 c 0,1.38 0.3,1.691 1.656,1.859 v 0.024 c -1.464,0.192 -1.548,1.151 -1.548,1.715 v 0.564 c 0,1.451 0.804,2.003 2.663,2.003 H 0.707 C 2.566,3.838 3.37,3.286 3.37,1.835 V 1.271 c 0,-0.564 -0.084,-1.523 -1.464,-1.715 v -0.024 c 0.865,-0.143 1.572,-0.515 1.572,-1.691 v -0.852 c 0,-1.499 -0.804,-2.026 -2.531,-2.026 h -4.725 c -1.727,0 -2.531,0.527 -2.531,2.026 z" /></g><g
         transform="translate(1049.4502,37.9395)"
         id="g1619"><path
           inkscape:connector-curvature="0"
           id="path1621"
           style="fill:#231f20;fill-opacity:1;fill-rule:nonzero;stroke:none"
           d="m 0,0 c 1.895,0 2.267,0.107 2.267,1.487 0,1.104 -0.288,1.391 -1.992,1.391 H -3.106 C -4.81,2.878 -5.098,2.591 -5.098,1.487 -5.098,0.107 -4.726,0 -2.831,0 Z m -0.288,-4.078 c 2.459,0 2.662,0.228 2.662,1.643 0,1.404 -0.443,1.475 -2.314,1.475 h -2.951 c -1.871,0 -2.314,-0.071 -2.314,-1.475 0,-1.415 0.203,-1.643 2.662,-1.643 z m -6.021,1.751 c 0,1.38 0.3,1.691 1.656,1.859 v 0.024 c -1.464,0.192 -1.548,1.151 -1.548,1.715 v 0.564 c 0,1.451 0.804,2.003 2.663,2.003 H 0.707 C 2.566,3.838 3.37,3.286 3.37,1.835 V 1.271 c 0,-0.564 -0.084,-1.523 -1.464,-1.715 v -0.024 c 0.865,-0.143 1.572,-0.515 1.572,-1.691 v -0.852 c 0,-1.499 -0.804,-2.026 -2.531,-2.026 h -4.725 c -1.727,0 -2.531,0.527 -2.531,2.026 z" /></g><path
         inkscape:connector-curvature="0"
         id="path1623"
         style="fill:#231f20;fill-opacity:1;fill-rule:nonzero;stroke:none"
         d="m 1060.793,41.682 h 1.175 v -8.684 h -1.175 z" /><g
         transform="translate(1064.3086,41.6816)"
         id="g1625"><path
           inkscape:connector-curvature="0"
           id="path1627"
           style="fill:#231f20;fill-opacity:1;fill-rule:nonzero;stroke:none"
           d="m 0,0 h 1.176 v -7.724 h 6.74 v -0.96 H 0 Z" /></g><g
         transform="translate(1073.4893,41.6816)"
         id="g1629"><path
           inkscape:connector-curvature="0"
           id="path1631"
           style="fill:#231f20;fill-opacity:1;fill-rule:nonzero;stroke:none"
           d="m 0,0 h 1.176 v -7.724 h 6.74 v -0.96 H 0 Z" /></g><path
         inkscape:connector-curvature="0"
         id="path1633"
         style="fill:#231f20;fill-opacity:1;fill-rule:nonzero;stroke:none"
         d="m 1082.705,41.682 h 1.175 v -8.684 h -1.175 z" /><g
         transform="translate(1086.1484,41.6816)"
         id="g1635"><path
           inkscape:connector-curvature="0"
           id="path1637"
           style="fill:#231f20;fill-opacity:1;fill-rule:nonzero;stroke:none"
           d="M 0,0 H 1.751 L 9.703,-7.628 V 0 h 1.175 V -8.684 H 9.127 L 1.176,-1.056 V -8.684 H 0 Z" /></g><g
         transform="translate(1109.0508,38.9707)"
         id="g1639"><path
           inkscape:connector-curvature="0"
           id="path1641"
           style="fill:#231f20;fill-opacity:1;fill-rule:nonzero;stroke:none"
           d="M 0,0 C 0,1.511 -0.911,1.847 -2.038,1.847 H -6.8 C -7.927,1.847 -8.839,1.511 -8.839,0 v -3.262 c 0,-1.511 0.912,-1.847 2.039,-1.847 h 4.762 c 1.127,0 2.038,0.336 2.038,1.847 z m -10.014,-0.443 c 0,2.194 0.743,3.25 3.094,3.25 h 5.002 c 2.351,0 3.094,-1.056 3.094,-3.25 v -2.375 c 0,-2.195 -0.743,-3.25 -3.094,-3.25 H -6.92 c -2.351,0 -3.094,1.055 -3.094,3.25 z" /></g><path
         inkscape:connector-curvature="0"
         id="path1643"
         style="fill:#231f20;fill-opacity:1;fill-rule:nonzero;stroke:none"
         d="m 1112.345,41.682 h 1.175 v -8.684 h -1.175 z" /><g
         transform="translate(1115.6445,35.7324)"
         id="g1645"><path
           inkscape:connector-curvature="0"
           id="path1647"
           style="fill:#231f20;fill-opacity:1;fill-rule:nonzero;stroke:none"
           d="m 0,0 h 1.104 v -0.611 c 0,-0.852 0.455,-1.26 1.918,-1.26 h 3.646 c 1.703,0 2.207,0.36 2.207,1.607 0,1.092 -0.432,1.368 -1.895,1.368 H 4.749 c -3.586,0 -4.761,0.215 -4.761,2.518 0,1.979 1.175,2.423 3.598,2.423 h 2.53 c 2.915,0 3.647,-0.744 3.647,-2.291 v -0.3 H 8.659 C 8.635,4.833 8.491,5.085 5.409,5.085 H 4.162 c -2.267,0 -3.07,-0.119 -3.07,-1.547 0,-1.031 0.323,-1.379 2.158,-1.379 h 3.479 c 2.29,0 3.25,-0.66 3.25,-2.135 V -0.54 c 0,-2.135 -1.751,-2.29 -3.491,-2.29 H 3.227 C 1.511,-2.83 0,-2.53 0,-0.636 Z" /></g><g
         transform="translate(1133.2725,35.7324)"
         id="g1649"><path
           inkscape:connector-curvature="0"
           id="path1651"
           style="fill:#231f20;fill-opacity:1;fill-rule:nonzero;stroke:none"
           d="m 0,0 h 1.104 v -0.611 c 0,-0.852 0.456,-1.26 1.918,-1.26 h 3.646 c 1.703,0 2.207,0.36 2.207,1.607 0,1.092 -0.432,1.368 -1.895,1.368 H 4.749 c -3.586,0 -4.761,0.215 -4.761,2.518 0,1.979 1.175,2.423 3.598,2.423 h 2.53 c 2.915,0 3.647,-0.744 3.647,-2.291 v -0.3 H 8.659 C 8.635,4.833 8.491,5.085 5.409,5.085 H 4.162 c -2.267,0 -3.07,-0.119 -3.07,-1.547 0,-1.031 0.323,-1.379 2.158,-1.379 h 3.479 c 2.29,0 3.25,-0.66 3.25,-2.135 V -0.54 c 0,-2.135 -1.751,-2.29 -3.491,-2.29 H 3.227 C 1.511,-2.83 0,-2.53 0,-0.636 Z" /></g><g
         transform="translate(1148.7744,40.7217)"
         id="g1653"><path
           inkscape:connector-curvature="0"
           id="path1655"
           style="fill:#231f20;fill-opacity:1;fill-rule:nonzero;stroke:none"
           d="M 0,0 H -4.39 V 0.96 H 5.564 V 0 H 1.175 V -7.724 H 0 Z" /></g><g
         transform="translate(1162.4404,37.3877)"
         id="g1657"><path
           inkscape:connector-curvature="0"
           id="path1659"
           style="fill:#231f20;fill-opacity:1;fill-rule:nonzero;stroke:none"
           d="m 0,0 c 1.308,0 1.859,0.348 1.859,1.259 v 0.792 c 0,0.971 -0.42,1.283 -2.147,1.283 H -5.637 V 0 Z m -6.813,4.294 h 6.945 c 2.507,0 2.902,-0.828 2.902,-2.459 V 1.127 c 0,-1.223 -0.695,-1.559 -1.595,-1.643 V -0.54 c 1.2,-0.216 1.488,-0.839 1.488,-1.631 V -4.39 H 1.823 v 1.908 c 0,1.355 -0.66,1.522 -1.727,1.522 h -5.733 v -3.43 h -1.176 z" /></g><g
         transform="translate(1167.5439,41.6816)"
         id="g1661"><path
           inkscape:connector-curvature="0"
           id="path1663"
           style="fill:#231f20;fill-opacity:1;fill-rule:nonzero;stroke:none"
           d="M 0,0 H 8.527 V -0.96 H 1.176 V -3.73 H 8.239 V -4.689 H 1.176 v -3.035 h 7.399 v -0.96 H 0 Z" /></g><g
         transform="translate(1177.9121,41.6816)"
         id="g1665"><path
           inkscape:connector-curvature="0"
           id="path1667"
           style="fill:#231f20;fill-opacity:1;fill-rule:nonzero;stroke:none"
           d="M 0,0 H 8.527 V -0.96 H 1.176 V -3.73 H 8.239 V -4.689 H 1.176 v -3.035 h 7.399 v -0.96 H 0 Z" /></g><g
         transform="translate(1191.7227,40.7217)"
         id="g1669"><path
           inkscape:connector-curvature="0"
           id="path1671"
           style="fill:#231f20;fill-opacity:1;fill-rule:nonzero;stroke:none"
           d="M 0,0 H -4.39 V 0.96 H 5.564 V 0 H 1.175 V -7.724 H 0 Z" /></g><g
         transform="translate(1204.2158,35.7324)"
         id="g1673"><path
           inkscape:connector-curvature="0"
           id="path1675"
           style="fill:#231f20;fill-opacity:1;fill-rule:nonzero;stroke:none"
           d="m 0,0 h 1.104 v -0.611 c 0,-0.852 0.456,-1.26 1.918,-1.26 h 3.646 c 1.703,0 2.207,0.36 2.207,1.607 0,1.092 -0.432,1.368 -1.895,1.368 H 4.749 c -3.586,0 -4.761,0.215 -4.761,2.518 0,1.979 1.175,2.423 3.598,2.423 h 2.53 c 2.915,0 3.647,-0.744 3.647,-2.291 v -0.3 H 8.659 C 8.635,4.833 8.491,5.085 5.409,5.085 H 4.162 c -2.267,0 -3.07,-0.119 -3.07,-1.547 0,-1.031 0.323,-1.379 2.158,-1.379 h 3.479 c 2.29,0 3.25,-0.66 3.25,-2.135 V -0.54 c 0,-2.135 -1.751,-2.29 -3.491,-2.29 H 3.227 C 1.511,-2.83 0,-2.53 0,-0.636 Z" /></g><g
         transform="translate(1221.1934,40.7217)"
         id="g1677"><path
           inkscape:connector-curvature="0"
           id="path1679"
           style="fill:#231f20;fill-opacity:1;fill-rule:nonzero;stroke:none"
           d="M 0,0 -2.914,-4.929 H 2.915 Z M -0.731,0.96 H 0.731 L 5.889,-7.724 H 4.558 l -1.079,1.835 h -6.957 l -1.08,-1.835 h -1.331 z" /></g><g
         transform="translate(1228.3477,41.6816)"
         id="g1681"><path
           inkscape:connector-curvature="0"
           id="path1683"
           style="fill:#231f20;fill-opacity:1;fill-rule:nonzero;stroke:none"
           d="M 0,0 H 1.751 L 9.703,-7.628 V 0 h 1.175 V -8.684 H 9.127 L 1.176,-1.056 V -8.684 H 0 Z" /></g><g
         transform="translate(1247.248,41.6816)"
         id="g1685"><path
           inkscape:connector-curvature="0"
           id="path1687"
           style="fill:#231f20;fill-opacity:1;fill-rule:nonzero;stroke:none"
           d="M 0,0 H 8.275 V -0.96 H 1.176 V -3.73 H 8 V -4.689 H 1.176 V -8.684 H 0 Z" /></g><g
         transform="translate(1264.0557,37.3877)"
         id="g1689"><path
           inkscape:connector-curvature="0"
           id="path1691"
           style="fill:#231f20;fill-opacity:1;fill-rule:nonzero;stroke:none"
           d="m 0,0 c 1.308,0 1.859,0.348 1.859,1.259 v 0.792 c 0,0.971 -0.42,1.283 -2.147,1.283 H -5.637 V 0 Z m -6.813,4.294 h 6.945 c 2.507,0 2.902,-0.828 2.902,-2.459 V 1.127 c 0,-1.223 -0.695,-1.559 -1.595,-1.643 V -0.54 c 1.2,-0.216 1.488,-0.839 1.488,-1.631 V -4.39 H 1.823 v 1.908 c 0,1.355 -0.66,1.522 -1.727,1.522 h -5.733 v -3.43 h -1.176 z" /></g><g
         transform="translate(1274.0762,40.7217)"
         id="g1693"><path
           inkscape:connector-curvature="0"
           id="path1695"
           style="fill:#231f20;fill-opacity:1;fill-rule:nonzero;stroke:none"
           d="M 0,0 -2.914,-4.929 H 2.915 Z M -0.731,0.96 H 0.731 L 5.889,-7.724 H 4.558 l -1.079,1.835 h -6.957 l -1.08,-1.835 h -1.331 z" /></g><g
         transform="translate(1281.2314,41.6816)"
         id="g1697"><path
           inkscape:connector-curvature="0"
           id="path1699"
           style="fill:#231f20;fill-opacity:1;fill-rule:nonzero;stroke:none"
           d="M 0,0 H 1.751 L 9.703,-7.628 V 0 h 1.175 V -8.684 H 9.127 L 1.176,-1.056 V -8.684 H 0 Z" /></g><g
         transform="translate(1294.1201,38.5273)"
         id="g1701"><path
           inkscape:connector-curvature="0"
           id="path1703"
           style="fill:#231f20;fill-opacity:1;fill-rule:nonzero;stroke:none"
           d="m 0,0 c 0,2.194 0.743,3.25 3.094,3.25 h 4.498 c 2.135,0 2.722,-0.995 2.722,-2.159 V 0.348 H 9.282 v 0.395 c 0,1.476 -0.911,1.547 -1.99,1.547 H 3.214 C 2.087,2.29 1.175,1.954 1.175,0.443 v -3.261 c 0,-1.512 0.912,-1.848 2.039,-1.848 h 4.113 c 1.584,0 2.039,0.336 2.039,1.512 v 0.539 h 1.104 v -0.587 c 0,-1.571 -0.504,-2.423 -2.939,-2.423 H 3.094 C 0.743,-5.625 0,-4.569 0,-2.375 Z" /></g><path
         inkscape:connector-curvature="0"
         id="path1705"
         style="fill:#231f20;fill-opacity:1;fill-rule:nonzero;stroke:none"
         d="m 1306.527,41.682 h 1.175 v -8.684 h -1.175 z" /><g
         transform="translate(1309.8271,35.7324)"
         id="g1707"><path
           inkscape:connector-curvature="0"
           id="path1709"
           style="fill:#231f20;fill-opacity:1;fill-rule:nonzero;stroke:none"
           d="m 0,0 h 1.104 v -0.611 c 0,-0.852 0.456,-1.26 1.918,-1.26 h 3.646 c 1.703,0 2.207,0.36 2.207,1.607 0,1.092 -0.432,1.368 -1.895,1.368 H 4.749 c -3.586,0 -4.761,0.215 -4.761,2.518 0,1.979 1.175,2.423 3.598,2.423 h 2.53 c 2.915,0 3.647,-0.744 3.647,-2.291 v -0.3 H 8.659 C 8.635,4.833 8.491,5.085 5.409,5.085 H 4.162 c -2.267,0 -3.07,-0.119 -3.07,-1.547 0,-1.031 0.323,-1.379 2.158,-1.379 h 3.479 c 2.29,0 3.25,-0.66 3.25,-2.135 V -0.54 c 0,-2.135 -1.751,-2.29 -3.491,-2.29 H 3.227 C 1.511,-2.83 0,-2.53 0,-0.636 Z" /></g><g
         transform="translate(1321.6602,38.5273)"
         id="g1711"><path
           inkscape:connector-curvature="0"
           id="path1713"
           style="fill:#231f20;fill-opacity:1;fill-rule:nonzero;stroke:none"
           d="m 0,0 c 0,2.194 0.743,3.25 3.094,3.25 h 4.498 c 2.135,0 2.722,-0.995 2.722,-2.159 V 0.348 H 9.282 v 0.395 c 0,1.476 -0.911,1.547 -1.99,1.547 H 3.214 C 2.087,2.29 1.175,1.954 1.175,0.443 v -3.261 c 0,-1.512 0.912,-1.848 2.039,-1.848 h 4.114 c 1.583,0 2.038,0.336 2.038,1.512 v 0.539 h 1.104 v -0.587 c 0,-1.571 -0.504,-2.423 -2.939,-2.423 H 3.094 C 0.743,-5.625 0,-4.569 0,-2.375 Z" /></g><g
         transform="translate(1343.8184,38.9707)"
         id="g1715"><path
           inkscape:connector-curvature="0"
           id="path1717"
           style="fill:#231f20;fill-opacity:1;fill-rule:nonzero;stroke:none"
           d="M 0,0 C 0,1.511 -0.912,1.847 -2.039,1.847 H -6.801 C -7.928,1.847 -8.84,1.511 -8.84,0 v -3.262 c 0,-1.511 0.912,-1.847 2.039,-1.847 h 4.762 c 1.127,0 2.039,0.336 2.039,1.847 z m -10.015,-0.443 c 0,2.194 0.744,3.25 3.094,3.25 h 5.001 c 2.352,0 3.095,-1.056 3.095,-3.25 v -2.375 c 0,-2.195 -0.743,-3.25 -3.095,-3.25 h -5.001 c -2.35,0 -3.094,1.055 -3.094,3.25 z" /></g><g
         transform="translate(1352.6318,38.5273)"
         id="g1719"><path
           inkscape:connector-curvature="0"
           id="path1721"
           style="fill:#231f20;fill-opacity:1;fill-rule:nonzero;stroke:none"
           d="m 0,0 c 0,2.194 0.743,3.25 3.094,3.25 h 4.498 c 2.135,0 2.722,-0.995 2.722,-2.159 V 0.348 H 9.282 v 0.395 c 0,1.476 -0.911,1.547 -1.99,1.547 H 3.214 C 2.087,2.29 1.175,1.954 1.175,0.443 v -3.261 c 0,-1.512 0.912,-1.848 2.039,-1.848 h 4.113 c 1.584,0 2.039,0.336 2.039,1.512 v 0.539 h 1.104 v -0.587 c 0,-1.571 -0.504,-2.423 -2.939,-2.423 H 3.094 C 0.743,-5.625 0,-4.569 0,-2.375 Z" /></g><g
         transform="translate(1369.9199,40.7217)"
         id="g1723"><path
           inkscape:connector-curvature="0"
           id="path1725"
           style="fill:#231f20;fill-opacity:1;fill-rule:nonzero;stroke:none"
           d="M 0,0 -2.914,-4.929 H 2.915 Z M -0.731,0.96 H 0.731 L 5.889,-7.724 H 4.558 l -1.079,1.835 h -6.957 l -1.08,-1.835 h -1.331 z" /></g><g
         transform="translate(1388.5791,37.4473)"
         id="g1727"><path
           inkscape:connector-curvature="0"
           id="path1729"
           style="fill:#231f20;fill-opacity:1;fill-rule:nonzero;stroke:none"
           d="m 0,0 c 2.387,0 2.699,0.396 2.699,1.68 0,1.69 -0.864,1.69 -2.89,1.69 h -1.608 c -2.182,0 -2.938,0 -2.938,-1.751 C -4.737,0.132 -4.569,0 -1.679,0 Z m -5.732,-1.883 h 1.103 V -2.41 c 0,-0.708 0.384,-1.176 1.942,-1.176 h 3.563 c 0.804,0 1.823,0.24 1.823,1.403 V 0.145 H 2.675 C 2.352,-0.827 1.452,-0.959 0.636,-0.959 H -3.37 c -1.691,0 -2.471,0.647 -2.471,2.135 v 0.815 c 0,2.196 1.535,2.339 3.503,2.339 h 2.926 c 1.548,0 3.215,-0.18 3.215,-2.53 v -4.067 c 0,-1.798 -1.583,-2.278 -2.759,-2.278 h -3.538 c -2.603,0 -3.238,0.875 -3.238,2.278 z" /></g><g
         transform="translate(1401.5752,40.8418)"
         id="g1731"><path
           inkscape:connector-curvature="0"
           id="path1733"
           style="fill:#231f20;fill-opacity:1;fill-rule:nonzero;stroke:none"
           d="M 0,0 -6.536,-5.037 V -5.062 H 0 Z M -7.64,-4.653 -0.504,0.84 H 1.104 V -5.062 H 2.555 V -6.021 H 1.104 V -7.844 H 0 v 1.823 h -7.64 z" /></g><g
         transform="translate(1411.0313,40.6738)"
         id="g1735"><path
           inkscape:connector-curvature="0"
           id="path1737"
           style="fill:#231f20;fill-opacity:1;fill-rule:nonzero;stroke:none"
           d="m 0,0 -3.25,-2.578 -0.6,0.755 3.575,2.831 H 1.104 V -7.676 H 0 Z" /></g><g
         transform="translate(1417.3594,34.5332)"
         id="g1739"><path
           inkscape:connector-curvature="0"
           id="path1741"
           style="fill:#231f20;fill-opacity:1;fill-rule:nonzero;stroke:none"
           d="m 0,0 c 0,1.895 0.923,2.387 2.89,2.53 l 3.862,0.277 c 1.691,0.12 1.835,0.551 1.835,1.655 0,1.259 -0.264,1.822 -1.823,1.822 H 3.118 C 1.87,6.284 1.139,6.152 1.139,4.426 V 3.946 H 0.035 v 0.816 c 0,1.822 0.996,2.482 3.047,2.482 h 3.67 C 9.246,7.244 9.69,6.116 9.69,4.401 9.69,2.087 8.814,1.943 5.96,1.751 L 4.161,1.631 C 1.402,1.451 1.103,1.343 1.103,0.192 v -0.767 h 8.708 v -0.96 H 0 Z" /></g><g
         transform="translate(1436.2783,40.8418)"
         id="g1743"><path
           inkscape:connector-curvature="0"
           id="path1745"
           style="fill:#231f20;fill-opacity:1;fill-rule:nonzero;stroke:none"
           d="M 0,0 -6.536,-5.037 V -5.062 H 0 Z M -7.64,-4.653 -0.504,0.84 H 1.104 V -5.062 H 2.555 V -6.021 H 1.104 V -7.844 H 0 v 1.823 h -7.64 z" /></g></g></g></svg>