<svg width="253.55mm" height="16.016mm" version="1.1" viewBox="0 0 253.55 16.016" xmlns="http://www.w3.org/2000/svg">
 <g transform="matrix(.35278 0 0 -.35278 -24.594 96.799)">
    <g style="fill:inherit;stroke-opacity:.94118;stroke:inherit">
     <g transform="translate(83.533,241.13)" style="font-variant-east_asian:normal;stroke-opacity:.94118">
      <path d="m0 0h23.639c5.7 0 7.92 1.62 7.92 7.8v5.88c0 6.179-2.22 7.799-7.92 7.799h-23.639zm-13.319 32.279h40.198c13.319 0 17.999-4.38 17.999-15.12v-13.199c0-10.739-4.68-15.119-17.999-15.119h-40.198z" style="font-variant-east_asian:normal;stroke-opacity:.94118;"/>
     </g>
     <g transform="translate(136.45,273.41)" style="font-variant-east_asian:normal;stroke-opacity:.94118;">
      <path d="m0 0h20.459l15.06-27.959 15.059 27.959h20.459v-43.438h-12.959v31.199h-0.12l-17.46-31.199h-9.959l-17.46 31.199h-0.12v-31.199h-12.959z" style="font-variant-east_asian:normal;stroke-opacity:.94118;"/>
     </g>
     <g transform="translate(215.53,258.17)" style="font-variant-east_asian:normal;stroke-opacity:.94118;">
      <path d="m0 0c0 12.719 7.14 15.719 19.139 15.719h20.039c15.12 0 17.219-5.46 17.219-13.919v-1.38h-13.079c0 4.319-2.46 4.859-6.72 4.859h-14.459c-6.72 0-8.46-1.62-8.46-9.059v-5.4c0-7.44 1.74-9.059 8.46-9.059h14.219c3.48 0 6.96 0.54 6.96 4.739v1.26h-16.559v9h29.879v-12.36c0-12.479-6.48-13.08-21.48-13.08h-16.019c-11.999 0-19.139 3-19.139 15.72z" style="font-variant-east_asian:normal;stroke-opacity:.94118;"/>
     </g>
     <g transform="translate(323.65,241.13)" style="font-variant-east_asian:normal;stroke-opacity:.94118;">
      <path d="m0 0h23.639c5.7 0 7.92 1.62 7.92 7.8v5.88c0 6.179-2.22 7.799-7.92 7.799h-23.639zm-13.319 32.279h40.198c13.319 0 17.999-4.38 17.999-15.12v-13.199c0-10.739-4.68-15.119-17.999-15.119h-40.198z" style="font-variant-east_asian:normal;stroke-opacity:.94118;"/>
     </g>
     <g transform="translate(376.57,273.41)" style="font-variant-east_asian:normal;stroke-opacity:.94118;">
      <path d="m0 0h47.518v-10.08h-34.199v-6.96h32.399v-8.999h-32.399v-6.96h34.979v-10.439h-48.298z" style="font-variant-east_asian:normal;stroke-opacity:.94118;"/>
     </g>
     <g transform="translate(432.13,244.19)" style="font-variant-east_asian:normal;stroke-opacity:.94118;">
      <path d="m0 0h13.319c0.061-4.62 1.92-4.98 5.76-4.98h16.319c2.821 0 5.701 0.3 5.701 3.66 0 3.78-1.561 4.019-18.72 4.019-20.039 0-22.318 2.401-22.318 13.08 0 7.86 0.719 13.919 17.518 13.919h18.6c15.359 0 16.799-5.219 16.799-12.839v-1.38h-13.32c0 3.18-0.359 4.5-6.479 4.5h-14.76c-2.999 0-5.039-1.02-5.039-3.36 0-3.78 1.62-3.9 15.899-3.84 20.7 0.06 25.499-1.2 25.499-13.859 0-11.7-3.96-13.62-21.659-13.62h-16.14c-12.119 0-16.979 2.28-16.979 11.7z" style="font-variant-east_asian:normal;stroke-opacity:.94118;"/>
     </g>
     <path d="m495.85 273.41h13.319v-43.438h-13.319z" style="font-variant-east_asian:normal;stroke-opacity:.94118;"/>
     <g transform="translate(517.93,258.17)" style="font-variant-east_asian:normal;stroke-opacity:.94118;">
      <path d="m0 0c0 12.719 7.14 15.719 19.139 15.719h20.04c15.119 0 17.218-5.46 17.218-13.919v-1.38h-13.079c0 4.319-2.46 4.859-6.719 4.859h-14.46c-6.72 0-8.459-1.62-8.459-9.059v-5.4c0-7.44 1.739-9.059 8.459-9.059h14.219c3.48 0 6.96 0.54 6.96 4.739v1.26h-16.559v9h29.879v-12.36c0-12.479-6.48-13.08-21.48-13.08h-16.019c-11.999 0-19.139 3-19.139 15.72z" style="font-variant-east_asian:normal;stroke-opacity:.94118;"/>
     </g>
     <g transform="translate(582.61,273.41)" style="font-variant-east_asian:normal;stroke-opacity:.94118;">
      <path d="m0 0h20.639l25.019-31.559h0.12v31.559h13.32v-43.438h-20.64l-25.019 31.558h-0.12v-31.558h-13.319z" style="font-variant-east_asian:normal;stroke-opacity:.94118;"/>
     </g>
     <g transform="translate(679.57,244.19)" style="font-variant-east_asian:normal;stroke-opacity:.94118;">
      <path d="m0 0h13.319c0.061-4.62 1.92-4.98 5.76-4.98h16.319c2.821 0 5.701 0.3 5.701 3.66 0 3.78-1.561 4.019-18.72 4.019-20.039 0-22.318 2.401-22.318 13.08 0 7.86 0.719 13.919 17.518 13.919h18.6c15.359 0 16.799-5.219 16.799-12.839v-1.38h-13.32c0 3.18-0.359 4.5-6.479 4.5h-14.76c-2.999 0-5.039-1.02-5.039-3.36 0-3.78 1.62-3.9 15.899-3.84 20.7 0.06 25.499-1.2 25.499-13.859 0-11.7-3.96-13.62-21.659-13.62h-16.14c-12.119 0-16.979 2.28-16.979 11.7z" style="font-variant-east_asian:normal;stroke-opacity:.94118;"/>
     </g>
     <g transform="translate(742.57,273.41)" style="font-variant-east_asian:normal;stroke-opacity:.94118;">
      <path d="m0 0h45.358v-10.439h-32.039v-8.1h30.539v-10.08h-30.539v-14.819h-13.319z" style="font-variant-east_asian:normal;stroke-opacity:.94118;"/>
     </g>
    </g>
 </g>
</svg>
