<svg width="16.933mm" height="16.918mm" version="1.1" viewBox="0 0 16.933 16.918" xmlns="http://www.w3.org/2000/svg">
 <defs>
  <clipPath id="c">
   <path d="M 0,75.124 H 89.555 V 0 H 0 Z"/>
  </clipPath>
  <filter id="a" x="-.78573" y="-.99585" width="2.5715" height="2.9917" style="color-interpolation-filters:sRGB">
   <feGaussianBlur stdDeviation="3.4774613"/>
  </filter>
  <clipPath id="b">
   <rect transform="scale(1,-1)" x="16.221" y="-75.809" width="44.441" height="45.086" style="fill:none;stroke-width:.27362;stroke:#0ff"/>
  </clipPath>
 </defs>
 <g transform="translate(-74.309 -234.3)">
  <g transform="matrix(.38103 0 0 -.38103 68.129 262.93)" clip-path="url(#b)">
   <g clip-path="url(#c)">
    <g transform="translate(38.401 34.124)">
     <path d="m0 0c-10.563 0-19.125 8.563-19.125 19.125 0 10.563 8.562 19.125 19.125 19.125s19.125-8.562 19.125-19.125c0-10.562-8.562-19.125-19.125-19.125m0 40.5c-11.805 0-21.375-9.569-21.375-21.375s9.57-21.375 21.375-21.375 21.375 9.569 21.375 21.375-9.57 21.375-21.375 21.375" style="fill-opacity:0"/>
    </g>
    <g transform="translate(38.401 34.124)">
     <path d="m0 0c-10.563 0-19.125 8.563-19.125 19.125 0 10.563 8.562 19.125 19.125 19.125s19.125-8.562 19.125-19.125c0-10.562-8.562-19.125-19.125-19.125zm0 40.5c-11.805 0-21.375-9.569-21.375-21.375s9.57-21.375 21.375-21.375 21.375 9.569 21.375 21.375-9.57 21.375-21.375 21.375z" style="fill:none;stroke:none"/>
    </g>
    <g transform="translate(23.062 53.249)">
     <path d="M 0,0 C 0,-6.188 3.828,-11.504 9.307,-13.833 V 13.833 C 3.828,11.504 0,6.188 0,0" style="fill-opacity:0"/>
    </g>
    <g transform="translate(23.062 53.249)">
     <path d="M 0,0 C 0,-6.188 3.828,-11.504 9.307,-13.833 V 13.833 C 3.828,11.504 0,6.188 0,0 Z" style="fill:none;stroke:none"/>
    </g>
    <g transform="translate(42.739 36.872)">
     <path d="m0 0v1.845l0.02 24.793-3.27-10.471h-1.83l-3.268 10.265 0.02-24.594v-1.843c-7.584 1.818-13.401 8.462-13.401 16.382 0 8.042 5.998 14.769 13.751 16.463l0.525-1.714c-8e-3 -2e-3 -0.018-4e-3 -0.026-6e-3l3.279-10.806h0.057l3.227 10.812c-7e-3 1e-3 -0.014 2e-3 -0.02 4e-3l0.51 1.723c6.136-1.332 11.04-5.872 12.789-11.731h-2.298c-1.372 4.033-4.222 7.311-8.023 9.031v-27.582c4.511 1.98 7.776 6.072 8.68 11.012h-4.836v2.794h7.168c0-7.913-5.557-14.552-13.054-16.377m-4.338 35.502c-10.802 0-19.558-8.563-19.558-19.125 0-10.563 8.756-19.125 19.558-19.125s19.559 8.562 19.559 19.125c0 10.562-8.757 19.125-19.559 19.125" style="fill-opacity:0"/>
    </g>
    <g transform="translate(42.739 36.872)">
     <path d="m0 0v1.845l0.02 24.793-3.27-10.471h-1.83l-3.268 10.265 0.02-24.594v-1.843c-7.584 1.818-13.401 8.462-13.401 16.382 0 8.042 5.998 14.769 13.751 16.463l0.525-1.714c-8e-3 -2e-3 -0.018-4e-3 -0.026-6e-3l3.279-10.806h0.057l3.227 10.812c-7e-3 1e-3 -0.014 2e-3 -0.02 4e-3l0.51 1.723c6.136-1.332 11.04-5.872 12.789-11.731h-2.298c-1.372 4.033-4.222 7.311-8.023 9.031v-27.582c4.511 1.98 7.776 6.072 8.68 11.012h-4.836v2.794h7.168c0-7.913-5.557-14.552-13.054-16.377zm-4.338 35.502c-10.802 0-19.558-8.563-19.558-19.125 0-10.563 8.756-19.125 19.558-19.125s19.559 8.562 19.559 19.125c0 10.562-8.757 19.125-19.559 19.125z" style="fill:none;stroke:none"/>
    </g>
    <g transform="translate(32.368 39.374)">
     <path d="m0 0c-5.479 2.329-9.307 7.646-9.307 13.833 0 6.188 3.828 11.504 9.307 13.833zm21.346 13.833h-5.089v-2.794h4.836c-0.904-4.94-4.169-9.032-8.68-11.013v27.582c3.801-1.719 6.651-4.997 8.024-9.03h2.297c-1.745 5.847-6.63 10.378-12.747 11.721l-3.758-12.528h-0.058l-1.269 4.179c-0.869 2.76-1.955 6.237-2.572 8.332-7.724-1.717-13.688-8.429-13.688-16.449 0-7.92 5.817-14.564 13.401-16.382v1.843l-0.02 24.594 3.268-10.265h1.83l3.27 10.471-0.02-24.793v-1.845c7.497 1.824 13.054 8.464 13.054 16.377z" style="fill:#fff"/>
    </g>
    <g transform="translate(32.368 39.374)">
     <path d="m0 0c-5.479 2.329-9.307 7.646-9.307 13.833 0 6.188 3.828 11.504 9.307 13.833zm21.346 13.833h-5.089v-2.794h4.836c-0.904-4.94-4.169-9.032-8.68-11.013v27.582c3.801-1.719 6.651-4.997 8.024-9.03h2.297c-1.745 5.847-6.63 10.378-12.747 11.721l-3.758-12.528h-0.058l-1.269 4.179c-0.869 2.76-1.955 6.237-2.572 8.332-7.724-1.717-13.688-8.429-13.688-16.449 0-7.92 5.817-14.564 13.401-16.382v1.843l-0.02 24.594 3.268-10.265h1.83l3.27 10.471-0.02-24.793v-1.845c7.497 1.824 13.054 8.464 13.054 16.377z" style="fill:none;stroke:#fff"/>
    </g>
    <g transform="translate(5.7793,11.668)">
     <path d="m0 0-4.879-3.871-0.9 1.134 5.365 4.249h2.07v-13.035h-1.656z" style="fill-opacity:0"/>
    </g>
    <g transform="translate(15.263 2.4492)">
     <path d="m0 0c0 2.844 1.387 3.582 4.339 3.799l5.798 0.414c2.539 0.18 2.755 0.828 2.755 2.484 0 1.891-0.396 2.737-2.737 2.737h-5.473c-1.873 0-2.971-0.198-2.971-2.79v-0.72h-1.657v1.223c0 2.738 1.495 3.728 4.573 3.728h5.51c3.745 0 4.411-1.693 4.411-4.268 0-3.474-1.314-3.691-5.6-3.978l-2.7-0.181c-4.142-0.27-4.592-0.432-4.592-2.161v-1.152h13.073v-1.44h-14.729z" style="fill-opacity:0"/>
    </g>
    <path d="m34.631 2.377h2.017v-2.232h-2.017z" style="fill-opacity:0"/>
    <g transform="translate(41.579 13.18)">
     <path d="m0 0h14.026v-1.439h-12.37v-4.071h0.036c0.577 1.153 1.332 1.351 3.908 1.351h4.338c2.99 0 4.556-0.81 4.556-3.709v-1.585c0-2.34-0.486-3.727-4.897-3.727h-5.816c-3.096 0-4.033 1.135-4.033 3.854v0.269h1.656c0-1.711 0.216-2.682 2.665-2.682h4.988c3.51 0 3.781 0.612 3.781 3.024v0.595c0 1.927-0.864 2.52-3.511 2.52h-5.024c-1.405 0-2.305-0.126-2.719-1.349h-1.584z" style="fill-opacity:0"/>
    </g>
    <g transform="translate(88.114 6.4277)">
     <path d="m0 0c0 0.811-0.612 0.973-1.225 0.973h-4.375c-0.612 0-1.224-0.162-1.224-0.973v-4.213c0-0.793 0.612-0.955 1.224-0.955h4.375c0.613 0 1.225 0.162 1.225 0.955zm-8.265 0.072c0 2.035 1.297 2.16 2.396 2.16h4.915c1.099 0 2.394-0.125 2.394-2.16v-4.34c0-2.034-1.295-2.16-2.394-2.16h-4.915c-1.099 0-2.396 0.126-2.396 2.16zm-0.252 6.824h1.189l-4.447-13.324h-1.206zm-4.879-2.232c0 0.81-0.612 0.972-1.224 0.972h-4.375c-0.612 0-1.225-0.162-1.225-0.972v-4.214c0-0.792 0.613-0.954 1.225-0.954h4.375c0.612 0 1.224 0.162 1.224 0.954zm-8.264 0.072c0 2.034 1.296 2.16 2.394 2.16h4.916c1.098 0 2.395-0.126 2.395-2.16v-4.34c0-2.035-1.297-2.16-2.395-2.16h-4.916c-1.098 0-2.394 0.125-2.394 2.16z" style="fill-opacity:0"/>
    </g>
   </g>
  </g>
  <rect x="75.784" y="263.64" width="10.622" height="8.3807" style="fill:#fff;filter:url(#a);stroke-opacity:0"/>
 </g>
</svg>
