<svg width="110.48mm" height="108.04mm" version="1.1" viewBox="0 0 110.48 108.04" xmlns="http://www.w3.org/2000/svg">
 <g transform="translate(-78.562 -213.5)">
  <g transform="matrix(.35278 0 0 -.35278 -4.3652 467.52)">
   <g transform="translate(268.94 566.94)">
    <path d="M 0,0 C 0,-49.5 30.633,-92.033 74.461,-110.663 V 110.662 C 30.633,92.03 0,49.497 0,0" fill="#231f20"/>
   </g>
   <g transform="translate(268.94 566.94)">
    <path d="M 0,0 C 0,-49.5 30.633,-92.033 74.461,-110.663 V 110.662 C 30.633,92.03 0,49.497 0,0 Z" fill="none" stroke="#231f20" stroke-width=".25"/>
   </g>
   <g transform="translate(393.22 598.43)">
    <path d="m0 0 25.817 86.492c-8.291 1.778-16.969 2.73-25.987 2.73-9.101 0-17.972-0.961-26.517-2.771l26.233-86.451z" fill="#231f20"/>
   </g>
   <g transform="translate(393.22 598.43)">
    <path d="m0 0 25.817 86.492c-8.291 1.778-16.969 2.73-25.987 2.73-9.101 0-17.972-0.961-26.517-2.771l26.233-86.451z" fill="none" stroke="#231f20" stroke-width=".25"/>
   </g>
   <g transform="translate(385.72 565.25)">
    <path d="m0 0-26.148 82.12 0.157-196.75c10.601-2.867 21.772-4.405 33.313-4.405 11.624 0 22.786 1.559 33.311 4.465l0.159 198.34-26.151-83.769z" fill="#231f20"/>
   </g>
   <g transform="translate(385.72 565.25)">
    <path d="m0 0-26.148 82.12 0.157-196.75c10.601-2.867 21.772-4.405 33.313-4.405 11.624 0 22.786 1.559 33.311 4.465l0.159 198.34-26.151-83.769z" fill="none" stroke="#231f20" stroke-width=".25"/>
   </g>
   <g transform="translate(393.05 431.94)">
    <path d="m0 0c-76.077 0-140.52 60.439-140.52 135 0 74.558 64.445 135 140.52 135 62.627 0 115.48-40.964 132.22-97.041h-18.377c-10.98 32.268-33.785 58.485-64.191 72.249v-220.66c36.09 15.84 62.209 48.573 69.437 88.097h-38.685v22.352h57.346c0-74.561-61.67-135-137.75-135m-1.387 288c-86.413 0-156.46-68.5-156.46-153 0-84.5 70.051-153 156.46-153s156.46 68.501 156.46 153c0 84.499-70.051 153-156.46 153" fill="#231f20"/>
   </g>
   <g transform="translate(393.05 431.94)">
    <path d="m0 0c-76.077 0-140.52 60.439-140.52 135 0 74.558 64.445 135 140.52 135 62.627 0 115.48-40.964 132.22-97.041h-18.377c-10.98 32.268-33.785 58.485-64.191 72.249v-220.66c36.09 15.84 62.209 48.573 69.437 88.097h-38.685v22.352h57.346c0-74.561-61.67-135-137.75-135zm-1.387 288c-86.413 0-156.46-68.5-156.46-153 0-84.5 70.051-153 156.46-153s156.46 68.501 156.46 153c0 84.499-70.051 153-156.46 153z" fill="none" stroke="#231f20" stroke-width=".25"/>
   </g>
  </g>
 </g>
</svg>
