<svg width="14mm" height="14mm" version="1.1" viewBox="0 0 14 14" xmlns="http://www.w3.org/2000/svg">
 <g transform="translate(202.34 -373.38)">
  <g transform="matrix(.33517 0 0 -.34276 -493.77 641.52)" style="fill:#cf0000">
   <g transform="translate(874 761.89)" style="fill:#cf0000">
    <path d="M 0,0 C 0,-6.607 4.089,-12.285 9.939,-14.772 V 14.772 C 4.089,12.284 0,6.606 0,0" style="fill:#cf0000"/>
   </g>
   <g transform="translate(890.59 766.09)" style="fill:#cf0000">
    <path d="m0 0 3.447 11.545c-1.107 0.238-2.265 0.365-3.468 0.365-1.215 0-2.4-0.129-3.541-0.37l3.502-11.54z" style="fill:#cf0000"/>
   </g>
   <g transform="translate(889.59 761.66)" style="fill:#cf0000">
    <path d="m0 0-3.491 10.962 0.021-26.264c1.415-0.383 2.907-0.588 4.448-0.588 1.55 0 3.041 0.209 4.445 0.596l0.021 26.477-3.49-11.183z" style="fill:#cf0000"/>
   </g>
   <g transform="translate(890.57 743.87)" style="fill:#cf0000">
    <path d="m0 0c-10.156 0-18.758 8.068-18.758 18.021 0 9.952 8.602 18.02 18.758 18.02 8.359 0 15.415-5.469 17.648-12.953h-2.453c-1.466 4.307-4.509 7.807-8.568 9.643v-29.454c4.816 2.115 8.304 6.485 9.269 11.76h-5.165v2.984h7.656c0-9.953-8.233-18.021-18.387-18.021m-0.186 38.443c-11.535 0-20.885-9.143-20.885-20.422s9.35-20.423 20.885-20.423c11.536 0 20.885 9.144 20.885 20.423s-9.349 20.422-20.885 20.422" style="fill:#cf0000"/>
   </g>
  </g>
 </g>
</svg>
