<?xml version="1.0" encoding="UTF-8" standalone="no"?>
<!-- Created with Inkscape (http://www.inkscape.org/) -->

<svg
   xmlns:dc="http://purl.org/dc/elements/1.1/"
   xmlns:cc="http://creativecommons.org/ns#"
   xmlns:rdf="http://www.w3.org/1999/02/22-rdf-syntax-ns#"
   xmlns:svg="http://www.w3.org/2000/svg"
   xmlns="http://www.w3.org/2000/svg"
   xmlns:sodipodi="http://sodipodi.sourceforge.net/DTD/sodipodi-0.dtd"
   xmlns:inkscape="http://www.inkscape.org/namespaces/inkscape"
   width="14mm"
   height="14mm"
   viewBox="0 0 14 14"
   version="1.1"
   id="svg3882"
   inkscape:version="0.92.4 (5da689c313, 2019-01-14)"
   sodipodi:docname="dmg-icon-color.svg"
   inkscape:export-filename="C:\depot\cbeyond\cbeyondvr-monorepo\packages\dmgdesign\src\assets\img\dmg-icon-color.png"
   inkscape:export-xdpi="96"
   inkscape:export-ydpi="96">
  <defs
     id="defs3876" />
  <sodipodi:namedview
     id="base"
     pagecolor="#ffffff"
     bordercolor="#666666"
     borderopacity="1.0"
     inkscape:pageopacity="0.0"
     inkscape:pageshadow="2"
     inkscape:zoom="1.979899"
     inkscape:cx="103.05282"
     inkscape:cy="-57.742997"
     inkscape:document-units="mm"
     inkscape:current-layer="layer1"
     showgrid="false"
     fit-margin-top="0"
     fit-margin-left="0"
     fit-margin-right="0"
     fit-margin-bottom="0"
     inkscape:window-width="2560"
     inkscape:window-height="1389"
     inkscape:window-x="-14"
     inkscape:window-y="-14"
     inkscape:window-maximized="1" />
  <metadata
     id="metadata3879">
    <rdf:RDF>
      <cc:Work
         rdf:about="">
        <dc:format>image/svg+xml</dc:format>
        <dc:type
           rdf:resource="http://purl.org/dc/dcmitype/StillImage" />
        <dc:title></dc:title>
      </cc:Work>
    </rdf:RDF>
  </metadata>
  <g
     inkscape:label="Layer 1"
     inkscape:groupmode="layer"
     id="layer1"
     transform="translate(93.826965,-191.77086)">
    <g
       id="g3857"
       transform="matrix(0.33516878,0,0,-0.34275921,-385.25632,459.91523)">
      <g
         transform="translate(874.0039,761.8887)"
         id="g3843">
        <path
           inkscape:connector-curvature="0"
           id="path3841"
           style="fill:#9c201f;fill-opacity:1;fill-rule:nonzero;stroke:none"
           d="M 0,0 C 0,-6.607 4.089,-12.285 9.939,-14.772 V 14.772 C 4.089,12.284 0,6.606 0,0" />
      </g>
      <g
         transform="translate(890.5928,766.0928)"
         id="g3847">
        <path
           inkscape:connector-curvature="0"
           id="path3845"
           style="fill:#9c201f;fill-opacity:1;fill-rule:nonzero;stroke:none"
           d="m 0,0 3.447,11.545 c -1.107,0.238 -2.265,0.365 -3.468,0.365 -1.215,0 -2.4,-0.129 -3.541,-0.37 L -0.06,0 Z" />
      </g>
      <g
         transform="translate(889.5938,761.6641)"
         id="g3851">
        <path
           inkscape:connector-curvature="0"
           id="path3849"
           style="fill:#9c201f;fill-opacity:1;fill-rule:nonzero;stroke:none"
           d="m 0,0 -3.491,10.962 0.021,-26.264 c 1.415,-0.383 2.907,-0.588 4.448,-0.588 1.55,0 3.041,0.209 4.445,0.596 L 5.444,11.183 1.954,0 Z" />
      </g>
      <g
         transform="translate(890.5713,743.8682)"
         id="g3855">
        <path
           inkscape:connector-curvature="0"
           id="path3853"
           style="fill:#9c201f;fill-opacity:1;fill-rule:nonzero;stroke:none"
           d="m 0,0 c -10.156,0 -18.758,8.068 -18.758,18.021 0,9.952 8.602,18.02 18.758,18.02 8.359,0 15.415,-5.469 17.648,-12.953 h -2.453 c -1.466,4.307 -4.509,7.807 -8.568,9.643 V 3.277 c 4.816,2.115 8.304,6.485 9.269,11.76 h -5.165 v 2.984 h 5.434 2.222 C 18.387,8.068 10.154,0 0,0 m -0.186,38.443 c -11.535,0 -20.885,-9.143 -20.885,-20.422 0,-11.279 9.35,-20.423 20.885,-20.423 11.536,0 20.885,9.144 20.885,20.423 0,11.279 -9.349,20.422 -20.885,20.422" />
      </g>
    </g>
  </g>
</svg>
