<svg width="132.51mm" height="105.74mm" version="1.1" viewBox="0 0 132.51 105.74" xmlns="http://www.w3.org/2000/svg">
 <defs>
  <marker id="marker8720" overflow="visible" orient="auto">
   <path transform="matrix(-.8 0 0 -.8 -10 0)" d="m0 0 5-5-17.5 5 17.5 5z" fill="#0f0" fill-rule="evenodd" stroke="#0f0" stroke-width="1pt"/>
  </marker>
  <marker id="marker8770" overflow="visible" orient="auto">
   <path transform="matrix(-.8 0 0 -.8 -10 0)" d="m0 0 5-5-17.5 5 17.5 5z" fill="#0f0" fill-rule="evenodd" stroke="#0f0" stroke-width="1pt"/>
  </marker>
  <marker id="marker7745" overflow="visible" orient="auto">
   <path transform="matrix(-.8 0 0 -.8 -10 0)" d="m0 0 5-5-17.5 5 17.5 5z" fill="#0f0" fill-rule="evenodd" stroke="#0f0" stroke-width="1pt"/>
  </marker>
  <marker id="marker8742" overflow="visible" orient="auto">
   <path transform="matrix(-.8 0 0 -.8 -10 0)" d="m0 0 5-5-17.5 5 17.5 5z" fill="#800000" fill-rule="evenodd" stroke="#800000" stroke-width="1pt"/>
  </marker>
 </defs>
 <g transform="translate(528.9 -71.017)">
  <path class="shp0" d="m-515.19 87.872c2.1636-3.0983 2.8166-3.8927 6.2745-6.4413 2.1868 1.7671 1.6267 1.3376 4.6478 3.8648-7.6689 7.5148-10.922 12.024-10.922 24.906z" fill="#999" stroke="#000" stroke-width=".44675" style="paint-order:stroke fill markers"/>
  <path class="shp1" d="m-528.9 71.017h13.711v105.73h-13.711z" fill="#999" stroke-width=".31087"/>
  <path class="shp4" d="m-521.93 105.44h0.46478v2.9459h-0.46478zm0 4.2085h0.46478v2.9459h-0.46478zm0 4.2085h0.46478v2.9459h-0.46478zm0 4.2085h0.46478v2.9459h-0.46478zm0 4.2085h0.46478v2.9459h-0.46478zm0-37.876h0.46478v2.9459h-0.46478zm0 4.2085h0.46478v2.9459h-0.46478zm0 4.2085h0.46478v2.9459h-0.46478zm0 4.2085h0.46478v2.9459h-0.46478zm0 4.2085h0.46478v2.9459h-0.46478zm0-29.459h0.46478v2.9459h-0.46478zm0 4.2085h0.46478v2.9459h-0.46478zm0 4.2085h0.46478v2.9459h-0.46478zm0 63.128h0.46478v2.9459h-0.46478zm0 4.2085h0.46478v2.9459h-0.46478zm0 4.2085h0.46478v2.9459h-0.46478zm0 4.2085h0.46478v2.9459h-0.46478zm0 4.2085h0.46478v2.9459h-0.46478zm0-33.667h0.46478v2.9459h-0.46478zm0 4.2085h0.46478v2.9459h-0.46478zm0 4.2085h0.46478v2.9459h-0.46478zm0 4.2085h0.46478v2.9459h-0.46478zm0 25.251h0.46478v2.9459h-0.46478zm0 4.2085h0.46478v2.946h-0.46478zm0 4.2085h0.46478v2.9459h-0.46478z" fill="#cc0" stroke-width=".31273"/>
  <path d="m-515.43 110.44-1.9388-0.0485" fill="none" stroke="#000" stroke-dasharray="0.10662645, 0.10662645" stroke-width=".10663"/>
  <path d="m-522.55 168.28c-1e-5 -8e-4 -4.7e-4 -4e-3 -5e-4 -6e-3 -5e-4 -0.0208-2e-3 -0.0948-0.0123-0.13515-0.0111-0.0451-0.0261-0.0902-0.0518-0.12993-0.0385-0.0594-0.0935-0.10947-0.14935-0.15554-0.0467-0.0384-0.10121-0.0679-0.15347-0.0996-0.021-0.0128-0.0407-0.0292-0.0647-0.036-3e-3 -1e-3 -6e-3 -2e-3 -0.01-3e-3 -2e-3 -0.74112-8e-3 -1.4822-0.0262-2.2231-0.0161-0.44485-0.25796-0.88125-0.66672-1.1248-0.13176-0.10437-0.28737-0.17105-0.45577-0.20107-0.50692-0.17351-1.0595-0.0994-1.5885-0.11523-0.4219-0.0147-0.84623 0.0671-1.2216 0.24374-0.3503 0.20534-0.6628 0.51231-0.72626 0.90479-0.12373 0.54987-0.0535 1.1162-0.0739 1.6735 6.7e-4 0.28106 4.7e-4 0.56208 5.1e-4 0.84314-2e-3 5.3e-4 -4e-3 1e-3 -6e-3 2e-3 -0.024 7e-3 -0.0437 0.0233-0.0647 0.036-0.0523 0.0317-0.1068 0.0611-0.15346 0.0996-0.0559 0.0461-0.11087 0.0962-0.14936 0.15554-0.0257 0.0397-0.0408 0.0848-0.0518 0.12993-0.01 0.0404-0.0118 0.11434-0.0123 0.13515-2e-3 9e-3 -2.8e-4 0.0194 5e-3 0.0261 5e-3 7e-3 0.0107 9e-3 0.0231 0.0104 0.0124 2e-3 0.0177-2e-5 0.0488-8e-3 0.0311-8e-3 0.0852-0.0257 0.13448-0.0451 0.0493-0.0194 0.11693-0.0516 0.15962-0.073 0.0273-0.0137 0.0479-0.0249 0.0667-0.0356-1.8e-4 0.36563-1.8e-4 0.73118-5.2e-4 1.0968-2e-3 1e-3 -4e-3 3e-3 -6e-3 4e-3 -0.01 8e-3 -0.0224 0.0207-0.0313 0.0441-9e-3 0.0234-6e-3 0.0246-0.0103 0.0958-4e-3 0.0712-2e-3 0.25161 1e-3 0.30444 4e-3 0.0528 4e-3 0.0622 0.0154 0.0882 9e-3 0.021 0.0131 0.0366 0.0303 0.0398-1.5e-4 0.5571 5.4e-4 1.1145 3e-3 1.6716-8e-3 0.0205-6e-3 0.0251-9e-3 0.0929-4e-3 0.0712-2e-3 0.25209 1e-3 0.30491 3e-3 0.0436 4e-3 0.0577 0.0108 0.0759 3e-3 0.46026 8e-3 0.92065 0.0149 1.3809-8.2e-4 0.32185 0.21632 0.64168 0.55124 0.74973 0.73678 0.27594 1.5537 0.27096 2.3364 0.24279 0.51105-0.036 1.0487-0.097 1.49-0.35281 0.35145-0.22924 0.36185-0.67103 0.36031-1.0309 4e-3 -0.33892 5e-3 -0.67774 6e-3 -1.0167 2e-3 -0.0115 3e-3 -0.0256 5e-3 -0.0489 4e-3 -0.0528 5e-3 -0.23371 1e-3 -0.30491-2e-3 -0.0467-2e-3 -0.0624-5e-3 -0.0749 1.3e-4 -0.43404-1e-3 -0.86811-1e-3 -1.3022-7.7e-4 -0.12897-1e-3 -0.25799-2e-3 -0.38695 0.0181-3e-3 0.0222-0.0189 0.0313-0.0403 0.011-0.026 0.0119-0.0354 0.0154-0.0882 3e-3 -0.0528 5e-3 -0.23324 1e-3 -0.30444s-1e-3 -0.0724-0.0103-0.0958c-9e-3 -0.0234-0.0217-0.0357-0.0313-0.0441-2e-3 -2e-3 -5e-3 -4e-3 -7e-3 -6e-3 -5e-4 -0.36563-1e-3 -0.7312-2e-3 -1.0968 0.0194 0.0112 0.0407 0.0226 0.0693 0.037 0.0427 0.0214 0.11034 0.0536 0.15963 0.073 0.0493 0.0194 0.1034 0.0375 0.13447 0.0451 0.0311 8e-3 0.0364 9e-3 0.0488 8e-3 0.0124-2e-3 0.0177-4e-3 0.0231-0.0104 4e-3 -5e-3 5e-3 -0.0107 6e-3 -0.0171 5e-5 -1e-3 5e-5 -2e-3 0-3e-3zm-0.43832 1.2467c1.6e-4 0.0135 1.6e-4 0.0288-5e-4 0.0436-5e-5 -0.021 5e-5 -0.042 0-0.0631 2.9e-4 7e-3 4.5e-4 0.0136 5e-4 0.0195zm-0.18785 3.8321c3e-3 0.0944-0.0128 0.20095-0.0447 0.25844-0.0781 0.14076-0.19839 0.22518-0.368 0.25797-0.0554 0.0107-0.13581 0.0362-0.17913 0.0564-0.12887 0.0602-0.31519 0.11557-0.37108 0.11049l-0.0518-5e-3 0.0477-0.047c0.0262-0.0258 0.10143-0.0699 0.16732-0.0977 0.38137-0.16057 0.60351-0.375 0.72779-0.70182 0.0108-0.0284 0.012-0.0282 0.0334-1e-3 0.0238 0.0298 0.0365 0.0958 0.0385 0.16929zm-0.0323-5.0821c2.1e-4 0.0306 8e-5 0.0655 0 0.10433-5.3e-4 0.25887-7e-3 0.69002-0.0169 1.1419l-7e-3 0.32247-0.21351 0.12566c-0.1172 0.069-0.2243 0.12749-0.23815 0.12993-0.0249 4e-3 -0.0248 3e-3 -0.0231-0.0972 9.5e-4 -0.056 5e-3 -0.2019 0.0103-0.32388 0.0136-0.34459 0.0733-0.87596 0.13602-1.2116l0.0246-0.1342 0.0729-0.0431c0.0399-0.0238 0.10969-0.068 0.15551-0.0982 0.0458-0.0302 0.0881-0.0566 0.0939-0.0588 3e-3 -1e-3 5e-3 0.0511 6e-3 0.14273zm-0.0118-3.025c0 0.0246 1.5e-4 0.0526 0 0.0844-2e-3 0.34252-0.03 0.40367-0.12575 0.27267-0.0553-0.0757-0.37565-0.56296-0.49991-0.76017-0.10564-0.16766-0.16649-0.23372-0.28434-0.3087-0.0474-0.0302-0.0968-0.076-0.11035-0.10243-0.0252-0.049-0.0326-0.12546-0.0139-0.14274 6e-3 -5e-3 0.0522-0.01 0.10316-0.01 0.0989 0 0.17289 0.0278 0.34388 0.12803 0.14071 0.0825 0.33786 0.24301 0.41523 0.33811 0.0396 0.0487 0.0949 0.1425 0.12267 0.20865 0.0438 0.1045 0.0493 0.1196 0.0493 0.29212zm-0.021 5.157c1e-4 0.0391-2e-3 0.10062-4e-3 0.19584-0.0218 0.79921-0.0409 1.319-0.0483 1.3254-0.0123 0.0107-0.21077 0.0403-0.27049 0.0403-0.093 0-0.0904 7e-3 -0.10727-0.28974-0.0113-0.19837-0.0367-0.95015-0.038-1.1291-1.2e-4 -0.0174 0.0373-0.0365 0.21557-0.11049 0.11855-0.0492 0.2246-0.0928 0.23559-0.0967 0.0119-4e-3 0.0168-8e-4 0.0169 0.0645zm-0.12421 1.9997c6.1e-4 0.0173-7.4e-4 0.0386-3e-3 0.0659-9e-3 0.10694-0.0482 0.36068-0.0575 0.37462-0.02 0.03-0.0793-0.12422-0.12061-0.31298-0.0308-0.14048-0.0326-0.15682-0.0175-0.19158 0.0141-0.0323 0.0563-0.0387 0.12215-0.0185 0.0559 0.0172 0.0747 0.0308 0.0765 0.0825zm-0.096-5.6602c0 0.0456-0.29956 1.3044-0.36236 1.5227-0.0423 0.14719-0.14126 0.41764-0.21967 0.60083-0.17842 0.41678-0.23918 0.62998-0.23918 0.84029 0 0.16009-5e-3 0.16934-0.15654 0.30065l-0.15654 0.13515h-1.5526l-0.15243-0.13183-0.15193-0.13136-0.0164-0.25512c-0.0127-0.20122-0.0408-0.3134-0.13293-0.53206-0.22967-0.54487-0.34165-0.89967-0.49427-1.5611-0.0852-0.36907-0.16211-0.70028-0.17091-0.73597-0.0129-0.0523 7e-3 -0.0756 0.10265-0.12045 0.14717-0.069 0.65946-0.22065 0.89255-0.26413 0.51411-0.0959 1.4283-0.0884 1.879 0.0152 0.42033 0.0966 0.93156 0.27068 0.93156 0.31725zm-0.16167 6.7622c4e-3 0.0805-0.071 0.10488-0.24893 0.19253-0.48395 0.23841-0.90077 0.31059-1.6681 0.28832-0.60199-0.0175-0.83335-0.0648-1.2575-0.25749-0.3696-0.16794-0.37212-0.17234-0.24432-0.42015 0.0579-0.11234 0.13604-0.27998 0.17349-0.37226 0.0375-0.0923 0.0738-0.16787 0.0806-0.16787 7e-3 0 0.11017 0.0458 0.22993 0.10148 0.37591 0.1749 0.67473 0.23224 1.2015 0.23047 0.52734-2e-3 0.78928-0.0532 1.1682-0.22952 0.12535-0.0583 0.23161-0.10178 0.2361-0.0967 5e-3 5e-3 0.088 0.17858 0.1858 0.38554 0.0883 0.18684 0.13987 0.2831 0.1432 0.34569zm-2.846-9.1812c1e-3 0.0116-1e-3 0.0259-6e-3 0.0436-0.0224 0.0867-0.0333 0.0994-0.14217 0.17261-0.12921 0.0868-0.17198 0.13631-0.30693 0.35186-0.19998 0.31943-0.49131 0.74899-0.51839 0.76443-0.058 0.0331-0.0678-6e-3 -0.0713-0.3016-3e-3 -0.24384 5.7e-4 -0.2901 0.0267-0.3566 0.0873-0.2224 0.2503-0.39941 0.52147-0.56621 0.19958-0.12276 0.27254-0.15183 0.38135-0.15222 0.0797-2.7e-4 0.11168 9e-3 0.11497 0.0441zm-0.0826 9.708-0.0472 4e-3c-0.0547 5e-3 -0.2623-0.0562-0.36493-0.10812-0.0383-0.0194-0.11989-0.0451-0.18118-0.0569-0.26091-0.0503-0.42277-0.23647-0.4183-0.48037 8.9e-4 -0.0487 6e-3 -0.10843 0.0128-0.13278 6e-3 -0.0243 0.0193-0.057 0.0287-0.0726 0.0161-0.0266 0.0182-0.0255 0.0359 0.0152 0.0828 0.18938 0.15139 0.29355 0.25817 0.3936 0.12745 0.1194 0.24571 0.1945 0.46039 0.29163 0.0815 0.0369 0.16364 0.0845 0.18221 0.10623zm-0.47887-3.5072-3e-3 0.20676c-3e-3 0.25097-0.0218 0.74448-0.038 1.0115-0.01 0.1591-0.0152 0.19819-0.0298 0.20866-0.0248 0.0178-0.12287 0.0159-0.24226-5e-3l-0.10008-0.018-8e-3 -0.0465c-7e-3 -0.045-0.0247-0.58266-0.0395-1.2311-5e-3 -0.22463-4e-3 -0.31768 5e-3 -0.31487 7e-3 2e-3 0.11168 0.0455 0.23353 0.0963zm-5e-3 -0.61078c2.1e-4 0.11132-5e-3 0.18352-0.0159 0.18352-0.0146 0-0.41207-0.22724-0.44037-0.2518-0.0139-0.0121-0.0214-0.27628-0.04-1.4269l-5e-3 -0.30112 0.0631 0.0422c0.0347 0.0234 0.10985 0.0705 0.16681 0.1048 0.0632 0.038 0.10565 0.0709 0.10881 0.0839 0.0283 0.11685 0.0927 0.56324 0.12164 0.84125 0.0255 0.24509 0.0407 0.5386 0.0411 0.72411zm-0.1355 2.4796c-6.5e-4 0.0429-0.012 0.10378-0.0323 0.18684-0.051 0.20804-0.10132 0.31312-0.11702 0.24374-0.0151-0.0669-0.0412-0.26345-0.0477-0.36087l-7e-3 -0.1048 0.0369-0.0209c0.0204-0.0114 0.0566-0.0238 0.0806-0.0275 0.0599-9e-3 0.0873 0.012 0.0862 0.0835z" color="#000000" fill="#00f" stroke-width=".024667"/>
  <path d="m-515.02 95.421c-2e-5 -1e-3 -5.3e-4 -4e-3 -5.8e-4 -7e-3 -5.9e-4 -0.0256-3e-3 -0.1168-0.014-0.16654-0.0126-0.0556-0.0297-0.11119-0.059-0.16011-0.0438-0.0732-0.10639-0.13489-0.17005-0.19167-0.0531-0.0474-0.11522-0.0836-0.17472-0.12271-0.0239-0.0157-0.0463-0.036-0.0736-0.0444-4e-3 -1e-3 -7e-3 -3e-3 -0.0111-4e-3 -3e-3 -0.91325-9e-3 -1.8265-0.0298-2.7395-0.0183-0.54818-0.2937-1.0859-0.75907-1.3861-0.15001-0.12861-0.32719-0.21078-0.5189-0.24777-0.57714-0.21381-1.2062-0.12245-1.8086-0.14199-0.48035-0.0182-0.96344 0.0827-1.3908 0.30035-0.39881 0.25303-0.75459 0.6313-0.82686 1.115-0.14086 0.67757-0.0609 1.3755-0.0841 2.0622 7.6e-4 0.34635 5.2e-4 0.69262 5.8e-4 1.039-2e-3 5.82e-4 -5e-3 2e-3 -7e-3 2e-3 -0.0273 8e-3 -0.0497 0.0287-0.0736 0.0444-0.0595 0.0391-0.1216 0.0753-0.17472 0.12271-0.0636 0.0568-0.12623 0.11849-0.17005 0.19167-0.0293 0.0489-0.0464 0.1045-0.059 0.16011-0.0113 0.0497-0.0135 0.14089-0.014 0.16654-2e-3 0.0115-3.2e-4 0.024 6e-3 0.0321 6e-3 8e-3 0.0122 0.0108 0.0263 0.0129 0.0141 2e-3 0.0201-2e-5 0.0555-9e-3 0.0354-9e-3 0.097-0.0316 0.1531-0.0555s0.13313-0.0636 0.18173-0.09c0.0311-0.0169 0.0546-0.0306 0.076-0.0438-2e-4 0.45058-2e-4 0.90102-5.8e-4 1.3516-2e-3 2e-3 -4e-3 3e-3 -6e-3 5e-3 -0.011 0.0104-0.0255 0.0255-0.0357 0.0543s-7e-3 0.0303-0.0117 0.11804c-4e-3 0.0877-3e-3 0.31005 1e-3 0.37515 4e-3 0.0651 5e-3 0.0767 0.0175 0.10869 0.0101 0.0258 0.015 0.0451 0.0345 0.0491-1.8e-4 0.68649 6e-4 1.3734 3e-3 2.0598-9e-3 0.02519-6e-3 0.0309-0.0105 0.11454-4e-3 0.0877-3e-3 0.31063 1e-3 0.37573 3e-3 0.0537 5e-3 0.0712 0.0123 0.0935 4e-3 0.56718 9e-3 1.1345 0.017 1.7016-9.6e-4 0.3966 0.24628 0.79073 0.62759 0.92386 0.83884 0.34002 1.7689 0.33391 2.66 0.29919 0.58183-0.0444 1.194-0.11948 1.6964-0.43476 0.40015-0.28249 0.41196-0.82689 0.41022-1.2704 4e-3 -0.41765 6e-3 -0.83516 7e-3 -1.2529 2e-3 -0.01421 3e-3 -0.0315 5e-3 -0.0602 4e-3 -0.0651 5e-3 -0.288 1e-3 -0.37573-3e-3 -0.0576-3e-3 -0.0769-5e-3 -0.0923 1.5e-4 -0.53487-1e-3 -1.0698-1e-3 -1.6046-8.8e-4 -0.15893-1e-3 -0.31792-2e-3 -0.47684 0.0206-3e-3 0.0253-0.0233 0.0357-0.0497 0.0125-0.032 0.0135-0.0436 0.0175-0.10869 4e-3 -0.0651 5e-3 -0.28741 1e-3 -0.37515-4e-3 -0.0877-1e-3 -0.0892-0.0117-0.11804-0.0102-0.0288-0.0247-0.0439-0.0356-0.0543-3e-3 -3e-3 -6e-3 -5e-3 -8e-3 -7e-3 -5.9e-4 -0.45056-1e-3 -0.90104-2e-3 -1.3516 0.0221 0.0138 0.0464 0.0279 0.0789 0.0456 0.0486 0.0264 0.12562 0.0661 0.18173 0.09 0.0561 0.0239 0.11773 0.0462 0.1531 0.0555 0.0354 9e-3 0.0414 0.0114 0.0555 9e-3 0.0141-2e-3 0.0201-5e-3 0.0263-0.0129 4e-3 -6e-3 6e-3 -0.0132 6e-3 -0.021 6e-5 -1e-3 6e-5 -3e-3 0-4e-3zm-0.49904 1.5363c1.7e-4 0.0166 1.7e-4 0.0355-5.8e-4 0.0538-5e-5 -0.0259 6e-5 -0.0518 0-0.0777 3.1e-4 8e-3 5e-4 0.0167 5.8e-4 0.024zm-0.21387 4.7221c3e-3 0.11639-0.0145 0.24763-0.0508 0.31848-0.0889 0.17345-0.22588 0.27749-0.41899 0.31788-0.063 0.0132-0.15461 0.0446-0.20393 0.0695-0.14672 0.0742-0.35884 0.14242-0.42249 0.13616l-0.059-6e-3 0.0543-0.0579c0.0298-0.0318 0.11549-0.0862 0.1905-0.12038 0.43421-0.19787 0.68712-0.46209 0.82861-0.86484 0.0123-0.035 0.0137-0.0348 0.038-2e-3 0.0271 0.0368 0.0416 0.1181 0.0438 0.20863zm-0.0368-6.2625c2.3e-4 0.0377 8e-5 0.0807 0 0.12856-6.1e-4 0.31899-8e-3 0.85029-0.0193 1.4071l-8e-3 0.39736-0.24309 0.15486c-0.13344 0.0851-0.25537 0.15709-0.27114 0.16011-0.0283 5e-3 -0.0282 4e-3 -0.0263-0.11979 1e-3 -0.069 6e-3 -0.2488 0.0117-0.39912 0.0154-0.42462 0.0835-1.0794 0.15485-1.493l0.0281-0.16537 0.083-0.0532c0.0454-0.0293 0.12489-0.0837 0.17706-0.12096 0.0522-0.0372 0.10029-0.0697 0.10693-0.0725 3e-3 -1e-3 6e-3 0.0629 6e-3 0.17589zm-0.0134-3.7276c-1e-5 0.0304 1.7e-4 0.0648 0 0.10401-2e-3 0.42208-0.0341 0.49744-0.14317 0.336-0.063-0.0933-0.4277-0.69371-0.56916-0.93671-0.12028-0.20662-0.18956-0.28801-0.32373-0.38042-0.054-0.0372-0.1102-0.0937-0.12564-0.12622-0.0287-0.0604-0.0371-0.1546-0.0158-0.17589 7e-3 -7e-3 0.0594-0.0123 0.11746-0.0123 0.11265 0 0.19683 0.0342 0.39151 0.15778 0.1602 0.10166 0.38466 0.29946 0.47274 0.41664 0.0451 0.0599 0.10811 0.17559 0.13966 0.25712 0.0498 0.12876 0.0561 0.14737 0.0561 0.35996zm-0.024 6.3548c1.1e-4 0.0482-2e-3 0.12401-5e-3 0.24134-0.0248 0.98485-0.0465 1.6254-0.0549 1.6333-0.014 0.0132-0.23997 0.0497-0.30796 0.0497-0.10593 0-0.10293 8e-3 -0.12213-0.35704-0.0128-0.24445-0.0417-1.1708-0.0432-1.3913-1.4e-4 -0.0214 0.0424-0.045 0.24543-0.13615 0.13496-0.0606 0.25571-0.11441 0.26822-0.11921 0.0135-5e-3 0.0191-7.93e-4 0.0193 0.0795zm-0.14142 2.4642c6.9e-4 0.0213-8.2e-4 0.0476-4e-3 0.0812-0.0105 0.13179-0.0548 0.44445-0.0654 0.46164-0.0228 0.0369-0.0902-0.15306-0.13732-0.38567-0.035-0.17312-0.0371-0.19323-0.0199-0.23608 0.016-0.0398 0.0641-0.0477 0.13908-0.0228 0.0637 0.0212 0.085 0.0379 0.0871 0.10168zm-0.10927-6.9748c0 0.0563-0.34105 1.6074-0.41255 1.8764-0.0482 0.18137-0.16083 0.51465-0.25011 0.74038-0.20312 0.51358-0.2723 0.7763-0.2723 1.0355 0 0.19727-5e-3 0.20867-0.17823 0.37048l-0.17823 0.16654h-0.88354-0.88413l-0.17355-0.16245-0.17297-0.16187-0.0187-0.31438c-0.0145-0.24796-0.0464-0.3862-0.15135-0.65564-0.26148-0.67143-0.38898-1.1086-0.56273-1.9237-0.097-0.45481-0.18458-0.86295-0.19459-0.90692-0.0147-0.0644 8e-3 -0.0931 0.11687-0.14842 0.16755-0.085 0.75079-0.2719 1.0162-0.32549 0.58532-0.11817 1.6261-0.1089 2.1393 0.0187 0.47856 0.119 1.0606 0.33356 1.0606 0.39093zm-0.18407 8.3329c5e-3 0.0992-0.0808 0.12923-0.28341 0.23725-0.551 0.29376-1.0256 0.38273-1.8992 0.35529-0.68537-0.0215-0.94878-0.0798-1.4317-0.31731-0.42078-0.20693-0.42366-0.21237-0.27815-0.51773 0.066-0.13843 0.15487-0.34502 0.19751-0.45873 0.0426-0.11369 0.084-0.20686 0.0917-0.20686 8e-3 0 0.12543 0.0564 0.26179 0.12505 0.42797 0.21553 0.76817 0.28619 1.368 0.28401 0.60039-2e-3 0.8986-0.0656 1.33-0.28283 0.14271-0.0719 0.26369-0.12543 0.26881-0.11921 5e-3 6e-3 0.10021 0.22006 0.21153 0.47507 0.1005 0.23025 0.15926 0.34886 0.16304 0.426zm-3.2402-11.314c1e-3 0.0143-1e-3 0.0319-6e-3 0.0538-0.0255 0.1069-0.0379 0.12252-0.16186 0.21271-0.14711 0.107-0.1958 0.16797-0.34945 0.43359-0.22768 0.39361-0.55936 0.92296-0.59019 0.94197-0.0661 0.0408-0.0771-8e-3 -0.0812-0.37165-3e-3 -0.30047 6.3e-4 -0.35746 0.0304-0.43943 0.0994-0.27405 0.28496-0.49217 0.5937-0.69772 0.22722-0.15127 0.3103-0.18709 0.43417-0.18757 0.0908-3.7e-4 0.12716 0.0116 0.1309 0.0543zm-0.0941 11.963-0.0538 5e-3c-0.0623 6e-3 -0.29862-0.0692-0.41547-0.13323-0.0436-0.0239-0.1365-0.0556-0.20628-0.0701-0.29704-0.0619-0.48132-0.2914-0.47625-0.59195 1e-3 -0.06 7e-3 -0.13362 0.0146-0.16361 7e-3 -0.03 0.022-0.0702 0.0327-0.0894 0.0183-0.0327 0.0207-0.0314 0.0409 0.0187 0.0942 0.23336 0.17236 0.36173 0.29393 0.485 0.14511 0.14715 0.27975 0.23969 0.52417 0.35938 0.0928 0.0455 0.18631 0.10415 0.20744 0.1309zm-0.5452-4.3219-3e-3 0.25478c-4e-3 0.30927-0.0248 0.91741-0.0432 1.2464-0.011 0.19605-0.0173 0.24422-0.0339 0.25712-0.0283 0.02191-0.13989 0.01961-0.27581-6e-3l-0.11395-0.0222-9e-3 -0.0573c-8e-3 -0.0555-0.0281-0.71799-0.045-1.517-6e-3 -0.27683-4e-3 -0.39149 5e-3 -0.38801 7e-3 3e-3 0.12714 0.0561 0.26588 0.11862zm-5e-3 -0.75265c2.4e-4 0.13717-5e-3 0.22615-0.0181 0.22615-0.0167 0-0.46915-0.28002-0.50137-0.3103-0.0159-0.0149-0.0244-0.34043-0.0456-1.7583l-6e-3 -0.37107 0.0719 0.052c0.0395 0.0288 0.12507 0.0869 0.18991 0.12914 0.0719 0.0468 0.12029 0.0873 0.12389 0.10343 0.0322 0.144 0.10551 0.69407 0.13849 1.0366 0.0291 0.30204 0.0464 0.6637 0.0468 0.89231zm-0.15427 3.0556c-7.4e-4 0.0529-0.0136 0.1279-0.0368 0.23025-0.0581 0.25636-0.11535 0.38583-0.13323 0.30036-0.0172-0.0824-0.0469-0.32464-0.0543-0.44471l-8e-3 -0.12914 0.0421-0.0257c0.0232-0.0141 0.0645-0.0293 0.0917-0.0339 0.0682-0.0115 0.0994 0.0148 0.0982 0.10284z" color="#000000" fill="none" stroke="#800000" stroke-width=".21458"/>
  <path d="m-525.32 163.65s-0.78582-11.899 0.11226-13.359c0.89807-1.4594 4.8271-3.9291 5.9497-5.8375 1.1226-1.9084-0.44903-37.719 0.89808-41.536 1.3471-3.8168 3.5923-8.8685 4.4904-10.328 0.89808-1.4594 5.2762-7.5214 5.2762-7.5214" fill="none" marker-end="url(#marker8720)" stroke="#0f0" stroke-width=".26458px"/>
  <path class="shp0" d="m-438.88 87.872c2.1636-3.0983 2.8166-3.8927 6.2745-6.4413 2.1868 1.7671 1.6267 1.3376 4.6478 3.8648-7.6689 7.5148-10.922 12.024-10.922 24.906z" fill="#999" stroke="#000" stroke-width=".44675" style="paint-order:stroke fill markers"/>
  <path class="shp1" d="m-452.59 71.017h13.711v105.73h-13.711z" fill="#999" stroke-width=".31087"/>
  <path class="shp4" d="m-445.62 105.44h0.46478v2.9459h-0.46478zm0 4.2085h0.46478v2.9459h-0.46478zm0 4.2085h0.46478v2.9459h-0.46478zm0 4.2085h0.46478v2.9459h-0.46478zm0 4.2085h0.46478v2.9459h-0.46478zm0-37.876h0.46478v2.9459h-0.46478zm0 4.2085h0.46478v2.9459h-0.46478zm0 4.2085h0.46478v2.9459h-0.46478zm0 4.2085h0.46478v2.9459h-0.46478zm0 4.2085h0.46478v2.9459h-0.46478zm0-29.459h0.46478v2.9459h-0.46478zm0 4.2085h0.46478v2.9459h-0.46478zm0 4.2085h0.46478v2.9459h-0.46478zm0 63.128h0.46478v2.9459h-0.46478zm0 4.2085h0.46478v2.9459h-0.46478zm0 4.2085h0.46478v2.9459h-0.46478zm0 4.2085h0.46478v2.9459h-0.46478zm0 4.2085h0.46478v2.9459h-0.46478zm0-33.667h0.46478v2.9459h-0.46478zm0 4.2085h0.46478v2.9459h-0.46478zm0 4.2085h0.46478v2.9459h-0.46478zm0 4.2085h0.46478v2.9459h-0.46478zm0 25.251h0.46478v2.9459h-0.46478zm0 4.2085h0.46478v2.946h-0.46478zm0 4.2085h0.46478v2.9459h-0.46478z" fill="#cc0" stroke-width=".31273"/>
  <path d="m-439.12 110.44-1.9388-0.0485" fill="none" stroke="#000" stroke-dasharray="0.10662645, 0.10662645" stroke-width=".10663"/>
  <path d="m-439.95 136.3c-2e-5 -8e-4 -5.3e-4 -4e-3 -5.3e-4 -6e-3 -5.3e-4 -0.0208-2e-3 -0.0948-0.0123-0.13516-0.0111-0.0451-0.0261-0.0902-0.0518-0.12992-0.0385-0.0594-0.0935-0.10948-0.14936-0.15555-0.0467-0.0384-0.10121-0.0679-0.15347-0.0996-0.021-0.0128-0.0406-0.0292-0.0647-0.036-3e-3 -1e-3 -6e-3 -2e-3 -0.01-3e-3 -2e-3 -0.74111-8e-3 -1.4822-0.0262-2.2231-0.0161-0.44484-0.25796-0.88125-0.66672-1.1248-0.13175-0.10437-0.28737-0.17105-0.45577-0.20107-0.50692-0.1735-1.0595-0.0994-1.5885-0.11522-0.42189-0.0147-0.84623 0.0671-1.2216 0.24374-0.3503 0.20534-0.66279 0.51231-0.72626 0.90479-0.12372 0.54987-0.0535 1.1162-0.0739 1.6735 8e-4 0.28105 5.3e-4 0.56208 5.3e-4 0.84313-2e-3 5.3e-4 -4e-3 1e-3 -6e-3 2e-3 -0.024 7e-3 -0.0437 0.0233-0.0647 0.036-0.0523 0.0317-0.1068 0.0611-0.15346 0.0996-0.0559 0.0461-0.11088 0.0962-0.14936 0.15555-0.0257 0.0397-0.0408 0.0848-0.0518 0.12992-0.01 0.0404-0.0118 0.11435-0.0123 0.13516-2e-3 9e-3 -2.6e-4 0.0194 5e-3 0.0261 5e-3 7e-3 0.0107 9e-3 0.0231 0.0104 0.0124 2e-3 0.0177-2e-5 0.0488-8e-3 0.0311-8e-3 0.0852-0.0257 0.13447-0.0451 0.0493-0.0194 0.11694-0.0516 0.15963-0.073 0.0273-0.0137 0.0479-0.0249 0.0667-0.0356-1.8e-4 0.36563-1.8e-4 0.73118-5.3e-4 1.0968-2e-3 1e-3 -4e-3 3e-3 -6e-3 4e-3 -0.01 8e-3 -0.0224 0.0207-0.0313 0.0441-9e-3 0.0234-6e-3 0.0246-0.0103 0.0958-4e-3 0.0712-2e-3 0.25161 1e-3 0.30444 3e-3 0.0528 4e-3 0.0622 0.0154 0.0882 9e-3 0.021 0.0131 0.0366 0.0303 0.0398-1.5e-4 0.5571 5.3e-4 1.1145 3e-3 1.6716-7e-3 0.0205-6e-3 0.0251-9e-3 0.0929-4e-3 0.0712-2e-3 0.25209 1e-3 0.30491 3e-3 0.0436 4e-3 0.0577 0.0108 0.0759 3e-3 0.46026 8e-3 0.92065 0.0149 1.3809-7.9e-4 0.32185 0.21632 0.64168 0.55123 0.74973 0.73679 0.27594 1.5537 0.27096 2.3364 0.24279 0.51105-0.036 1.0487-0.097 1.49-0.35281 0.35146-0.22924 0.36185-0.67103 0.36031-1.0309 4e-3 -0.33892 5e-3 -0.67774 6e-3 -1.0167 2e-3 -0.0115 3e-3 -0.0256 5e-3 -0.0489 3e-3 -0.0528 5e-3 -0.23371 1e-3 -0.30491-2e-3 -0.0467-2e-3 -0.0624-5e-3 -0.0749 1.3e-4 -0.43404-1e-3 -0.86811-1e-3 -1.3022-7.9e-4 -0.12897-1e-3 -0.25799-2e-3 -0.38695 0.0181-3e-3 0.0222-0.0189 0.0313-0.0403 0.011-0.026 0.0119-0.0354 0.0154-0.0882 3e-3 -0.0528 5e-3 -0.23324 1e-3 -0.30444s-1e-3 -0.0724-0.0103-0.0958c-9e-3 -0.0234-0.0217-0.0357-0.0313-0.0441-2e-3 -2e-3 -5e-3 -4e-3 -7e-3 -6e-3 -5.3e-4 -0.36563-1e-3 -0.7312-2e-3 -1.0968 0.0195 0.0112 0.0407 0.0226 0.0693 0.037 0.0427 0.0214 0.11034 0.0536 0.15962 0.073 0.0493 0.0194 0.10341 0.0375 0.13447 0.0451 0.0311 8e-3 0.0364 9e-3 0.0488 8e-3 0.0124-2e-3 0.0177-4e-3 0.0231-0.0104 4e-3 -5e-3 5e-3 -0.0107 6e-3 -0.0171 6e-5 -1e-3 6e-5 -2e-3 0-3e-3zm-0.43833 1.2467c1.6e-4 0.0135 1.6e-4 0.0288-5.3e-4 0.0436-5e-5 -0.021 5e-5 -0.042 0-0.0631 2.7e-4 7e-3 5.3e-4 0.0136 5.3e-4 0.0195zm-0.18785 3.8321c3e-3 0.0944-0.0127 0.20095-0.0446 0.25844-0.0781 0.14076-0.19839 0.22518-0.368 0.25797-0.0554 0.0107-0.1358 0.0362-0.17913 0.0564-0.12887 0.0602-0.31519 0.11557-0.37108 0.11049l-0.0518-5e-3 0.0477-0.047c0.0262-0.0258 0.10143-0.0699 0.16732-0.0977 0.38137-0.16057 0.60351-0.375 0.7278-0.70182 0.0108-0.0284 0.012-0.0282 0.0334-1e-3 0.0238 0.0298 0.0365 0.0958 0.0385 0.16929zm-0.0323-5.0821c2.1e-4 0.0306 8e-5 0.0655 0 0.10433-5.2e-4 0.25887-7e-3 0.69002-0.0169 1.1419l-7e-3 0.32247-0.21351 0.12566c-0.1172 0.069-0.2243 0.12749-0.23815 0.12993-0.0249 4e-3 -0.0248 3e-3 -0.0231-0.0972 1e-3 -0.056 5e-3 -0.2019 0.0103-0.32388 0.0136-0.34459 0.0733-0.87596 0.13601-1.2116l0.0246-0.1342 0.0729-0.0431c0.0399-0.0238 0.1097-0.068 0.15552-0.0982 0.0458-0.0302 0.0881-0.0566 0.0939-0.0588 3e-3 -1e-3 5e-3 0.0511 6e-3 0.14273zm-0.0118-3.025c0 0.0246 1.6e-4 0.0526 0 0.0844-2e-3 0.34252-0.03 0.40367-0.12574 0.27267-0.0553-0.0757-0.37566-0.56296-0.49992-0.76016-0.10564-0.16767-0.16649-0.23372-0.28434-0.30871-0.0474-0.0302-0.0968-0.076-0.11035-0.10243-0.0252-0.049-0.0326-0.12546-0.0139-0.14274 6e-3 -5e-3 0.0522-0.01 0.10316-0.01 0.0989 0 0.17289 0.0278 0.34389 0.12803 0.1407 0.0825 0.33785 0.24301 0.41522 0.33811 0.0396 0.0487 0.0949 0.1425 0.12267 0.20865 0.0438 0.1045 0.0493 0.1196 0.0493 0.29212zm-0.021 5.157c1.1e-4 0.0391-2e-3 0.10062-4e-3 0.19584-0.0218 0.79921-0.0409 1.319-0.0483 1.3254-0.0123 0.0107-0.21077 0.0403-0.27048 0.0403-0.093 0-0.0904 7e-3 -0.10727-0.28974-0.0113-0.19838-0.0367-0.95015-0.038-1.1291-1.3e-4 -0.0174 0.0373-0.0365 0.21556-0.11049 0.11855-0.0492 0.2246-0.0928 0.23559-0.0967 0.0119-4e-3 0.0168-8e-4 0.0169 0.0645zm-0.1242 1.9997c5.3e-4 0.0173-8e-4 0.0386-3e-3 0.0659-9e-3 0.10694-0.0481 0.36068-0.0575 0.37462-0.02 0.03-0.0793-0.12422-0.12062-0.31298-0.0308-0.14048-0.0326-0.15682-0.0175-0.19158 0.0141-0.0323 0.0563-0.0387 0.12216-0.0185 0.0559 0.0172 0.0747 0.0308 0.0765 0.0825zm-0.096-5.6602c0 0.0456-0.29956 1.3044-0.36236 1.5227-0.0423 0.14719-0.14126 0.41764-0.21967 0.60083-0.17842 0.41678-0.23918 0.62998-0.23918 0.84029 0 0.16009-5e-3 0.16934-0.15654 0.30065l-0.15655 0.13515h-1.5526l-0.15244-0.13183-0.15192-0.13136-0.0164-0.25512c-0.0127-0.20122-0.0408-0.3134-0.13293-0.53206-0.22967-0.54487-0.34165-0.89967-0.49427-1.5611-0.0852-0.36907-0.16211-0.70028-0.17091-0.73597-0.0129-0.0523 7e-3 -0.0756 0.10265-0.12045 0.14716-0.069 0.65946-0.22065 0.89255-0.26413 0.51411-0.0959 1.4283-0.0884 1.879 0.0152 0.42033 0.0966 0.93155 0.27068 0.93155 0.31725zm-0.16168 6.7622c4e-3 0.0805-0.071 0.10488-0.24892 0.19253-0.48395 0.23841-0.90077 0.31059-1.6681 0.28832-0.602-0.0175-0.83335-0.0648-1.2575-0.25749-0.36959-0.16794-0.37211-0.17234-0.24431-0.42015 0.0579-0.11234 0.13604-0.27998 0.17348-0.37226 0.0375-0.0923 0.0738-0.16787 0.0806-0.16787 7e-3 0 0.11018 0.0458 0.22994 0.10148 0.37591 0.1749 0.67473 0.23224 1.2015 0.23047 0.52734-2e-3 0.78928-0.0532 1.1682-0.22952 0.12534-0.0583 0.23161-0.10178 0.2361-0.0967 5e-3 5e-3 0.088 0.17858 0.1858 0.38554 0.0883 0.18684 0.13987 0.2831 0.1432 0.34569zm-2.846-9.1812c1e-3 0.0116-1e-3 0.0259-6e-3 0.0436-0.0224 0.0867-0.0333 0.0994-0.14218 0.17261-0.12921 0.0868-0.17197 0.13631-0.30692 0.35186-0.19998 0.31943-0.49132 0.74899-0.51839 0.76443-0.0581 0.0331-0.0677-6e-3 -0.0713-0.3016-3e-3 -0.24384 5.3e-4 -0.2901 0.0267-0.35661 0.0873-0.22239 0.25029-0.3994 0.52147-0.5662 0.19957-0.12276 0.27253-0.15183 0.38134-0.15222 0.0797-2.6e-4 0.11169 9e-3 0.11497 0.0441zm-0.0826 9.708-0.0472 4e-3c-0.0547 5e-3 -0.2623-0.0562-0.36493-0.10811-0.0383-0.0194-0.11989-0.0451-0.18118-0.0569-0.26091-0.0503-0.42277-0.23646-0.4183-0.48037 7.9e-4 -0.0487 7e-3 -0.10842 0.0128-0.13277 6e-3 -0.0243 0.0193-0.057 0.0287-0.0726 0.0161-0.0266 0.0181-0.0255 0.0359 0.0152 0.0828 0.18938 0.15139 0.29355 0.25817 0.3936 0.12745 0.1194 0.24571 0.1945 0.46039 0.29163 0.0815 0.0369 0.16364 0.0845 0.1822 0.10623zm-0.47887-3.5072-3e-3 0.20676c-3e-3 0.25097-0.0218 0.74448-0.038 1.0115-0.01 0.1591-0.0152 0.19819-0.0298 0.20866-0.0248 0.0178-0.12288 0.0159-0.24226-5e-3l-0.10008-0.018-8e-3 -0.0465c-7e-3 -0.045-0.0247-0.58266-0.0395-1.231-5e-3 -0.22465-4e-3 -0.31769 5e-3 -0.31487 7e-3 2e-3 0.11167 0.0455 0.23353 0.0963zm-5e-3 -0.61078c2e-4 0.11132-5e-3 0.18352-0.0159 0.18352-0.0146 0-0.41207-0.22724-0.44038-0.2518-0.0139-0.0121-0.0214-0.27628-0.04-1.4269l-5e-3 -0.30112 0.0631 0.0422c0.0347 0.0234 0.10986 0.0705 0.16681 0.1048 0.0632 0.038 0.10565 0.0709 0.10881 0.0839 0.0283 0.11685 0.0927 0.56324 0.12164 0.84125 0.0255 0.24509 0.0407 0.5386 0.0411 0.72411zm-0.1355 2.4796c-5.3e-4 0.0429-0.012 0.10378-0.0323 0.18684-0.051 0.20804-0.10132 0.31312-0.11702 0.24374-0.0151-0.0669-0.0412-0.26345-0.0477-0.36087l-7e-3 -0.1048 0.0369-0.0209c0.0204-0.0114 0.0567-0.0238 0.0806-0.0275 0.0599-9e-3 0.0873 0.012 0.0862 0.0835z" color="#000000" fill="#00f" stroke-width=".024667"/>
  <path d="m-449.01 163.65s-0.78581-11.899 0.11226-13.359c0.89808-1.4594 4.8272-3.9291 5.9497-5.8375 1.1226-1.9084-0.44903-37.719 0.89808-41.536 1.3471-3.8168 3.5923-8.8685 4.4904-10.328 0.89808-1.4594 5.2762-7.5214 5.2762-7.5214" fill="none" marker-end="url(#marker8770)" stroke="#0f0" stroke-width=".26458px"/>
  <path class="shp0" d="m-476.68 87.872c2.1636-3.0983 2.8166-3.8927 6.2745-6.4413 2.1868 1.7671 1.6267 1.3376 4.6478 3.8648-7.6689 7.5148-10.922 12.024-10.922 24.906z" fill="#999" stroke="#000" stroke-width=".44675" style="paint-order:stroke fill markers"/>
  <path class="shp1" d="m-490.39 71.017h13.711v105.73h-13.711z" fill="#999" stroke-width=".31087"/>
  <path class="shp4" d="m-483.42 105.44h0.46478v2.9459h-0.46478zm0 4.2085h0.46478v2.9459h-0.46478zm0 4.2085h0.46478v2.9459h-0.46478zm0 4.2085h0.46478v2.9459h-0.46478zm0 4.2085h0.46478v2.9459h-0.46478zm0-37.876h0.46478v2.9459h-0.46478zm0 4.2085h0.46478v2.9459h-0.46478zm0 4.2085h0.46478v2.9459h-0.46478zm0 4.2085h0.46478v2.9459h-0.46478zm0 4.2085h0.46478v2.9459h-0.46478zm0-29.459h0.46478v2.9459h-0.46478zm0 4.2085h0.46478v2.9459h-0.46478zm0 4.2085h0.46478v2.9459h-0.46478zm0 63.128h0.46478v2.9459h-0.46478zm0 4.2085h0.46478v2.9459h-0.46478zm0 4.2085h0.46478v2.9459h-0.46478zm0 4.2085h0.46478v2.9459h-0.46478zm0 4.2085h0.46478v2.9459h-0.46478zm0-33.667h0.46478v2.9459h-0.46478zm0 4.2085h0.46478v2.9459h-0.46478zm0 4.2085h0.46478v2.9459h-0.46478zm0 4.2085h0.46478v2.9459h-0.46478zm0 25.251h0.46478v2.9459h-0.46478zm0 4.2085h0.46478v2.946h-0.46478zm0 4.2085h0.46478v2.9459h-0.46478z" fill="#cc0" stroke-width=".31273"/>
  <path d="m-476.93 110.44-1.9388-0.0485" fill="none" stroke="#000" stroke-dasharray="0.10662645, 0.10662645" stroke-width=".10663"/>
  <path d="m-480.91 145.65c-1e-5 -8e-4 -5.3e-4 -4e-3 -5.3e-4 -6e-3 -5.3e-4 -0.0208-2e-3 -0.0948-0.0123-0.13515-0.0111-0.0451-0.0261-0.0902-0.0518-0.12993-0.0385-0.0594-0.0935-0.10947-0.14936-0.15554-0.0467-0.0384-0.1012-0.0679-0.15346-0.0996-0.021-0.0128-0.0407-0.0292-0.0647-0.036-3e-3 -1e-3 -6e-3 -2e-3 -0.01-3e-3 -2e-3 -0.74112-8e-3 -1.4822-0.0262-2.2231-0.0161-0.44485-0.25796-0.88125-0.66672-1.1248-0.13176-0.10437-0.28737-0.17105-0.45577-0.20107-0.50692-0.17351-1.0595-0.0994-1.5885-0.11523-0.4219-0.0147-0.84623 0.0671-1.2216 0.24374-0.3503 0.20534-0.6628 0.51231-0.72626 0.90479-0.12373 0.54987-0.0535 1.1162-0.0739 1.6735 7.9e-4 0.28106 5.3e-4 0.56208 5.3e-4 0.84314-2e-3 5.3e-4 -4e-3 1e-3 -6e-3 2e-3 -0.024 7e-3 -0.0437 0.0233-0.0647 0.036-0.0523 0.0317-0.10681 0.0611-0.15347 0.0996-0.0559 0.0461-0.11087 0.0962-0.14935 0.15554-0.0257 0.0397-0.0408 0.0848-0.0518 0.12993-0.01 0.0404-0.0118 0.11434-0.0123 0.13515-2e-3 9e-3 -2.7e-4 0.0194 5e-3 0.0261 5e-3 7e-3 0.0107 9e-3 0.0231 0.0104 0.0124 2e-3 0.0177-2e-5 0.0488-8e-3 0.0311-8e-3 0.0852-0.0257 0.13447-0.0451 0.0493-0.0194 0.11693-0.0516 0.15962-0.073 0.0273-0.0137 0.0479-0.0249 0.0667-0.0356-1.8e-4 0.36563-1.8e-4 0.73118-5.3e-4 1.0968-2e-3 1e-3 -4e-3 3e-3 -6e-3 4e-3 -0.01 8e-3 -0.0224 0.0207-0.0313 0.0441-9e-3 0.0234-6e-3 0.0246-0.0103 0.0958-4e-3 0.0712-2e-3 0.25161 1e-3 0.30444 4e-3 0.0528 4e-3 0.0622 0.0154 0.0882 9e-3 0.021 0.0132 0.0366 0.0303 0.0398-1.5e-4 0.5571 5.3e-4 1.1145 3e-3 1.6716-7e-3 0.0205-6e-3 0.0251-9e-3 0.0929-4e-3 0.0712-2e-3 0.25209 1e-3 0.30492 3e-3 0.0436 4e-3 0.0577 0.0108 0.0759 3e-3 0.46025 8e-3 0.92064 0.0149 1.3809-7.9e-4 0.32185 0.21632 0.64168 0.55124 0.74973 0.73678 0.27595 1.5536 0.27096 2.3364 0.24279 0.51104-0.036 1.0487-0.097 1.49-0.35281 0.35145-0.22924 0.36185-0.67103 0.36031-1.0309 4e-3 -0.33892 5e-3 -0.67774 6e-3 -1.0167 2e-3 -0.0115 3e-3 -0.0256 5e-3 -0.0489 3e-3 -0.0528 5e-3 -0.23371 1e-3 -0.30491-2e-3 -0.0467-2e-3 -0.0624-5e-3 -0.0749 1.2e-4 -0.43404-1e-3 -0.86811-1e-3 -1.3022-8e-4 -0.12897-1e-3 -0.25799-2e-3 -0.38695 0.0181-3e-3 0.0222-0.0189 0.0313-0.0403 0.011-0.026 0.0119-0.0354 0.0154-0.0882 3e-3 -0.0528 5e-3 -0.23324 1e-3 -0.30444s-1e-3 -0.0724-0.0103-0.0958c-9e-3 -0.0234-0.0217-0.0357-0.0313-0.0441-2e-3 -2e-3 -5e-3 -4e-3 -7e-3 -6e-3 -5.3e-4 -0.36563-1e-3 -0.7312-2e-3 -1.0968 0.0195 0.0112 0.0407 0.0226 0.0693 0.037 0.0427 0.0214 0.11033 0.0536 0.15962 0.073 0.0493 0.0194 0.1034 0.0375 0.13447 0.0451 0.0311 8e-3 0.0364 9e-3 0.0488 8e-3 0.0124-2e-3 0.0177-4e-3 0.0231-0.0104 4e-3 -5e-3 5e-3 -0.0107 6e-3 -0.0171 5e-5 -1e-3 5e-5 -2e-3 0-3e-3zm-0.43832 1.2467c1.6e-4 0.0135 1.6e-4 0.0288-5.3e-4 0.0436-5e-5 -0.021 5e-5 -0.042 0-0.0631 2.7e-4 7e-3 5.3e-4 0.0136 5.3e-4 0.0195zm-0.18785 3.8321c3e-3 0.0944-0.0127 0.20095-0.0446 0.25844-0.0781 0.14076-0.19839 0.22518-0.368 0.25797-0.0554 0.0107-0.13581 0.0362-0.17913 0.0564-0.12887 0.0602-0.31519 0.11557-0.37109 0.11049l-0.0518-5e-3 0.0477-0.047c0.0262-0.0258 0.10144-0.0699 0.16733-0.0977 0.38137-0.16057 0.60351-0.375 0.72779-0.70182 0.0108-0.0284 0.012-0.0282 0.0334-1e-3 0.0238 0.0298 0.0365 0.0958 0.0385 0.16929zm-0.0323-5.0821c2e-4 0.0306 8e-5 0.0655 0 0.10433-5.3e-4 0.25887-7e-3 0.69002-0.0169 1.1419l-7e-3 0.32247-0.21352 0.12566c-0.11719 0.069-0.22429 0.12749-0.23815 0.12993-0.0249 4e-3 -0.0248 3e-3 -0.0231-0.0972 1e-3 -0.056 5e-3 -0.2019 0.0103-0.32388 0.0136-0.34459 0.0733-0.87596 0.13602-1.2116l0.0246-0.1342 0.0729-0.0431c0.0399-0.0238 0.10969-0.068 0.15551-0.0982 0.0458-0.0302 0.0881-0.0566 0.0939-0.0588 3e-3 -1e-3 5e-3 0.0511 6e-3 0.14273zm-0.0118-3.025c0 0.0246 1.5e-4 0.0526 0 0.0844-2e-3 0.34252-0.03 0.40367-0.12575 0.27267-0.0553-0.0757-0.37565-0.56296-0.49991-0.76016-0.10564-0.16767-0.16649-0.23372-0.28434-0.30871-0.0474-0.0302-0.0968-0.076-0.11035-0.10243-0.0252-0.049-0.0326-0.12546-0.0139-0.14274 6e-3 -5e-3 0.0522-0.01 0.10316-0.01 0.0989 0 0.17289 0.0278 0.34388 0.12803 0.14071 0.0825 0.33785 0.24301 0.41523 0.33811 0.0396 0.0487 0.0949 0.1425 0.12266 0.20865 0.0438 0.1045 0.0493 0.1196 0.0493 0.29212zm-0.021 5.157c1e-4 0.0391-2e-3 0.10062-4e-3 0.19584-0.0218 0.79921-0.0409 1.319-0.0482 1.3254-0.0123 0.0107-0.21077 0.0403-0.27049 0.0403-0.093 0-0.0904 7e-3 -0.10727-0.28974-0.0113-0.19837-0.0367-0.95015-0.038-1.1291-1.2e-4 -0.0174 0.0373-0.0365 0.21557-0.11049 0.11855-0.0492 0.2246-0.0928 0.23559-0.0967 0.0119-4e-3 0.0168-8e-4 0.0169 0.0645zm-0.12421 1.9997c5.3e-4 0.0173-7.9e-4 0.0386-3e-3 0.0659-9e-3 0.10694-0.0481 0.36068-0.0575 0.37461-0.02 0.03-0.0793-0.12421-0.12061-0.31297-0.0308-0.14048-0.0326-0.15682-0.0175-0.19159 0.014-0.0323 0.0563-0.0387 0.12215-0.0185 0.0559 0.0172 0.0747 0.0308 0.0765 0.0825zm-0.096-5.6602c0 0.0456-0.29956 1.3044-0.36236 1.5227-0.0423 0.14719-0.14126 0.41764-0.21967 0.60083-0.17842 0.41678-0.23918 0.62998-0.23918 0.84029 0 0.16009-5e-3 0.16934-0.15654 0.30065l-0.15655 0.13515h-1.5526l-0.15243-0.13183-0.15193-0.13136-0.0164-0.25512c-0.0127-0.20122-0.0408-0.3134-0.13293-0.53206-0.22967-0.54487-0.34165-0.89967-0.49427-1.5611-0.0852-0.36907-0.16211-0.70028-0.17091-0.73597-0.0129-0.0523 7e-3 -0.0756 0.10265-0.12045 0.14717-0.069 0.65946-0.22065 0.89255-0.26413 0.51411-0.0959 1.4283-0.0884 1.879 0.0152 0.42033 0.0966 0.93155 0.27068 0.93155 0.31725zm-0.16167 6.7622c4e-3 0.0805-0.071 0.10488-0.24893 0.19253-0.48395 0.23841-0.90077 0.31059-1.6681 0.28832-0.602-0.0175-0.83335-0.0648-1.2575-0.25749-0.36959-0.16794-0.37211-0.17234-0.24431-0.42015 0.0579-0.11234 0.13604-0.27998 0.17348-0.37226 0.0374-0.0923 0.0738-0.16787 0.0806-0.16787 7e-3 0 0.11018 0.0458 0.22994 0.10148 0.37592 0.1749 0.67473 0.23224 1.2015 0.23047 0.52734-2e-3 0.78928-0.0532 1.1682-0.22952 0.12535-0.0583 0.23161-0.10178 0.2361-0.0967 5e-3 5e-3 0.088 0.17858 0.1858 0.38554 0.0883 0.18684 0.13988 0.2831 0.1432 0.34569zm-2.846-9.1812c1e-3 0.0116-1e-3 0.0259-6e-3 0.0436-0.0224 0.0867-0.0333 0.0994-0.14217 0.17261-0.12921 0.0868-0.17198 0.13631-0.30693 0.35186-0.19998 0.31943-0.49132 0.74899-0.51839 0.76443-0.058 0.0331-0.0677-6e-3 -0.0713-0.3016-3e-3 -0.24384 5.3e-4 -0.2901 0.0267-0.3566 0.0873-0.2224 0.2503-0.39941 0.52147-0.56621 0.19958-0.12276 0.27254-0.15183 0.38135-0.15222 0.0797-2.7e-4 0.11168 9e-3 0.11497 0.0441zm-0.0826 9.708-0.0472 4e-3c-0.0547 5e-3 -0.2623-0.0562-0.36493-0.10812-0.0383-0.0194-0.11989-0.0451-0.18118-0.0569-0.26091-0.0503-0.42277-0.23647-0.4183-0.48037 7.9e-4 -0.0487 7e-3 -0.10843 0.0128-0.13278 6e-3 -0.0243 0.0193-0.057 0.0287-0.0726 0.0161-0.0266 0.0182-0.0255 0.0359 0.0152 0.0828 0.18938 0.15139 0.29356 0.25817 0.3936 0.12745 0.1194 0.24571 0.1945 0.46039 0.29163 0.0815 0.0369 0.16364 0.0845 0.18221 0.10623zm-0.47887-3.5072-3e-3 0.20676c-3e-3 0.25097-0.0218 0.74448-0.038 1.0115-0.01 0.1591-0.0152 0.19819-0.0298 0.20866-0.0248 0.0178-0.12287 0.0159-0.24226-5e-3l-0.10008-0.018-8e-3 -0.0465c-7e-3 -0.045-0.0247-0.58266-0.0395-1.231-5e-3 -0.22464-4e-3 -0.31769 5e-3 -0.31487 7e-3 2e-3 0.11168 0.0455 0.23353 0.0963zm-5e-3 -0.61078c2.1e-4 0.11132-5e-3 0.18352-0.0159 0.18352-0.0146 0-0.41207-0.22724-0.44037-0.2518-0.0139-0.0121-0.0214-0.27628-0.04-1.4269l-5e-3 -0.30112 0.0631 0.0422c0.0347 0.0234 0.10985 0.0705 0.16681 0.10479 0.0632 0.038 0.10565 0.0709 0.10881 0.0839 0.0283 0.11685 0.0927 0.56325 0.12164 0.84125 0.0255 0.2451 0.0407 0.53861 0.0411 0.72412zm-0.1355 2.4796c-5.3e-4 0.0429-0.012 0.10378-0.0323 0.18684-0.051 0.20804-0.10132 0.31312-0.11702 0.24374-0.0151-0.0669-0.0412-0.26345-0.0477-0.36087l-7e-3 -0.1048 0.037-0.0209c0.0203-0.0114 0.0566-0.0238 0.0806-0.0275 0.0599-9e-3 0.0873 0.012 0.0862 0.0835z" color="#000000" fill="#00f" stroke-width=".024667"/>
  <path d="m-476.51 95.421c-2e-5 -1e-3 -5.3e-4 -4e-3 -5.3e-4 -7e-3 -5.3e-4 -0.0256-3e-3 -0.1168-0.014-0.16654-0.0126-0.0556-0.0297-0.11119-0.059-0.16011-0.0438-0.0732-0.10639-0.13489-0.17005-0.19167-0.0531-0.0474-0.11522-0.0836-0.17472-0.12271-0.0239-0.0157-0.0463-0.036-0.0736-0.0444-4e-3 -1e-3 -7e-3 -3e-3 -0.0111-4e-3 -3e-3 -0.91325-9e-3 -1.8265-0.0298-2.7395-0.0183-0.54818-0.2937-1.0859-0.75907-1.3861-0.15001-0.12861-0.32719-0.21078-0.5189-0.24777-0.57714-0.21381-1.2062-0.12245-1.8086-0.14199-0.48035-0.0182-0.96344 0.0827-1.3908 0.30035-0.39881 0.25303-0.75459 0.6313-0.82686 1.115-0.14086 0.67757-0.0609 1.3755-0.0841 2.0622 7.9e-4 0.34635 5.3e-4 0.69262 5.3e-4 1.039-2e-3 5.82e-4 -5e-3 2e-3 -7e-3 2e-3 -0.0273 8e-3 -0.0497 0.0287-0.0736 0.0444-0.0595 0.0391-0.1216 0.0753-0.17472 0.12271-0.0636 0.0568-0.12623 0.11849-0.17005 0.19167-0.0293 0.0489-0.0464 0.1045-0.059 0.16011-0.0113 0.0497-0.0135 0.14089-0.014 0.16654-2e-3 0.0115-2.6e-4 0.024 6e-3 0.0321 6e-3 8e-3 0.0122 0.0108 0.0263 0.0129 0.0141 2e-3 0.0201-2e-5 0.0555-9e-3 0.0354-9e-3 0.097-0.0316 0.1531-0.0555s0.13313-0.0636 0.18173-0.09c0.0311-0.0169 0.0546-0.0306 0.076-0.0438-2e-4 0.45058-2e-4 0.90102-5.3e-4 1.3516-2e-3 2e-3 -4e-3 3e-3 -6e-3 5e-3 -0.011 0.0104-0.0255 0.0255-0.0357 0.0543s-7e-3 0.0303-0.0117 0.11804c-4e-3 0.0877-3e-3 0.31005 1e-3 0.37515 4e-3 0.0651 5e-3 0.0767 0.0175 0.10869 0.0101 0.0258 0.015 0.0451 0.0345 0.0491-1.8e-4 0.68649 5.3e-4 1.3734 3e-3 2.0598-9e-3 0.02519-6e-3 0.0309-0.0105 0.11454-4e-3 0.0877-3e-3 0.31063 1e-3 0.37573 3e-3 0.0537 5e-3 0.0712 0.0123 0.0935 4e-3 0.56718 9e-3 1.1345 0.017 1.7016-1e-3 0.3966 0.24628 0.79073 0.62759 0.92386 0.83884 0.34002 1.7689 0.33391 2.66 0.29919 0.58183-0.0444 1.194-0.11948 1.6964-0.43476 0.40015-0.28249 0.41196-0.82689 0.41022-1.2704 4e-3 -0.41765 6e-3 -0.83516 7e-3 -1.2529 2e-3 -0.01421 3e-3 -0.0315 5e-3 -0.0602 4e-3 -0.0651 5e-3 -0.288 1e-3 -0.37573-3e-3 -0.0576-3e-3 -0.0769-5e-3 -0.0923 1.5e-4 -0.53487-1e-3 -1.0698-1e-3 -1.6046-7.9e-4 -0.15893-1e-3 -0.31792-2e-3 -0.47684 0.0206-3e-3 0.0253-0.0233 0.0357-0.0497 0.0125-0.032 0.0135-0.0436 0.0175-0.10869 4e-3 -0.0651 5e-3 -0.28741 1e-3 -0.37515-4e-3 -0.0877-1e-3 -0.0892-0.0117-0.11804-0.0102-0.0288-0.0247-0.0439-0.0356-0.0543-3e-3 -3e-3 -6e-3 -5e-3 -8e-3 -7e-3 -5.3e-4 -0.45056-1e-3 -0.90104-2e-3 -1.3516 0.0221 0.0138 0.0464 0.0279 0.0789 0.0456 0.0486 0.0264 0.12562 0.0661 0.18173 0.09 0.0561 0.0239 0.11773 0.0462 0.1531 0.0555 0.0354 9e-3 0.0414 0.0114 0.0555 9e-3 0.0141-2e-3 0.0201-5e-3 0.0263-0.0129 4e-3 -6e-3 6e-3 -0.0132 6e-3 -0.021 6e-5 -1e-3 6e-5 -3e-3 0-4e-3zm-0.49904 1.5363c1.7e-4 0.0166 1.7e-4 0.0355-5.3e-4 0.0538-5e-5 -0.0259 6e-5 -0.0518 0-0.0777 2.6e-4 8e-3 5.3e-4 0.0167 5.3e-4 0.024zm-0.21387 4.7221c3e-3 0.11639-0.0145 0.24762-0.0508 0.31848-0.0889 0.17345-0.22588 0.27748-0.41899 0.31788-0.063 0.0132-0.15461 0.0446-0.20393 0.0695-0.14672 0.0742-0.35884 0.14242-0.42249 0.13616l-0.059-6e-3 0.0543-0.0579c0.0298-0.0318 0.11549-0.0862 0.1905-0.12038 0.43421-0.19787 0.68712-0.46208 0.82861-0.86484 0.0123-0.035 0.0137-0.0348 0.038-2e-3 0.0271 0.0368 0.0416 0.11809 0.0438 0.20862zm-0.0368-6.2625c2.3e-4 0.0377 8e-5 0.0807 0 0.12856-5.3e-4 0.31899-8e-3 0.85029-0.0193 1.4071l-8e-3 0.39736-0.24309 0.15486c-0.13344 0.0851-0.25537 0.15709-0.27114 0.16011-0.0283 5e-3 -0.0282 4e-3 -0.0263-0.11979 1e-3 -0.069 6e-3 -0.2488 0.0117-0.39912 0.0154-0.42462 0.0835-1.0794 0.15485-1.493l0.0281-0.16537 0.083-0.0532c0.0454-0.0293 0.12489-0.0837 0.17706-0.12096 0.0522-0.0372 0.10029-0.0697 0.10693-0.0725 3e-3 -1e-3 6e-3 0.0629 6e-3 0.17589zm-0.0134-3.7276c-1e-5 0.0304 1.7e-4 0.0648 0 0.10401-2e-3 0.42208-0.0341 0.49744-0.14317 0.336-0.063-0.0933-0.4277-0.69371-0.56916-0.93671-0.12028-0.20662-0.18956-0.28801-0.32373-0.38042-0.054-0.0372-0.1102-0.0937-0.12564-0.12622-0.0287-0.0604-0.0371-0.1546-0.0158-0.17589 7e-3 -7e-3 0.0594-0.0123 0.11746-0.0123 0.11265 0 0.19683 0.0342 0.39151 0.15778 0.1602 0.10166 0.38466 0.29946 0.47274 0.41664 0.0451 0.0599 0.10811 0.17559 0.13966 0.25712 0.0498 0.12876 0.0561 0.14737 0.0561 0.35996zm-0.024 6.3548c1.1e-4 0.0482-2e-3 0.12401-5e-3 0.24134-0.0248 0.98485-0.0465 1.6254-0.0549 1.6333-0.014 0.0132-0.23997 0.0497-0.30796 0.0497-0.10593 0-0.10293 8e-3 -0.12213-0.35704-0.0128-0.24445-0.0417-1.1708-0.0432-1.3913-1.4e-4 -0.0214 0.0424-0.045 0.24543-0.13615 0.13496-0.0606 0.25571-0.11441 0.26822-0.11921 0.0135-5e-3 0.0191-7.94e-4 0.0193 0.0795zm-0.14142 2.4642c7.9e-4 0.0213-7.9e-4 0.0476-4e-3 0.0812-0.0105 0.1318-0.0548 0.44445-0.0654 0.46164-0.0228 0.0369-0.0902-0.15307-0.13732-0.38566-0.035-0.17313-0.0371-0.19324-0.0199-0.23609 0.016-0.0398 0.0641-0.0477 0.13908-0.0228 0.0637 0.0212 0.085 0.0379 0.0871 0.10168zm-0.10927-6.9748c0 0.0563-0.34105 1.6074-0.41255 1.8764-0.0482 0.18137-0.16083 0.51465-0.25011 0.74038-0.20312 0.51358-0.2723 0.7763-0.2723 1.0355 0 0.19727-5e-3 0.20867-0.17823 0.37048l-0.17823 0.16654h-0.88354-0.88413l-0.17355-0.16245-0.17297-0.16187-0.0187-0.31438c-0.0145-0.24796-0.0464-0.3862-0.15135-0.65564-0.26148-0.67143-0.38898-1.1086-0.56273-1.9237-0.097-0.45481-0.18458-0.86295-0.19459-0.90692-0.0147-0.0644 8e-3 -0.0931 0.11687-0.14842 0.16755-0.085 0.75079-0.2719 1.0162-0.32549 0.58532-0.11817 1.6261-0.1089 2.1393 0.0187 0.47856 0.119 1.0606 0.33356 1.0606 0.39093zm-0.18407 8.3329c5e-3 0.0992-0.0808 0.12923-0.28341 0.23724-0.551 0.29377-1.0256 0.38273-1.8992 0.35529-0.68537-0.0215-0.94878-0.0798-1.4317-0.3173-0.42078-0.20694-0.42366-0.21237-0.27815-0.51773 0.066-0.13843 0.15487-0.34502 0.19751-0.45873 0.0426-0.1137 0.084-0.20686 0.0917-0.20686 8e-3 0 0.12543 0.0564 0.26179 0.12505 0.42797 0.21553 0.76817 0.28618 1.368 0.284 0.60039-2e-3 0.8986-0.0656 1.33-0.28283 0.14271-0.0719 0.26369-0.12542 0.26881-0.11921 5e-3 6e-3 0.10021 0.22006 0.21153 0.47508 0.1005 0.23024 0.15926 0.34885 0.16304 0.426zm-3.2403-11.314c1e-3 0.0143-1e-3 0.0319-6e-3 0.0538-0.0255 0.1069-0.0379 0.12252-0.16186 0.21271-0.14711 0.107-0.1958 0.16797-0.34945 0.43359-0.22768 0.39361-0.55936 0.92296-0.59019 0.94197-0.0661 0.0408-0.0771-8e-3 -0.0812-0.37165-3e-3 -0.30047 5.3e-4 -0.35746 0.0304-0.43943 0.0994-0.27405 0.28496-0.49217 0.5937-0.69772 0.22722-0.15127 0.3103-0.18709 0.43417-0.18757 0.0908-3.7e-4 0.12716 0.0116 0.1309 0.0543zm-0.0941 11.963-0.0538 5e-3c-0.0623 6e-3 -0.29862-0.0692-0.41547-0.13323-0.0436-0.0239-0.1365-0.0556-0.20628-0.0701-0.29704-0.0619-0.48132-0.2914-0.47625-0.59195 1e-3 -0.06 7e-3 -0.13362 0.0146-0.16362 7e-3 -0.03 0.022-0.0702 0.0327-0.0894 0.0183-0.0327 0.0207-0.0314 0.0409 0.0187 0.0942 0.23336 0.17236 0.36174 0.29393 0.48501 0.14511 0.14715 0.27975 0.23969 0.52417 0.35938 0.0928 0.0455 0.18631 0.10415 0.20744 0.1309zm-0.5452-4.3219-3e-3 0.25478c-4e-3 0.30927-0.0248 0.91741-0.0432 1.2464-0.011 0.19605-0.0173 0.24422-0.0339 0.25712-0.0283 0.02191-0.13989 0.01961-0.27581-6e-3l-0.11395-0.0222-9e-3 -0.0573c-8e-3 -0.0555-0.0281-0.71799-0.045-1.517-6e-3 -0.27683-4e-3 -0.39149 5e-3 -0.38801 7e-3 3e-3 0.12714 0.0561 0.26588 0.11862zm-5e-3 -0.75265c2.4e-4 0.13717-5e-3 0.22615-0.0181 0.22615-0.0167 0-0.46915-0.28002-0.50137-0.3103-0.0159-0.0149-0.0244-0.34043-0.0456-1.7583l-6e-3 -0.37107 0.0719 0.052c0.0395 0.0288 0.12507 0.0869 0.18991 0.12914 0.0719 0.0468 0.12029 0.0873 0.12389 0.10343 0.0322 0.144 0.10551 0.69407 0.13849 1.0366 0.0291 0.30204 0.0464 0.6637 0.0468 0.89231zm-0.15427 3.0556c-7.9e-4 0.0529-0.0136 0.12789-0.0368 0.23024-0.0581 0.25636-0.11535 0.38584-0.13323 0.30036-0.0172-0.0824-0.0469-0.32463-0.0543-0.4447l-8e-3 -0.12914 0.0421-0.0257c0.0232-0.0141 0.0645-0.0293 0.0917-0.0339 0.0682-0.0115 0.0994 0.0148 0.0982 0.10284z" color="#000000" fill="none" stroke="#800000" stroke-width=".21458"/>
  <path d="m-486.81 163.65s-0.78581-11.899 0.11226-13.359 4.8271-3.9291 5.9497-5.8375c1.1226-1.9084-0.44904-37.719 0.89807-41.536 1.3471-3.8168 3.5923-8.8685 4.4904-10.328 0.89807-1.4594 5.2762-7.5214 5.2762-7.5214" fill="none" marker-end="url(#marker7745)" stroke="#0f0" stroke-width=".26458px"/>
  <path class="shp0" d="m-407.64 87.879c2.1636-3.0983 2.8166-3.8927 6.2745-6.4413 2.1868 1.7671 1.6267 1.3376 4.6478 3.8648-7.6689 7.5148-10.922 12.024-10.922 24.906z" fill="#999" stroke="#000" stroke-width=".44675" style="paint-order:stroke fill markers"/>
  <path class="shp1" d="m-421.35 71.024h13.711v105.73h-13.711z" fill="#999" stroke-width=".31087"/>
  <path class="shp4" d="m-414.38 105.44h0.46478v2.9459h-0.46478zm0 4.2085h0.46478v2.9459h-0.46478zm0 4.2085h0.46478v2.9459h-0.46478zm0 4.2085h0.46478v2.9459h-0.46478zm0 4.2085h0.46478v2.9459h-0.46478zm0-37.876h0.46478v2.9459h-0.46478zm0 4.2085h0.46478v2.9459h-0.46478zm0 4.2085h0.46478v2.9459h-0.46478zm0 4.2085h0.46478v2.9459h-0.46478zm0 4.2085h0.46478v2.9459h-0.46478zm0-29.459h0.46478v2.9459h-0.46478zm0 4.2085h0.46478v2.9459h-0.46478zm0 4.2085h0.46478v2.9459h-0.46478zm0 63.128h0.46478v2.9459h-0.46478zm0 4.2085h0.46478v2.9459h-0.46478zm0 4.2085h0.46478v2.9459h-0.46478zm0 4.2085h0.46478v2.9459h-0.46478zm0 4.2085h0.46478v2.9459h-0.46478zm0-33.667h0.46478v2.9459h-0.46478zm0 4.2085h0.46478v2.9459h-0.46478zm0 4.2085h0.46478v2.9459h-0.46478zm0 4.2085h0.46478v2.9459h-0.46478zm0 25.251h0.46478v2.9459h-0.46478zm0 4.2085h0.46478v2.946h-0.46478zm0 4.2085h0.46478v2.9459h-0.46478z" fill="#cc0" stroke-width=".31273"/>
  <path d="m-407.89 110.45-1.9388-0.0485" fill="none" stroke="#000" stroke-dasharray="0.10662645, 0.10662645" stroke-width=".10663"/>
  <path d="m-414.91 105.97c-1e-5 -8e-4 -5.2e-4 -4e-3 -5.2e-4 -6e-3 -5.3e-4 -0.0208-2e-3 -0.0948-0.0123-0.13515-0.0111-0.0451-0.0261-0.0902-0.0518-0.12993-0.0385-0.0594-0.0935-0.10947-0.14936-0.15554-0.0467-0.0384-0.10121-0.0679-0.15346-0.0996-0.021-0.0128-0.0406-0.0292-0.0647-0.036-3e-3 -1e-3 -6e-3 -2e-3 -0.01-3e-3 -2e-3 -0.74112-8e-3 -1.4822-0.0262-2.2231-0.0161-0.44485-0.25797-0.88125-0.66672-1.1248-0.13176-0.10438-0.28738-0.17105-0.45578-0.20108-0.50691-0.1735-1.0595-0.0994-1.5885-0.11522-0.4219-0.0147-0.84624 0.0671-1.2216 0.24374-0.35029 0.20534-0.66279 0.51231-0.72625 0.90479-0.12373 0.54987-0.0535 1.1162-0.0739 1.6735 7.9e-4 0.28106 5.3e-4 0.56208 5.3e-4 0.84314-2e-3 5.2e-4 -4e-3 1e-3 -6e-3 2e-3 -0.024 7e-3 -0.0437 0.0233-0.0647 0.036-0.0523 0.0317-0.1068 0.0611-0.15346 0.0996-0.0559 0.0461-0.11088 0.0962-0.14936 0.15553-0.0257 0.0397-0.0408 0.0848-0.0518 0.12994-0.01 0.0404-0.0118 0.11433-0.0123 0.13514-2e-3 9e-3 -2.7e-4 0.0194 5e-3 0.0261 5e-3 7e-3 0.0107 9e-3 0.0231 0.0104 0.0123 2e-3 0.0177-1e-5 0.0488-8e-3 0.0311-8e-3 0.0852-0.0257 0.13448-0.0451 0.0493-0.0194 0.11693-0.0516 0.15961-0.073 0.0273-0.0137 0.0479-0.0249 0.0667-0.0356-1.7e-4 0.36564-1.7e-4 0.73118-5.3e-4 1.0968-2e-3 1e-3 -4e-3 3e-3 -6e-3 4e-3 -0.01 8e-3 -0.0224 0.0207-0.0313 0.0441-9e-3 0.0234-6e-3 0.0246-0.0103 0.0958-4e-3 0.0712-2e-3 0.25161 1e-3 0.30444 4e-3 0.0528 4e-3 0.0622 0.0154 0.0882 9e-3 0.021 0.0132 0.0366 0.0303 0.0398-1.6e-4 0.55711 5.2e-4 1.1145 3e-3 1.6716-8e-3 0.0205-6e-3 0.0251-9e-3 0.0929-4e-3 0.0712-2e-3 0.25208 1e-3 0.30491 3e-3 0.0436 4e-3 0.0577 0.0108 0.0759 3e-3 0.46026 8e-3 0.92065 0.0149 1.3809-8e-4 0.32185 0.21632 0.64168 0.55124 0.74973 0.73678 0.27594 1.5536 0.27096 2.3363 0.24279 0.51105-0.036 1.0487-0.097 1.49-0.35281 0.35145-0.22925 0.36184-0.67103 0.3603-1.0309 4e-3 -0.33892 5e-3 -0.67774 6e-3 -1.0167 2e-3 -0.0115 3e-3 -0.0256 5e-3 -0.0489 4e-3 -0.0528 5e-3 -0.23372 1e-3 -0.30492-2e-3 -0.0467-2e-3 -0.0624-5e-3 -0.0749 1.3e-4 -0.43404-1e-3 -0.86811-1e-3 -1.3022-7.9e-4 -0.12897-1e-3 -0.258-1e-3 -0.38695 0.0181-3e-3 0.0222-0.0189 0.0313-0.0403 0.011-0.026 0.0119-0.0354 0.0154-0.0882 4e-3 -0.0528 5e-3 -0.23324 1e-3 -0.30444s-1e-3 -0.0724-0.0103-0.0958c-9e-3 -0.0234-0.0217-0.0357-0.0313-0.0441-2e-3 -2e-3 -5e-3 -4e-3 -7e-3 -6e-3 -5.3e-4 -0.36564-1e-3 -0.73121-1e-3 -1.0968 0.0194 0.0112 0.0407 0.0226 0.0693 0.037 0.0427 0.0214 0.11034 0.0536 0.15963 0.073 0.0493 0.0194 0.1034 0.0375 0.13447 0.0451 0.0311 8e-3 0.0364 9e-3 0.0488 8e-3 0.0123-2e-3 0.0177-4e-3 0.0231-0.0104 4e-3 -5e-3 5e-3 -0.0107 6e-3 -0.0171 5e-5 -1e-3 5e-5 -2e-3 0-3e-3zm-0.43832 1.2467c1.5e-4 0.0135 1.5e-4 0.0288-5.3e-4 0.0436-5e-5 -0.021 5e-5 -0.042 0-0.0631 2.7e-4 7e-3 5.3e-4 0.0136 5.3e-4 0.0195zm-0.18785 3.8321c3e-3 0.0944-0.0128 0.20095-0.0446 0.25844-0.0781 0.14076-0.19839 0.22518-0.36801 0.25797-0.0554 0.0107-0.1358 0.0362-0.17912 0.0564-0.12887 0.0602-0.31519 0.11557-0.37109 0.11049l-0.0518-5e-3 0.0477-0.047c0.0262-0.0258 0.10144-0.0699 0.16732-0.0977 0.38138-0.16057 0.60352-0.375 0.7278-0.70182 0.0108-0.0284 0.012-0.0282 0.0334-1e-3 0.0238 0.0298 0.0365 0.0958 0.0385 0.16929zm-0.0323-5.0821c2e-4 0.0306 8e-5 0.0655 0 0.10433-5.3e-4 0.25887-7e-3 0.69001-0.0169 1.1419l-7e-3 0.32247-0.21352 0.12566c-0.1172 0.069-0.22429 0.12749-0.23815 0.12993-0.0249 4e-3 -0.0248 3e-3 -0.0231-0.0972 1e-3 -0.056 5e-3 -0.2019 0.0103-0.32388 0.0136-0.34459 0.0733-0.87597 0.13602-1.2116l0.0246-0.1342 0.0729-0.0431c0.0399-0.0238 0.10968-0.068 0.1555-0.0982 0.0458-0.0302 0.0881-0.0566 0.0939-0.0588 3e-3 -1e-3 5e-3 0.0511 6e-3 0.14273zm-0.0118-3.025c0 0.0246 1.5e-4 0.0526 0 0.0844-1e-3 0.34252-0.03 0.40367-0.12575 0.27267-0.0553-0.0757-0.37565-0.56296-0.49991-0.76016-0.10564-0.16767-0.1665-0.23372-0.28435-0.30871-0.0474-0.0302-0.0968-0.076-0.11035-0.10243-0.0252-0.049-0.0326-0.12546-0.0139-0.14274 6e-3 -5e-3 0.0522-0.01 0.10317-0.01 0.0989 0 0.17289 0.0278 0.34388 0.12803 0.14071 0.0825 0.33785 0.24301 0.41523 0.33811 0.0396 0.0487 0.0949 0.1425 0.12266 0.20865 0.0438 0.1045 0.0493 0.1196 0.0493 0.29212zm-0.021 5.157c1.1e-4 0.0391-1e-3 0.10063-4e-3 0.19584-0.0218 0.79922-0.0409 1.319-0.0482 1.3254-0.0123 0.0107-0.21077 0.0403-0.27049 0.0403-0.093 0-0.0904 7e-3 -0.10727-0.28973-0.0113-0.19837-0.0366-0.95015-0.038-1.1291-1.3e-4 -0.0174 0.0373-0.0365 0.21557-0.11049 0.11854-0.0492 0.2246-0.0928 0.23558-0.0967 0.0119-4e-3 0.0168-7.9e-4 0.0169 0.0645zm-0.1242 1.9997c5.3e-4 0.0173-8e-4 0.0386-3e-3 0.0659-9e-3 0.10694-0.0481 0.36068-0.0575 0.37462-0.02 0.03-0.0793-0.12422-0.12062-0.31298-0.0308-0.14048-0.0326-0.15682-0.0174-0.19158 0.0141-0.0323 0.0563-0.0387 0.12216-0.0185 0.056 0.0172 0.0747 0.0308 0.0765 0.0825zm-0.096-5.6602c0 0.0456-0.29955 1.3044-0.36236 1.5227-0.0423 0.1472-0.14125 0.41764-0.21967 0.60083-0.17841 0.41678-0.23917 0.62999-0.23917 0.8403 0 0.16009-5e-3 0.16934-0.15654 0.30065l-0.15656 0.13515h-1.5526l-0.15244-0.13183-0.15193-0.13136-0.0164-0.25512c-0.0127-0.20122-0.0408-0.3134-0.13293-0.53207-0.22967-0.54486-0.34165-0.89967-0.49427-1.5611-0.0852-0.36907-0.16212-0.70029-0.17091-0.73597-0.0129-0.0523 7e-3 -0.0756 0.10265-0.12045 0.14716-0.069 0.65946-0.22065 0.89255-0.26413 0.5141-0.0959 1.4283-0.0884 1.879 0.0152 0.42033 0.0966 0.93156 0.27067 0.93156 0.31725zm-0.16167 6.7622c4e-3 0.0805-0.071 0.10488-0.24893 0.19253-0.48394 0.23841-0.90077 0.31059-1.6681 0.28832-0.602-0.0175-0.83335-0.0648-1.2575-0.25749-0.36959-0.16794-0.37211-0.17234-0.24431-0.42015 0.0579-0.11234 0.13604-0.27998 0.17347-0.37226 0.0375-0.0923 0.0738-0.16787 0.0806-0.16787 7e-3 0 0.11019 0.0458 0.22995 0.10148 0.37591 0.1749 0.67473 0.23224 1.2015 0.23047 0.52734-2e-3 0.78928-0.0532 1.1682-0.22952 0.12534-0.0583 0.2316-0.10178 0.2361-0.0967 5e-3 5e-3 0.088 0.17858 0.18579 0.38554 0.0883 0.18685 0.13988 0.28311 0.14319 0.3457zm-2.846-9.1812c1e-3 0.0116-1e-3 0.0259-6e-3 0.0436-0.0224 0.0867-0.0333 0.0994-0.14218 0.1726-0.12921 0.0868-0.17197 0.13631-0.30692 0.35187-0.19998 0.31942-0.49132 0.74899-0.51839 0.76442-0.058 0.0331-0.0678-6e-3 -0.0713-0.30159-3e-3 -0.24384 5.3e-4 -0.2901 0.0267-0.3566 0.0873-0.22241 0.25029-0.39941 0.52147-0.56622 0.19957-0.12275 0.27254-0.15182 0.38135-0.15222 0.0797-2.6e-4 0.11168 9e-3 0.11497 0.0441zm-0.0826 9.708-0.0472 4e-3c-0.0547 5e-3 -0.2623-0.0562-0.36493-0.10812-0.0383-0.0194-0.11989-0.0451-0.18119-0.0569-0.2609-0.0503-0.42276-0.23647-0.41829-0.48037 7.9e-4 -0.0487 6e-3 -0.10843 0.0128-0.13277 6e-3 -0.0243 0.0193-0.057 0.0287-0.0726 0.0161-0.0266 0.0182-0.0255 0.0359 0.0152 0.0828 0.18938 0.15139 0.29355 0.25817 0.39361 0.12745 0.1194 0.24571 0.19449 0.46039 0.29163 0.0815 0.0369 0.16364 0.0845 0.1822 0.10623zm-0.47887-3.5072-3e-3 0.20676c-3e-3 0.25097-0.0218 0.74448-0.038 1.0115-0.01 0.1591-0.0152 0.19819-0.0298 0.20866-0.0248 0.0178-0.12288 0.0159-0.24226-5e-3l-0.10008-0.018-8e-3 -0.0465c-7e-3 -0.045-0.0247-0.58266-0.0395-1.231-5e-3 -0.22464-4e-3 -0.31769 5e-3 -0.31487 7e-3 2e-3 0.11167 0.0455 0.23353 0.0963zm-5e-3 -0.61078c2.1e-4 0.11132-5e-3 0.18352-0.0159 0.18352-0.0146 0-0.41207-0.22724-0.44038-0.2518-0.0139-0.0121-0.0214-0.27628-0.04-1.4269l-5e-3 -0.30111 0.0631 0.0422c0.0347 0.0234 0.10986 0.0705 0.16681 0.10479 0.0632 0.038 0.10565 0.0709 0.10881 0.0839 0.0283 0.11685 0.0927 0.56324 0.12164 0.84125 0.0255 0.24509 0.0407 0.5386 0.0411 0.72411zm-0.13549 2.4796c-5.3e-4 0.0429-0.012 0.10378-0.0323 0.18684-0.051 0.20804-0.10132 0.31312-0.11702 0.24374-0.0151-0.0669-0.0412-0.26345-0.0477-0.36087l-7e-3 -0.1048 0.0369-0.0209c0.0204-0.0114 0.0567-0.0238 0.0806-0.0275 0.0599-9e-3 0.0873 0.012 0.0862 0.0835z" color="#000000" fill="#00f" stroke-width=".024667"/>
  <path d="m-407.5 97.034c-2e-5 -1e-3 -5.3e-4 -4e-3 -5.3e-4 -7e-3 -5.3e-4 -0.0256-3e-3 -0.1168-0.014-0.16654-0.0126-0.0556-0.0297-0.11119-0.059-0.16011-0.0438-0.0732-0.10639-0.13489-0.17005-0.19167-0.0531-0.0474-0.11522-0.0836-0.17472-0.12271-0.0239-0.0157-0.0463-0.036-0.0736-0.0444-4e-3 -1e-3 -7e-3 -3e-3 -0.0111-4e-3 -3e-3 -0.91325-9e-3 -1.8265-0.0298-2.7395-0.0183-0.54818-0.2937-1.0859-0.75907-1.3861-0.15001-0.12861-0.32719-0.21078-0.5189-0.24777-0.57714-0.21381-1.2062-0.12245-1.8086-0.14199-0.48035-0.0182-0.96344 0.0827-1.3908 0.30035-0.39881 0.25303-0.75459 0.6313-0.82686 1.115-0.14086 0.67757-0.0609 1.3755-0.0841 2.0622 7.9e-4 0.34635 5.3e-4 0.69262 5.3e-4 1.039-2e-3 5.82e-4 -5e-3 2e-3 -7e-3 2e-3 -0.0273 8e-3 -0.0497 0.0287-0.0736 0.0444-0.0595 0.0391-0.1216 0.0753-0.17472 0.12271-0.0636 0.0568-0.12623 0.11849-0.17005 0.19167-0.0293 0.0489-0.0464 0.1045-0.059 0.16011-0.0113 0.0497-0.0135 0.14089-0.014 0.16654-2e-3 0.0115-2.6e-4 0.024 6e-3 0.0321 6e-3 8e-3 0.0122 0.0108 0.0263 0.0129 0.0141 2e-3 0.0201-2e-5 0.0555-9e-3 0.0354-9e-3 0.097-0.0316 0.1531-0.0555s0.13313-0.0636 0.18173-0.09c0.0311-0.0169 0.0546-0.0306 0.076-0.0438-2e-4 0.45058-2e-4 0.90102-5.3e-4 1.3516-2e-3 0.0021-4e-3 3e-3 -6e-3 5e-3 -0.011 0.0104-0.0255 0.02551-0.0357 0.0543-0.0102 0.0288-7e-3 0.0303-0.0117 0.11804-4e-3 0.0877-3e-3 0.31005 1e-3 0.37515 4e-3 0.0651 5e-3 0.0767 0.0175 0.10869 0.0101 0.0258 0.015 0.0451 0.0345 0.0491-1.8e-4 0.68649 5.2e-4 1.3734 3e-3 2.0598-9e-3 0.0252-6e-3 0.0309-0.0105 0.11454-4e-3 0.0877-3e-3 0.31063 1e-3 0.37573 3e-3 0.0537 5e-3 0.0712 0.0123 0.0935 4e-3 0.56718 9e-3 1.1345 0.017 1.7016-1e-3 0.3966 0.24628 0.79073 0.62758 0.92386 0.83885 0.34002 1.7689 0.33391 2.66 0.29919 0.58182-0.0444 1.194-0.11948 1.6964-0.43476 0.40014-0.28249 0.41196-0.82689 0.41021-1.2704 4e-3 -0.41765 6e-3 -0.83516 7e-3 -1.2528 2e-3 -0.0142 3e-3 -0.0315 5e-3 -0.0602 4e-3 -0.0651 5e-3 -0.288 1e-3 -0.37573-3e-3 -0.0576-3e-3 -0.0769-5e-3 -0.0923 1.5e-4 -0.53487-1e-3 -1.0698-1e-3 -1.6046-8e-4 -0.15893-1e-3 -0.31792-2e-3 -0.47684 0.0206-3e-3 0.0253-0.02331 0.0357-0.0497 0.0125-0.032 0.0135-0.0436 0.0175-0.10869 4e-3 -0.0651 5e-3 -0.28741 1e-3 -0.37515-4e-3 -0.0877-1e-3 -0.0892-0.0117-0.11804-0.0102-0.0288-0.0247-0.0439-0.0356-0.0543-3e-3 -3e-3 -6e-3 -5e-3 -8e-3 -7e-3 -5.3e-4 -0.45056-1e-3 -0.90104-2e-3 -1.3516 0.0221 0.0138 0.0464 0.0279 0.0789 0.0456 0.0486 0.0264 0.12562 0.0661 0.18173 0.09 0.0561 0.0239 0.11773 0.0462 0.1531 0.0555 0.0354 9e-3 0.0414 0.0114 0.0555 9e-3 0.0141-2e-3 0.0201-5e-3 0.0263-0.0129 4e-3 -6e-3 6e-3 -0.0132 6e-3 -0.021 6e-5 -1e-3 6e-5 -3e-3 0-4e-3zm-0.49904 1.5363c1.7e-4 0.01659 1.7e-4 0.0355-5.3e-4 0.0538-4e-5 -0.0259 6e-5 -0.0518 0-0.0777 2.7e-4 8e-3 5.3e-4 0.0167 5.3e-4 0.024zm-0.21387 4.7221c3e-3 0.11639-0.0145 0.24762-0.0508 0.31848-0.0889 0.17345-0.22588 0.27748-0.41899 0.31788-0.063 0.0132-0.15461 0.0446-0.20393 0.0695-0.14672 0.0742-0.35884 0.14242-0.42249 0.13616l-0.059-6e-3 0.0543-0.0579c0.0298-0.0318 0.11549-0.0862 0.1905-0.12038 0.43421-0.19787 0.68712-0.46209 0.82861-0.86484 0.0123-0.035 0.0137-0.0348 0.038-2e-3 0.0271 0.0368 0.0416 0.11809 0.0438 0.20862zm-0.0368-6.2625c2.3e-4 0.0377 8e-5 0.0807 0 0.12856-5.3e-4 0.31899-8e-3 0.85029-0.0193 1.4071l-8e-3 0.39736-0.24309 0.15486c-0.13344 0.0851-0.25536 0.15709-0.27114 0.16011-0.0283 5e-3 -0.0282 4e-3 -0.0263-0.11979 1e-3 -0.069 6e-3 -0.2488 0.0117-0.39912 0.0154-0.42462 0.0835-1.0794 0.15485-1.493l0.0281-0.16537 0.083-0.0532c0.0454-0.0293 0.12489-0.0837 0.17706-0.12096 0.0522-0.0372 0.10029-0.0697 0.10693-0.0725 3e-3 -1e-3 6e-3 0.0629 6e-3 0.17589zm-0.0134-3.7276c-1e-5 0.0304 1.7e-4 0.0648 0 0.10401-2e-3 0.42208-0.0341 0.49744-0.14317 0.336-0.063-0.0933-0.4277-0.69371-0.56916-0.93671-0.12028-0.20662-0.18956-0.28801-0.32373-0.38042-0.054-0.0372-0.1102-0.0937-0.12564-0.12622-0.0287-0.0604-0.0371-0.1546-0.0158-0.17589 7e-3 -7e-3 0.0594-0.0123 0.11746-0.0123 0.11265 0 0.19683 0.0342 0.39151 0.15778 0.1602 0.10166 0.38466 0.29946 0.47274 0.41664 0.0451 0.0599 0.10811 0.17559 0.13966 0.25712 0.0498 0.12876 0.0561 0.14737 0.0561 0.35996zm-0.024 6.3548c1.1e-4 0.0482-2e-3 0.12401-5e-3 0.24134-0.0248 0.98485-0.0465 1.6254-0.0549 1.6333-0.014 0.0132-0.23997 0.0497-0.30796 0.0497-0.10593 0-0.10293 8e-3 -0.12213-0.35703-0.0128-0.24446-0.0417-1.1708-0.0432-1.3914-1.4e-4 -0.0214 0.0424-0.045 0.24543-0.13615 0.13496-0.0606 0.25571-0.11441 0.26822-0.11921 0.0135-5e-3 0.0191-7.94e-4 0.0193 0.0795zm-0.14142 2.4642c7.9e-4 0.0213-8e-4 0.0476-4e-3 0.0812-0.0105 0.1318-0.0548 0.44445-0.0654 0.46164-0.0228 0.0369-0.0902-0.15306-0.13732-0.38567-0.035-0.17311-0.0371-0.19323-0.0199-0.23608 0.016-0.0398 0.0641-0.0477 0.13909-0.0228 0.0637 0.0212 0.085 0.0379 0.0871 0.10168zm-0.10927-6.9748c0 0.0563-0.34105 1.6074-0.41255 1.8764-0.0482 0.18137-0.16083 0.51465-0.25011 0.74038-0.20312 0.51358-0.2723 0.7763-0.2723 1.0355 0 0.19727-5e-3 0.20867-0.17823 0.37048l-0.17823 0.16654h-0.88354-0.88413l-0.17355-0.16245-0.17297-0.16187-0.0187-0.31438c-0.0145-0.24796-0.0464-0.3862-0.15135-0.65564-0.26148-0.67143-0.38898-1.1086-0.56273-1.9237-0.097-0.45481-0.18458-0.86295-0.19459-0.90692-0.0147-0.0644 8e-3 -0.0931 0.11687-0.14842 0.16755-0.085 0.75079-0.2719 1.0162-0.32549 0.58532-0.11817 1.6261-0.1089 2.1393 0.0187 0.47856 0.119 1.0606 0.33356 1.0606 0.39093zm-0.18407 8.3329c5e-3 0.0992-0.0808 0.12923-0.28341 0.23724-0.551 0.29377-1.0256 0.38273-1.8992 0.35529-0.68537-0.0215-0.94878-0.0798-1.4317-0.31729-0.42078-0.20695-0.42366-0.21238-0.27815-0.51775 0.066-0.13843 0.15487-0.34501 0.19751-0.45872 0.0426-0.11369 0.084-0.20686 0.0917-0.20686 8e-3 0 0.12543 0.0564 0.26179 0.12505 0.42797 0.21553 0.76817 0.28618 1.368 0.284 0.60039-2e-3 0.8986-0.0656 1.33-0.28283 0.14271-0.0719 0.26369-0.12542 0.26881-0.11921 5e-3 6e-3 0.10021 0.22006 0.21153 0.47508 0.1005 0.23025 0.15926 0.34886 0.16304 0.426zm-3.2403-11.314c1e-3 0.0143-1e-3 0.0319-6e-3 0.0538-0.0255 0.1069-0.0379 0.12252-0.16187 0.21271-0.1471 0.107-0.1958 0.16797-0.34944 0.43359-0.22769 0.39361-0.55936 0.92296-0.59019 0.94197-0.0661 0.0408-0.0771-8e-3 -0.0812-0.37165-3e-3 -0.30047 5.2e-4 -0.35746 0.0304-0.43943 0.0994-0.27405 0.28495-0.49217 0.59369-0.69772 0.22723-0.15127 0.31031-0.18709 0.43418-0.18757 0.0908-3.7e-4 0.12716 0.0116 0.1309 0.0543zm-0.0941 11.963-0.0538 5e-3c-0.0623 6e-3 -0.29862-0.0692-0.41547-0.13323-0.0436-0.0239-0.1365-0.0556-0.20628-0.0701-0.29704-0.0619-0.48132-0.2914-0.47625-0.59195 1e-3 -0.06 7e-3 -0.13362 0.0146-0.16362 7e-3 -0.03 0.022-0.0702 0.0327-0.0894 0.0183-0.0327 0.0207-0.0314 0.0409 0.0187 0.0942 0.23336 0.17236 0.36174 0.29393 0.48501 0.14511 0.14715 0.27975 0.23969 0.52417 0.35938 0.0928 0.0455 0.18631 0.10415 0.20744 0.1309zm-0.5452-4.3219-3e-3 0.25478c-4e-3 0.30927-0.0248 0.91741-0.0432 1.2464-0.011 0.19605-0.0173 0.24422-0.0339 0.25712-0.0283 0.0219-0.13989 0.0196-0.27581-6e-3l-0.11395-0.0222-9e-3 -0.0573c-8e-3 -0.0555-0.0281-0.71799-0.045-1.517-6e-3 -0.27683-4e-3 -0.39149 5e-3 -0.38801 7e-3 3e-3 0.12714 0.0561 0.26588 0.11862zm-5e-3 -0.75265c2.4e-4 0.13717-5e-3 0.22615-0.0181 0.22615-0.0167 0-0.46915-0.28002-0.50137-0.3103-0.0159-0.0149-0.0244-0.34043-0.0456-1.7583l-6e-3 -0.37107 0.0719 0.052c0.0395 0.0288 0.12507 0.0869 0.18991 0.12914 0.0719 0.0468 0.12029 0.0873 0.12389 0.10343 0.0322 0.144 0.10551 0.69407 0.13849 1.0366 0.0291 0.30204 0.0464 0.6637 0.0468 0.89231zm-0.15427 3.0556c-7.9e-4 0.0529-0.0136 0.12789-0.0368 0.23024-0.0581 0.25636-0.11535 0.38584-0.13323 0.30036-0.0172-0.0824-0.0469-0.32463-0.0543-0.4447l-8e-3 -0.12914 0.0421-0.0257c0.0232-0.0141 0.0645-0.0293 0.0917-0.0339 0.0682-0.0115 0.0994 0.0148 0.0982 0.10284z" color="#000000" fill="none" stroke="#800000" stroke-width=".21458"/>
  <path d="m-417.66 102.13 0.44903-26.156" fill="none" marker-end="url(#marker8742)" stroke="#800000" stroke-width=".26458px"/>
 </g>
</svg>
