<svg width="91.324mm" height="112.95mm" version="1.1" viewBox="0 0 91.324 112.95" xmlns="http://www.w3.org/2000/svg">
 <defs>
  <marker id="marker7745" overflow="visible" orient="auto">
   <path transform="matrix(-.8 0 0 -.8 -10 0)" d="m0 0 5-5-17.5 5 17.5 5z" fill="#0f0" fill-rule="evenodd" stroke="#0f0" stroke-width="1pt"/>
  </marker>
  <marker id="Arrow1Lend" overflow="visible" orient="auto">
   <path transform="matrix(-.8 0 0 -.8 -10 0)" d="m0 0 5-5-17.5 5 17.5 5z" fill="#0f0" fill-rule="evenodd" stroke="#0f0" stroke-width="1pt"/>
  </marker>
 </defs>
 <g transform="translate(-41.626 -63.692)">
  <path class="shp0" d="m57.371 80.546c2.1636-3.0983 2.8166-3.8927 6.2745-6.4413 2.1868 1.7671 1.6267 1.3376 4.6478 3.8648-7.6689 7.5148-10.922 12.024-10.922 24.906z" fill="#999" stroke="#000" stroke-width=".44675" style="paint-order:stroke fill markers"/>
  <path class="shp1" d="m43.66 63.692h13.711v105.73h-13.711z" fill="#999" stroke-width=".31087"/>
  <path class="shp4" d="m50.631 98.11h0.46478v2.9459h-0.46478zm0 4.2085h0.46478v2.9459h-0.46478zm0 4.2085h0.46478v2.9459h-0.46478zm0 4.2085h0.46478v2.9459h-0.46478zm0 4.2085h0.46478v2.9459h-0.46478zm0-37.876h0.46478v2.9459h-0.46478zm0 4.2085h0.46478v2.9459h-0.46478zm0 4.2085h0.46478v2.9459h-0.46478zm0 4.2085h0.46478v2.9459h-0.46478zm0 4.2085h0.46478v2.9459h-0.46478zm0-29.459h0.46478v2.9459h-0.46478zm0 4.2085h0.46478v2.9459h-0.46478zm0 4.2085h0.46478v2.9459h-0.46478zm0 63.128h0.46478v2.9459h-0.46478zm0 4.2085h0.46478v2.9459h-0.46478zm0 4.2085h0.46478v2.9459h-0.46478zm0 4.2085h0.46478v2.9459h-0.46478zm0 4.2085h0.46478v2.9459h-0.46478zm0-33.667h0.46478v2.9459h-0.46478zm0 4.2085h0.46478v2.9459h-0.46478zm0 4.2085h0.46478v2.9459h-0.46478zm0 4.2085h0.46478v2.9459h-0.46478zm0 25.251h0.46478v2.9459h-0.46478zm0 4.2085h0.46478v2.946h-0.46478zm0 4.2085h0.46478v2.9459h-0.46478z" fill="#cc0" stroke-width=".31273"/>
  <path d="m57.126 103.12-1.9388-0.0485" fill="none" stroke="#000" stroke-dasharray="0.10662645, 0.10662645" stroke-width=".10663"/>
  <path d="m57.263 159.98c-1.5e-5 -8.4e-4 -4.64e-4 -4e-3 -5.13e-4 -6e-3 -4.98e-4 -0.0208-0.0024-0.0948-0.01232-0.13515-0.01106-0.0451-0.02611-0.0902-0.05184-0.12993-0.03848-0.0594-0.09345-0.10947-0.14936-0.15554-0.04666-0.0384-0.10121-0.0679-0.15346-0.0996-0.02101-0.0128-0.04065-0.0292-0.06467-0.036-0.0033-9.5e-4 -0.0063-2e-3 -0.0098-3e-3 -0.0023-0.74112-8e-3 -1.4822-0.02618-2.2231-0.01609-0.44485-0.25796-0.88125-0.66672-1.1248-0.13176-0.10437-0.28737-0.17105-0.45577-0.20107-0.50692-0.17351-1.0595-0.0994-1.5885-0.11523-0.4219-0.0147-0.84623 0.0671-1.2216 0.24374-0.3503 0.20534-0.66279 0.51231-0.72626 0.90479-0.12373 0.54987-0.05347 1.1162-0.07391 1.6735 6.75e-4 0.28106 4.67e-4 0.56208 5.13e-4 0.84314-0.0022 4.8e-4 -0.0041 1e-3 -0.0062 2e-3 -0.02402 7e-3 -0.04366 0.0233-0.06467 0.036-0.05226 0.0317-0.1068 0.0611-0.15346 0.0996-0.05591 0.0461-0.11087 0.0962-0.14936 0.15554-0.02573 0.0397-0.04078 0.0848-0.05184 0.12993-0.0099 0.0404-0.01182 0.11434-0.01232 0.13515-0.0021 9e-3 -2.77e-4 0.0194 0.0051 0.0261 0.0054 7e-3 0.01074 9e-3 0.0231 0.0104 0.01235 2e-3 0.01769-2e-5 0.04876-8e-3 0.03107-8e-3 0.08519-0.0257 0.13447-0.0451 0.04929-0.0194 0.11693-0.0516 0.15962-0.073 0.0273-0.0137 0.04793-0.0249 0.06672-0.0356-1.79e-4 0.36563-1.79e-4 0.73118-5.13e-4 1.0968-0.0018 1e-3 -0.0038 3e-3 -0.0056 4e-3 -0.0096 8e-3 -0.02238 0.0207-0.03131 0.0441-0.0089 0.0234-0.0064 0.0246-0.01027 0.0958-0.0038 0.0712-0.0025 0.25161 1e-3 0.30444 0.0035 0.0528 0.0044 0.0622 0.0154 0.0882 0.0089 0.021 0.01315 0.0366 0.03028 0.0398-1.54e-4 0.5571 5.39e-4 1.1145 0.0031 1.6716-0.0075 0.0205-0.0056 0.0251-0.0092 0.0929-0.0038 0.0712-0.0025 0.25209 1e-3 0.30491 0.0029 0.0436 0.0043 0.0577 0.01078 0.0759 0.0031 0.46026 0.0078 0.92065 0.01488 1.3809-8.21e-4 0.32185 0.21632 0.64168 0.55124 0.74973 0.73678 0.27594 1.5537 0.27096 2.3363 0.24279 0.51105-0.036 1.0487-0.097 1.49-0.35281 0.35145-0.22924 0.36185-0.67103 0.36031-1.0309 0.0038-0.33892 0.0053-0.67774 0.0062-1.0167 0.0017-0.0115 0.0031-0.0256 0.0046-0.0489 0.0035-0.0528 0.0049-0.23371 1e-3 -0.30491-0.0025-0.0467-0.0025-0.0624-0.0046-0.0749 1.29e-4 -0.43404-1e-3 -0.86811-1e-3 -1.3022-7.55e-4 -0.12897-0.0011-0.25799-0.0015-0.38695 0.01811-3e-3 0.02224-0.0189 0.03131-0.0403 0.01099-0.026 0.01188-0.0354 0.0154-0.0882 0.0035-0.0528 0.0049-0.23324 1e-3 -0.30444-0.0038-0.0712-0.0013-0.0724-0.01026-0.0958-0.0089-0.0234-0.02168-0.0357-0.03131-0.0441l-0.0072-6e-3c-5.06e-4 -0.36563-9.96e-4 -0.7312-0.0015-1.0968 0.01944 0.0112 0.04073 0.0226 0.06929 0.037 0.04269 0.0214 0.11034 0.0536 0.15962 0.073 0.04928 0.0194 0.10341 0.0375 0.13447 0.0451 0.03107 8e-3 0.0364 9e-3 0.04876 8e-3 0.01235-2e-3 0.01769-4e-3 0.0231-0.0104 0.0037-5e-3 0.0054-0.0107 0.0056-0.0171 5.2e-5 -1e-3 5.2e-5 -2e-3 0-3e-3zm-0.43832 1.2467c1.54e-4 0.0135 1.54e-4 0.0288-5.13e-4 0.0436-5.2e-5 -0.021 5.1e-5 -0.042 0-0.0631 2.82e-4 7e-3 4.41e-4 0.0136 5.13e-4 0.0195zm-0.18785 3.8321c0.0026 0.0944-0.01276 0.20095-0.04465 0.25844-0.07809 0.14076-0.19839 0.22518-0.368 0.25797-0.05536 0.0107-0.1358 0.0362-0.17913 0.0564-0.12887 0.0602-0.31519 0.11557-0.37108 0.11049l-0.05184-5e-3 0.04773-0.047c0.02618-0.0258 0.10144-0.0699 0.16732-0.0977 0.38138-0.16057 0.60351-0.375 0.7278-0.70182 0.01081-0.0284 0.01201-0.0282 0.03336-1e-3 0.02377 0.0298 0.0365 0.0958 0.03849 0.16929zm-0.03234-5.0821c2.05e-4 0.0306 7.7e-5 0.0655 0 0.10433-5.39e-4 0.25887-0.0067 0.69002-0.01694 1.1419l-0.0072 0.32247-0.21352 0.12566c-0.1172 0.069-0.2243 0.12749-0.23815 0.12993-0.02486 4e-3 -0.02481 3e-3 -0.0231-0.0972 9.54e-4 -0.056 0.0055-0.2019 0.01027-0.32388 0.01356-0.34459 0.07333-0.87596 0.13601-1.2116l0.02464-0.1342 0.07288-0.0431c0.03991-0.0238 0.1097-0.068 0.15552-0.0982 0.04582-0.0302 0.08809-0.0566 0.09393-0.0588 0.0029-1e-3 5e-3 0.0511 0.0056 0.14273zm-0.01181-3.025c-1e-6 0.0246 1.54e-4 0.0526 0 0.0844-0.0015 0.34252-0.03 0.40367-0.12575 0.27267-0.05532-0.0757-0.37565-0.56296-0.49991-0.76016-0.10564-0.16767-0.1665-0.23372-0.28434-0.30871-0.04744-0.0302-0.0968-0.076-0.11035-0.10243-0.02518-0.049-0.03255-0.12546-0.01386-0.14274 0.0058-5e-3 0.05222-0.01 0.10316-0.01 0.09894 0 0.17289 0.0278 0.34388 0.12803 0.1407 0.0825 0.33785 0.24301 0.41522 0.33811 0.03958 0.0487 0.09495 0.1425 0.12267 0.20865 0.04377 0.1045 0.04928 0.1196 0.04927 0.29212zm-0.02104 5.157c1.02e-4 0.0391-0.0015 0.10062-0.0041 0.19584-0.02177 0.79921-0.04089 1.319-0.04825 1.3254-0.01232 0.0107-0.21077 0.0403-0.27049 0.0403-0.09304 0-0.09041 7e-3 -0.10727-0.28974-0.01128-0.19837-0.03665-0.95015-0.03798-1.1291-1.29e-4 -0.0174 0.03726-0.0365 0.21557-0.11049 0.11854-0.0492 0.2246-0.0928 0.23558-0.0967 0.01187-4e-3 0.01677-6.7e-4 0.01694 0.0645zm-0.12421 1.9997c6.06e-4 0.0173-7.31e-4 0.0386-0.0031 0.0659-0.0092 0.10694-0.04815 0.36068-0.05748 0.37462-0.02004 0.03-0.07925-0.12422-0.12062-0.31298-0.03079-0.14048-0.03259-0.15682-0.01745-0.19158 0.01406-0.0323 0.05633-0.0387 0.12216-0.0185 0.05595 0.0172 0.07466 0.0308 0.07647 0.0825zm-0.09598-5.6602c0 0.0456-0.29956 1.3044-0.36236 1.5227-0.04234 0.14719-0.14126 0.41764-0.21967 0.60083-0.17842 0.41678-0.23918 0.62998-0.23918 0.84029 0 0.16009-0.0046 0.16934-0.15654 0.30065l-0.15654 0.13515h-1.5526l-0.15244-0.13183-0.15192-0.13136-0.01642-0.25512c-0.01272-0.20122-0.04077-0.3134-0.13293-0.53206-0.22967-0.54487-0.34165-0.89967-0.49427-1.5611-0.08516-0.36907-0.16212-0.70028-0.17091-0.73597-0.01288-0.0523 0.0069-0.0756 0.10265-0.12045 0.14717-0.069 0.65946-0.22065 0.89255-0.26413 0.5141-0.0959 1.4283-0.0884 1.879 0.0152 0.42033 0.0966 0.93156 0.27068 0.93156 0.31725zm-0.16168 6.7622c0.0043 0.0805-0.07099 0.10488-0.24893 0.19253-0.48395 0.23841-0.90076 0.31059-1.6681 0.28832-0.602-0.0175-0.83335-0.0648-1.2575-0.25749-0.3696-0.16794-0.37211-0.17234-0.24431-0.42015 0.05793-0.11234 0.13603-0.27998 0.17348-0.37226 0.03745-0.0923 0.07379-0.16787 0.08058-0.16787 0.0068 0 0.11017 0.0458 0.22994 0.10148 0.37591 0.1749 0.67473 0.23224 1.2015 0.23047 0.52735-2e-3 0.78929-0.0532 1.1682-0.22952 0.12534-0.0583 0.23161-0.10178 0.2361-0.0967 0.0045 5e-3 0.08802 0.17858 0.1858 0.38554 0.08827 0.18684 0.13988 0.2831 0.1432 0.34569zm-2.846-9.1812c0.0011 0.0116-0.0011 0.0259-0.0056 0.0436-0.02244 0.0867-0.03326 0.0994-0.14217 0.17261-0.12921 0.0868-0.17198 0.13631-0.30693 0.35186-0.19998 0.31943-0.49131 0.74899-0.51839 0.76443-0.05805 0.0331-0.06775-6e-3 -0.07134-0.3016-3e-3 -0.24384 5.67e-4 -0.2901 0.02669-0.3566 0.08734-0.2224 0.2503-0.39941 0.52147-0.56621 0.19958-0.12276 0.27254-0.15183 0.38135-0.15222 0.07973-2.9e-4 0.11168 9e-3 0.11497 0.0441zm-0.08263 9.708-0.04722 4e-3c-0.05472 5e-3 -0.2623-0.0562-0.36493-0.10812-0.03832-0.0194-0.11989-0.0451-0.18118-0.0569-0.26091-0.0503-0.42277-0.23647-0.4183-0.48037 8.88e-4 -0.0487 0.0065-0.10843 0.01283-0.13278 0.0063-0.0243 0.01929-0.057 0.02874-0.0726 0.01608-0.0266 0.01816-0.0255 0.03593 0.0152 0.08275 0.18938 0.15139 0.29356 0.25817 0.3936 0.12745 0.1194 0.24571 0.1945 0.46039 0.29163 0.08155 0.0369 0.16364 0.0845 0.18221 0.10623zm-0.47887-3.5072-0.0026 0.20676c-0.0031 0.25097-0.0218 0.74448-0.03798 1.0115-0.0096 0.1591-0.01516 0.19819-0.02977 0.20866-0.02483 0.0178-0.12288 0.0159-0.24226-5e-3l-0.10008-0.018-0.0077-0.0465c-0.0074-0.045-0.02465-0.58266-0.03952-1.231-0.0052-0.22464-0.0038-0.31769 0.0046-0.31487 0.0066 2e-3 0.11168 0.0455 0.23353 0.0963zm-0.0046-0.61078c2.05e-4 0.11132-0.0046 0.18352-0.01591 0.18352-0.01463 0-0.41207-0.22724-0.44037-0.2518-0.01395-0.0121-0.02144-0.27628-0.04003-1.4269l-0.0051-0.30112 0.06313 0.0422c0.03466 0.0234 0.10986 0.0705 0.16681 0.1048 0.06316 0.038 0.10565 0.0709 0.10881 0.0839 0.02828 0.11685 0.09268 0.56324 0.12164 0.84125 0.02554 0.24509 0.04071 0.5386 0.04106 0.72411zm-0.1355 2.4796c-6.47e-4 0.0429-0.01196 0.10378-0.03233 0.18684-0.05102 0.20804-0.10132 0.31312-0.11702 0.24374-0.01514-0.0669-0.04121-0.26345-0.04773-0.36087l-0.0067-0.1048 0.03695-0.0209c0.02035-0.0114 0.05665-0.0238 0.08058-0.0275 0.05988-9e-3 0.08731 0.012 0.08623 0.0835z" color="#000000" fill="#00f" stroke-width=".024667"/>
  <g transform="matrix(0 .029218 -.029218 0 77.573 133.86)" fill="#f95" stroke="#f60">
   <g fill="#f95" stroke="#f60">
    <path d="m217.14 686.5c-0.0357 6e-4 -0.14981 0.0181-0.24 0.02-0.87778 0.0194-3.9977 0.0945-5.7 0.48-1.9034 0.43104-3.8056 1.0175-5.48 2.02-2.5047 1.4996-4.6168 3.6414-6.56 5.82-1.6217 1.8182-2.8624 3.9437-4.2 5.98-0.53772 0.81863-1.2318 1.5839-1.52 2.52-0.0398 0.12911-0.093 0.24477-0.12 0.38-31.257 0.0882-62.513 0.31019-93.76 1.02-18.762 0.62707-37.167 10.052-47.44 25.98-4.4018 5.1342-7.2141 11.198-8.48 17.76-7.318 19.753-4.1911 41.284-4.86 61.9-0.62141 16.44 2.8314 32.975 10.28 47.6 8.6601 13.65 21.607 25.827 38.16 28.3 23.191 4.8213 47.076 2.0836 70.58 2.88 11.854-0.0263 23.706-0.0182 35.56-0.02 0.0203 0.0847 0.0548 0.15807 0.08 0.24 0.28824 0.93606 0.98228 1.7014 1.52 2.52 1.3376 2.0363 2.5783 4.1618 4.2 5.98 1.9432 2.1786 4.0553 4.3204 6.56 5.82 1.6744 1.0025 3.5766 1.589 5.48 2.02 1.7023 0.38547 4.8222 0.46069 5.7 0.48 0.39521 0.0811 0.81989 0.0108 1.1-0.2 0.28011-0.21079 0.36846-0.41857 0.44-0.9 0.0715-0.48141-6e-4 -0.68937-0.32-1.9-0.31915-1.2106-1.082-3.3195-1.9-5.24-0.81803-1.9205-2.1758-4.5565-3.08-6.22-0.57813-1.0637-1.048-1.8677-1.5-2.6 15.421 7e-3 30.838 7e-3 46.26 0.02 0.0542 0.0712 0.11147 0.14771 0.18 0.22 0.35576 0.37523 0.87286 0.87216 1.86 1.22 0.98715 0.34784 1.0368 0.25022 4.04 0.4 3.0032 0.14979 10.612 0.0969 12.84-0.04 2.2283-0.13693 2.6251-0.17186 3.72-0.6 0.88435-0.3458 1.5444-0.51239 1.68-1.18 23.496 6e-3 47.005-0.021 70.5-0.12 0.86375 0.29284 1.0588 0.21734 3.92 0.36 3.0029 0.14979 10.632 0.0969 12.86-0.04 1.8375-0.11291 2.4355-0.16667 3.2-0.42 19.412-0.12141 38.829-0.30509 58.24-0.58 13.574 0.032 27.063-8.4293 31.62-21.48 11.638-28.71 11.428-60.541 10.24-91.04-1.52-19.914-4.0893-40.864-14.88-58.06-9.6684-13.695-28.301-14.1-43.48-14.04-14.294-0.14953-28.584-0.20843-42.88-0.24-0.4857-0.0644-1.0783-0.11966-2.06-0.18-2.2283-0.13683-9.8571-0.18976-12.86-0.04-1.9711 0.0983-2.6331 0.0978-3.1601 0.18-18.306-5e-3 -36.613 0.0394-54.92 0.04-5.4394 0.0294-10.881 0.0422-16.32 0.06-0.11418-0.70563-0.79635-0.86663-1.7-1.22-1.0949-0.42816-1.4917-0.4631-3.72-0.6-2.2283-0.13689-9.8369-0.18982-12.84-0.04-3.0032 0.14976-3.0528 0.0522-4.04 0.4-0.98714 0.34784-1.5042 0.84477-1.86 1.22-0.0889 0.0938-0.17716 0.18699-0.24 0.28-15.421 0.0197-30.839 0.0388-46.26 0.06 0.47103-0.75771 0.95512-1.5871 1.56-2.7 0.90417-1.6636 2.262-4.2995 3.08-6.22 0.81803-1.9204 1.5808-4.0294 1.9-5.24 0.3194-1.2107 0.39154-1.4185 0.32-1.9-0.0715-0.48141-0.15989-0.68925-0.44-0.9-0.19148-0.14425-0.45165-0.21013-0.72-0.22-0.0456-2e-3 -0.0939-2e-3 -0.14 0zm52.58 17.08c0.56925-6e-3 1.2162-6e-3 1.84 0.02-0.88726 2e-3 -1.7727-2e-3 -2.66 0 0.28238-0.011 0.57178-0.0172 0.82-0.02zm161.62 7.32c3.9836-0.10006 8.4751 0.49707 10.9 1.74 5.9366 3.043 9.4971 7.7307 10.88 14.34 0.45127 2.1573 1.5267 5.2919 2.38 6.98 2.5384 5.0216 4.8743 12.282 4.66 14.46l-0.20006 2.02-1.98-1.86c-1.0881-1.0202-2.95-3.9526-4.12-6.52-6.7725-14.861-15.816-23.517-29.6-28.36-1.1994-0.42138-1.1905-0.46785-0.0602-1.3 1.2583-0.92616 4.0417-1.4222 7.14-1.5zm-214.34 1.26c1.2888-8e-3 2.7623-3e-3 4.4 0 10.918 0.021 29.102 0.26157 48.16 0.66l13.6 0.28 5.3 8.32c2.9112 4.5669 5.3768 8.7401 5.48 9.28 0.18515 0.96863 0.13594 0.96669-4.1 0.9-2.3609-0.0372-8.5154-0.213-13.66-0.4-14.533-0.52824-36.944-2.8573-51.1-5.3l-5.66-0.96-1.82-2.84c-1.0021-1.5553-2.8663-4.2745-4.14-6.06-1.2737-1.7855-2.3873-3.4326-2.48-3.66-0.0463-0.11365 2.1537-0.19541 6.02-0.22zm-127.58 0.46c1.0394 5e-5 2.2193-6e-3 3.56 0 14.446 0.0595 17.025 1.1689 11.5 4.9-3.1921 2.1556-23.743 14.638-32.06 19.48-7.0716 4.1166-9.8572 6.4878-13.02 11.08-1.2731 1.8484-3.2068 3.7718-4.32 4.3-2.0674 0.98104-5.2915 1.2685-6.02 0.54-0.2256-0.2256-0.42-2.0348-0.42-4.02 0-3.8555 1.1713-6.7369 5.4-13.4 3.4796-5.4828 10.249-13.165 14.26-16.18 2.0517-1.5423 6.0099-3.7001 8.8-4.78 4.4071-1.7057 5.0439-1.9203 12.32-1.92zm217.5 0.82c1.649-4e-3 4.2441 0.059 8.26 0.16 33.707 0.84835 55.631 1.5933 55.9 1.88 0.45107 0.48013 1.7 8.2131 1.7 10.54 0 3.6255 0.2832 3.5231-12.22 4.18-8.3664 0.43955-40.073 1.428-47.62 1.48-0.73446 5e-3 -1.5411-1.4521-4.66-8.4-2.0735-4.6193-3.9156-8.7518-4.08-9.18-0.17735-0.46263-0.0282-0.65358 2.72-0.66zm84.34 4.84c0.72762-0.0236 1.6291 0.0285 2.78 0.12 4.5105 0.35861 15.212 1.8764 15.8 2.24 1.2634 0.78093-5.2392 3.0881-13.2 4.7-5.9252 1.1997-6.614 1.27-8.08 0.68-1.3621-0.54802-1.6319-2.1951-0.78003-4.76 0.7241-2.1802 1.2972-2.9092 3.48-2.98zm-238.72 3.74c1.925 0 55.013 11.673 64.22 14.12 6.2075 1.6499 17.614 5.5045 25.34 8.56 17.578 6.9523 26.57 9.32 35.44 9.32 6.7519 0 7.1418 0.17929 12.68 6.1l5.7 6.1v30.24 30.26l-5.56 5.94-5.54 5.92-10.76 0.64c-8.4866 0.49582-13.218 1.5887-22.44 5.18-22.98 8.9494-37.944 13.313-65.84 19.26-15.566 3.3183-29.535 6.3172-31.04 6.66-2.2039 0.50201-3.1879-0.27063-5.08-4-2.9094-5.7346-9.306-25.697-11.14-34.78-4.0447-20.033-3.7272-55.656 0.64-73.22 4.0727-16.379 11.416-36.3 13.38-36.3zm285.2 6.3c3.3947-0.16631 4.4232 2.7662 8.12 9.7 10.055 18.858 13.099 35.1 12.16 65-0.7367 23.458-2.7319 32.473-10.86 49-7.0826 14.402-7.2684 14.5-17.72 9.52-4.7377-2.2573-11.808-5.3008-15.7-6.76s-7.08-2.8754-7.08-3.14 1.9299-4.2931 4.28-8.96c7.3764-14.648 9.7945-26.292 9.72-46.82-0.0746-20.549-2.2448-30.756-9.68-45.52-2.4597-4.8843-4.2926-9.025-4.08-9.2 0.21267-0.17501 7.5317-3.4299 16.26-7.24 7.8802-3.4397 11.94-5.4506 14.58-5.58zm-387.22 110.9c0.48822-0.0427 1.0925 0.0414 1.84 0.22 3.6588 0.87423 4.1932 1.2961 7.28 5.54 3.6622 5.035 5.749 6.7014 14.84 11.96 13.472 7.7926 31.589 19.145 32.24 20.2 1.3948 2.2619-0.26505 2.6402-12.72 2.78-10.284 0.11546-12.235-0.0221-15.04-1.04-9.3796-3.4034-16.845-9.7532-23.88-20.32-5.1775-7.7769-6.4035-10.62-6.42-14.86-0.01216-3.107 0.39534-4.352 1.86-4.48zm409.44 3.22 0.18003 1.84c0.21709 2.1323-2.3699 10.221-4.56 14.22-0.81773 1.4933-1.9021 4.6719-2.4 7.06-2.1198 10.167-9.9732 16.474-20.26 16.3-2.0535-0.0346-4.5732-0.25391-5.6-0.5-1.0267-0.24609-2.4022-0.75186-3.06-1.12-1.1195-0.62647-1.0751-0.7076 0.64-1.4 7.9869-3.2245 12.381-5.8991 16.6-10.06 5.0361-4.9665 8.2035-9.5746 12.3-17.94 1.5561-3.1777 3.5646-6.3766 4.48-7.1zm-147.92 18.66 8.72 0.1c10.585 0.11951 31.399 0.84934 42.66 1.48 6.7099 0.3758 8.3586 0.59064 8.8 1.16 0.75008 0.96743 0.67104 4.7881-0.21997 9.44l-0.76006 3.9-1.9599 0.3c-1.8991 0.28723-24.574 0.96055-51.92 1.54-9.4745 0.20075-13.399 0.14826-13.28-0.18 0.0927-0.25608 1.9199-4.3517 4.06-9.1zm-25.76 0.18c4.6947-8e-3 7.74 0.17931 7.74 0.62 0 0.57002-9.5838 16.057-10.62 17.16-0.51059 0.54346-11.652 0.83563-60.18 1.56l-12.7 0.2 1.78-2.46c0.9853-1.3508 2.9755-4.2807 4.42-6.5 1.6018-2.461 2.9892-4.1169 3.54-4.24 4.9283-1.1018 23.755-3.6113 35.48-4.74 10.337-0.99511 22.716-1.5863 30.54-1.6zm104.58 5.28c1.809 0.0252 4.377 0.46624 7.88 1.26 8.7743 1.9882 13.206 3.9481 10.28 4.56-2.8204 0.58983-11.111 1.6058-15.22 1.86l-4.42 0.26-0.88-1.44c-0.48224-0.79289-1.0024-2.2077-1.16-3.14-0.39418-2.3334 0.50496-3.402 3.52-3.36z" color="#000000" stroke-width=".1"/>
   </g>
  </g>
  <path d="m54.549 155.69c-0.33678-3.8168-6.1743-2.0207-7.2968-6.6233-1.1226-4.6026-0.5613-8.5317-0.78581-10.777-0.22452-2.2452-1.6839-16.278 0-18.523 1.6839-2.2452 7.0723-6.7356 7.2968-7.7459s-0.67356-15.38 0.33678-18.186c1.0103-2.8065 0-5.2762 3.7046-9.3175 3.7046-4.0413 6.9601-7.0723 6.9601-7.0723" fill="none" marker-end="url(#Arrow1Lend)" stroke="#0f0" stroke-width=".26458"/>
  <text transform="scale(.99811 1.0019)" x="41.211075" y="175.21596" fill="#000000" font-family="sans-serif" font-size="5.2376px" letter-spacing="0px" stroke-width=".13094" word-spacing="0px" style="line-height:1.25" xml:space="preserve"><tspan x="41.211075" y="175.21596" stroke-width=".13094">large tta</tspan></text>
  <g transform="translate(0 2.5888)">
   <path class="shp0" d="m121.7 78.975c2.1636-3.0983 2.8166-3.8927 6.2745-6.4413 2.1868 1.7671 1.6267 1.3376 4.6478 3.8648-7.6689 7.5148-10.922 12.024-10.922 24.906z" fill="#999" stroke="#000" stroke-width=".44675" style="paint-order:stroke fill markers"/>
   <path class="shp1" d="m107.98 62.12h13.711v105.73h-13.711z" fill="#999" stroke-width=".31087"/>
   <path class="shp4" d="m114.96 96.538h0.46478v2.9459h-0.46478zm0 4.2085h0.46478v2.9459h-0.46478zm0 4.2085h0.46478v2.9459h-0.46478zm0 4.2085h0.46478v2.9459h-0.46478zm0 4.2085h0.46478v2.9459h-0.46478zm0-37.876h0.46478v2.9459h-0.46478zm0 4.2085h0.46478v2.9459h-0.46478zm0 4.2085h0.46478v2.9459h-0.46478zm0 4.2085h0.46478v2.9459h-0.46478zm0 4.2085h0.46478v2.9459h-0.46478zm0-29.459h0.46478v2.9459h-0.46478zm0 4.2085h0.46478v2.9459h-0.46478zm0 4.2085h0.46478v2.9459h-0.46478zm0 63.128h0.46478v2.9459h-0.46478zm0 4.2085h0.46478v2.9459h-0.46478zm0 4.2085h0.46478v2.9459h-0.46478zm0 4.2085h0.46478v2.9459h-0.46478zm0 4.2085h0.46478v2.9459h-0.46478zm0-33.667h0.46478v2.9459h-0.46478zm0 4.2085h0.46478v2.9459h-0.46478zm0 4.2085h0.46478v2.9459h-0.46478zm0 4.2085h0.46478v2.9459h-0.46478zm0 25.251h0.46478v2.9459h-0.46478zm0 4.2085h0.46478v2.946h-0.46478zm0 4.2085h0.46478v2.9459h-0.46478z" fill="#cc0" stroke-width=".31273"/>
   <path d="m121.45 101.54-1.9388-0.0485" fill="none" stroke="#000" stroke-dasharray="0.10662645, 0.10662645" stroke-width=".10663"/>
   <path d="m121.06 128.95c-1e-5 -8.4e-4 -4.6e-4 -4e-3 -5.1e-4 -6e-3 -5e-4 -0.0208-2e-3 -0.0948-0.0123-0.13515-0.0111-0.0451-0.0261-0.0902-0.0518-0.12993-0.0385-0.0594-0.0935-0.10947-0.14936-0.15554-0.0467-0.0384-0.10121-0.0679-0.15346-0.0996-0.021-0.0128-0.0406-0.0292-0.0647-0.036-3e-3 -9.5e-4 -6e-3 -2e-3 -0.01-3e-3 -2e-3 -0.74112-8e-3 -1.4822-0.0262-2.2231-0.0161-0.44485-0.25797-0.88125-0.66672-1.1248-0.13176-0.10437-0.28738-0.17105-0.45578-0.20107-0.50691-0.17351-1.0595-0.0994-1.5885-0.11523-0.4219-0.0147-0.84624 0.0671-1.2216 0.24374-0.35029 0.20534-0.66279 0.51231-0.72625 0.90479-0.12373 0.54987-0.0535 1.1162-0.0739 1.6735 6.7e-4 0.28106 4.6e-4 0.56208 5.1e-4 0.84314-2e-3 4.8e-4 -4e-3 1e-3 -6e-3 2e-3 -0.024 7e-3 -0.0437 0.0233-0.0647 0.036-0.0523 0.0317-0.1068 0.0611-0.15346 0.0996-0.0559 0.0461-0.11088 0.0962-0.14936 0.15554-0.0257 0.0397-0.0408 0.0848-0.0518 0.12993-0.01 0.0404-0.0118 0.11434-0.0123 0.13515-2e-3 9e-3 -2.8e-4 0.0194 5e-3 0.0261 5e-3 7e-3 0.0107 9e-3 0.0231 0.0104 0.0123 2e-3 0.0177-2e-5 0.0488-8e-3 0.0311-8e-3 0.0852-0.0257 0.13447-0.0451 0.0493-0.0194 0.11693-0.0516 0.15962-0.073 0.0273-0.0137 0.0479-0.0249 0.0667-0.0356-1.7e-4 0.36563-1.7e-4 0.73118-5.1e-4 1.0968-2e-3 1e-3 -4e-3 3e-3 -6e-3 4e-3 -0.01 8e-3 -0.0224 0.0207-0.0313 0.0441-9e-3 0.0234-6e-3 0.0246-0.0103 0.0958-4e-3 0.0712-2e-3 0.25161 1e-3 0.30444 4e-3 0.0528 4e-3 0.0622 0.0154 0.0882 9e-3 0.021 0.0132 0.0366 0.0303 0.0398-1.5e-4 0.5571 5.4e-4 1.1145 3e-3 1.6716-8e-3 0.0205-6e-3 0.0251-9e-3 0.0929-4e-3 0.0712-2e-3 0.25209 1e-3 0.30491 3e-3 0.0436 4e-3 0.0577 0.0108 0.0759 3e-3 0.46026 8e-3 0.92065 0.0149 1.3809-8.2e-4 0.32185 0.21632 0.64168 0.55124 0.74973 0.73678 0.27594 1.5536 0.27096 2.3363 0.24279 0.51105-0.036 1.0487-0.097 1.49-0.35281 0.35145-0.22924 0.36184-0.67103 0.3603-1.0309 4e-3 -0.33892 5e-3 -0.67774 6e-3 -1.0167 2e-3 -0.0115 3e-3 -0.0256 5e-3 -0.0489 4e-3 -0.0528 5e-3 -0.23371 1e-3 -0.30491-2e-3 -0.0467-2e-3 -0.0624-5e-3 -0.0749 1.3e-4 -0.43404-1e-3 -0.86811-1e-3 -1.3022-7.5e-4 -0.12897-1e-3 -0.25799-1e-3 -0.38695 0.0181-3e-3 0.0222-0.0189 0.0313-0.0403 0.011-0.026 0.0119-0.0354 0.0154-0.0882 4e-3 -0.0528 5e-3 -0.23324 1e-3 -0.30444s-1e-3 -0.0724-0.0103-0.0958c-9e-3 -0.0234-0.0217-0.0357-0.0313-0.0441-2e-3 -2e-3 -5e-3 -4e-3 -7e-3 -6e-3 -5e-4 -0.36563-9.9e-4 -0.7312-1e-3 -1.0968 0.0194 0.0112 0.0407 0.0226 0.0693 0.037 0.0427 0.0214 0.11034 0.0536 0.15963 0.073 0.0493 0.0194 0.1034 0.0375 0.13447 0.0451 0.0311 8e-3 0.0364 9e-3 0.0488 8e-3 0.0123-2e-3 0.0177-4e-3 0.0231-0.0104 4e-3 -5e-3 5e-3 -0.0107 6e-3 -0.0171 5e-5 -1e-3 5e-5 -2e-3 0-3e-3zm-0.43832 1.2467c1.5e-4 0.0135 1.5e-4 0.0288-5.1e-4 0.0436-5e-5 -0.021 5e-5 -0.042 0-0.0631 2.8e-4 7e-3 4.4e-4 0.0136 5.1e-4 0.0195zm-0.18785 3.8321c3e-3 0.0944-0.0128 0.20095-0.0446 0.25844-0.0781 0.14076-0.19839 0.22518-0.36801 0.25797-0.0554 0.0107-0.1358 0.0362-0.17912 0.0564-0.12887 0.0602-0.31519 0.11557-0.37109 0.11049l-0.0518-5e-3 0.0477-0.047c0.0262-0.0258 0.10144-0.0699 0.16732-0.0977 0.38138-0.16057 0.60352-0.375 0.7278-0.70182 0.0108-0.0284 0.012-0.0282 0.0334-1e-3 0.0238 0.0298 0.0365 0.0958 0.0385 0.16929zm-0.0323-5.0821c2e-4 0.0306 8e-5 0.0655 0 0.10433-5.4e-4 0.25887-7e-3 0.69002-0.0169 1.1419l-7e-3 0.32247-0.21352 0.12566c-0.1172 0.069-0.22429 0.12749-0.23815 0.12993-0.0249 4e-3 -0.0248 3e-3 -0.0231-0.0972 9.6e-4 -0.056 5e-3 -0.2019 0.0103-0.32388 0.0136-0.34459 0.0733-0.87596 0.13602-1.2116l0.0246-0.1342 0.0729-0.0431c0.0399-0.0238 0.10969-0.068 0.15551-0.0982 0.0458-0.0302 0.0881-0.0566 0.0939-0.0588 3e-3 -1e-3 5e-3 0.0511 6e-3 0.14273zm-0.0118-3.025c0 0.0246 1.5e-4 0.0526 0 0.0844-1e-3 0.34252-0.03 0.40367-0.12575 0.27267-0.0553-0.0757-0.37565-0.56296-0.49991-0.76016-0.10564-0.16767-0.1665-0.23372-0.28435-0.30871-0.0474-0.0302-0.0968-0.076-0.11035-0.10243-0.0252-0.049-0.0326-0.12546-0.0139-0.14274 6e-3 -5e-3 0.0522-0.01 0.10317-0.01 0.0989 0 0.17289 0.0278 0.34388 0.12803 0.14071 0.0825 0.33785 0.24301 0.41523 0.33811 0.0396 0.0487 0.0949 0.1425 0.12266 0.20865 0.0438 0.1045 0.0493 0.1196 0.0493 0.29212zm-0.021 5.157c1e-4 0.0391-1e-3 0.10062-4e-3 0.19584-0.0218 0.79921-0.0409 1.319-0.0482 1.3254-0.0123 0.0107-0.21077 0.0403-0.27049 0.0403-0.093 0-0.0904 7e-3 -0.10727-0.28974-0.0113-0.19837-0.0366-0.95015-0.038-1.1291-1.3e-4 -0.0174 0.0373-0.0365 0.21557-0.11049 0.11854-0.0492 0.2246-0.0928 0.23558-0.0967 0.0119-4e-3 0.0168-6.7e-4 0.0169 0.0645zm-0.12421 1.9997c6.1e-4 0.0173-7.3e-4 0.0386-3e-3 0.0659-9e-3 0.10694-0.0481 0.36068-0.0575 0.37462-0.02 0.03-0.0793-0.12422-0.12062-0.31298-0.0308-0.14048-0.0326-0.15682-0.0174-0.19158 0.0141-0.0323 0.0563-0.0387 0.12216-0.0185 0.056 0.0172 0.0747 0.0308 0.0765 0.0825zm-0.096-5.6602c0 0.0456-0.29956 1.3044-0.36236 1.5227-0.0423 0.14719-0.14126 0.41764-0.21967 0.60083-0.17842 0.41678-0.23918 0.62998-0.23918 0.84029 0 0.16009-5e-3 0.16934-0.15654 0.30065l-0.15655 0.13515h-1.5526l-0.15244-0.13183-0.15192-0.13136-0.0164-0.25512c-0.0127-0.20122-0.0408-0.3134-0.13293-0.53206-0.22967-0.54487-0.34165-0.89967-0.49427-1.5611-0.0852-0.36907-0.16212-0.70028-0.17091-0.73597-0.0129-0.0523 7e-3 -0.0756 0.10265-0.12045 0.14716-0.069 0.65946-0.22065 0.89255-0.26413 0.5141-0.0959 1.4283-0.0884 1.879 0.0152 0.42033 0.0966 0.93156 0.27068 0.93156 0.31725zm-0.16168 6.7622c4e-3 0.0805-0.071 0.10488-0.24893 0.19253-0.48394 0.23841-0.90076 0.31059-1.6681 0.28832-0.602-0.0175-0.83335-0.0648-1.2575-0.25749-0.36959-0.16794-0.37211-0.17234-0.24431-0.42015 0.0579-0.11234 0.13604-0.27998 0.17348-0.37226 0.0375-0.0923 0.0738-0.16787 0.0806-0.16787 7e-3 0 0.11018 0.0458 0.22994 0.10148 0.37591 0.1749 0.67473 0.23224 1.2015 0.23047 0.52734-2e-3 0.78928-0.0532 1.1682-0.22952 0.12534-0.0583 0.2316-0.10178 0.2361-0.0967 5e-3 5e-3 0.088 0.17858 0.18579 0.38554 0.0883 0.18684 0.13988 0.2831 0.1432 0.34569zm-2.846-9.1812c1e-3 0.0116-1e-3 0.0259-6e-3 0.0436-0.0224 0.0867-0.0333 0.0994-0.14218 0.17261-0.12921 0.0868-0.17197 0.13631-0.30692 0.35186-0.19998 0.31943-0.49132 0.74899-0.51839 0.76443-0.058 0.0331-0.0678-6e-3 -0.0713-0.3016-3e-3 -0.24384 5.6e-4 -0.2901 0.0267-0.3566 0.0873-0.2224 0.25029-0.39941 0.52147-0.56621 0.19957-0.12276 0.27254-0.15183 0.38135-0.15222 0.0797-2.9e-4 0.11168 9e-3 0.11497 0.0441zm-0.0826 9.708-0.0472 4e-3c-0.0547 5e-3 -0.2623-0.0562-0.36493-0.10812-0.0383-0.0194-0.11989-0.0451-0.18118-0.0569-0.26091-0.0503-0.42277-0.23647-0.4183-0.48037 8.9e-4 -0.0487 6e-3 -0.10843 0.0128-0.13278 6e-3 -0.0243 0.0193-0.057 0.0287-0.0726 0.0161-0.0266 0.0182-0.0255 0.0359 0.0152 0.0828 0.18938 0.15139 0.29356 0.25817 0.3936 0.12745 0.1194 0.24571 0.1945 0.46039 0.29163 0.0815 0.0369 0.16364 0.0845 0.1822 0.10623zm-0.47887-3.5072-3e-3 0.20676c-3e-3 0.25097-0.0218 0.74448-0.038 1.0115-0.01 0.1591-0.0152 0.19819-0.0298 0.20866-0.0248 0.0178-0.12288 0.0159-0.24226-5e-3l-0.10008-0.018-8e-3 -0.0465c-7e-3 -0.045-0.0247-0.58266-0.0395-1.231-5e-3 -0.22464-4e-3 -0.31769 5e-3 -0.31487 7e-3 2e-3 0.11167 0.0455 0.23353 0.0963zm-5e-3 -0.61078c2e-4 0.11132-5e-3 0.18352-0.0159 0.18352-0.0146 0-0.41207-0.22724-0.44038-0.2518-0.0139-0.0121-0.0214-0.27628-0.04-1.4269l-5e-3 -0.30112 0.0631 0.0422c0.0347 0.0234 0.10986 0.0705 0.16681 0.1048 0.0632 0.038 0.10565 0.0709 0.10881 0.0839 0.0283 0.11685 0.0927 0.56324 0.12164 0.84125 0.0255 0.24509 0.0407 0.5386 0.0411 0.72411zm-0.1355 2.4796c-6.5e-4 0.0429-0.012 0.10378-0.0323 0.18684-0.051 0.20804-0.10132 0.31312-0.11702 0.24374-0.0151-0.0669-0.0412-0.26345-0.0477-0.36087l-7e-3 -0.1048 0.0369-0.0209c0.0204-0.0114 0.0567-0.0238 0.0806-0.0275 0.0599-9e-3 0.0873 0.012 0.0862 0.0835z" color="#000000" fill="#00f" stroke-width=".024667"/>
   <g transform="matrix(0 .029218 -.029218 0 141.93 105.1)" fill="#f95" stroke="#f60">
    <g fill="#f95" stroke="#f60">
     <path d="m217.14 686.5c-0.0357 6e-4 -0.14981 0.0181-0.24 0.02-0.87778 0.0194-3.9977 0.0945-5.7 0.48-1.9034 0.43104-3.8056 1.0175-5.48 2.02-2.5047 1.4996-4.6168 3.6414-6.56 5.82-1.6217 1.8182-2.8624 3.9437-4.2 5.98-0.53772 0.81863-1.2318 1.5839-1.52 2.52-0.0398 0.12911-0.093 0.24477-0.12 0.38-31.257 0.0882-62.513 0.31019-93.76 1.02-18.762 0.62707-37.167 10.052-47.44 25.98-4.4018 5.1342-7.2141 11.198-8.48 17.76-7.318 19.753-4.1911 41.284-4.86 61.9-0.62141 16.44 2.8314 32.975 10.28 47.6 8.6601 13.65 21.607 25.827 38.16 28.3 23.191 4.8213 47.076 2.0836 70.58 2.88 11.854-0.0263 23.706-0.0182 35.56-0.02 0.0203 0.0847 0.0548 0.15807 0.08 0.24 0.28824 0.93606 0.98228 1.7014 1.52 2.52 1.3376 2.0363 2.5783 4.1618 4.2 5.98 1.9432 2.1786 4.0553 4.3204 6.56 5.82 1.6744 1.0025 3.5766 1.589 5.48 2.02 1.7023 0.38547 4.8222 0.46069 5.7 0.48 0.39521 0.0811 0.81989 0.0108 1.1-0.2 0.28011-0.21079 0.36846-0.41857 0.44-0.9 0.0715-0.48141-6e-4 -0.68937-0.32-1.9-0.31915-1.2106-1.082-3.3195-1.9-5.24-0.81803-1.9205-2.1758-4.5565-3.08-6.22-0.57813-1.0637-1.048-1.8677-1.5-2.6 15.421 7e-3 30.838 7e-3 46.26 0.02 0.0542 0.0712 0.11147 0.14771 0.18 0.22 0.35576 0.37523 0.87286 0.87216 1.86 1.22 0.98715 0.34784 1.0368 0.25022 4.04 0.4 3.0032 0.14979 10.612 0.0969 12.84-0.04 2.2283-0.13693 2.6251-0.17186 3.72-0.6 0.88435-0.3458 1.5444-0.51239 1.68-1.18 23.496 6e-3 47.005-0.021 70.5-0.12 0.86375 0.29284 1.0588 0.21734 3.92 0.36 3.0029 0.14979 10.632 0.0969 12.86-0.04 1.8375-0.11291 2.4355-0.16667 3.2-0.42 19.412-0.12141 38.829-0.30509 58.24-0.58 13.574 0.032 27.063-8.4293 31.62-21.48 11.638-28.71 11.428-60.541 10.24-91.04-1.52-19.914-4.0893-40.864-14.88-58.06-9.6684-13.695-28.301-14.1-43.48-14.04-14.294-0.14953-28.584-0.20843-42.88-0.24-0.4857-0.0644-1.0783-0.11966-2.06-0.18-2.2283-0.13683-9.8571-0.18976-12.86-0.04-1.9711 0.0983-2.6331 0.0978-3.1601 0.18-18.306-5e-3 -36.613 0.0394-54.92 0.04-5.4394 0.0294-10.881 0.0422-16.32 0.06-0.11418-0.70563-0.79635-0.86663-1.7-1.22-1.0949-0.42816-1.4917-0.4631-3.72-0.6-2.2283-0.13689-9.8369-0.18982-12.84-0.04-3.0032 0.14976-3.0528 0.0522-4.04 0.4-0.98714 0.34784-1.5042 0.84477-1.86 1.22-0.0889 0.0938-0.17716 0.18699-0.24 0.28-15.421 0.0197-30.839 0.0388-46.26 0.06 0.47103-0.75771 0.95512-1.5871 1.56-2.7 0.90417-1.6636 2.262-4.2995 3.08-6.22 0.81803-1.9204 1.5808-4.0294 1.9-5.24 0.3194-1.2107 0.39154-1.4185 0.32-1.9-0.0715-0.48141-0.15989-0.68925-0.44-0.9-0.19148-0.14425-0.45165-0.21013-0.72-0.22-0.0456-2e-3 -0.0939-2e-3 -0.14 0zm52.58 17.08c0.56925-6e-3 1.2162-6e-3 1.84 0.02-0.88726 2e-3 -1.7727-2e-3 -2.66 0 0.28238-0.011 0.57178-0.0172 0.82-0.02zm161.62 7.32c3.9836-0.10006 8.4751 0.49707 10.9 1.74 5.9366 3.043 9.4971 7.7307 10.88 14.34 0.45127 2.1573 1.5267 5.2919 2.38 6.98 2.5384 5.0216 4.8743 12.282 4.66 14.46l-0.20006 2.02-1.98-1.86c-1.0881-1.0202-2.95-3.9526-4.12-6.52-6.7725-14.861-15.816-23.517-29.6-28.36-1.1994-0.42138-1.1905-0.46785-0.0602-1.3 1.2583-0.92616 4.0417-1.4222 7.14-1.5zm-214.34 1.26c1.2888-8e-3 2.7623-3e-3 4.4 0 10.918 0.021 29.102 0.26157 48.16 0.66l13.6 0.28 5.3 8.32c2.9112 4.5669 5.3768 8.7401 5.48 9.28 0.18515 0.96863 0.13594 0.96669-4.1 0.9-2.3609-0.0372-8.5154-0.213-13.66-0.4-14.533-0.52824-36.944-2.8573-51.1-5.3l-5.66-0.96-1.82-2.84c-1.0021-1.5553-2.8663-4.2745-4.14-6.06-1.2737-1.7855-2.3873-3.4326-2.48-3.66-0.0463-0.11365 2.1537-0.19541 6.02-0.22zm-127.58 0.46c1.0394 5e-5 2.2193-6e-3 3.56 0 14.446 0.0595 17.025 1.1689 11.5 4.9-3.1921 2.1556-23.743 14.638-32.06 19.48-7.0716 4.1166-9.8572 6.4878-13.02 11.08-1.2731 1.8484-3.2068 3.7718-4.32 4.3-2.0674 0.98104-5.2915 1.2685-6.02 0.54-0.2256-0.2256-0.42-2.0348-0.42-4.02 0-3.8555 1.1713-6.7369 5.4-13.4 3.4796-5.4828 10.249-13.165 14.26-16.18 2.0517-1.5423 6.0099-3.7001 8.8-4.78 4.4071-1.7057 5.0439-1.9203 12.32-1.92zm217.5 0.82c1.649-4e-3 4.2441 0.059 8.26 0.16 33.707 0.84835 55.631 1.5933 55.9 1.88 0.45107 0.48013 1.7 8.2131 1.7 10.54 0 3.6255 0.2832 3.5231-12.22 4.18-8.3664 0.43955-40.073 1.428-47.62 1.48-0.73446 5e-3 -1.5411-1.4521-4.66-8.4-2.0735-4.6193-3.9156-8.7518-4.08-9.18-0.17735-0.46263-0.0282-0.65358 2.72-0.66zm84.34 4.84c0.72762-0.0236 1.6291 0.0285 2.78 0.12 4.5105 0.35861 15.212 1.8764 15.8 2.24 1.2634 0.78093-5.2392 3.0881-13.2 4.7-5.9252 1.1997-6.614 1.27-8.08 0.68-1.3621-0.54802-1.6319-2.1951-0.78003-4.76 0.7241-2.1802 1.2972-2.9092 3.48-2.98zm-238.72 3.74c1.925 0 55.013 11.673 64.22 14.12 6.2075 1.6499 17.614 5.5045 25.34 8.56 17.578 6.9523 26.57 9.32 35.44 9.32 6.7519 0 7.1418 0.17929 12.68 6.1l5.7 6.1v30.24 30.26l-5.56 5.94-5.54 5.92-10.76 0.64c-8.4866 0.49582-13.218 1.5887-22.44 5.18-22.98 8.9494-37.944 13.313-65.84 19.26-15.566 3.3183-29.535 6.3172-31.04 6.66-2.2039 0.50201-3.1879-0.27063-5.08-4-2.9094-5.7346-9.306-25.697-11.14-34.78-4.0447-20.033-3.7272-55.656 0.64-73.22 4.0727-16.379 11.416-36.3 13.38-36.3zm285.2 6.3c3.3947-0.16631 4.4232 2.7662 8.12 9.7 10.055 18.858 13.099 35.1 12.16 65-0.7367 23.458-2.7319 32.473-10.86 49-7.0826 14.402-7.2684 14.5-17.72 9.52-4.7377-2.2573-11.808-5.3008-15.7-6.76s-7.08-2.8754-7.08-3.14 1.9299-4.2931 4.28-8.96c7.3764-14.648 9.7945-26.292 9.72-46.82-0.0746-20.549-2.2448-30.756-9.68-45.52-2.4597-4.8843-4.2926-9.025-4.08-9.2 0.21267-0.17501 7.5317-3.4299 16.26-7.24 7.8802-3.4397 11.94-5.4506 14.58-5.58zm-387.22 110.9c0.48822-0.0427 1.0925 0.0414 1.84 0.22 3.6588 0.87423 4.1932 1.2961 7.28 5.54 3.6622 5.035 5.749 6.7014 14.84 11.96 13.472 7.7926 31.589 19.145 32.24 20.2 1.3948 2.2619-0.26505 2.6402-12.72 2.78-10.284 0.11546-12.235-0.0221-15.04-1.04-9.3796-3.4034-16.845-9.7532-23.88-20.32-5.1775-7.7769-6.4035-10.62-6.42-14.86-0.01216-3.107 0.39534-4.352 1.86-4.48zm409.44 3.22 0.18003 1.84c0.21709 2.1323-2.3699 10.221-4.56 14.22-0.81773 1.4933-1.9021 4.6719-2.4 7.06-2.1198 10.167-9.9732 16.474-20.26 16.3-2.0535-0.0346-4.5732-0.25391-5.6-0.5-1.0267-0.24609-2.4022-0.75186-3.06-1.12-1.1195-0.62647-1.0751-0.7076 0.64-1.4 7.9869-3.2245 12.381-5.8991 16.6-10.06 5.0361-4.9665 8.2035-9.5746 12.3-17.94 1.5561-3.1777 3.5646-6.3766 4.48-7.1zm-147.92 18.66 8.72 0.1c10.585 0.11951 31.399 0.84934 42.66 1.48 6.7099 0.3758 8.3586 0.59064 8.8 1.16 0.75008 0.96743 0.67104 4.7881-0.21997 9.44l-0.76006 3.9-1.9599 0.3c-1.8991 0.28723-24.574 0.96055-51.92 1.54-9.4745 0.20075-13.399 0.14826-13.28-0.18 0.0927-0.25608 1.9199-4.3517 4.06-9.1zm-25.76 0.18c4.6947-8e-3 7.74 0.17931 7.74 0.62 0 0.57002-9.5838 16.057-10.62 17.16-0.51059 0.54346-11.652 0.83563-60.18 1.56l-12.7 0.2 1.78-2.46c0.9853-1.3508 2.9755-4.2807 4.42-6.5 1.6018-2.461 2.9892-4.1169 3.54-4.24 4.9283-1.1018 23.755-3.6113 35.48-4.74 10.337-0.99511 22.716-1.5863 30.54-1.6zm104.58 5.28c1.809 0.0252 4.377 0.46624 7.88 1.26 8.7743 1.9882 13.206 3.9481 10.28 4.56-2.8204 0.58983-11.111 1.6058-15.22 1.86l-4.42 0.26-0.88-1.44c-0.48224-0.79289-1.0024-2.2077-1.16-3.14-0.39418-2.3334 0.50496-3.402 3.52-3.36z" color="#000000" stroke-width=".1"/>
    </g>
   </g>
   <text transform="scale(.99811 1.0019)" x="105.65716" y="173.64729" fill="#000000" font-family="sans-serif" font-size="5.2376px" letter-spacing="0px" stroke-width=".13094" word-spacing="0px" style="line-height:1.25" xml:space="preserve"><tspan x="105.65716" y="173.64729" stroke-width=".13094">small tta</tspan></text>
   <path d="m118.2 124.26s-0.22452-29.187 0.44903-31.545c0.67356-2.3574-0.44903 0.44904 0.67356-2.3574s-0.33678 1.0103 1.1226-2.8065c1.4594-3.8168-0.11226 0 1.5716-3.8168 1.6839-3.8168 7.2968-8.4194 7.2968-8.4194" fill="none" marker-end="url(#marker7745)" stroke="#0f0" stroke-width=".26458px"/>
  </g>
 </g>
</svg>
