<svg width="24.966mm" height="74.935mm" version="1.1" viewBox="0 0 24.966 74.935" xmlns="http://www.w3.org/2000/svg">
 <defs>
  <marker id="Arrow1Lend" overflow="visible" orient="auto">
   <path transform="matrix(-.8 0 0 -.8 -10 0)" d="m0 0 5-5-17.5 5 17.5 5z" fill="#00ab00" fill-rule="evenodd" stroke="#00ab00" stroke-width="1pt"/>
  </marker>
 </defs>
 <g transform="translate(-43.66 -63.692)">
  <path class="shp0" d="m57.371 80.546c2.1636-3.0983 2.8166-3.8927 6.2745-6.4413 2.1868 1.7671 1.6267 1.3376 4.6478 3.8648-7.6689 7.5148-10.922 12.024-10.922 24.906z" fill="#999" stroke="#000" stroke-width=".44675" style="paint-order:stroke fill markers"/>
  <path class="shp1" d="m43.66 63.692h13.711v74.934h-13.711z" fill="#999" stroke-width=".26171"/>
  <path class="shp4" d="m50.631 88.469h0.46478v2.1023h-0.46478zm0 3.0034h0.46478v2.1023h-0.46478zm0 3.0034h0.46478v2.1023h-0.46478zm0 3.0034h0.46478v2.1023h-0.46478zm0 3.0034h0.46478v2.1023h-0.46478zm0-27.03h0.46478v2.1023h-0.46478zm0 3.0034h0.46478v2.1023h-0.46478zm0 3.0034h0.46478v2.1023h-0.46478zm0 3.0034h0.46478v2.1023h-0.46478zm0 3.0034h0.46478v2.1023h-0.46478zm0-21.023h0.46478v2.1023h-0.46478zm0 3.0034h0.46478v2.1023h-0.46478zm0 3.0034h0.46478v2.1023h-0.46478zm0 45.05h0.46478v2.1023h-0.46478zm0 3.0034h0.46478v2.1023h-0.46478zm0 3.0034h0.46478v2.1023h-0.46478zm0 3.0034h0.46478v2.1023h-0.46478zm0 3.0034h0.46478v2.1023h-0.46478zm0-24.026h0.46478v2.1023h-0.46478zm0 3.0034h0.46478v2.1023h-0.46478zm0 3.0034h0.46478v2.1023h-0.46478zm0 3.0034h0.46478v2.1023h-0.46478zm0 18.02h0.46478v2.1023h-0.46478zm0 3.0034h0.46478v2.1024h-0.46478zm0 3.0034h0.46478v2.1023h-0.46478z" fill="#cc0" stroke-width=".26419"/>
  <path d="m54.76 102.88-0.26872 15.626" fill="none" stroke="#000" stroke-dasharray="1.39867964, 0.46622654" stroke-width=".46623"/>
  <text transform="scale(.94252 1.061)" x="62.15617" y="107.07237" fill="#000000" font-family="sans-serif" font-size="5.9494px" letter-spacing="0px" stroke-width=".14874" word-spacing="0px" style="line-height:1.25" xml:space="preserve"><tspan x="62.15617" y="107.07237" stroke-width=".14874" style="white-space:pre">$di</tspan></text>
  <path d="m57.126 103.12-1.9388-0.0485" fill="none" stroke="#000" stroke-dasharray="0.10662645, 0.10662645" stroke-width=".10663"/>
  <path d="m57.263 117.61c-1.5e-5 -8.4e-4 -4.64e-4 -4e-3 -5.13e-4 -6e-3 -4.98e-4 -0.0208-0.0024-0.0948-0.01232-0.13515-0.01106-0.0451-0.02611-0.0902-0.05184-0.12993-0.03848-0.0594-0.09345-0.10947-0.14936-0.15554-0.04666-0.0384-0.10121-0.0679-0.15346-0.0996-0.02101-0.0128-0.04065-0.0292-0.06467-0.036-0.0033-9.5e-4 -0.0063-2e-3 -0.0098-3e-3 -0.0023-0.74112-8e-3 -1.4822-0.02618-2.2231-0.01609-0.44485-0.25796-0.88125-0.66672-1.1248-0.13176-0.10437-0.28737-0.17105-0.45577-0.20107-0.50692-0.17351-1.0595-0.0994-1.5885-0.11523-0.4219-0.0147-0.84623 0.0671-1.2216 0.24374-0.3503 0.20534-0.66279 0.51231-0.72626 0.90479-0.12373 0.54987-0.05347 1.1162-0.07391 1.6735 6.75e-4 0.28106 4.67e-4 0.56208 5.13e-4 0.84314-0.0022 4.8e-4 -0.0041 1e-3 -0.0062 2e-3 -0.02402 7e-3 -0.04366 0.0233-0.06467 0.036-0.05226 0.0317-0.1068 0.0611-0.15346 0.0996-0.05591 0.0461-0.11087 0.0962-0.14936 0.15554-0.02573 0.0397-0.04078 0.0848-0.05184 0.12993-0.0099 0.0404-0.01182 0.11434-0.01232 0.13515-0.0021 9e-3 -2.77e-4 0.0194 0.0051 0.0261 0.0054 7e-3 0.01074 9e-3 0.0231 0.0104 0.01235 2e-3 0.01769-2e-5 0.04876-8e-3 0.03107-8e-3 0.08519-0.0257 0.13447-0.0451 0.04929-0.0194 0.11693-0.0516 0.15962-0.073 0.0273-0.0137 0.04793-0.0249 0.06672-0.0356-1.79e-4 0.36563-1.79e-4 0.73118-5.13e-4 1.0968-0.0018 1e-3 -0.0038 3e-3 -0.0056 4e-3 -0.0096 8e-3 -0.02238 0.0207-0.03131 0.0441-0.0089 0.0234-0.0064 0.0246-0.01027 0.0958-0.0038 0.0712-0.0025 0.25161 1e-3 0.30444 0.0035 0.0528 0.0044 0.0622 0.0154 0.0882 0.0089 0.021 0.01315 0.0366 0.03028 0.0398-1.54e-4 0.5571 5.39e-4 1.1145 0.0031 1.6716-0.0075 0.0205-0.0056 0.0251-0.0092 0.0929-0.0038 0.0712-0.0025 0.25209 1e-3 0.30491 0.0029 0.0436 0.0043 0.0577 0.01078 0.0759 0.0031 0.46026 0.0078 0.92065 0.01488 1.3809-8.21e-4 0.32185 0.21632 0.64168 0.55124 0.74973 0.73678 0.27594 1.5537 0.27096 2.3363 0.24279 0.51105-0.036 1.0487-0.097 1.49-0.35281 0.35145-0.22924 0.36185-0.67103 0.36031-1.0309 0.0038-0.33892 0.0053-0.67774 0.0062-1.0167 0.0017-0.0115 0.0031-0.0256 0.0046-0.0489 0.0035-0.0528 0.0049-0.23371 1e-3 -0.30491-0.0025-0.0467-0.0025-0.0624-0.0046-0.0749 1.29e-4 -0.43404-1e-3 -0.86811-1e-3 -1.3022-7.55e-4 -0.12897-0.0011-0.25799-0.0015-0.38695 0.01811-3e-3 0.02224-0.0189 0.03131-0.0403 0.01099-0.026 0.01188-0.0354 0.0154-0.0882 0.0035-0.0528 0.0049-0.23324 1e-3 -0.30444-0.0038-0.0712-0.0013-0.0724-0.01026-0.0958-0.0089-0.0234-0.02168-0.0357-0.03131-0.0441l-0.0072-6e-3c-5.06e-4 -0.36563-9.96e-4 -0.7312-0.0015-1.0968 0.01944 0.0112 0.04073 0.0226 0.06929 0.037 0.04269 0.0214 0.11034 0.0536 0.15962 0.073 0.04928 0.0194 0.10341 0.0375 0.13447 0.0451 0.03107 8e-3 0.0364 9e-3 0.04876 8e-3 0.01235-2e-3 0.01769-4e-3 0.0231-0.0104 0.0037-5e-3 0.0054-0.0107 0.0056-0.0171 5.2e-5 -1e-3 5.2e-5 -2e-3 0-3e-3zm-0.43832 1.2467c1.54e-4 0.0135 1.54e-4 0.0288-5.13e-4 0.0436-5.2e-5 -0.021 5.1e-5 -0.042 0-0.0631 2.82e-4 7e-3 4.41e-4 0.0136 5.13e-4 0.0195zm-0.18785 3.8321c0.0026 0.0944-0.01276 0.20095-0.04465 0.25844-0.07809 0.14076-0.19839 0.22518-0.368 0.25797-0.05536 0.0107-0.1358 0.0362-0.17913 0.0564-0.12887 0.0602-0.31519 0.11557-0.37108 0.11049l-0.05184-5e-3 0.04773-0.047c0.02618-0.0258 0.10144-0.0699 0.16732-0.0977 0.38138-0.16057 0.60351-0.375 0.7278-0.70182 0.01081-0.0284 0.01201-0.0282 0.03336-1e-3 0.02377 0.0298 0.0365 0.0958 0.03849 0.16929zm-0.03234-5.0821c2.05e-4 0.0306 7.7e-5 0.0655 0 0.10433-5.39e-4 0.25887-0.0067 0.69002-0.01694 1.1419l-0.0072 0.32247-0.21352 0.12566c-0.1172 0.069-0.2243 0.12749-0.23815 0.12993-0.02486 4e-3 -0.02481 3e-3 -0.0231-0.0972 9.54e-4 -0.056 0.0055-0.2019 0.01027-0.32388 0.01356-0.34459 0.07333-0.87596 0.13601-1.2116l0.02464-0.1342 0.07288-0.0431c0.03991-0.0238 0.1097-0.068 0.15552-0.0982 0.04582-0.0302 0.08809-0.0566 0.09393-0.0588 0.0029-1e-3 5e-3 0.0511 0.0056 0.14273zm-0.01181-3.025c-1e-6 0.0246 1.54e-4 0.0526 0 0.0844-0.0015 0.34252-0.03 0.40367-0.12575 0.27267-0.05532-0.0757-0.37565-0.56296-0.49991-0.76016-0.10564-0.16767-0.1665-0.23372-0.28434-0.30871-0.04744-0.0302-0.0968-0.076-0.11035-0.10243-0.02518-0.049-0.03255-0.12546-0.01386-0.14274 0.0058-5e-3 0.05222-0.01 0.10316-0.01 0.09894 0 0.17289 0.0278 0.34388 0.12803 0.1407 0.0825 0.33785 0.24301 0.41522 0.33811 0.03958 0.0487 0.09495 0.1425 0.12267 0.20865 0.04377 0.1045 0.04928 0.1196 0.04927 0.29212zm-0.02104 5.157c1.02e-4 0.0391-0.0015 0.10062-0.0041 0.19584-0.02177 0.79921-0.04089 1.319-0.04825 1.3254-0.01232 0.0107-0.21077 0.0403-0.27049 0.0403-0.09304 0-0.09041 7e-3 -0.10727-0.28974-0.01128-0.19837-0.03665-0.95015-0.03798-1.1291-1.29e-4 -0.0174 0.03726-0.0365 0.21557-0.11049 0.11854-0.0492 0.2246-0.0928 0.23558-0.0967 0.01187-4e-3 0.01677-6.7e-4 0.01694 0.0645zm-0.12421 1.9997c6.06e-4 0.0173-7.31e-4 0.0386-0.0031 0.0659-0.0092 0.10694-0.04815 0.36068-0.05748 0.37462-0.02004 0.03-0.07925-0.12422-0.12062-0.31298-0.03079-0.14048-0.03259-0.15682-0.01745-0.19158 0.01406-0.0323 0.05633-0.0387 0.12216-0.0185 0.05595 0.0172 0.07466 0.0308 0.07647 0.0825zm-0.09598-5.6602c0 0.0456-0.29956 1.3044-0.36236 1.5227-0.04234 0.14719-0.14126 0.41764-0.21967 0.60083-0.17842 0.41678-0.23918 0.62998-0.23918 0.84029 0 0.16009-0.0046 0.16934-0.15654 0.30065l-0.15654 0.13515h-1.5526l-0.15244-0.13183-0.15192-0.13136-0.01642-0.25512c-0.01272-0.20122-0.04077-0.3134-0.13293-0.53206-0.22967-0.54487-0.34165-0.89967-0.49427-1.5611-0.08516-0.36907-0.16212-0.70028-0.17091-0.73597-0.01288-0.0523 0.0069-0.0756 0.10265-0.12045 0.14717-0.069 0.65946-0.22065 0.89255-0.26413 0.5141-0.0959 1.4283-0.0884 1.879 0.0152 0.42033 0.0966 0.93156 0.27068 0.93156 0.31725zm-0.16168 6.7622c0.0043 0.0805-0.07099 0.10488-0.24893 0.19253-0.48395 0.23841-0.90076 0.31059-1.6681 0.28832-0.602-0.0175-0.83335-0.0648-1.2575-0.25749-0.3696-0.16794-0.37211-0.17234-0.24431-0.42015 0.05793-0.11234 0.13603-0.27998 0.17348-0.37226 0.03745-0.0923 0.07379-0.16787 0.08058-0.16787 0.0068 0 0.11017 0.0458 0.22994 0.10148 0.37591 0.1749 0.67473 0.23224 1.2015 0.23047 0.52735-2e-3 0.78929-0.0532 1.1682-0.22952 0.12534-0.0583 0.23161-0.10178 0.2361-0.0967 0.0045 5e-3 0.08802 0.17858 0.1858 0.38554 0.08827 0.18684 0.13988 0.2831 0.1432 0.34569zm-2.846-9.1812c0.0011 0.0116-0.0011 0.0259-0.0056 0.0436-0.02244 0.0867-0.03326 0.0994-0.14217 0.17261-0.12921 0.0868-0.17198 0.13631-0.30693 0.35186-0.19998 0.31943-0.49131 0.74899-0.51839 0.76443-0.05805 0.0331-0.06775-6e-3 -0.07134-0.3016-3e-3 -0.24384 5.67e-4 -0.2901 0.02669-0.3566 0.08734-0.2224 0.2503-0.39941 0.52147-0.56621 0.19958-0.12276 0.27254-0.15183 0.38135-0.15222 0.07973-2.9e-4 0.11168 9e-3 0.11497 0.0441zm-0.08263 9.708-0.04722 4e-3c-0.05472 5e-3 -0.2623-0.0562-0.36493-0.10812-0.03832-0.0194-0.11989-0.0451-0.18118-0.0569-0.26091-0.0503-0.42277-0.23647-0.4183-0.48037 8.88e-4 -0.0487 0.0065-0.10843 0.01283-0.13278 0.0063-0.0243 0.01929-0.057 0.02874-0.0726 0.01608-0.0266 0.01816-0.0255 0.03593 0.0152 0.08275 0.18938 0.15139 0.29356 0.25817 0.3936 0.12745 0.1194 0.24571 0.1945 0.46039 0.29163 0.08155 0.0369 0.16364 0.0845 0.18221 0.10623zm-0.47887-3.5072-0.0026 0.20676c-0.0031 0.25097-0.0218 0.74448-0.03798 1.0115-0.0096 0.1591-0.01516 0.19819-0.02977 0.20866-0.02483 0.0178-0.12288 0.0159-0.24226-5e-3l-0.10008-0.018-0.0077-0.0465c-0.0074-0.045-0.02465-0.58266-0.03952-1.231-0.0052-0.22464-0.0038-0.31769 0.0046-0.31487 0.0066 2e-3 0.11168 0.0455 0.23353 0.0963zm-0.0046-0.61078c2.05e-4 0.11132-0.0046 0.18352-0.01591 0.18352-0.01463 0-0.41207-0.22724-0.44037-0.2518-0.01395-0.0121-0.02144-0.27628-0.04003-1.4269l-0.0051-0.30112 0.06313 0.0422c0.03466 0.0234 0.10986 0.0705 0.16681 0.1048 0.06316 0.038 0.10565 0.0709 0.10881 0.0839 0.02828 0.11685 0.09268 0.56324 0.12164 0.84125 0.02554 0.24509 0.04071 0.5386 0.04106 0.72411zm-0.1355 2.4796c-6.47e-4 0.0429-0.01196 0.10378-0.03233 0.18684-0.05102 0.20804-0.10132 0.31312-0.11702 0.24374-0.01514-0.0669-0.04121-0.26345-0.04773-0.36087l-0.0067-0.1048 0.03695-0.0209c0.02035-0.0114 0.05665-0.0238 0.08058-0.0275 0.05988-9e-3 0.08731 0.012 0.08623 0.0835z" color="#000000" fill="#00f" stroke-width=".024667"/>
  <path d="m54.76 102.88s-0.52264-11.801 0.42991-13.309c0.27536-0.43599 1.0485-3.1293 2.1636-4.4278 2.7423-3.1932 6.8348-7.6348 8.0763-9.3842" fill="none" marker-end="url(#Arrow1Lend)" stroke="#00ab00" stroke-width=".26458px"/>
 </g>
</svg>
