<?xml version="1.0" encoding="UTF-8" standalone="no"?>
<!-- Created with Inkscape (http://www.inkscape.org/) -->

<svg
   xmlns:dc="http://purl.org/dc/elements/1.1/"
   xmlns:cc="http://creativecommons.org/ns#"
   xmlns:rdf="http://www.w3.org/1999/02/22-rdf-syntax-ns#"
   xmlns:svg="http://www.w3.org/2000/svg"
   xmlns="http://www.w3.org/2000/svg"
   xmlns:sodipodi="http://sodipodi.sourceforge.net/DTD/sodipodi-0.dtd"
   xmlns:inkscape="http://www.inkscape.org/namespaces/inkscape"
   width="24.965847mm"
   height="74.934975mm"
   version="1.1"
   viewBox="0 0 24.965847 74.934977"
   id="svg8772"
   sodipodi:docname="guide.fork.tgt-left.svg"
   inkscape:version="0.92.4 (unknown)">
  <defs
     id="defs8776">
    <marker
       inkscape:stockid="Arrow1Lend"
       orient="auto"
       refY="0"
       refX="0"
       id="Arrow1Lend"
       style="overflow:visible"
       inkscape:isstock="true">
      <path
         id="path10544"
         d="M 0,0 5,-5 -12.5,0 5,5 Z"
         style="fill:#00ab00;fill-opacity:1;fill-rule:evenodd;stroke:#00ab00;stroke-width:1.00000003pt;stroke-opacity:1"
         transform="matrix(-0.8,0,0,-0.8,-10,0)"
         inkscape:connector-curvature="0" />
    </marker>
  </defs>
  <sodipodi:namedview
     pagecolor="#ffffff"
     bordercolor="#666666"
     borderopacity="1"
     objecttolerance="10"
     gridtolerance="10"
     guidetolerance="10"
     inkscape:pageopacity="0"
     inkscape:pageshadow="2"
     inkscape:window-width="3706"
     inkscape:window-height="2049"
     id="namedview8774"
     showgrid="false"
     fit-margin-top="0"
     fit-margin-left="0"
     fit-margin-right="0"
     fit-margin-bottom="0"
     inkscape:zoom="3.3331555"
     inkscape:cx="96.305088"
     inkscape:cy="100.96962"
     inkscape:window-x="134"
     inkscape:window-y="55"
     inkscape:window-maximized="1"
     inkscape:current-layer="g8770" />
  <metadata
     id="metadata8748">
    <rdf:RDF>
      <cc:Work
         rdf:about="">
        <dc:format>image/svg+xml</dc:format>
        <dc:type
           rdf:resource="http://purl.org/dc/dcmitype/StillImage" />
        <dc:title></dc:title>
      </cc:Work>
    </rdf:RDF>
  </metadata>
  <g
     transform="translate(-43.659626,-63.691547)"
     id="g8770">
    <path
       inkscape:connector-curvature="0"
       id="path8750-9"
       style="fill:#999999;stroke:#000000;stroke-width:0.44675028;paint-order:stroke fill markers"
       d="m 57.370636,80.546277 c 2.163551,-3.09826 2.816567,-3.89269 6.27453,-6.4413 2.18679,1.76707 1.62673,1.33765 4.647802,3.86478 -7.668872,7.51485 -10.922332,12.02376 -10.922332,24.906363 z"
       class="shp0" />
    <path
       style="fill:#999999;stroke-width:0.26170632"
       inkscape:connector-curvature="0"
       id="path8752-5"
       d="m 43.659626,63.691547 h 13.71101 v 74.933793 h -13.71101 z"
       class="shp1" />
    <path
       style="fill:#cccc00;stroke-width:0.26418579"
       inkscape:connector-curvature="0"
       id="path8754-0"
       d="m 50.631326,88.469077 h 0.46478 v 2.10233 h -0.46478 z m 0,3.00337 h 0.46478 v 2.10233 h -0.46478 z m 0,3.00336 h 0.46478 v 2.10233 h -0.46478 z m 0,3.00336 h 0.46478 v 2.10233 h -0.46478 z m 0,3.003363 h 0.46478 v 2.10234 h -0.46478 z m 0,-27.029833 h 0.46478 v 2.10233 h -0.46478 z m 0,3.00336 h 0.46478 v 2.10233 h -0.46478 z m 0,3.00336 h 0.46478 v 2.10233 h -0.46478 z m 0,3.00337 h 0.46478 v 2.10233 h -0.46478 z m 0,3.00336 h 0.46478 v 2.10233 h -0.46478 z m 0,-21.02333 h 0.46478 v 2.10233 h -0.46478 z m 0,3.00336 h 0.46478 v 2.10234 h -0.46478 z m 0,3.00337 h 0.46478 v 2.10233 h -0.46478 z m 0,45.050453 h 0.46478 v 2.10233 h -0.46478 z m 0,3.00336 h 0.46478 v 2.10233 h -0.46478 z m 0,3.00336 h 0.46478 v 2.10234 h -0.46478 z m 0,3.00337 h 0.46478 v 2.10233 h -0.46478 z m 0,3.00336 h 0.46478 v 2.10233 h -0.46478 z m 0,-24.02605 h 0.46478 v 2.10233 h -0.46478 z m 0,3.00336 h 0.46478 v 2.10234 h -0.46478 z m 0,3.00337 h 0.46478 v 2.10233 h -0.46478 z m 0,3.00336 h 0.46478 v 2.10233 h -0.46478 z m 0,18.01997 h 0.46478 v 2.10233 h -0.46478 z m 0,3.00336 h 0.46478 v 2.10236 h -0.46478 z m 0,3.00336 h 0.46478 v 2.10234 h -0.46478 z"
       class="shp4" />
    <path
       style="fill:none;stroke:#000000;stroke-width:0.46623412;stroke-dasharray:1.39867964, 0.46622654"
       inkscape:connector-curvature="0"
       id="path8762-1"
       d="m 54.760085,102.87873 -0.268717,15.62598" />
    <text
       id="text8766-7"
       xml:space="preserve"
       style="font-size:5.9494195px;line-height:1.25;font-family:sans-serif;letter-spacing:0px;word-spacing:0px;fill:#000000;stroke-width:0.14873548"
       word-spacing="0px"
       letter-spacing="0px"
       font-size="40px"
       y="107.07237"
       x="62.15617"
       transform="scale(0.94251755,1.0609882)"><tspan
         id="tspan8764-2"
         style="white-space:pre;stroke-width:0.14873548"
         y="107.07237"
         x="62.15617">$di</tspan></text>
    <path
       inkscape:connector-curvature="0"
       id="path8795-7"
       d="m 57.125653,103.11647 -1.938836,-0.0485"
       style="fill:none;stroke:#000000;stroke-width:0.10662644;stroke-linecap:butt;stroke-linejoin:miter;stroke-miterlimit:4;stroke-dasharray:0.10662645, 0.10662645;stroke-dashoffset:0;stroke-opacity:1" />
    <g
       id="g8758-2-2"
       style="fill:#0000ff"
       transform="matrix(0,0.02371043,-0.02566283,0,74.88093,112.45954)">
      <path
         d="m 217.14,686.5 c -0.0357,6e-4 -0.14981,0.0181 -0.24,0.02 -0.87778,0.0194 -3.9977,0.0945 -5.7,0.48 -1.9034,0.43104 -3.8056,1.0175 -5.48,2.02 -2.5047,1.4996 -4.6168,3.6414 -6.56,5.82 -1.6217,1.8182 -2.8624,3.9437 -4.2,5.98 -0.53772,0.81863 -1.2318,1.5839 -1.52,2.52 -0.0398,0.12911 -0.093,0.24477 -0.12,0.38 -31.257,0.0882 -62.513,0.31019 -93.76,1.02 -18.762,0.62707 -37.167,10.052 -47.44,25.98 -4.4018,5.1342 -7.2141,11.198 -8.48,17.76 -7.318,19.753 -4.1911,41.284 -4.86,61.9 -0.62141,16.44 2.8314,32.975 10.28,47.6 8.6601,13.65 21.607,25.827 38.16,28.3 23.191,4.8213 47.076,2.0836 70.58,2.88 11.854,-0.0263 23.706,-0.0182 35.56,-0.02 0.0203,0.0847 0.0548,0.15807 0.08,0.24 0.28824,0.93606 0.98228,1.7014 1.52,2.52 1.3376,2.0363 2.5783,4.1618 4.2,5.98 1.9432,2.1786 4.0553,4.3204 6.56,5.82 1.6744,1.0025 3.5766,1.589 5.48,2.02 1.7023,0.38547 4.8222,0.46069 5.7,0.48 0.39521,0.0811 0.81989,0.0108 1.1,-0.2 0.28011,-0.21079 0.36846,-0.41857 0.44,-0.9 0.0715,-0.48141 -6e-4,-0.68937 -0.32,-1.9 -0.31915,-1.2106 -1.082,-3.3195 -1.9,-5.24 -0.81803,-1.9205 -2.1758,-4.5565 -3.08,-6.22 -0.57813,-1.0637 -1.048,-1.8677 -1.5,-2.6 15.421,0.007 30.838,0.007 46.26,0.02 0.0542,0.0712 0.11147,0.14771 0.18,0.22 0.35576,0.37523 0.87286,0.87216 1.86,1.22 0.98715,0.34784 1.0368,0.25022 4.04,0.4 3.0032,0.14979 10.612,0.0969 12.84,-0.04 2.2283,-0.13693 2.6251,-0.17186 3.72,-0.6 0.88435,-0.3458 1.5444,-0.51239 1.68,-1.18 23.496,0.006 47.005,-0.021 70.5,-0.12 0.86375,0.29284 1.0588,0.21734 3.92,0.36 3.0029,0.14979 10.632,0.0969 12.86,-0.04 1.8375,-0.11291 2.4355,-0.16667 3.2,-0.42 19.412,-0.12141 38.829,-0.30509 58.24,-0.58 13.574,0.032 27.063,-8.4293 31.62,-21.48 11.638,-28.71 11.428,-60.541 10.24,-91.04 -1.52,-19.914 -4.0893,-40.864 -14.88,-58.06 -9.6684,-13.695 -28.301,-14.1 -43.48,-14.04 -14.294,-0.14953 -28.584,-0.20843 -42.88,-0.24 -0.4857,-0.0644 -1.0783,-0.11966 -2.06,-0.18 -2.2283,-0.13683 -9.8571,-0.18976 -12.86,-0.04 -1.9711,0.0983 -2.6331,0.0978 -3.1601,0.18 -18.306,-0.005 -36.613,0.0394 -54.92,0.04 -5.4394,0.0294 -10.881,0.0422 -16.32,0.06 -0.11418,-0.70563 -0.79635,-0.86663 -1.7,-1.22 -1.0949,-0.42816 -1.4917,-0.4631 -3.72,-0.6 -2.2283,-0.13689 -9.8369,-0.18982 -12.84,-0.04 -3.0032,0.14976 -3.0528,0.0522 -4.04,0.4 -0.98714,0.34784 -1.5042,0.84477 -1.86,1.22 -0.0889,0.0938 -0.17716,0.18699 -0.24,0.28 -15.421,0.0197 -30.839,0.0388 -46.26,0.06 0.47103,-0.75771 0.95512,-1.5871 1.56,-2.7 0.90417,-1.6636 2.262,-4.2995 3.08,-6.22 0.81803,-1.9204 1.5808,-4.0294 1.9,-5.24 0.3194,-1.2107 0.39154,-1.4185 0.32,-1.9 -0.0715,-0.48141 -0.15989,-0.68925 -0.44,-0.9 -0.19148,-0.14425 -0.45165,-0.21013 -0.72,-0.22 -0.0456,-0.002 -0.0939,-0.002 -0.14,0 z m 52.58,17.08 c 0.56925,-0.006 1.2162,-0.006 1.84,0.02 -0.88726,0.002 -1.7727,-0.002 -2.66,0 0.28238,-0.011 0.57178,-0.0172 0.82,-0.02 z m 161.62,7.32 c 3.9836,-0.10006 8.4751,0.49707 10.9,1.74 5.9366,3.043 9.4971,7.7307 10.88,14.34 0.45127,2.1573 1.5267,5.2919 2.38,6.98 2.5384,5.0216 4.8743,12.282 4.66,14.46 l -0.20006,2.02 -1.98,-1.86 c -1.0881,-1.0202 -2.95,-3.9526 -4.12,-6.52 -6.7725,-14.861 -15.816,-23.517 -29.6,-28.36 -1.1994,-0.42138 -1.1905,-0.46785 -0.0602,-1.3 1.2583,-0.92616 4.0417,-1.4222 7.14,-1.5 z M 217,712.16 c 1.2888,-0.008 2.7623,-0.003 4.4,0 10.918,0.021 29.102,0.26157 48.16,0.66 l 13.6,0.28 5.3,8.32 c 2.9112,4.5669 5.3768,8.7401 5.48,9.28 0.18515,0.96863 0.13594,0.96669 -4.1,0.9 -2.3609,-0.0372 -8.5154,-0.213 -13.66,-0.4 -14.533,-0.52824 -36.944,-2.8573 -51.1,-5.3 l -5.66,-0.96 -1.82,-2.84 c -1.0021,-1.5553 -2.8663,-4.2745 -4.14,-6.06 -1.2737,-1.7855 -2.3873,-3.4326 -2.48,-3.66 -0.0463,-0.11365 2.1537,-0.19541 6.02,-0.22 z m -127.58,0.46 c 1.0394,5e-5 2.2193,-0.006 3.56,0 14.446,0.0595 17.025,1.1689 11.5,4.9 -3.1921,2.1556 -23.743,14.638 -32.06,19.48 -7.0716,4.1166 -9.8572,6.4878 -13.02,11.08 -1.2731,1.8484 -3.2068,3.7718 -4.32,4.3 -2.0674,0.98104 -5.2915,1.2685 -6.02,0.54 -0.2256,-0.2256 -0.42,-2.0348 -0.42,-4.02 0,-3.8555 1.1713,-6.7369 5.4,-13.4 3.4796,-5.4828 10.249,-13.165 14.26,-16.18 2.0517,-1.5423 6.0099,-3.7001 8.8,-4.78 4.4071,-1.7057 5.0439,-1.9203 12.32,-1.92 z m 217.5,0.82 c 1.649,-0.004 4.2441,0.059 8.26,0.16 33.707,0.84835 55.631,1.5933 55.9,1.88 0.45107,0.48013 1.7,8.2131 1.7,10.54 0,3.6255 0.2832,3.5231 -12.22,4.18 -8.3664,0.43955 -40.073,1.428 -47.62,1.48 -0.73446,0.005 -1.5411,-1.4521 -4.66,-8.4 -2.0735,-4.6193 -3.9156,-8.7518 -4.08,-9.18 -0.17735,-0.46263 -0.0282,-0.65358 2.72,-0.66 z m 84.34,4.84 c 0.72762,-0.0236 1.6291,0.0285 2.78,0.12 4.5105,0.35861 15.212,1.8764 15.8,2.24 1.2634,0.78093 -5.2392,3.0881 -13.2,4.7 -5.9252,1.1997 -6.614,1.27 -8.08,0.68 -1.3621,-0.54802 -1.6319,-2.1951 -0.78003,-4.76 0.7241,-2.1802 1.2972,-2.9092 3.48,-2.98 z m -238.72,3.74 c 1.925,0 55.013,11.673 64.22,14.12 6.2075,1.6499 17.614,5.5045 25.34,8.56 17.578,6.9523 26.57,9.32 35.44,9.32 6.7519,0 7.1418,0.17929 12.68,6.1 l 5.7,6.1 v 30.24 30.26 l -5.56,5.94 -5.54,5.92 -10.76,0.64 c -8.4866,0.49582 -13.218,1.5887 -22.44,5.18 -22.98,8.9494 -37.944,13.313 -65.84,19.26 -15.566,3.3183 -29.535,6.3172 -31.04,6.66 -2.2039,0.50201 -3.1879,-0.27063 -5.08,-4 -2.9094,-5.7346 -9.306,-25.697 -11.14,-34.78 -4.0447,-20.033 -3.7272,-55.656 0.64,-73.22 4.0727,-16.379 11.416,-36.3 13.38,-36.3 z m 285.2,6.3 c 3.3947,-0.16631 4.4232,2.7662 8.12,9.7 10.055,18.858 13.099,35.1 12.16,65 -0.7367,23.458 -2.7319,32.473 -10.86,49 -7.0826,14.402 -7.2684,14.5 -17.72,9.52 -4.7377,-2.2573 -11.808,-5.3008 -15.7,-6.76 -3.892,-1.4592 -7.08,-2.8754 -7.08,-3.14 0,-0.2646 1.9299,-4.2931 4.28,-8.96 7.3764,-14.648 9.7945,-26.292 9.72,-46.82 -0.0746,-20.549 -2.2448,-30.756 -9.68,-45.52 -2.4597,-4.8843 -4.2926,-9.025 -4.08,-9.2 0.21267,-0.17501 7.5317,-3.4299 16.26,-7.24 7.8802,-3.4397 11.94,-5.4506 14.58,-5.58 z M 50.52,839.22 c 0.48822,-0.0427 1.0925,0.0414 1.84,0.22 3.6588,0.87423 4.1932,1.2961 7.28,5.54 3.6622,5.035 5.749,6.7014 14.84,11.96 13.472,7.7926 31.589,19.145 32.24,20.2 1.3948,2.2619 -0.26505,2.6402 -12.72,2.78 -10.284,0.11546 -12.235,-0.0221 -15.04,-1.04 -9.3796,-3.4034 -16.845,-9.7532 -23.88,-20.32 -5.1775,-7.7769 -6.4035,-10.62 -6.42,-14.86 -0.01216,-3.107 0.39534,-4.352 1.86,-4.48 z m 409.44,3.22 0.18003,1.84 c 0.21709,2.1323 -2.3699,10.221 -4.56,14.22 -0.81773,1.4933 -1.9021,4.6719 -2.4,7.06 -2.1198,10.167 -9.9732,16.474 -20.26,16.3 -2.0535,-0.0346 -4.5732,-0.25391 -5.6,-0.5 -1.0267,-0.24609 -2.4022,-0.75186 -3.06,-1.12 -1.1195,-0.62647 -1.0751,-0.7076 0.64,-1.4 7.9869,-3.2245 12.381,-5.8991 16.6,-10.06 5.0361,-4.9665 8.2035,-9.5746 12.3,-17.94 1.5561,-3.1777 3.5646,-6.3766 4.48,-7.1 z m -147.92,18.66 8.72,0.1 c 10.585,0.11951 31.399,0.84934 42.66,1.48 6.7099,0.3758 8.3586,0.59064 8.8,1.16 0.75008,0.96743 0.67104,4.7881 -0.21997,9.44 l -0.76006,3.9 -1.9599,0.3 c -1.8991,0.28723 -24.574,0.96055 -51.92,1.54 -9.4745,0.20075 -13.399,0.14826 -13.28,-0.18 0.0927,-0.25608 1.9199,-4.3517 4.06,-9.1 z m -25.76,0.18 c 4.6947,-0.008 7.74,0.17931 7.74,0.62 0,0.57002 -9.5838,16.057 -10.62,17.16 -0.51059,0.54346 -11.652,0.83563 -60.18,1.56 l -12.7,0.2 1.78,-2.46 c 0.9853,-1.3508 2.9755,-4.2807 4.42,-6.5 1.6018,-2.461 2.9892,-4.1169 3.54,-4.24 4.9283,-1.1018 23.755,-3.6113 35.48,-4.74 10.337,-0.99511 22.716,-1.5863 30.54,-1.6 z m 104.58,5.28 c 1.809,0.0252 4.377,0.46624 7.88,1.26 8.7743,1.9882 13.206,3.9481 10.28,4.56 -2.8204,0.58983 -11.111,1.6058 -15.22,1.86 l -4.42,0.26 -0.88,-1.44 c -0.48224,-0.79289 -1.0024,-2.2077 -1.16,-3.14 -0.39418,-2.3334 0.50496,-3.402 3.52,-3.36 z"
         id="path8756-6-6"
         inkscape:connector-curvature="0"
         style="color:#000000" />
    </g>
    <path
       style="fill:none;stroke:#00ab00;stroke-width:0.26458335;stroke-linecap:butt;stroke-linejoin:miter;stroke-miterlimit:4;stroke-dasharray:none;stroke-opacity:1;marker-end:url(#Arrow1Lend)"
       d="m 54.760085,102.87873 0.02037,-37.70395"
       id="path10906"
       inkscape:connector-curvature="0" />
  </g>
</svg>
